ISO-10303-21;
HEADER;
/* Generated by software containing ST-Developer
 * from STEP Tools, Inc. (www.steptools.com) 
 */

FILE_DESCRIPTION(
/* description */ ('Cheese Head Screw DIN 84 - M3 x 6'),
/* implementation_level */ '2;1');

FILE_NAME(
/* name */ 
'Cheese Head Screw DIN 84 - M3 x 6 Stainless Steel A2 Plain.step',
/* time_stamp */ '2026-05-23T13:55:26+02:00',
/* author */ (''),
/* organization */ (''),
/* preprocessor_version */ 'ST-DEVELOPER v20.1',
/* originating_system */ 'Autodesk Translation Framework v15.8.0.0',
/* authorisation */ '');

FILE_SCHEMA (('AUTOMOTIVE_DESIGN { 1 0 10303 214 3 1 1 }'));
ENDSEC;

DATA;
#10=MECHANICAL_DESIGN_GEOMETRIC_PRESENTATION_REPRESENTATION('',(#13),#438);
#11=SHAPE_REPRESENTATION_RELATIONSHIP('SRR','None',#445,#12);
#12=ADVANCED_BREP_SHAPE_REPRESENTATION('',(#14),#437);
#13=STYLED_ITEM('',(#454),#14);
#14=MANIFOLD_SOLID_BREP('Body1',#221);
#15=CYLINDRICAL_SURFACE('',#257,1.36468350000039);
#16=CYLINDRICAL_SURFACE('',#261,1.4635);
#17=FACE_BOUND('',#60,.T.);
#18=TOROIDAL_SURFACE('',#248,2.48338955554647,0.1);
#19=TOROIDAL_SURFACE('',#250,2.48338955554647,0.1);
#20=B_SPLINE_CURVE_WITH_KNOTS('',3,(#347,#348,#349,#350,#351,#352,#353,
#354,#355,#356),.UNSPECIFIED.,.F.,.F.,(4,2,2,2,4),(0.0447270612226393,0.0484932490276365,
0.0522330966020054,0.0559437886432949,0.0587882198730569),.UNSPECIFIED.);
#21=B_SPLINE_CURVE_WITH_KNOTS('',3,(#359,#360,#361,#362,#363,#364,#365,
#366,#367,#368),.UNSPECIFIED.,.F.,.F.,(4,2,2,2,4),(0.000843276801960679,
0.00368770803172262,0.00739840007301212,0.0111382476473811,0.0149044354523782),
 .UNSPECIFIED.);
#22=B_SPLINE_CURVE_WITH_KNOTS('',3,(#376,#377,#378,#379,#380,#381,#382,
#383,#384,#385),.UNSPECIFIED.,.F.,.F.,(4,2,2,2,4),(0.0447270658065103,0.0484812565400668,
0.0522093132261526,0.0559319981764916,0.0587881350049054),.UNSPECIFIED.);
#23=B_SPLINE_CURVE_WITH_KNOTS('',3,(#389,#390,#391,#392,#393,#394,#395,
#396,#397,#398),.UNSPECIFIED.,.F.,.F.,(4,2,2,2,4),(0.000843369777097411,
0.00369950660551122,0.00742219155585022,0.011150248241936,0.0149044389754925),
 .UNSPECIFIED.);
#24=(
BOUNDED_CURVE()
B_SPLINE_CURVE(2,(#337,#338,#339),.UNSPECIFIED.,.F.,.F.)
B_SPLINE_CURVE_WITH_KNOTS((3,3),(0.,0.0761682991700114),.UNSPECIFIED.)
CURVE()
GEOMETRIC_REPRESENTATION_ITEM()
RATIONAL_B_SPLINE_CURVE((1.,1.00008240676747,1.))
REPRESENTATION_ITEM('')
);
#25=(
BOUNDED_CURVE()
B_SPLINE_CURVE(2,(#343,#344,#345),.UNSPECIFIED.,.F.,.F.)
B_SPLINE_CURVE_WITH_KNOTS((3,3),(0.,0.0761682991700114),.UNSPECIFIED.)
CURVE()
GEOMETRIC_REPRESENTATION_ITEM()
RATIONAL_B_SPLINE_CURVE((1.,1.00008240442145,1.))
REPRESENTATION_ITEM('')
);
#26=(
BOUNDED_CURVE()
B_SPLINE_CURVE(2,(#372,#373,#374),.UNSPECIFIED.,.F.,.F.)
B_SPLINE_CURVE_WITH_KNOTS((3,3),(0.,0.0761682991700114),.UNSPECIFIED.)
CURVE()
GEOMETRIC_REPRESENTATION_ITEM()
RATIONAL_B_SPLINE_CURVE((1.,1.0000824067294,1.))
REPRESENTATION_ITEM('')
);
#27=(
BOUNDED_CURVE()
B_SPLINE_CURVE(2,(#400,#401,#402),.UNSPECIFIED.,.F.,.F.)
B_SPLINE_CURVE_WITH_KNOTS((3,3),(0.,0.0761682991700114),.UNSPECIFIED.)
CURVE()
GEOMETRIC_REPRESENTATION_ITEM()
RATIONAL_B_SPLINE_CURVE((1.,1.00008240448475,1.))
REPRESENTATION_ITEM('')
);
#28=PLANE('',#238);
#29=PLANE('',#239);
#30=PLANE('',#240);
#31=PLANE('',#244);
#32=PLANE('',#246);
#33=PLANE('',#254);
#34=PLANE('',#255);
#35=FACE_OUTER_BOUND('',#49,.T.);
#36=FACE_OUTER_BOUND('',#50,.T.);
#37=FACE_OUTER_BOUND('',#51,.T.);
#38=FACE_OUTER_BOUND('',#52,.T.);
#39=FACE_OUTER_BOUND('',#53,.T.);
#40=FACE_OUTER_BOUND('',#54,.T.);
#41=FACE_OUTER_BOUND('',#55,.T.);
#42=FACE_OUTER_BOUND('',#56,.T.);
#43=FACE_OUTER_BOUND('',#57,.T.);
#44=FACE_OUTER_BOUND('',#58,.T.);
#45=FACE_OUTER_BOUND('',#59,.T.);
#46=FACE_OUTER_BOUND('',#61,.T.);
#47=FACE_OUTER_BOUND('',#62,.T.);
#48=FACE_OUTER_BOUND('',#63,.T.);
#49=EDGE_LOOP('',(#144,#145,#146,#147));
#50=EDGE_LOOP('',(#148,#149,#150,#151,#152,#153));
#51=EDGE_LOOP('',(#154,#155,#156,#157,#158,#159));
#52=EDGE_LOOP('',(#160,#161,#162,#163,#164));
#53=EDGE_LOOP('',(#165,#166));
#54=EDGE_LOOP('',(#167,#168));
#55=EDGE_LOOP('',(#169,#170,#171,#172));
#56=EDGE_LOOP('',(#173,#174,#175,#176));
#57=EDGE_LOOP('',(#177,#178,#179,#180,#181,#182,#183,#184,#185,#186,#187,
#188));
#58=EDGE_LOOP('',(#189));
#59=EDGE_LOOP('',(#190));
#60=EDGE_LOOP('',(#191));
#61=EDGE_LOOP('',(#192,#193,#194,#195));
#62=EDGE_LOOP('',(#196,#197,#198,#199));
#63=EDGE_LOOP('',(#200,#201,#202,#203));
#64=LINE('',#332,#73);
#65=LINE('',#341,#74);
#66=LINE('',#358,#75);
#67=LINE('',#387,#76);
#68=LINE('',#403,#77);
#69=LINE('',#420,#78);
#70=LINE('',#428,#79);
#71=LINE('',#432,#80);
#72=LINE('',#434,#81);
#73=VECTOR('',#268,1.3616375);
#74=VECTOR('',#273,10.);
#75=VECTOR('',#274,10.);
#76=VECTOR('',#277,10.);
#77=VECTOR('',#278,10.);
#78=VECTOR('',#307,2.66251133647411);
#79=VECTOR('',#318,1.36468350000039);
#80=VECTOR('',#323,1.43234175000144);
#81=VECTOR('',#326,1.50000000000033);
#82=CIRCLE('',#236,1.4635);
#83=CIRCLE('',#237,1.193275);
#84=CIRCLE('',#241,2.64938803694515);
#85=CIRCLE('',#242,2.64938803694515);
#86=CIRCLE('',#243,2.64938803694515);
#87=CIRCLE('',#245,2.48338955554647);
#88=CIRCLE('',#247,2.48338955554647);
#89=CIRCLE('',#249,2.58300902535565);
#90=CIRCLE('',#251,2.58300902535565);
#91=CIRCLE('',#253,2.75);
#92=CIRCLE('',#256,1.36468349999959);
#93=CIRCLE('',#258,1.3646835000012);
#94=CIRCLE('',#260,1.4635);
#95=VERTEX_POINT('',#329);
#96=VERTEX_POINT('',#331);
#97=VERTEX_POINT('',#335);
#98=VERTEX_POINT('',#336);
#99=VERTEX_POINT('',#340);
#100=VERTEX_POINT('',#342);
#101=VERTEX_POINT('',#346);
#102=VERTEX_POINT('',#357);
#103=VERTEX_POINT('',#370);
#104=VERTEX_POINT('',#371);
#105=VERTEX_POINT('',#375);
#106=VERTEX_POINT('',#386);
#107=VERTEX_POINT('',#388);
#108=VERTEX_POINT('',#399);
#109=VERTEX_POINT('',#406);
#110=VERTEX_POINT('',#418);
#111=VERTEX_POINT('',#423);
#112=VERTEX_POINT('',#426);
#113=VERTEX_POINT('',#430);
#114=EDGE_CURVE('',#95,#95,#82,.T.);
#115=EDGE_CURVE('',#95,#96,#64,.T.);
#116=EDGE_CURVE('',#96,#96,#83,.T.);
#117=EDGE_CURVE('',#97,#98,#24,.T.);
#118=EDGE_CURVE('',#97,#99,#65,.T.);
#119=EDGE_CURVE('',#100,#99,#25,.T.);
#120=EDGE_CURVE('',#101,#100,#20,.T.);
#121=EDGE_CURVE('',#102,#101,#66,.T.);
#122=EDGE_CURVE('',#98,#102,#21,.T.);
#123=EDGE_CURVE('',#103,#104,#26,.T.);
#124=EDGE_CURVE('',#105,#103,#22,.T.);
#125=EDGE_CURVE('',#106,#105,#67,.T.);
#126=EDGE_CURVE('',#107,#106,#23,.T.);
#127=EDGE_CURVE('',#108,#107,#27,.T.);
#128=EDGE_CURVE('',#108,#104,#68,.T.);
#129=EDGE_CURVE('',#104,#97,#84,.T.);
#130=EDGE_CURVE('',#109,#108,#85,.T.);
#131=EDGE_CURVE('',#99,#109,#86,.T.);
#132=EDGE_CURVE('',#106,#105,#87,.T.);
#133=EDGE_CURVE('',#102,#101,#88,.T.);
#134=EDGE_CURVE('',#103,#107,#89,.T.);
#135=EDGE_CURVE('',#100,#98,#90,.T.);
#136=EDGE_CURVE('',#110,#110,#91,.T.);
#137=EDGE_CURVE('',#110,#109,#69,.T.);
#138=EDGE_CURVE('',#111,#111,#92,.T.);
#139=EDGE_CURVE('',#112,#112,#93,.T.);
#140=EDGE_CURVE('',#112,#111,#70,.T.);
#141=EDGE_CURVE('',#113,#113,#94,.T.);
#142=EDGE_CURVE('',#113,#112,#71,.T.);
#143=EDGE_CURVE('',#95,#113,#72,.T.);
#144=ORIENTED_EDGE('',*,*,#114,.F.);
#145=ORIENTED_EDGE('',*,*,#115,.T.);
#146=ORIENTED_EDGE('',*,*,#116,.F.);
#147=ORIENTED_EDGE('',*,*,#115,.F.);
#148=ORIENTED_EDGE('',*,*,#117,.F.);
#149=ORIENTED_EDGE('',*,*,#118,.T.);
#150=ORIENTED_EDGE('',*,*,#119,.F.);
#151=ORIENTED_EDGE('',*,*,#120,.F.);
#152=ORIENTED_EDGE('',*,*,#121,.F.);
#153=ORIENTED_EDGE('',*,*,#122,.F.);
#154=ORIENTED_EDGE('',*,*,#123,.F.);
#155=ORIENTED_EDGE('',*,*,#124,.F.);
#156=ORIENTED_EDGE('',*,*,#125,.F.);
#157=ORIENTED_EDGE('',*,*,#126,.F.);
#158=ORIENTED_EDGE('',*,*,#127,.F.);
#159=ORIENTED_EDGE('',*,*,#128,.T.);
#160=ORIENTED_EDGE('',*,*,#129,.F.);
#161=ORIENTED_EDGE('',*,*,#128,.F.);
#162=ORIENTED_EDGE('',*,*,#130,.F.);
#163=ORIENTED_EDGE('',*,*,#131,.F.);
#164=ORIENTED_EDGE('',*,*,#118,.F.);
#165=ORIENTED_EDGE('',*,*,#125,.T.);
#166=ORIENTED_EDGE('',*,*,#132,.F.);
#167=ORIENTED_EDGE('',*,*,#121,.T.);
#168=ORIENTED_EDGE('',*,*,#133,.F.);
#169=ORIENTED_EDGE('',*,*,#124,.T.);
#170=ORIENTED_EDGE('',*,*,#134,.T.);
#171=ORIENTED_EDGE('',*,*,#126,.T.);
#172=ORIENTED_EDGE('',*,*,#132,.T.);
#173=ORIENTED_EDGE('',*,*,#122,.T.);
#174=ORIENTED_EDGE('',*,*,#133,.T.);
#175=ORIENTED_EDGE('',*,*,#120,.T.);
#176=ORIENTED_EDGE('',*,*,#135,.T.);
#177=ORIENTED_EDGE('',*,*,#136,.F.);
#178=ORIENTED_EDGE('',*,*,#137,.T.);
#179=ORIENTED_EDGE('',*,*,#130,.T.);
#180=ORIENTED_EDGE('',*,*,#127,.T.);
#181=ORIENTED_EDGE('',*,*,#134,.F.);
#182=ORIENTED_EDGE('',*,*,#123,.T.);
#183=ORIENTED_EDGE('',*,*,#129,.T.);
#184=ORIENTED_EDGE('',*,*,#117,.T.);
#185=ORIENTED_EDGE('',*,*,#135,.F.);
#186=ORIENTED_EDGE('',*,*,#119,.T.);
#187=ORIENTED_EDGE('',*,*,#131,.T.);
#188=ORIENTED_EDGE('',*,*,#137,.F.);
#189=ORIENTED_EDGE('',*,*,#116,.T.);
#190=ORIENTED_EDGE('',*,*,#136,.T.);
#191=ORIENTED_EDGE('',*,*,#138,.F.);
#192=ORIENTED_EDGE('',*,*,#139,.F.);
#193=ORIENTED_EDGE('',*,*,#140,.T.);
#194=ORIENTED_EDGE('',*,*,#138,.T.);
#195=ORIENTED_EDGE('',*,*,#140,.F.);
#196=ORIENTED_EDGE('',*,*,#141,.F.);
#197=ORIENTED_EDGE('',*,*,#142,.T.);
#198=ORIENTED_EDGE('',*,*,#139,.T.);
#199=ORIENTED_EDGE('',*,*,#142,.F.);
#200=ORIENTED_EDGE('',*,*,#114,.T.);
#201=ORIENTED_EDGE('',*,*,#143,.T.);
#202=ORIENTED_EDGE('',*,*,#141,.T.);
#203=ORIENTED_EDGE('',*,*,#143,.F.);
#204=CONICAL_SURFACE('',#235,1.3616375,0.831988093683011);
#205=CONICAL_SURFACE('',#252,2.66251133647411,0.0872664625996595);
#206=CONICAL_SURFACE('',#259,1.43234175000144,0.523598775596921);
#207=ADVANCED_FACE('',(#35),#204,.T.);
#208=ADVANCED_FACE('',(#36),#28,.F.);
#209=ADVANCED_FACE('',(#37),#29,.F.);
#210=ADVANCED_FACE('',(#38),#30,.T.);
#211=ADVANCED_FACE('',(#39),#31,.T.);
#212=ADVANCED_FACE('',(#40),#32,.T.);
#213=ADVANCED_FACE('',(#41),#18,.T.);
#214=ADVANCED_FACE('',(#42),#19,.T.);
#215=ADVANCED_FACE('',(#43),#205,.T.);
#216=ADVANCED_FACE('',(#44),#33,.T.);
#217=ADVANCED_FACE('',(#45,#17),#34,.T.);
#218=ADVANCED_FACE('',(#46),#15,.T.);
#219=ADVANCED_FACE('',(#47),#206,.T.);
#220=ADVANCED_FACE('',(#48),#16,.T.);
#221=CLOSED_SHELL('',(#207,#208,#209,#210,#211,#212,#213,#214,#215,#216,
#217,#218,#219,#220));
#222=DERIVED_UNIT_ELEMENT(#224,1.);
#223=DERIVED_UNIT_ELEMENT(#440,-3.);
#224=(
MASS_UNIT()
NAMED_UNIT(*)
SI_UNIT(.KILO.,.GRAM.)
);
#225=DERIVED_UNIT((#222,#223));
#226=MEASURE_REPRESENTATION_ITEM('density measure',
POSITIVE_RATIO_MEASURE(8030.),#225);
#227=PROPERTY_DEFINITION_REPRESENTATION(#232,#229);
#228=PROPERTY_DEFINITION_REPRESENTATION(#233,#230);
#229=REPRESENTATION('material name',(#231),#437);
#230=REPRESENTATION('density',(#226),#437);
#231=DESCRIPTIVE_REPRESENTATION_ITEM('Stainless Steel A2, Plain',
'Stainless Steel A2, Plain');
#232=PROPERTY_DEFINITION('material property','material name',#447);
#233=PROPERTY_DEFINITION('material property','density of part',#447);
#234=AXIS2_PLACEMENT_3D('',#327,#262,#263);
#235=AXIS2_PLACEMENT_3D('',#328,#264,#265);
#236=AXIS2_PLACEMENT_3D('',#330,#266,#267);
#237=AXIS2_PLACEMENT_3D('',#333,#269,#270);
#238=AXIS2_PLACEMENT_3D('',#334,#271,#272);
#239=AXIS2_PLACEMENT_3D('',#369,#275,#276);
#240=AXIS2_PLACEMENT_3D('',#404,#279,#280);
#241=AXIS2_PLACEMENT_3D('',#405,#281,#282);
#242=AXIS2_PLACEMENT_3D('',#407,#283,#284);
#243=AXIS2_PLACEMENT_3D('',#408,#285,#286);
#244=AXIS2_PLACEMENT_3D('',#409,#287,#288);
#245=AXIS2_PLACEMENT_3D('',#410,#289,#290);
#246=AXIS2_PLACEMENT_3D('',#411,#291,#292);
#247=AXIS2_PLACEMENT_3D('',#412,#293,#294);
#248=AXIS2_PLACEMENT_3D('',#413,#295,#296);
#249=AXIS2_PLACEMENT_3D('',#414,#297,#298);
#250=AXIS2_PLACEMENT_3D('',#415,#299,#300);
#251=AXIS2_PLACEMENT_3D('',#416,#301,#302);
#252=AXIS2_PLACEMENT_3D('',#417,#303,#304);
#253=AXIS2_PLACEMENT_3D('',#419,#305,#306);
#254=AXIS2_PLACEMENT_3D('',#421,#308,#309);
#255=AXIS2_PLACEMENT_3D('',#422,#310,#311);
#256=AXIS2_PLACEMENT_3D('',#424,#312,#313);
#257=AXIS2_PLACEMENT_3D('',#425,#314,#315);
#258=AXIS2_PLACEMENT_3D('',#427,#316,#317);
#259=AXIS2_PLACEMENT_3D('',#429,#319,#320);
#260=AXIS2_PLACEMENT_3D('',#431,#321,#322);
#261=AXIS2_PLACEMENT_3D('',#433,#324,#325);
#262=DIRECTION('axis',(0.,0.,1.));
#263=DIRECTION('refdir',(1.,0.,0.));
#264=DIRECTION('center_axis',(0.,0.,1.));
#265=DIRECTION('ref_axis',(-1.,0.,0.));
#266=DIRECTION('center_axis',(-1.98512254914844E-16,0.,1.));
#267=DIRECTION('ref_axis',(-1.,0.,-3.70074341541595E-16));
#268=DIRECTION('',(-0.739271628119042,9.05346633076437E-17,-0.673407350611962));
#269=DIRECTION('center_axis',(1.98512254914844E-16,0.,-1.));
#270=DIRECTION('ref_axis',(-1.,0.,0.));
#271=DIRECTION('center_axis',(-7.56970244062607E-17,1.,0.));
#272=DIRECTION('ref_axis',(1.,7.56970244062607E-17,0.));
#273=DIRECTION('',(1.,7.56970244062607E-17,0.));
#274=DIRECTION('',(1.,7.56970244062607E-17,1.98512254914844E-16));
#275=DIRECTION('center_axis',(2.27091073218782E-16,-1.,0.));
#276=DIRECTION('ref_axis',(-1.,-2.27091073218782E-16,0.));
#277=DIRECTION('',(-1.,-2.27091073218782E-16,-1.98512254914844E-16));
#278=DIRECTION('',(-1.,-2.27091073218782E-16,0.));
#279=DIRECTION('center_axis',(0.,0.,1.));
#280=DIRECTION('ref_axis',(1.,0.,0.));
#281=DIRECTION('center_axis',(0.,0.,-1.));
#282=DIRECTION('ref_axis',(-1.,0.,-3.70074341541594E-16));
#283=DIRECTION('center_axis',(0.,0.,-1.));
#284=DIRECTION('ref_axis',(-1.,0.,-3.70074341541594E-16));
#285=DIRECTION('center_axis',(0.,0.,-1.));
#286=DIRECTION('ref_axis',(-1.,0.,-3.70074341541594E-16));
#287=DIRECTION('center_axis',(-1.98512254914844E-16,0.,1.));
#288=DIRECTION('ref_axis',(1.,0.,1.98512254914844E-16));
#289=DIRECTION('center_axis',(1.98512254914844E-16,0.,-1.));
#290=DIRECTION('ref_axis',(1.,0.,1.98512254914844E-16));
#291=DIRECTION('center_axis',(-1.98512254914844E-16,0.,1.));
#292=DIRECTION('ref_axis',(1.,0.,1.98512254914844E-16));
#293=DIRECTION('center_axis',(1.98512254914844E-16,0.,-1.));
#294=DIRECTION('ref_axis',(1.,0.,1.98512254914844E-16));
#295=DIRECTION('center_axis',(1.98512254914844E-16,0.,-1.));
#296=DIRECTION('ref_axis',(-1.,0.,-1.71901759413951E-16));
#297=DIRECTION('center_axis',(-2.1490885508468E-16,3.64370378675315E-32,
1.));
#298=DIRECTION('ref_axis',(1.,-6.12323399573677E-17,2.1490885508468E-16));
#299=DIRECTION('center_axis',(1.98512254914844E-16,0.,-1.));
#300=DIRECTION('ref_axis',(-1.,0.,-1.71901759413951E-16));
#301=DIRECTION('center_axis',(-2.1490885508468E-16,3.64370378675315E-32,
1.));
#302=DIRECTION('ref_axis',(1.,-6.12323399573677E-17,2.1490885508468E-16));
#303=DIRECTION('center_axis',(1.98512254914844E-16,0.,-1.));
#304=DIRECTION('ref_axis',(-1.,0.,-3.70074341541594E-16));
#305=DIRECTION('center_axis',(1.98512254914844E-16,0.,-1.));
#306=DIRECTION('ref_axis',(1.,0.,1.98512254914844E-16));
#307=DIRECTION('',(-0.0871557427476016,1.0673500138316E-17,0.99619469809175));
#308=DIRECTION('center_axis',(1.98512254914844E-16,0.,-1.));
#309=DIRECTION('ref_axis',(-1.,0.,-1.98512254914844E-16));
#310=DIRECTION('center_axis',(1.98512254914844E-16,0.,-1.));
#311=DIRECTION('ref_axis',(-1.,0.,-1.98512254914844E-16));
#312=DIRECTION('center_axis',(1.98512254914844E-16,0.,-1.));
#313=DIRECTION('ref_axis',(1.,0.,1.98512254914844E-16));
#314=DIRECTION('center_axis',(1.98512254914844E-16,0.,-1.));
#315=DIRECTION('ref_axis',(-1.,0.,-3.70074341541594E-16));
#316=DIRECTION('center_axis',(1.98512254914844E-16,0.,-1.));
#317=DIRECTION('ref_axis',(1.,0.,1.98512254914844E-16));
#318=DIRECTION('',(-1.98512254914844E-16,0.,1.));
#319=DIRECTION('center_axis',(1.98512254914844E-16,0.,-1.));
#320=DIRECTION('ref_axis',(-1.,0.,-3.70074341541594E-16));
#321=DIRECTION('center_axis',(1.98512254914844E-16,0.,-1.));
#322=DIRECTION('ref_axis',(-1.,0.,-3.70074341541595E-16));
#323=DIRECTION('',(-0.499999999998807,6.12323399572216E-17,0.866025403785127));
#324=DIRECTION('center_axis',(1.98512254914844E-16,0.,-1.));
#325=DIRECTION('ref_axis',(-1.,0.,-3.70074341541595E-16));
#326=DIRECTION('',(-1.98512254914844E-16,0.,1.));
#327=CARTESIAN_POINT('',(0.,0.,0.));
#328=CARTESIAN_POINT('Origin',(0.,0.,-5.84663749999881));
#329=CARTESIAN_POINT('',(1.4635,1.79227059055215E-16,-5.75385028398425));
#330=CARTESIAN_POINT('Origin',(1.24133685008629E-15,0.,-5.75385028398425));
#331=CARTESIAN_POINT('',(1.193275,-1.46134040925256E-16,-5.99999999999881));
#332=CARTESIAN_POINT('',(1.3616375,-1.667525005974E-16,-5.84663749999881));
#333=CARTESIAN_POINT('Origin',(0.,0.,-5.99999999999881));
#334=CARTESIAN_POINT('Origin',(-2.72075357208256,0.4,2.));
#335=CARTESIAN_POINT('',(-2.6190183218733,0.4,1.15));
#336=CARTESIAN_POINT('',(-2.55184945188166,0.4,1.90871557427407));
#337=CARTESIAN_POINT('Ctrl Pts',(-2.6190183218733,0.4,1.15));
#338=CARTESIAN_POINT('Ctrl Pts',(-2.58500782851002,0.4,1.53428560394851));
#339=CARTESIAN_POINT('Ctrl Pts',(-2.55184945188166,0.4,1.90871557427408));
#340=CARTESIAN_POINT('',(2.6190183218733,0.400000000000001,1.15));
#341=CARTESIAN_POINT('',(-2.75,0.4,1.15));
#342=CARTESIAN_POINT('',(2.55184945188166,0.400000000000001,1.90871557427408));
#343=CARTESIAN_POINT('Ctrl Pts',(2.55184945188166,0.400000000000001,1.90871557427408));
#344=CARTESIAN_POINT('Ctrl Pts',(2.58500783117614,0.400000000000001,1.53428557383311));
#345=CARTESIAN_POINT('Ctrl Pts',(2.6190183218733,0.400000000000001,1.15));
#346=CARTESIAN_POINT('',(2.45096382768031,0.400000000000001,2.));
#347=CARTESIAN_POINT('Ctrl Pts',(2.45096382768031,0.400000000000001,1.99999999999932));
#348=CARTESIAN_POINT('Ctrl Pts',(2.4635177870303,0.400000000000001,1.99999999999932));
#349=CARTESIAN_POINT('Ctrl Pts',(2.47829857308942,0.400000000000001,1.99708879873616));
#350=CARTESIAN_POINT('Ctrl Pts',(2.50143887550438,0.400000000000001,1.98757393113664));
#351=CARTESIAN_POINT('Ctrl Pts',(2.51391318658387,0.400000000000001,1.9793171205439));
#352=CARTESIAN_POINT('Ctrl Pts',(2.53153961949678,0.400000000000001,1.96182161692678));
#353=CARTESIAN_POINT('Ctrl Pts',(2.53983801243823,0.400000000000001,1.94951534042274));
#354=CARTESIAN_POINT('Ctrl Pts',(2.54825011743054,0.400000000000001,1.92934910760026));
#355=CARTESIAN_POINT('Ctrl Pts',(2.55096014473791,0.400000000000001,1.91875778023546));
#356=CARTESIAN_POINT('Ctrl Pts',(2.55184945188166,0.400000000000001,1.90871557427408));
#357=CARTESIAN_POINT('',(-2.45096382768031,0.4,2.));
#358=CARTESIAN_POINT('',(-2.64788812251539,0.4,1.99999999999931));
#359=CARTESIAN_POINT('Ctrl Pts',(-2.55184945188166,0.4,1.90871557427407));
#360=CARTESIAN_POINT('Ctrl Pts',(-2.55096014473791,0.4,1.91875778023546));
#361=CARTESIAN_POINT('Ctrl Pts',(-2.54825011743054,0.4,1.92934910760026));
#362=CARTESIAN_POINT('Ctrl Pts',(-2.53983801243824,0.4,1.94951534042274));
#363=CARTESIAN_POINT('Ctrl Pts',(-2.53153961949678,0.4,1.96182161692678));
#364=CARTESIAN_POINT('Ctrl Pts',(-2.51391318658387,0.4,1.9793171205439));
#365=CARTESIAN_POINT('Ctrl Pts',(-2.50143887550438,0.4,1.98757393113664));
#366=CARTESIAN_POINT('Ctrl Pts',(-2.47829857308942,0.4,1.99708879873616));
#367=CARTESIAN_POINT('Ctrl Pts',(-2.4635177870303,0.4,1.99999999999931));
#368=CARTESIAN_POINT('Ctrl Pts',(-2.45096382768031,0.4,1.99999999999931));
#369=CARTESIAN_POINT('Origin',(2.72075357208256,-0.4,2.));
#370=CARTESIAN_POINT('',(-2.55184945188166,-0.400000000000001,1.90871557427407));
#371=CARTESIAN_POINT('',(-2.6190183218733,-0.400000000000001,1.15));
#372=CARTESIAN_POINT('Ctrl Pts',(-2.55184945188166,-0.400000000000001,1.90871557427408));
#373=CARTESIAN_POINT('Ctrl Pts',(-2.58500782851002,-0.400000000000001,1.53428560394851));
#374=CARTESIAN_POINT('Ctrl Pts',(-2.6190183218733,-0.400000000000001,1.15));
#375=CARTESIAN_POINT('',(-2.45096382768031,-0.400000000000001,2.));
#376=CARTESIAN_POINT('Ctrl Pts',(-2.45096382768031,-0.400000000000001,1.99999999999931));
#377=CARTESIAN_POINT('Ctrl Pts',(-2.46347779679216,-0.400000000000001,1.99999999999931));
#378=CARTESIAN_POINT('Ctrl Pts',(-2.47821327256846,-0.400000000000001,1.99710709096708));
#379=CARTESIAN_POINT('Ctrl Pts',(-2.50129192660908,-0.400000000000001,1.98765085144003));
#380=CARTESIAN_POINT('Ctrl Pts',(-2.51374210203758,-0.400000000000001,1.97944307230836));
#381=CARTESIAN_POINT('Ctrl Pts',(-2.53141235220531,-0.400000000000001,1.96199086638487));
#382=CARTESIAN_POINT('Ctrl Pts',(-2.53976066089202,-0.400000000000001,1.94966042138466));
#383=CARTESIAN_POINT('Ctrl Pts',(-2.54822838391877,-0.400000000000001,1.92943181512647));
#384=CARTESIAN_POINT('Ctrl Pts',(-2.55095664047028,-0.400000000000001,1.91879735101543));
#385=CARTESIAN_POINT('Ctrl Pts',(-2.55184945188166,-0.400000000000001,1.90871557427407));
#386=CARTESIAN_POINT('',(2.45096382768031,-0.4,2.));
#387=CARTESIAN_POINT('',(0.0728654495671674,-0.4,1.99999999999931));
#388=CARTESIAN_POINT('',(2.55184945188166,-0.4,1.90871557427408));
#389=CARTESIAN_POINT('Ctrl Pts',(2.55184945188166,-0.4,1.90871557427408));
#390=CARTESIAN_POINT('Ctrl Pts',(2.55095664047028,-0.4,1.91879735101543));
#391=CARTESIAN_POINT('Ctrl Pts',(2.54822838391877,-0.4,1.92943181512647));
#392=CARTESIAN_POINT('Ctrl Pts',(2.53976066089202,-0.4,1.94966042138466));
#393=CARTESIAN_POINT('Ctrl Pts',(2.53141235220531,-0.4,1.96199086638487));
#394=CARTESIAN_POINT('Ctrl Pts',(2.51374210203758,-0.4,1.97944307230836));
#395=CARTESIAN_POINT('Ctrl Pts',(2.50129192660908,-0.4,1.98765085144003));
#396=CARTESIAN_POINT('Ctrl Pts',(2.47821327256846,-0.4,1.99710709096708));
#397=CARTESIAN_POINT('Ctrl Pts',(2.46347779679216,-0.4,1.99999999999932));
#398=CARTESIAN_POINT('Ctrl Pts',(2.45096382768031,-0.4,1.99999999999932));
#399=CARTESIAN_POINT('',(2.6190183218733,-0.4,1.15));
#400=CARTESIAN_POINT('Ctrl Pts',(2.6190183218733,-0.4,1.15));
#401=CARTESIAN_POINT('Ctrl Pts',(2.58500783117614,-0.4,1.53428557383311));
#402=CARTESIAN_POINT('Ctrl Pts',(2.55184945188166,-0.4,1.90871557427408));
#403=CARTESIAN_POINT('',(2.75,-0.4,1.15));
#404=CARTESIAN_POINT('Origin',(0.,0.,1.15));
#405=CARTESIAN_POINT('Origin',(-1.29162037381914E-16,0.,1.15));
#406=CARTESIAN_POINT('',(2.64938803694515,-3.24456457914416E-16,1.15));
#407=CARTESIAN_POINT('Origin',(-1.29162037381914E-16,0.,1.15));
#408=CARTESIAN_POINT('Origin',(-1.29162037381914E-16,0.,1.15));
#409=CARTESIAN_POINT('Origin',(-2.57502267294822,0.,1.99999999999931));
#410=CARTESIAN_POINT('Origin',(-2.97897454059396E-16,0.,1.99999999999931));
#411=CARTESIAN_POINT('Origin',(-2.57502267294822,0.,1.99999999999931));
#412=CARTESIAN_POINT('Origin',(-2.97897454059396E-16,0.,1.99999999999931));
#413=CARTESIAN_POINT('Origin',(-2.78046228567911E-16,0.,1.89999999999931));
#414=CARTESIAN_POINT('Origin',(0.,-1.58163686753526E-16,1.90871557427407));
#415=CARTESIAN_POINT('Origin',(-2.78046228567911E-16,0.,1.89999999999931));
#416=CARTESIAN_POINT('Origin',(0.,-1.58163686753526E-16,1.90871557427407));
#417=CARTESIAN_POINT('Origin',(-9.93851991445013E-17,0.,0.999999999999063));
#418=CARTESIAN_POINT('',(2.75,-3.36777869765522E-16,-1.188077414227E-12));
#419=CARTESIAN_POINT('Origin',(9.91270557703928E-17,0.,-1.18849374786123E-12));
#420=CARTESIAN_POINT('',(2.66251133647411,-3.26063598590656E-16,0.999999999999064));
#421=CARTESIAN_POINT('Origin',(1.38777878078145E-15,0.,-5.99999999999881));
#422=CARTESIAN_POINT('Origin',(-1.36468349999959,0.,-5.9003747416976E-13));
#423=CARTESIAN_POINT('',(1.36468350000039,-1.67125528012469E-16,-5.89459037136919E-13));
#424=CARTESIAN_POINT('Origin',(9.9127055770274E-17,0.,-5.90083537588271E-13));
#425=CARTESIAN_POINT('Origin',(1.98383183227706E-16,0.,-0.500000000000638));
#426=CARTESIAN_POINT('',(1.36468350000039,-1.67125528012469E-16,-1.00000000000069));
#427=CARTESIAN_POINT('Origin',(2.97639310685137E-16,0.,-1.00000000000069));
#428=CARTESIAN_POINT('',(1.36468350000039,-1.67125528012469E-16,-0.500000000000638));
#429=CARTESIAN_POINT('Origin',(3.20902470828866E-16,0.,-1.11718752655268));
#430=CARTESIAN_POINT('',(1.4635,-1.79227059055215E-16,-1.17115519862528));
#431=CARTESIAN_POINT('Origin',(3.31615715104503E-16,0.,-1.17115519862528));
#432=CARTESIAN_POINT('',(1.43234175000144,-1.75411273942439E-16,-1.11718752655268));
#433=CARTESIAN_POINT('Origin',(8.17183108115994E-16,0.,-3.61718752655276));
#434=CARTESIAN_POINT('',(1.4635,-1.79227059055215E-16,-3.61718752655276));
#435=UNCERTAINTY_MEASURE_WITH_UNIT(LENGTH_MEASURE(0.01),#439,
'DISTANCE_ACCURACY_VALUE',
'Maximum model space distance between geometric entities at asserted c
onnectivities');
#436=UNCERTAINTY_MEASURE_WITH_UNIT(LENGTH_MEASURE(0.01),#439,
'DISTANCE_ACCURACY_VALUE',
'Maximum model space distance between geometric entities at asserted c
onnectivities');
#437=(
GEOMETRIC_REPRESENTATION_CONTEXT(3)
GLOBAL_UNCERTAINTY_ASSIGNED_CONTEXT((#435))
GLOBAL_UNIT_ASSIGNED_CONTEXT((#439,#441,#442))
REPRESENTATION_CONTEXT('','3D')
);
#438=(
GEOMETRIC_REPRESENTATION_CONTEXT(3)
GLOBAL_UNCERTAINTY_ASSIGNED_CONTEXT((#436))
GLOBAL_UNIT_ASSIGNED_CONTEXT((#439,#441,#442))
REPRESENTATION_CONTEXT('','3D')
);
#439=(
LENGTH_UNIT()
NAMED_UNIT(*)
SI_UNIT(.MILLI.,.METRE.)
);
#440=(
LENGTH_UNIT()
NAMED_UNIT(*)
SI_UNIT($,.METRE.)
);
#441=(
NAMED_UNIT(*)
PLANE_ANGLE_UNIT()
SI_UNIT($,.RADIAN.)
);
#442=(
NAMED_UNIT(*)
SI_UNIT($,.STERADIAN.)
SOLID_ANGLE_UNIT()
);
#443=SHAPE_DEFINITION_REPRESENTATION(#444,#445);
#444=PRODUCT_DEFINITION_SHAPE('',$,#447);
#445=SHAPE_REPRESENTATION('',(#234),#437);
#446=PRODUCT_DEFINITION_CONTEXT('part definition',#451,'design');
#447=PRODUCT_DEFINITION('DIN 84 - M3 x 6 Stainless Steel A2 Plain',
'Cheese Head Screw DIN 84 - M3 x 6 Stainless Steel A2 Plain v1',#448,#446);
#448=PRODUCT_DEFINITION_FORMATION('',$,#453);
#449=PRODUCT_RELATED_PRODUCT_CATEGORY(
'Cheese Head Screw DIN 84 - M3 x 6 Stainless Steel A2 Plain v1',
'Cheese Head Screw DIN 84 - M3 x 6 Stainless Steel A2 Plain v1',(#453));
#450=APPLICATION_PROTOCOL_DEFINITION('international standard',
'automotive_design',2009,#451);
#451=APPLICATION_CONTEXT(
'Core Data for Automotive Mechanical Design Process');
#452=PRODUCT_CONTEXT('part definition',#451,'mechanical');
#453=PRODUCT('DIN 84 - M3 x 6 Stainless Steel A2 Plain',
'Cheese Head Screw DIN 84 - M3 x 6 Stainless Steel A2 Plain v1',
'Cheese Head Screw DIN 84 - M3 x 6',(#452));
#454=PRESENTATION_STYLE_ASSIGNMENT((#455));
#455=SURFACE_STYLE_USAGE(.BOTH.,#456);
#456=SURFACE_SIDE_STYLE('',(#457));
#457=SURFACE_STYLE_FILL_AREA(#458);
#458=FILL_AREA_STYLE('Stainless Steel - Satin',(#459));
#459=FILL_AREA_STYLE_COLOUR('Stainless Steel - Satin',#460);
#460=COLOUR_RGB('Stainless Steel - Satin',0.796078431372549,0.796078431372549,
0.796078431372549);
ENDSEC;
END-ISO-10303-21;
