ISO-10303-21;
HEADER;
/* Generated by software containing ST-Developer
 * from STEP Tools, Inc. (www.steptools.com) 
 */

FILE_DESCRIPTION(
/* description */ (''),
/* implementation_level */ '2;1');

FILE_NAME(
/* name */ 'Enclosure Lid Unit 1.step',
/* time_stamp */ '2026-05-23T12:26:56+02:00',
/* author */ (''),
/* organization */ (''),
/* preprocessor_version */ 'ST-DEVELOPER v20.1',
/* originating_system */ 'Autodesk Translation Framework v15.8.0.0',
/* authorisation */ '');

FILE_SCHEMA (('AUTOMOTIVE_DESIGN { 1 0 10303 214 3 1 1 }'));
ENDSEC;

DATA;
#10=MECHANICAL_DESIGN_GEOMETRIC_PRESENTATION_REPRESENTATION('',(#13),#861);
#11=SHAPE_REPRESENTATION_RELATIONSHIP('SRR','None',#868,#12);
#12=ADVANCED_BREP_SHAPE_REPRESENTATION('',(#14),#860);
#13=STYLED_ITEM('',(#877),#14);
#14=MANIFOLD_SOLID_BREP('Body1',#497);
#15=FACE_BOUND('',#100,.T.);
#16=FACE_BOUND('',#101,.T.);
#17=FACE_BOUND('',#102,.T.);
#18=FACE_BOUND('',#103,.T.);
#19=FACE_BOUND('',#105,.T.);
#20=FACE_BOUND('',#106,.T.);
#21=FACE_BOUND('',#107,.T.);
#22=FACE_BOUND('',#108,.T.);
#23=FACE_BOUND('',#109,.T.);
#24=PLANE('',#534);
#25=PLANE('',#538);
#26=PLANE('',#542);
#27=PLANE('',#546);
#28=PLANE('',#547);
#29=PLANE('',#548);
#30=PLANE('',#552);
#31=PLANE('',#556);
#32=PLANE('',#560);
#33=PLANE('',#564);
#34=PLANE('',#565);
#35=CYLINDRICAL_SURFACE('',#514,1.2645);
#36=CYLINDRICAL_SURFACE('',#519,1.2645);
#37=CYLINDRICAL_SURFACE('',#524,1.2645);
#38=CYLINDRICAL_SURFACE('',#529,1.2645);
#39=CYLINDRICAL_SURFACE('',#531,3.);
#40=CYLINDRICAL_SURFACE('',#535,2.99999999999999);
#41=CYLINDRICAL_SURFACE('',#539,3.);
#42=CYLINDRICAL_SURFACE('',#543,2.99999999999999);
#43=CYLINDRICAL_SURFACE('',#549,2.00000000000001);
#44=CYLINDRICAL_SURFACE('',#553,2.00000000000002);
#45=CYLINDRICAL_SURFACE('',#557,2.00000000000001);
#46=CYLINDRICAL_SURFACE('',#561,2.);
#47=FACE_OUTER_BOUND('',#74,.T.);
#48=FACE_OUTER_BOUND('',#75,.T.);
#49=FACE_OUTER_BOUND('',#76,.T.);
#50=FACE_OUTER_BOUND('',#77,.T.);
#51=FACE_OUTER_BOUND('',#78,.T.);
#52=FACE_OUTER_BOUND('',#79,.T.);
#53=FACE_OUTER_BOUND('',#80,.T.);
#54=FACE_OUTER_BOUND('',#81,.T.);
#55=FACE_OUTER_BOUND('',#82,.T.);
#56=FACE_OUTER_BOUND('',#83,.T.);
#57=FACE_OUTER_BOUND('',#84,.T.);
#58=FACE_OUTER_BOUND('',#85,.T.);
#59=FACE_OUTER_BOUND('',#86,.T.);
#60=FACE_OUTER_BOUND('',#87,.T.);
#61=FACE_OUTER_BOUND('',#88,.T.);
#62=FACE_OUTER_BOUND('',#89,.T.);
#63=FACE_OUTER_BOUND('',#90,.T.);
#64=FACE_OUTER_BOUND('',#91,.T.);
#65=FACE_OUTER_BOUND('',#92,.T.);
#66=FACE_OUTER_BOUND('',#93,.T.);
#67=FACE_OUTER_BOUND('',#94,.T.);
#68=FACE_OUTER_BOUND('',#95,.T.);
#69=FACE_OUTER_BOUND('',#96,.T.);
#70=FACE_OUTER_BOUND('',#97,.T.);
#71=FACE_OUTER_BOUND('',#98,.T.);
#72=FACE_OUTER_BOUND('',#99,.T.);
#73=FACE_OUTER_BOUND('',#104,.T.);
#74=EDGE_LOOP('',(#330,#331,#332,#333));
#75=EDGE_LOOP('',(#334,#335,#336,#337));
#76=EDGE_LOOP('',(#338,#339,#340,#341));
#77=EDGE_LOOP('',(#342,#343,#344,#345));
#78=EDGE_LOOP('',(#346,#347,#348,#349));
#79=EDGE_LOOP('',(#350,#351,#352,#353));
#80=EDGE_LOOP('',(#354,#355,#356,#357));
#81=EDGE_LOOP('',(#358,#359,#360,#361));
#82=EDGE_LOOP('',(#362,#363,#364,#365));
#83=EDGE_LOOP('',(#366,#367,#368,#369));
#84=EDGE_LOOP('',(#370,#371,#372,#373));
#85=EDGE_LOOP('',(#374,#375,#376,#377));
#86=EDGE_LOOP('',(#378,#379,#380,#381));
#87=EDGE_LOOP('',(#382,#383,#384,#385));
#88=EDGE_LOOP('',(#386,#387,#388,#389));
#89=EDGE_LOOP('',(#390,#391,#392,#393));
#90=EDGE_LOOP('',(#394,#395,#396,#397,#398,#399,#400,#401));
#91=EDGE_LOOP('',(#402,#403,#404,#405));
#92=EDGE_LOOP('',(#406,#407,#408,#409));
#93=EDGE_LOOP('',(#410,#411,#412,#413));
#94=EDGE_LOOP('',(#414,#415,#416,#417));
#95=EDGE_LOOP('',(#418,#419,#420,#421));
#96=EDGE_LOOP('',(#422,#423,#424,#425));
#97=EDGE_LOOP('',(#426,#427,#428,#429));
#98=EDGE_LOOP('',(#430,#431,#432,#433));
#99=EDGE_LOOP('',(#434,#435,#436,#437,#438,#439,#440,#441));
#100=EDGE_LOOP('',(#442));
#101=EDGE_LOOP('',(#443));
#102=EDGE_LOOP('',(#444));
#103=EDGE_LOOP('',(#445));
#104=EDGE_LOOP('',(#446,#447,#448,#449,#450,#451,#452,#453));
#105=EDGE_LOOP('',(#454,#455,#456,#457,#458,#459,#460,#461));
#106=EDGE_LOOP('',(#462));
#107=EDGE_LOOP('',(#463));
#108=EDGE_LOOP('',(#464));
#109=EDGE_LOOP('',(#465));
#110=LINE('',#723,#150);
#111=LINE('',#727,#151);
#112=LINE('',#733,#152);
#113=LINE('',#737,#153);
#114=LINE('',#743,#154);
#115=LINE('',#747,#155);
#116=LINE('',#753,#156);
#117=LINE('',#757,#157);
#118=LINE('',#764,#158);
#119=LINE('',#767,#159);
#120=LINE('',#770,#160);
#121=LINE('',#772,#161);
#122=LINE('',#773,#162);
#123=LINE('',#779,#163);
#124=LINE('',#782,#164);
#125=LINE('',#784,#165);
#126=LINE('',#785,#166);
#127=LINE('',#791,#167);
#128=LINE('',#794,#168);
#129=LINE('',#796,#169);
#130=LINE('',#797,#170);
#131=LINE('',#803,#171);
#132=LINE('',#805,#172);
#133=LINE('',#806,#173);
#134=LINE('',#811,#174);
#135=LINE('',#813,#175);
#136=LINE('',#815,#176);
#137=LINE('',#816,#177);
#138=LINE('',#822,#178);
#139=LINE('',#825,#179);
#140=LINE('',#827,#180);
#141=LINE('',#828,#181);
#142=LINE('',#834,#182);
#143=LINE('',#837,#183);
#144=LINE('',#839,#184);
#145=LINE('',#840,#185);
#146=LINE('',#846,#186);
#147=LINE('',#849,#187);
#148=LINE('',#851,#188);
#149=LINE('',#852,#189);
#150=VECTOR('',#572,1.73225);
#151=VECTOR('',#577,1.2645);
#152=VECTOR('',#584,1.73225);
#153=VECTOR('',#589,1.2645);
#154=VECTOR('',#596,1.73225);
#155=VECTOR('',#601,1.2645);
#156=VECTOR('',#608,1.73225);
#157=VECTOR('',#613,1.2645);
#158=VECTOR('',#620,10.);
#159=VECTOR('',#623,10.);
#160=VECTOR('',#626,10.);
#161=VECTOR('',#627,10.);
#162=VECTOR('',#628,10.);
#163=VECTOR('',#635,10.);
#164=VECTOR('',#638,10.);
#165=VECTOR('',#639,10.);
#166=VECTOR('',#640,10.);
#167=VECTOR('',#647,10.);
#168=VECTOR('',#650,10.);
#169=VECTOR('',#651,10.);
#170=VECTOR('',#652,10.);
#171=VECTOR('',#659,10.);
#172=VECTOR('',#662,10.);
#173=VECTOR('',#663,10.);
#174=VECTOR('',#668,10.);
#175=VECTOR('',#669,10.);
#176=VECTOR('',#670,10.);
#177=VECTOR('',#671,10.);
#178=VECTOR('',#678,10.);
#179=VECTOR('',#681,10.);
#180=VECTOR('',#682,10.);
#181=VECTOR('',#683,10.);
#182=VECTOR('',#690,10.);
#183=VECTOR('',#693,10.);
#184=VECTOR('',#694,10.);
#185=VECTOR('',#695,10.);
#186=VECTOR('',#702,10.);
#187=VECTOR('',#705,10.);
#188=VECTOR('',#706,10.);
#189=VECTOR('',#707,10.);
#190=CIRCLE('',#512,2.2);
#191=CIRCLE('',#513,1.2645);
#192=CIRCLE('',#515,1.2645);
#193=CIRCLE('',#517,2.2);
#194=CIRCLE('',#518,1.2645);
#195=CIRCLE('',#520,1.2645);
#196=CIRCLE('',#522,2.2);
#197=CIRCLE('',#523,1.2645);
#198=CIRCLE('',#525,1.2645);
#199=CIRCLE('',#527,2.2);
#200=CIRCLE('',#528,1.2645);
#201=CIRCLE('',#530,1.2645);
#202=CIRCLE('',#532,3.);
#203=CIRCLE('',#533,3.);
#204=CIRCLE('',#536,2.99999999999999);
#205=CIRCLE('',#537,2.99999999999999);
#206=CIRCLE('',#540,3.);
#207=CIRCLE('',#541,3.);
#208=CIRCLE('',#544,2.99999999999999);
#209=CIRCLE('',#545,2.99999999999999);
#210=CIRCLE('',#550,2.00000000000001);
#211=CIRCLE('',#551,2.00000000000001);
#212=CIRCLE('',#554,2.00000000000002);
#213=CIRCLE('',#555,2.00000000000002);
#214=CIRCLE('',#558,2.00000000000001);
#215=CIRCLE('',#559,2.00000000000001);
#216=CIRCLE('',#562,2.);
#217=CIRCLE('',#563,2.);
#218=VERTEX_POINT('',#720);
#219=VERTEX_POINT('',#722);
#220=VERTEX_POINT('',#726);
#221=VERTEX_POINT('',#730);
#222=VERTEX_POINT('',#732);
#223=VERTEX_POINT('',#736);
#224=VERTEX_POINT('',#740);
#225=VERTEX_POINT('',#742);
#226=VERTEX_POINT('',#746);
#227=VERTEX_POINT('',#750);
#228=VERTEX_POINT('',#752);
#229=VERTEX_POINT('',#756);
#230=VERTEX_POINT('',#760);
#231=VERTEX_POINT('',#761);
#232=VERTEX_POINT('',#763);
#233=VERTEX_POINT('',#765);
#234=VERTEX_POINT('',#769);
#235=VERTEX_POINT('',#771);
#236=VERTEX_POINT('',#775);
#237=VERTEX_POINT('',#777);
#238=VERTEX_POINT('',#781);
#239=VERTEX_POINT('',#783);
#240=VERTEX_POINT('',#787);
#241=VERTEX_POINT('',#789);
#242=VERTEX_POINT('',#793);
#243=VERTEX_POINT('',#795);
#244=VERTEX_POINT('',#799);
#245=VERTEX_POINT('',#801);
#246=VERTEX_POINT('',#809);
#247=VERTEX_POINT('',#810);
#248=VERTEX_POINT('',#812);
#249=VERTEX_POINT('',#814);
#250=VERTEX_POINT('',#818);
#251=VERTEX_POINT('',#820);
#252=VERTEX_POINT('',#824);
#253=VERTEX_POINT('',#826);
#254=VERTEX_POINT('',#830);
#255=VERTEX_POINT('',#832);
#256=VERTEX_POINT('',#836);
#257=VERTEX_POINT('',#838);
#258=VERTEX_POINT('',#842);
#259=VERTEX_POINT('',#844);
#260=VERTEX_POINT('',#848);
#261=VERTEX_POINT('',#850);
#262=EDGE_CURVE('',#218,#218,#190,.T.);
#263=EDGE_CURVE('',#218,#219,#110,.T.);
#264=EDGE_CURVE('',#219,#219,#191,.T.);
#265=EDGE_CURVE('',#219,#220,#111,.T.);
#266=EDGE_CURVE('',#220,#220,#192,.T.);
#267=EDGE_CURVE('',#221,#221,#193,.T.);
#268=EDGE_CURVE('',#221,#222,#112,.T.);
#269=EDGE_CURVE('',#222,#222,#194,.T.);
#270=EDGE_CURVE('',#222,#223,#113,.T.);
#271=EDGE_CURVE('',#223,#223,#195,.T.);
#272=EDGE_CURVE('',#224,#224,#196,.T.);
#273=EDGE_CURVE('',#224,#225,#114,.T.);
#274=EDGE_CURVE('',#225,#225,#197,.T.);
#275=EDGE_CURVE('',#225,#226,#115,.T.);
#276=EDGE_CURVE('',#226,#226,#198,.T.);
#277=EDGE_CURVE('',#227,#227,#199,.T.);
#278=EDGE_CURVE('',#227,#228,#116,.T.);
#279=EDGE_CURVE('',#228,#228,#200,.T.);
#280=EDGE_CURVE('',#228,#229,#117,.T.);
#281=EDGE_CURVE('',#229,#229,#201,.T.);
#282=EDGE_CURVE('',#230,#231,#202,.T.);
#283=EDGE_CURVE('',#230,#232,#118,.T.);
#284=EDGE_CURVE('',#233,#232,#203,.T.);
#285=EDGE_CURVE('',#231,#233,#119,.T.);
#286=EDGE_CURVE('',#234,#231,#120,.T.);
#287=EDGE_CURVE('',#235,#233,#121,.T.);
#288=EDGE_CURVE('',#234,#235,#122,.T.);
#289=EDGE_CURVE('',#234,#236,#204,.T.);
#290=EDGE_CURVE('',#237,#235,#205,.T.);
#291=EDGE_CURVE('',#236,#237,#123,.T.);
#292=EDGE_CURVE('',#238,#236,#124,.T.);
#293=EDGE_CURVE('',#239,#237,#125,.T.);
#294=EDGE_CURVE('',#238,#239,#126,.T.);
#295=EDGE_CURVE('',#238,#240,#206,.T.);
#296=EDGE_CURVE('',#241,#239,#207,.T.);
#297=EDGE_CURVE('',#240,#241,#127,.T.);
#298=EDGE_CURVE('',#242,#240,#128,.T.);
#299=EDGE_CURVE('',#243,#241,#129,.T.);
#300=EDGE_CURVE('',#242,#243,#130,.T.);
#301=EDGE_CURVE('',#242,#244,#208,.T.);
#302=EDGE_CURVE('',#245,#243,#209,.T.);
#303=EDGE_CURVE('',#244,#245,#131,.T.);
#304=EDGE_CURVE('',#230,#244,#132,.T.);
#305=EDGE_CURVE('',#232,#245,#133,.T.);
#306=EDGE_CURVE('',#246,#247,#134,.T.);
#307=EDGE_CURVE('',#247,#248,#135,.T.);
#308=EDGE_CURVE('',#249,#248,#136,.T.);
#309=EDGE_CURVE('',#246,#249,#137,.T.);
#310=EDGE_CURVE('',#250,#246,#210,.T.);
#311=EDGE_CURVE('',#251,#249,#211,.T.);
#312=EDGE_CURVE('',#250,#251,#138,.T.);
#313=EDGE_CURVE('',#252,#250,#139,.T.);
#314=EDGE_CURVE('',#253,#251,#140,.T.);
#315=EDGE_CURVE('',#252,#253,#141,.T.);
#316=EDGE_CURVE('',#254,#252,#212,.T.);
#317=EDGE_CURVE('',#255,#253,#213,.T.);
#318=EDGE_CURVE('',#254,#255,#142,.T.);
#319=EDGE_CURVE('',#256,#254,#143,.T.);
#320=EDGE_CURVE('',#257,#255,#144,.T.);
#321=EDGE_CURVE('',#256,#257,#145,.T.);
#322=EDGE_CURVE('',#258,#256,#214,.T.);
#323=EDGE_CURVE('',#259,#257,#215,.T.);
#324=EDGE_CURVE('',#258,#259,#146,.T.);
#325=EDGE_CURVE('',#260,#258,#147,.T.);
#326=EDGE_CURVE('',#261,#259,#148,.T.);
#327=EDGE_CURVE('',#260,#261,#149,.T.);
#328=EDGE_CURVE('',#247,#260,#216,.T.);
#329=EDGE_CURVE('',#248,#261,#217,.T.);
#330=ORIENTED_EDGE('',*,*,#262,.F.);
#331=ORIENTED_EDGE('',*,*,#263,.T.);
#332=ORIENTED_EDGE('',*,*,#264,.T.);
#333=ORIENTED_EDGE('',*,*,#263,.F.);
#334=ORIENTED_EDGE('',*,*,#264,.F.);
#335=ORIENTED_EDGE('',*,*,#265,.T.);
#336=ORIENTED_EDGE('',*,*,#266,.F.);
#337=ORIENTED_EDGE('',*,*,#265,.F.);
#338=ORIENTED_EDGE('',*,*,#267,.F.);
#339=ORIENTED_EDGE('',*,*,#268,.T.);
#340=ORIENTED_EDGE('',*,*,#269,.T.);
#341=ORIENTED_EDGE('',*,*,#268,.F.);
#342=ORIENTED_EDGE('',*,*,#269,.F.);
#343=ORIENTED_EDGE('',*,*,#270,.T.);
#344=ORIENTED_EDGE('',*,*,#271,.F.);
#345=ORIENTED_EDGE('',*,*,#270,.F.);
#346=ORIENTED_EDGE('',*,*,#272,.F.);
#347=ORIENTED_EDGE('',*,*,#273,.T.);
#348=ORIENTED_EDGE('',*,*,#274,.T.);
#349=ORIENTED_EDGE('',*,*,#273,.F.);
#350=ORIENTED_EDGE('',*,*,#274,.F.);
#351=ORIENTED_EDGE('',*,*,#275,.T.);
#352=ORIENTED_EDGE('',*,*,#276,.F.);
#353=ORIENTED_EDGE('',*,*,#275,.F.);
#354=ORIENTED_EDGE('',*,*,#277,.F.);
#355=ORIENTED_EDGE('',*,*,#278,.T.);
#356=ORIENTED_EDGE('',*,*,#279,.T.);
#357=ORIENTED_EDGE('',*,*,#278,.F.);
#358=ORIENTED_EDGE('',*,*,#279,.F.);
#359=ORIENTED_EDGE('',*,*,#280,.T.);
#360=ORIENTED_EDGE('',*,*,#281,.F.);
#361=ORIENTED_EDGE('',*,*,#280,.F.);
#362=ORIENTED_EDGE('',*,*,#282,.F.);
#363=ORIENTED_EDGE('',*,*,#283,.T.);
#364=ORIENTED_EDGE('',*,*,#284,.F.);
#365=ORIENTED_EDGE('',*,*,#285,.F.);
#366=ORIENTED_EDGE('',*,*,#286,.T.);
#367=ORIENTED_EDGE('',*,*,#285,.T.);
#368=ORIENTED_EDGE('',*,*,#287,.F.);
#369=ORIENTED_EDGE('',*,*,#288,.F.);
#370=ORIENTED_EDGE('',*,*,#289,.F.);
#371=ORIENTED_EDGE('',*,*,#288,.T.);
#372=ORIENTED_EDGE('',*,*,#290,.F.);
#373=ORIENTED_EDGE('',*,*,#291,.F.);
#374=ORIENTED_EDGE('',*,*,#292,.T.);
#375=ORIENTED_EDGE('',*,*,#291,.T.);
#376=ORIENTED_EDGE('',*,*,#293,.F.);
#377=ORIENTED_EDGE('',*,*,#294,.F.);
#378=ORIENTED_EDGE('',*,*,#295,.F.);
#379=ORIENTED_EDGE('',*,*,#294,.T.);
#380=ORIENTED_EDGE('',*,*,#296,.F.);
#381=ORIENTED_EDGE('',*,*,#297,.F.);
#382=ORIENTED_EDGE('',*,*,#298,.T.);
#383=ORIENTED_EDGE('',*,*,#297,.T.);
#384=ORIENTED_EDGE('',*,*,#299,.F.);
#385=ORIENTED_EDGE('',*,*,#300,.F.);
#386=ORIENTED_EDGE('',*,*,#301,.F.);
#387=ORIENTED_EDGE('',*,*,#300,.T.);
#388=ORIENTED_EDGE('',*,*,#302,.F.);
#389=ORIENTED_EDGE('',*,*,#303,.F.);
#390=ORIENTED_EDGE('',*,*,#304,.T.);
#391=ORIENTED_EDGE('',*,*,#303,.T.);
#392=ORIENTED_EDGE('',*,*,#305,.F.);
#393=ORIENTED_EDGE('',*,*,#283,.F.);
#394=ORIENTED_EDGE('',*,*,#304,.F.);
#395=ORIENTED_EDGE('',*,*,#282,.T.);
#396=ORIENTED_EDGE('',*,*,#286,.F.);
#397=ORIENTED_EDGE('',*,*,#289,.T.);
#398=ORIENTED_EDGE('',*,*,#292,.F.);
#399=ORIENTED_EDGE('',*,*,#295,.T.);
#400=ORIENTED_EDGE('',*,*,#298,.F.);
#401=ORIENTED_EDGE('',*,*,#301,.T.);
#402=ORIENTED_EDGE('',*,*,#306,.T.);
#403=ORIENTED_EDGE('',*,*,#307,.T.);
#404=ORIENTED_EDGE('',*,*,#308,.F.);
#405=ORIENTED_EDGE('',*,*,#309,.F.);
#406=ORIENTED_EDGE('',*,*,#310,.T.);
#407=ORIENTED_EDGE('',*,*,#309,.T.);
#408=ORIENTED_EDGE('',*,*,#311,.F.);
#409=ORIENTED_EDGE('',*,*,#312,.F.);
#410=ORIENTED_EDGE('',*,*,#313,.T.);
#411=ORIENTED_EDGE('',*,*,#312,.T.);
#412=ORIENTED_EDGE('',*,*,#314,.F.);
#413=ORIENTED_EDGE('',*,*,#315,.F.);
#414=ORIENTED_EDGE('',*,*,#316,.T.);
#415=ORIENTED_EDGE('',*,*,#315,.T.);
#416=ORIENTED_EDGE('',*,*,#317,.F.);
#417=ORIENTED_EDGE('',*,*,#318,.F.);
#418=ORIENTED_EDGE('',*,*,#319,.T.);
#419=ORIENTED_EDGE('',*,*,#318,.T.);
#420=ORIENTED_EDGE('',*,*,#320,.F.);
#421=ORIENTED_EDGE('',*,*,#321,.F.);
#422=ORIENTED_EDGE('',*,*,#322,.T.);
#423=ORIENTED_EDGE('',*,*,#321,.T.);
#424=ORIENTED_EDGE('',*,*,#323,.F.);
#425=ORIENTED_EDGE('',*,*,#324,.F.);
#426=ORIENTED_EDGE('',*,*,#325,.T.);
#427=ORIENTED_EDGE('',*,*,#324,.T.);
#428=ORIENTED_EDGE('',*,*,#326,.F.);
#429=ORIENTED_EDGE('',*,*,#327,.F.);
#430=ORIENTED_EDGE('',*,*,#328,.T.);
#431=ORIENTED_EDGE('',*,*,#327,.T.);
#432=ORIENTED_EDGE('',*,*,#329,.F.);
#433=ORIENTED_EDGE('',*,*,#307,.F.);
#434=ORIENTED_EDGE('',*,*,#329,.T.);
#435=ORIENTED_EDGE('',*,*,#326,.T.);
#436=ORIENTED_EDGE('',*,*,#323,.T.);
#437=ORIENTED_EDGE('',*,*,#320,.T.);
#438=ORIENTED_EDGE('',*,*,#317,.T.);
#439=ORIENTED_EDGE('',*,*,#314,.T.);
#440=ORIENTED_EDGE('',*,*,#311,.T.);
#441=ORIENTED_EDGE('',*,*,#308,.T.);
#442=ORIENTED_EDGE('',*,*,#262,.T.);
#443=ORIENTED_EDGE('',*,*,#267,.T.);
#444=ORIENTED_EDGE('',*,*,#272,.T.);
#445=ORIENTED_EDGE('',*,*,#277,.T.);
#446=ORIENTED_EDGE('',*,*,#328,.F.);
#447=ORIENTED_EDGE('',*,*,#306,.F.);
#448=ORIENTED_EDGE('',*,*,#310,.F.);
#449=ORIENTED_EDGE('',*,*,#313,.F.);
#450=ORIENTED_EDGE('',*,*,#316,.F.);
#451=ORIENTED_EDGE('',*,*,#319,.F.);
#452=ORIENTED_EDGE('',*,*,#322,.F.);
#453=ORIENTED_EDGE('',*,*,#325,.F.);
#454=ORIENTED_EDGE('',*,*,#284,.T.);
#455=ORIENTED_EDGE('',*,*,#305,.T.);
#456=ORIENTED_EDGE('',*,*,#302,.T.);
#457=ORIENTED_EDGE('',*,*,#299,.T.);
#458=ORIENTED_EDGE('',*,*,#296,.T.);
#459=ORIENTED_EDGE('',*,*,#293,.T.);
#460=ORIENTED_EDGE('',*,*,#290,.T.);
#461=ORIENTED_EDGE('',*,*,#287,.T.);
#462=ORIENTED_EDGE('',*,*,#281,.T.);
#463=ORIENTED_EDGE('',*,*,#276,.T.);
#464=ORIENTED_EDGE('',*,*,#271,.T.);
#465=ORIENTED_EDGE('',*,*,#266,.T.);
#466=CONICAL_SURFACE('',#511,1.73225,0.785398163397448);
#467=CONICAL_SURFACE('',#516,1.73225,0.785398163397448);
#468=CONICAL_SURFACE('',#521,1.73225,0.785398163397448);
#469=CONICAL_SURFACE('',#526,1.73225,0.785398163397448);
#470=ADVANCED_FACE('',(#47),#466,.F.);
#471=ADVANCED_FACE('',(#48),#35,.F.);
#472=ADVANCED_FACE('',(#49),#467,.F.);
#473=ADVANCED_FACE('',(#50),#36,.F.);
#474=ADVANCED_FACE('',(#51),#468,.F.);
#475=ADVANCED_FACE('',(#52),#37,.F.);
#476=ADVANCED_FACE('',(#53),#469,.F.);
#477=ADVANCED_FACE('',(#54),#38,.F.);
#478=ADVANCED_FACE('',(#55),#39,.F.);
#479=ADVANCED_FACE('',(#56),#24,.T.);
#480=ADVANCED_FACE('',(#57),#40,.F.);
#481=ADVANCED_FACE('',(#58),#25,.T.);
#482=ADVANCED_FACE('',(#59),#41,.F.);
#483=ADVANCED_FACE('',(#60),#26,.T.);
#484=ADVANCED_FACE('',(#61),#42,.F.);
#485=ADVANCED_FACE('',(#62),#27,.T.);
#486=ADVANCED_FACE('',(#63),#28,.F.);
#487=ADVANCED_FACE('',(#64),#29,.T.);
#488=ADVANCED_FACE('',(#65),#43,.T.);
#489=ADVANCED_FACE('',(#66),#30,.T.);
#490=ADVANCED_FACE('',(#67),#44,.T.);
#491=ADVANCED_FACE('',(#68),#31,.T.);
#492=ADVANCED_FACE('',(#69),#45,.T.);
#493=ADVANCED_FACE('',(#70),#32,.T.);
#494=ADVANCED_FACE('',(#71),#46,.T.);
#495=ADVANCED_FACE('',(#72,#15,#16,#17,#18),#33,.T.);
#496=ADVANCED_FACE('',(#73,#19,#20,#21,#22,#23),#34,.F.);
#497=CLOSED_SHELL('',(#470,#471,#472,#473,#474,#475,#476,#477,#478,#479,
#480,#481,#482,#483,#484,#485,#486,#487,#488,#489,#490,#491,#492,#493,#494,
#495,#496));
#498=DERIVED_UNIT_ELEMENT(#500,1.);
#499=DERIVED_UNIT_ELEMENT(#863,-3.);
#500=(
MASS_UNIT()
NAMED_UNIT(*)
SI_UNIT(.KILO.,.GRAM.)
);
#501=DERIVED_UNIT((#498,#499));
#502=MEASURE_REPRESENTATION_ITEM('density measure',
POSITIVE_RATIO_MEASURE(1310.),#501);
#503=PROPERTY_DEFINITION_REPRESENTATION(#508,#505);
#504=PROPERTY_DEFINITION_REPRESENTATION(#509,#506);
#505=REPRESENTATION('material name',(#507),#860);
#506=REPRESENTATION('density',(#502),#860);
#507=DESCRIPTIVE_REPRESENTATION_ITEM('PLA Matte','PLA Matte');
#508=PROPERTY_DEFINITION('material property','material name',#870);
#509=PROPERTY_DEFINITION('material property','density of part',#870);
#510=AXIS2_PLACEMENT_3D('',#718,#566,#567);
#511=AXIS2_PLACEMENT_3D('',#719,#568,#569);
#512=AXIS2_PLACEMENT_3D('',#721,#570,#571);
#513=AXIS2_PLACEMENT_3D('',#724,#573,#574);
#514=AXIS2_PLACEMENT_3D('',#725,#575,#576);
#515=AXIS2_PLACEMENT_3D('',#728,#578,#579);
#516=AXIS2_PLACEMENT_3D('',#729,#580,#581);
#517=AXIS2_PLACEMENT_3D('',#731,#582,#583);
#518=AXIS2_PLACEMENT_3D('',#734,#585,#586);
#519=AXIS2_PLACEMENT_3D('',#735,#587,#588);
#520=AXIS2_PLACEMENT_3D('',#738,#590,#591);
#521=AXIS2_PLACEMENT_3D('',#739,#592,#593);
#522=AXIS2_PLACEMENT_3D('',#741,#594,#595);
#523=AXIS2_PLACEMENT_3D('',#744,#597,#598);
#524=AXIS2_PLACEMENT_3D('',#745,#599,#600);
#525=AXIS2_PLACEMENT_3D('',#748,#602,#603);
#526=AXIS2_PLACEMENT_3D('',#749,#604,#605);
#527=AXIS2_PLACEMENT_3D('',#751,#606,#607);
#528=AXIS2_PLACEMENT_3D('',#754,#609,#610);
#529=AXIS2_PLACEMENT_3D('',#755,#611,#612);
#530=AXIS2_PLACEMENT_3D('',#758,#614,#615);
#531=AXIS2_PLACEMENT_3D('',#759,#616,#617);
#532=AXIS2_PLACEMENT_3D('',#762,#618,#619);
#533=AXIS2_PLACEMENT_3D('',#766,#621,#622);
#534=AXIS2_PLACEMENT_3D('',#768,#624,#625);
#535=AXIS2_PLACEMENT_3D('',#774,#629,#630);
#536=AXIS2_PLACEMENT_3D('',#776,#631,#632);
#537=AXIS2_PLACEMENT_3D('',#778,#633,#634);
#538=AXIS2_PLACEMENT_3D('',#780,#636,#637);
#539=AXIS2_PLACEMENT_3D('',#786,#641,#642);
#540=AXIS2_PLACEMENT_3D('',#788,#643,#644);
#541=AXIS2_PLACEMENT_3D('',#790,#645,#646);
#542=AXIS2_PLACEMENT_3D('',#792,#648,#649);
#543=AXIS2_PLACEMENT_3D('',#798,#653,#654);
#544=AXIS2_PLACEMENT_3D('',#800,#655,#656);
#545=AXIS2_PLACEMENT_3D('',#802,#657,#658);
#546=AXIS2_PLACEMENT_3D('',#804,#660,#661);
#547=AXIS2_PLACEMENT_3D('',#807,#664,#665);
#548=AXIS2_PLACEMENT_3D('',#808,#666,#667);
#549=AXIS2_PLACEMENT_3D('',#817,#672,#673);
#550=AXIS2_PLACEMENT_3D('',#819,#674,#675);
#551=AXIS2_PLACEMENT_3D('',#821,#676,#677);
#552=AXIS2_PLACEMENT_3D('',#823,#679,#680);
#553=AXIS2_PLACEMENT_3D('',#829,#684,#685);
#554=AXIS2_PLACEMENT_3D('',#831,#686,#687);
#555=AXIS2_PLACEMENT_3D('',#833,#688,#689);
#556=AXIS2_PLACEMENT_3D('',#835,#691,#692);
#557=AXIS2_PLACEMENT_3D('',#841,#696,#697);
#558=AXIS2_PLACEMENT_3D('',#843,#698,#699);
#559=AXIS2_PLACEMENT_3D('',#845,#700,#701);
#560=AXIS2_PLACEMENT_3D('',#847,#703,#704);
#561=AXIS2_PLACEMENT_3D('',#853,#708,#709);
#562=AXIS2_PLACEMENT_3D('',#854,#710,#711);
#563=AXIS2_PLACEMENT_3D('',#855,#712,#713);
#564=AXIS2_PLACEMENT_3D('',#856,#714,#715);
#565=AXIS2_PLACEMENT_3D('',#857,#716,#717);
#566=DIRECTION('axis',(0.,0.,1.));
#567=DIRECTION('refdir',(1.,0.,0.));
#568=DIRECTION('center_axis',(0.,1.,0.));
#569=DIRECTION('ref_axis',(0.,0.,1.));
#570=DIRECTION('center_axis',(0.,-1.,0.));
#571=DIRECTION('ref_axis',(0.,0.,1.));
#572=DIRECTION('',(-8.65956056235493E-17,-0.707106781186548,0.707106781186547));
#573=DIRECTION('center_axis',(0.,-1.,0.));
#574=DIRECTION('ref_axis',(0.,0.,1.));
#575=DIRECTION('center_axis',(0.,-1.,0.));
#576=DIRECTION('ref_axis',(0.,0.,1.));
#577=DIRECTION('',(0.,-1.,0.));
#578=DIRECTION('center_axis',(0.,1.,0.));
#579=DIRECTION('ref_axis',(0.,0.,1.));
#580=DIRECTION('center_axis',(0.,1.,0.));
#581=DIRECTION('ref_axis',(0.,0.,1.));
#582=DIRECTION('center_axis',(0.,-1.,0.));
#583=DIRECTION('ref_axis',(0.,0.,1.));
#584=DIRECTION('',(-8.65956056235493E-17,-0.707106781186548,0.707106781186547));
#585=DIRECTION('center_axis',(0.,-1.,0.));
#586=DIRECTION('ref_axis',(0.,0.,1.));
#587=DIRECTION('center_axis',(0.,-1.,0.));
#588=DIRECTION('ref_axis',(0.,0.,1.));
#589=DIRECTION('',(0.,-1.,0.));
#590=DIRECTION('center_axis',(0.,1.,0.));
#591=DIRECTION('ref_axis',(0.,0.,1.));
#592=DIRECTION('center_axis',(0.,1.,0.));
#593=DIRECTION('ref_axis',(0.,0.,1.));
#594=DIRECTION('center_axis',(0.,-1.,0.));
#595=DIRECTION('ref_axis',(0.,0.,1.));
#596=DIRECTION('',(-8.65956056235493E-17,-0.707106781186548,0.707106781186547));
#597=DIRECTION('center_axis',(0.,-1.,0.));
#598=DIRECTION('ref_axis',(0.,0.,1.));
#599=DIRECTION('center_axis',(0.,-1.,0.));
#600=DIRECTION('ref_axis',(0.,0.,1.));
#601=DIRECTION('',(0.,-1.,0.));
#602=DIRECTION('center_axis',(0.,1.,0.));
#603=DIRECTION('ref_axis',(0.,0.,1.));
#604=DIRECTION('center_axis',(0.,1.,0.));
#605=DIRECTION('ref_axis',(0.,0.,1.));
#606=DIRECTION('center_axis',(0.,-1.,0.));
#607=DIRECTION('ref_axis',(0.,0.,1.));
#608=DIRECTION('',(-8.65956056235493E-17,-0.707106781186548,0.707106781186547));
#609=DIRECTION('center_axis',(0.,-1.,0.));
#610=DIRECTION('ref_axis',(0.,0.,1.));
#611=DIRECTION('center_axis',(0.,-1.,0.));
#612=DIRECTION('ref_axis',(0.,0.,1.));
#613=DIRECTION('',(0.,-1.,0.));
#614=DIRECTION('center_axis',(0.,1.,0.));
#615=DIRECTION('ref_axis',(0.,0.,1.));
#616=DIRECTION('center_axis',(0.,1.,0.));
#617=DIRECTION('ref_axis',(1.48029736616687E-15,0.,1.));
#618=DIRECTION('center_axis',(0.,1.,0.));
#619=DIRECTION('ref_axis',(1.48029736616687E-15,0.,1.));
#620=DIRECTION('',(0.,1.,0.));
#621=DIRECTION('center_axis',(0.,-1.,0.));
#622=DIRECTION('ref_axis',(1.48029736616687E-15,0.,1.));
#623=DIRECTION('',(0.,1.,0.));
#624=DIRECTION('center_axis',(3.65204942310907E-16,0.,-1.));
#625=DIRECTION('ref_axis',(-1.,0.,-3.65204942310907E-16));
#626=DIRECTION('',(-1.,0.,-3.65204942310907E-16));
#627=DIRECTION('',(-1.,0.,-3.65204942310907E-16));
#628=DIRECTION('',(0.,1.,0.));
#629=DIRECTION('center_axis',(0.,1.,0.));
#630=DIRECTION('ref_axis',(-1.,0.,0.));
#631=DIRECTION('center_axis',(0.,1.,0.));
#632=DIRECTION('ref_axis',(-1.,0.,0.));
#633=DIRECTION('center_axis',(0.,-1.,0.));
#634=DIRECTION('ref_axis',(-1.,0.,0.));
#635=DIRECTION('',(0.,1.,0.));
#636=DIRECTION('center_axis',(1.,0.,-3.28144736342411E-16));
#637=DIRECTION('ref_axis',(-3.28144736342411E-16,0.,-1.));
#638=DIRECTION('',(-3.28144736342411E-16,0.,-1.));
#639=DIRECTION('',(-3.28144736342411E-16,0.,-1.));
#640=DIRECTION('',(0.,1.,0.));
#641=DIRECTION('center_axis',(0.,1.,0.));
#642=DIRECTION('ref_axis',(-1.48029736616688E-15,0.,-1.));
#643=DIRECTION('center_axis',(0.,1.,0.));
#644=DIRECTION('ref_axis',(-1.48029736616688E-15,0.,-1.));
#645=DIRECTION('center_axis',(0.,-1.,0.));
#646=DIRECTION('ref_axis',(-1.48029736616688E-15,0.,-1.));
#647=DIRECTION('',(0.,1.,0.));
#648=DIRECTION('center_axis',(-1.46081976924363E-16,0.,1.));
#649=DIRECTION('ref_axis',(1.,0.,1.46081976924363E-16));
#650=DIRECTION('',(1.,0.,1.46081976924363E-16));
#651=DIRECTION('',(1.,0.,1.46081976924363E-16));
#652=DIRECTION('',(0.,1.,0.));
#653=DIRECTION('center_axis',(0.,1.,0.));
#654=DIRECTION('ref_axis',(1.,0.,0.));
#655=DIRECTION('center_axis',(0.,1.,0.));
#656=DIRECTION('ref_axis',(1.,0.,0.));
#657=DIRECTION('center_axis',(0.,-1.,0.));
#658=DIRECTION('ref_axis',(1.,0.,0.));
#659=DIRECTION('',(0.,1.,0.));
#660=DIRECTION('center_axis',(-1.,0.,-7.65671051465625E-16));
#661=DIRECTION('ref_axis',(-7.65671051465625E-16,0.,1.));
#662=DIRECTION('',(-7.65671051465625E-16,0.,1.));
#663=DIRECTION('',(-7.65671051465625E-16,0.,1.));
#664=DIRECTION('center_axis',(0.,1.,0.));
#665=DIRECTION('ref_axis',(1.,0.,0.));
#666=DIRECTION('center_axis',(1.,0.,1.06241437763173E-16));
#667=DIRECTION('ref_axis',(1.06241437763173E-16,0.,-1.));
#668=DIRECTION('',(1.06241437763173E-16,0.,-1.));
#669=DIRECTION('',(0.,1.,0.));
#670=DIRECTION('',(1.06241437763173E-16,0.,-1.));
#671=DIRECTION('',(0.,1.,0.));
#672=DIRECTION('center_axis',(0.,1.,0.));
#673=DIRECTION('ref_axis',(0.,0.,1.));
#674=DIRECTION('center_axis',(0.,1.,0.));
#675=DIRECTION('ref_axis',(0.,0.,1.));
#676=DIRECTION('center_axis',(0.,1.,0.));
#677=DIRECTION('ref_axis',(0.,0.,1.));
#678=DIRECTION('',(0.,1.,0.));
#679=DIRECTION('center_axis',(7.09407683466554E-17,0.,1.));
#680=DIRECTION('ref_axis',(1.,0.,-7.09407683466554E-17));
#681=DIRECTION('',(1.,0.,-7.09407683466554E-17));
#682=DIRECTION('',(1.,0.,-7.09407683466554E-17));
#683=DIRECTION('',(0.,1.,0.));
#684=DIRECTION('center_axis',(0.,1.,0.));
#685=DIRECTION('ref_axis',(-1.,0.,2.2204460492503E-15));
#686=DIRECTION('center_axis',(0.,1.,0.));
#687=DIRECTION('ref_axis',(-1.,0.,2.2204460492503E-15));
#688=DIRECTION('center_axis',(0.,1.,0.));
#689=DIRECTION('ref_axis',(-1.,0.,2.2204460492503E-15));
#690=DIRECTION('',(0.,1.,0.));
#691=DIRECTION('center_axis',(-1.,0.,-1.06241437763173E-16));
#692=DIRECTION('ref_axis',(-1.06241437763173E-16,0.,1.));
#693=DIRECTION('',(-1.06241437763173E-16,0.,1.));
#694=DIRECTION('',(-1.06241437763173E-16,0.,1.));
#695=DIRECTION('',(0.,1.,0.));
#696=DIRECTION('center_axis',(0.,1.,0.));
#697=DIRECTION('ref_axis',(2.22044604925031E-15,0.,-1.));
#698=DIRECTION('center_axis',(0.,1.,0.));
#699=DIRECTION('ref_axis',(2.22044604925031E-15,0.,-1.));
#700=DIRECTION('center_axis',(0.,1.,0.));
#701=DIRECTION('ref_axis',(2.22044604925031E-15,0.,-1.));
#702=DIRECTION('',(0.,1.,0.));
#703=DIRECTION('center_axis',(-7.09407683466554E-17,0.,-1.));
#704=DIRECTION('ref_axis',(-1.,0.,7.09407683466554E-17));
#705=DIRECTION('',(-1.,0.,7.09407683466554E-17));
#706=DIRECTION('',(-1.,0.,7.09407683466554E-17));
#707=DIRECTION('',(0.,1.,0.));
#708=DIRECTION('center_axis',(0.,1.,0.));
#709=DIRECTION('ref_axis',(1.,0.,2.22044604925032E-15));
#710=DIRECTION('center_axis',(0.,1.,0.));
#711=DIRECTION('ref_axis',(1.,0.,2.22044604925032E-15));
#712=DIRECTION('center_axis',(0.,1.,0.));
#713=DIRECTION('ref_axis',(1.,0.,2.22044604925032E-15));
#714=DIRECTION('center_axis',(0.,1.,0.));
#715=DIRECTION('ref_axis',(1.,0.,0.));
#716=DIRECTION('center_axis',(0.,1.,0.));
#717=DIRECTION('ref_axis',(1.,0.,0.));
#718=CARTESIAN_POINT('',(0.,0.,0.));
#719=CARTESIAN_POINT('Origin',(-30.400000000008,23.53225,-20.2999999999993));
#720=CARTESIAN_POINT('',(-30.400000000008,24.,-22.4999999999993));
#721=CARTESIAN_POINT('Origin',(-30.400000000008,24.,-20.2999999999993));
#722=CARTESIAN_POINT('',(-30.400000000008,23.0645,-21.5644999999993));
#723=CARTESIAN_POINT('',(-30.400000000008,23.53225,-22.0322499999993));
#724=CARTESIAN_POINT('Origin',(-30.400000000008,23.0645,-20.2999999999993));
#725=CARTESIAN_POINT('Origin',(-30.400000000008,22.5,-20.2999999999993));
#726=CARTESIAN_POINT('',(-30.400000000008,21.,-21.5644999999993));
#727=CARTESIAN_POINT('',(-30.400000000008,22.5,-21.5644999999993));
#728=CARTESIAN_POINT('Origin',(-30.400000000008,21.,-20.2999999999993));
#729=CARTESIAN_POINT('Origin',(30.5,23.53225,20.5));
#730=CARTESIAN_POINT('',(30.5,24.,18.3));
#731=CARTESIAN_POINT('Origin',(30.5,24.,20.5));
#732=CARTESIAN_POINT('',(30.5,23.0645,19.2355));
#733=CARTESIAN_POINT('',(30.5,23.53225,18.76775));
#734=CARTESIAN_POINT('Origin',(30.5,23.0645,20.5));
#735=CARTESIAN_POINT('Origin',(30.5,22.5,20.5));
#736=CARTESIAN_POINT('',(30.5,21.,19.2355));
#737=CARTESIAN_POINT('',(30.5,22.5,19.2355));
#738=CARTESIAN_POINT('Origin',(30.5,21.,20.5));
#739=CARTESIAN_POINT('Origin',(30.5,23.53225,-20.5));
#740=CARTESIAN_POINT('',(30.5,24.,-22.7));
#741=CARTESIAN_POINT('Origin',(30.5,24.,-20.5));
#742=CARTESIAN_POINT('',(30.5,23.0645,-21.7645));
#743=CARTESIAN_POINT('',(30.5,23.53225,-22.23225));
#744=CARTESIAN_POINT('Origin',(30.5,23.0645,-20.5));
#745=CARTESIAN_POINT('Origin',(30.5,22.5,-20.5));
#746=CARTESIAN_POINT('',(30.5,21.,-21.7645));
#747=CARTESIAN_POINT('',(30.5,22.5,-21.7645));
#748=CARTESIAN_POINT('Origin',(30.5,21.,-20.5));
#749=CARTESIAN_POINT('Origin',(-30.5,23.53225,20.5));
#750=CARTESIAN_POINT('',(-30.5,24.,18.3));
#751=CARTESIAN_POINT('Origin',(-30.5,24.,20.5));
#752=CARTESIAN_POINT('',(-30.5,23.0645,19.2355));
#753=CARTESIAN_POINT('',(-30.5,23.53225,18.76775));
#754=CARTESIAN_POINT('Origin',(-30.5,23.0645,20.5));
#755=CARTESIAN_POINT('Origin',(-30.5,22.5,20.5));
#756=CARTESIAN_POINT('',(-30.5,21.,19.2355));
#757=CARTESIAN_POINT('',(-30.5,22.5,19.2355));
#758=CARTESIAN_POINT('Origin',(-30.5,21.,20.5));
#759=CARTESIAN_POINT('Origin',(-30.4000000000081,19.5,-20.2999999999993));
#760=CARTESIAN_POINT('',(-30.400000000008,19.5,-17.2999999999993));
#761=CARTESIAN_POINT('',(-27.400000000008,19.5,-20.2999999999993));
#762=CARTESIAN_POINT('Origin',(-30.4000000000081,19.5,-20.2999999999993));
#763=CARTESIAN_POINT('',(-30.400000000008,21.,-17.2999999999993));
#764=CARTESIAN_POINT('',(-30.400000000008,19.5,-17.2999999999993));
#765=CARTESIAN_POINT('',(-27.400000000008,21.,-20.2999999999993));
#766=CARTESIAN_POINT('Origin',(-30.4000000000081,21.,-20.2999999999993));
#767=CARTESIAN_POINT('',(-27.400000000008,19.5,-20.2999999999993));
#768=CARTESIAN_POINT('Origin',(27.399999999992,19.5,-20.2999999999993));
#769=CARTESIAN_POINT('',(27.399999999992,19.5,-20.2999999999993));
#770=CARTESIAN_POINT('',(30.399999999992,19.5,-20.2999999999993));
#771=CARTESIAN_POINT('',(27.399999999992,21.,-20.2999999999993));
#772=CARTESIAN_POINT('',(13.699999999996,21.,-20.2999999999993));
#773=CARTESIAN_POINT('',(27.399999999992,19.5,-20.2999999999993));
#774=CARTESIAN_POINT('Origin',(30.399999999992,19.5,-20.2999999999993));
#775=CARTESIAN_POINT('',(30.399999999992,19.5,-17.2999999999993));
#776=CARTESIAN_POINT('Origin',(30.399999999992,19.5,-20.2999999999993));
#777=CARTESIAN_POINT('',(30.399999999992,21.,-17.2999999999993));
#778=CARTESIAN_POINT('Origin',(30.399999999992,21.,-20.2999999999993));
#779=CARTESIAN_POINT('',(30.399999999992,19.5,-17.2999999999993));
#780=CARTESIAN_POINT('Origin',(30.399999999992,19.5,17.3000000000007));
#781=CARTESIAN_POINT('',(30.399999999992,19.5,17.3000000000007));
#782=CARTESIAN_POINT('',(30.399999999992,19.5,20.3000000000008));
#783=CARTESIAN_POINT('',(30.399999999992,21.,17.3000000000008));
#784=CARTESIAN_POINT('',(30.399999999992,21.,8.65000000000037));
#785=CARTESIAN_POINT('',(30.399999999992,19.5,17.3000000000007));
#786=CARTESIAN_POINT('Origin',(30.399999999992,19.5,20.3000000000007));
#787=CARTESIAN_POINT('',(27.399999999992,19.5,20.3000000000008));
#788=CARTESIAN_POINT('Origin',(30.399999999992,19.5,20.3000000000007));
#789=CARTESIAN_POINT('',(27.399999999992,21.,20.3000000000008));
#790=CARTESIAN_POINT('Origin',(30.399999999992,21.,20.3000000000007));
#791=CARTESIAN_POINT('',(27.399999999992,19.5,20.3000000000008));
#792=CARTESIAN_POINT('Origin',(-27.4000000000081,19.5,20.3000000000007));
#793=CARTESIAN_POINT('',(-27.4000000000081,19.5,20.3000000000007));
#794=CARTESIAN_POINT('',(-30.4000000000081,19.5,20.3000000000007));
#795=CARTESIAN_POINT('',(-27.4000000000081,21.,20.3000000000007));
#796=CARTESIAN_POINT('',(-13.700000000004,21.,20.3000000000007));
#797=CARTESIAN_POINT('',(-27.4000000000081,19.5,20.3000000000007));
#798=CARTESIAN_POINT('Origin',(-30.4000000000081,19.5,20.3000000000007));
#799=CARTESIAN_POINT('',(-30.4000000000081,19.5,17.3000000000008));
#800=CARTESIAN_POINT('Origin',(-30.4000000000081,19.5,20.3000000000007));
#801=CARTESIAN_POINT('',(-30.4000000000081,21.,17.3000000000008));
#802=CARTESIAN_POINT('Origin',(-30.4000000000081,21.,20.3000000000007));
#803=CARTESIAN_POINT('',(-30.4000000000081,19.5,17.3000000000008));
#804=CARTESIAN_POINT('Origin',(-30.4000000000081,19.5,-17.2999999999993));
#805=CARTESIAN_POINT('',(-30.4000000000081,19.5,-20.2999999999993));
#806=CARTESIAN_POINT('',(-30.4000000000081,21.,-8.64999999999965));
#807=CARTESIAN_POINT('Origin',(-8.06466005087714E-12,19.5,7.32747196252603E-13));
#808=CARTESIAN_POINT('Origin',(33.3,21.,20.9));
#809=CARTESIAN_POINT('',(33.3,21.,20.9));
#810=CARTESIAN_POINT('',(33.3,21.,-20.9));
#811=CARTESIAN_POINT('',(33.3,21.,20.9));
#812=CARTESIAN_POINT('',(33.3,24.,-20.9));
#813=CARTESIAN_POINT('',(33.3,21.,-20.9));
#814=CARTESIAN_POINT('',(33.3,24.,20.9));
#815=CARTESIAN_POINT('',(33.3,24.,20.9));
#816=CARTESIAN_POINT('',(33.3,21.,20.9));
#817=CARTESIAN_POINT('Origin',(31.3,21.,20.9));
#818=CARTESIAN_POINT('',(31.3,21.,22.9));
#819=CARTESIAN_POINT('Origin',(31.3,21.,20.9));
#820=CARTESIAN_POINT('',(31.3,24.,22.9));
#821=CARTESIAN_POINT('Origin',(31.3,24.,20.9));
#822=CARTESIAN_POINT('',(31.3,21.,22.9));
#823=CARTESIAN_POINT('Origin',(-31.3,21.,22.9));
#824=CARTESIAN_POINT('',(-31.3,21.,22.9));
#825=CARTESIAN_POINT('',(-31.3,21.,22.9));
#826=CARTESIAN_POINT('',(-31.3,24.,22.9));
#827=CARTESIAN_POINT('',(-31.3,24.,22.9));
#828=CARTESIAN_POINT('',(-31.3,21.,22.9));
#829=CARTESIAN_POINT('Origin',(-31.3,21.,20.9));
#830=CARTESIAN_POINT('',(-33.3,21.,20.9));
#831=CARTESIAN_POINT('Origin',(-31.3,21.,20.9));
#832=CARTESIAN_POINT('',(-33.3,24.,20.9));
#833=CARTESIAN_POINT('Origin',(-31.3,24.,20.9));
#834=CARTESIAN_POINT('',(-33.3,21.,20.9));
#835=CARTESIAN_POINT('Origin',(-33.3,21.,-20.9));
#836=CARTESIAN_POINT('',(-33.3,21.,-20.9));
#837=CARTESIAN_POINT('',(-33.3,21.,-20.9));
#838=CARTESIAN_POINT('',(-33.3,24.,-20.9));
#839=CARTESIAN_POINT('',(-33.3,24.,-20.9));
#840=CARTESIAN_POINT('',(-33.3,21.,-20.9));
#841=CARTESIAN_POINT('Origin',(-31.3,21.,-20.9));
#842=CARTESIAN_POINT('',(-31.3,21.,-22.9));
#843=CARTESIAN_POINT('Origin',(-31.3,21.,-20.9));
#844=CARTESIAN_POINT('',(-31.3,24.,-22.9));
#845=CARTESIAN_POINT('Origin',(-31.3,24.,-20.9));
#846=CARTESIAN_POINT('',(-31.3,21.,-22.9));
#847=CARTESIAN_POINT('Origin',(31.3,21.,-22.9));
#848=CARTESIAN_POINT('',(31.3,21.,-22.9));
#849=CARTESIAN_POINT('',(31.3,21.,-22.9));
#850=CARTESIAN_POINT('',(31.3,24.,-22.9));
#851=CARTESIAN_POINT('',(31.3,24.,-22.9));
#852=CARTESIAN_POINT('',(31.3,21.,-22.9));
#853=CARTESIAN_POINT('Origin',(31.3,21.,-20.9));
#854=CARTESIAN_POINT('Origin',(31.3,21.,-20.9));
#855=CARTESIAN_POINT('Origin',(31.3,24.,-20.9));
#856=CARTESIAN_POINT('Origin',(4.44089209850063E-15,24.,8.88178419700125E-15));
#857=CARTESIAN_POINT('Origin',(4.44089209850063E-15,21.,8.88178419700125E-15));
#858=UNCERTAINTY_MEASURE_WITH_UNIT(LENGTH_MEASURE(0.01),#862,
'DISTANCE_ACCURACY_VALUE',
'Maximum model space distance between geometric entities at asserted c
onnectivities');
#859=UNCERTAINTY_MEASURE_WITH_UNIT(LENGTH_MEASURE(0.01),#862,
'DISTANCE_ACCURACY_VALUE',
'Maximum model space distance between geometric entities at asserted c
onnectivities');
#860=(
GEOMETRIC_REPRESENTATION_CONTEXT(3)
GLOBAL_UNCERTAINTY_ASSIGNED_CONTEXT((#858))
GLOBAL_UNIT_ASSIGNED_CONTEXT((#862,#864,#865))
REPRESENTATION_CONTEXT('','3D')
);
#861=(
GEOMETRIC_REPRESENTATION_CONTEXT(3)
GLOBAL_UNCERTAINTY_ASSIGNED_CONTEXT((#859))
GLOBAL_UNIT_ASSIGNED_CONTEXT((#862,#864,#865))
REPRESENTATION_CONTEXT('','3D')
);
#862=(
LENGTH_UNIT()
NAMED_UNIT(*)
SI_UNIT(.MILLI.,.METRE.)
);
#863=(
LENGTH_UNIT()
NAMED_UNIT(*)
SI_UNIT($,.METRE.)
);
#864=(
NAMED_UNIT(*)
PLANE_ANGLE_UNIT()
SI_UNIT($,.RADIAN.)
);
#865=(
NAMED_UNIT(*)
SI_UNIT($,.STERADIAN.)
SOLID_ANGLE_UNIT()
);
#866=SHAPE_DEFINITION_REPRESENTATION(#867,#868);
#867=PRODUCT_DEFINITION_SHAPE('',$,#870);
#868=SHAPE_REPRESENTATION('',(#510),#860);
#869=PRODUCT_DEFINITION_CONTEXT('part definition',#874,'design');
#870=PRODUCT_DEFINITION('Enclosure Lid Unit 1',
'Enclosure Lid Unit 1 v4',#871,#869);
#871=PRODUCT_DEFINITION_FORMATION('',$,#876);
#872=PRODUCT_RELATED_PRODUCT_CATEGORY('Enclosure Lid Unit 1 v4',
'Enclosure Lid Unit 1 v4',(#876));
#873=APPLICATION_PROTOCOL_DEFINITION('international standard',
'automotive_design',2009,#874);
#874=APPLICATION_CONTEXT(
'Core Data for Automotive Mechanical Design Process');
#875=PRODUCT_CONTEXT('part definition',#874,'mechanical');
#876=PRODUCT('Enclosure Lid Unit 1','Enclosure Lid Unit 1 v4',$,(#875));
#877=PRESENTATION_STYLE_ASSIGNMENT((#878));
#878=SURFACE_STYLE_USAGE(.BOTH.,#879);
#879=SURFACE_SIDE_STYLE('',(#880));
#880=SURFACE_STYLE_FILL_AREA(#881);
#881=FILL_AREA_STYLE('ABS (White)',(#882));
#882=FILL_AREA_STYLE_COLOUR('ABS (White)',#883);
#883=COLOUR_RGB('ABS (White)',0.298039215686275,0.305882352941176,0.337254901960784);
ENDSEC;
END-ISO-10303-21;
