ISO-10303-21;
HEADER;
/* Generated by software containing ST-Developer
 * from STEP Tools, Inc. (www.steptools.com) 
 */

FILE_DESCRIPTION(
/* description */ (''),
/* implementation_level */ '2;1');

FILE_NAME(
/* name */ 'Enclosure Unit 1.step',
/* time_stamp */ '2026-05-23T12:27:16+02:00',
/* author */ (''),
/* organization */ (''),
/* preprocessor_version */ 'ST-DEVELOPER v20.1',
/* originating_system */ 'Autodesk Translation Framework v15.8.0.0',
/* authorisation */ '');

FILE_SCHEMA (('AUTOMOTIVE_DESIGN { 1 0 10303 214 3 1 1 }'));
ENDSEC;

DATA;
#10=MECHANICAL_DESIGN_GEOMETRIC_PRESENTATION_REPRESENTATION('',(#13),#1569);
#11=SHAPE_REPRESENTATION_RELATIONSHIP('SRR','None',#1576,#12);
#12=ADVANCED_BREP_SHAPE_REPRESENTATION('',(#14),#1568);
#13=STYLED_ITEM('',(#1586),#14);
#14=MANIFOLD_SOLID_BREP('Body6',#925);
#15=FACE_BOUND('',#166,.T.);
#16=FACE_BOUND('',#169,.T.);
#17=FACE_BOUND('',#181,.T.);
#18=FACE_BOUND('',#182,.T.);
#19=FACE_BOUND('',#191,.T.);
#20=FACE_BOUND('',#192,.T.);
#21=FACE_BOUND('',#197,.T.);
#22=FACE_BOUND('',#198,.T.);
#23=FACE_BOUND('',#199,.T.);
#24=FACE_BOUND('',#202,.T.);
#25=FACE_BOUND('',#203,.T.);
#26=FACE_BOUND('',#204,.T.);
#27=FACE_BOUND('',#205,.T.);
#28=FACE_BOUND('',#206,.T.);
#29=CYLINDRICAL_SURFACE('',#952,0.999999999999968);
#30=CYLINDRICAL_SURFACE('',#956,0.999999999999985);
#31=CYLINDRICAL_SURFACE('',#961,0.999999999999999);
#32=CYLINDRICAL_SURFACE('',#965,1.);
#33=CYLINDRICAL_SURFACE('',#970,2.);
#34=CYLINDRICAL_SURFACE('',#974,2.);
#35=CYLINDRICAL_SURFACE('',#978,3.);
#36=CYLINDRICAL_SURFACE('',#982,3.);
#37=CYLINDRICAL_SURFACE('',#986,1.6);
#38=CYLINDRICAL_SURFACE('',#990,1.6);
#39=CYLINDRICAL_SURFACE('',#994,1.6);
#40=CYLINDRICAL_SURFACE('',#998,1.6);
#41=CYLINDRICAL_SURFACE('',#1002,3.);
#42=CYLINDRICAL_SURFACE('',#1010,2.99999999999999);
#43=CYLINDRICAL_SURFACE('',#1013,2.99999999999999);
#44=CYLINDRICAL_SURFACE('',#1016,3.);
#45=CYLINDRICAL_SURFACE('',#1019,2.00000000000001);
#46=CYLINDRICAL_SURFACE('',#1022,2.00000000000002);
#47=CYLINDRICAL_SURFACE('',#1025,2.00000000000001);
#48=CYLINDRICAL_SURFACE('',#1028,2.);
#49=CIRCLE('',#948,2.);
#50=CIRCLE('',#949,2.00000000000001);
#51=CIRCLE('',#950,2.00000000000002);
#52=CIRCLE('',#951,2.00000000000001);
#53=CIRCLE('',#953,0.999999999999968);
#54=CIRCLE('',#954,0.999999999999968);
#55=CIRCLE('',#957,0.999999999999985);
#56=CIRCLE('',#958,0.999999999999985);
#57=CIRCLE('',#962,0.999999999999999);
#58=CIRCLE('',#963,0.999999999999999);
#59=CIRCLE('',#966,1.);
#60=CIRCLE('',#967,1.);
#61=CIRCLE('',#971,2.);
#62=CIRCLE('',#972,2.);
#63=CIRCLE('',#975,2.);
#64=CIRCLE('',#976,2.);
#65=CIRCLE('',#979,3.);
#66=CIRCLE('',#980,3.);
#67=CIRCLE('',#983,3.);
#68=CIRCLE('',#984,3.);
#69=CIRCLE('',#987,1.6);
#70=CIRCLE('',#988,1.6);
#71=CIRCLE('',#991,1.6);
#72=CIRCLE('',#992,1.6);
#73=CIRCLE('',#995,1.6);
#74=CIRCLE('',#996,1.6);
#75=CIRCLE('',#999,1.6);
#76=CIRCLE('',#1000,1.6);
#77=CIRCLE('',#1003,3.);
#78=CIRCLE('',#1004,3.);
#79=CIRCLE('',#1007,3.);
#80=CIRCLE('',#1008,2.99999999999999);
#81=CIRCLE('',#1009,2.99999999999999);
#82=CIRCLE('',#1011,2.99999999999999);
#83=CIRCLE('',#1014,2.99999999999999);
#84=CIRCLE('',#1017,3.);
#85=CIRCLE('',#1020,2.00000000000001);
#86=CIRCLE('',#1023,2.00000000000002);
#87=CIRCLE('',#1026,2.00000000000001);
#88=CIRCLE('',#1029,2.);
#89=FACE_OUTER_BOUND('',#141,.T.);
#90=FACE_OUTER_BOUND('',#142,.T.);
#91=FACE_OUTER_BOUND('',#143,.T.);
#92=FACE_OUTER_BOUND('',#144,.T.);
#93=FACE_OUTER_BOUND('',#145,.T.);
#94=FACE_OUTER_BOUND('',#146,.T.);
#95=FACE_OUTER_BOUND('',#147,.T.);
#96=FACE_OUTER_BOUND('',#148,.T.);
#97=FACE_OUTER_BOUND('',#149,.T.);
#98=FACE_OUTER_BOUND('',#150,.T.);
#99=FACE_OUTER_BOUND('',#151,.T.);
#100=FACE_OUTER_BOUND('',#152,.T.);
#101=FACE_OUTER_BOUND('',#153,.T.);
#102=FACE_OUTER_BOUND('',#154,.T.);
#103=FACE_OUTER_BOUND('',#155,.T.);
#104=FACE_OUTER_BOUND('',#156,.T.);
#105=FACE_OUTER_BOUND('',#157,.T.);
#106=FACE_OUTER_BOUND('',#158,.T.);
#107=FACE_OUTER_BOUND('',#159,.T.);
#108=FACE_OUTER_BOUND('',#160,.T.);
#109=FACE_OUTER_BOUND('',#161,.T.);
#110=FACE_OUTER_BOUND('',#162,.T.);
#111=FACE_OUTER_BOUND('',#163,.T.);
#112=FACE_OUTER_BOUND('',#164,.T.);
#113=FACE_OUTER_BOUND('',#165,.T.);
#114=FACE_OUTER_BOUND('',#167,.T.);
#115=FACE_OUTER_BOUND('',#168,.T.);
#116=FACE_OUTER_BOUND('',#170,.T.);
#117=FACE_OUTER_BOUND('',#171,.T.);
#118=FACE_OUTER_BOUND('',#172,.T.);
#119=FACE_OUTER_BOUND('',#173,.T.);
#120=FACE_OUTER_BOUND('',#174,.T.);
#121=FACE_OUTER_BOUND('',#175,.T.);
#122=FACE_OUTER_BOUND('',#176,.T.);
#123=FACE_OUTER_BOUND('',#177,.T.);
#124=FACE_OUTER_BOUND('',#178,.T.);
#125=FACE_OUTER_BOUND('',#179,.T.);
#126=FACE_OUTER_BOUND('',#180,.T.);
#127=FACE_OUTER_BOUND('',#183,.T.);
#128=FACE_OUTER_BOUND('',#184,.T.);
#129=FACE_OUTER_BOUND('',#185,.T.);
#130=FACE_OUTER_BOUND('',#186,.T.);
#131=FACE_OUTER_BOUND('',#187,.T.);
#132=FACE_OUTER_BOUND('',#188,.T.);
#133=FACE_OUTER_BOUND('',#189,.T.);
#134=FACE_OUTER_BOUND('',#190,.T.);
#135=FACE_OUTER_BOUND('',#193,.T.);
#136=FACE_OUTER_BOUND('',#194,.T.);
#137=FACE_OUTER_BOUND('',#195,.T.);
#138=FACE_OUTER_BOUND('',#196,.T.);
#139=FACE_OUTER_BOUND('',#200,.T.);
#140=FACE_OUTER_BOUND('',#201,.T.);
#141=EDGE_LOOP('',(#589,#590,#591,#592));
#142=EDGE_LOOP('',(#593,#594,#595,#596));
#143=EDGE_LOOP('',(#597,#598,#599,#600));
#144=EDGE_LOOP('',(#601,#602,#603,#604));
#145=EDGE_LOOP('',(#605,#606,#607,#608));
#146=EDGE_LOOP('',(#609,#610,#611,#612));
#147=EDGE_LOOP('',(#613,#614,#615,#616));
#148=EDGE_LOOP('',(#617,#618,#619,#620));
#149=EDGE_LOOP('',(#621,#622,#623,#624,#625,#626,#627,#628));
#150=EDGE_LOOP('',(#629,#630,#631,#632));
#151=EDGE_LOOP('',(#633,#634,#635,#636));
#152=EDGE_LOOP('',(#637,#638,#639,#640));
#153=EDGE_LOOP('',(#641,#642,#643,#644,#645,#646));
#154=EDGE_LOOP('',(#647,#648,#649,#650,#651,#652));
#155=EDGE_LOOP('',(#653,#654,#655,#656));
#156=EDGE_LOOP('',(#657,#658,#659,#660));
#157=EDGE_LOOP('',(#661,#662,#663,#664));
#158=EDGE_LOOP('',(#665,#666,#667,#668,#669,#670));
#159=EDGE_LOOP('',(#671,#672,#673,#674,#675,#676,#677,#678,#679,#680));
#160=EDGE_LOOP('',(#681,#682,#683,#684));
#161=EDGE_LOOP('',(#685));
#162=EDGE_LOOP('',(#686,#687,#688,#689));
#163=EDGE_LOOP('',(#690));
#164=EDGE_LOOP('',(#691,#692,#693,#694));
#165=EDGE_LOOP('',(#695));
#166=EDGE_LOOP('',(#696));
#167=EDGE_LOOP('',(#697,#698,#699,#700));
#168=EDGE_LOOP('',(#701));
#169=EDGE_LOOP('',(#702));
#170=EDGE_LOOP('',(#703,#704,#705,#706));
#171=EDGE_LOOP('',(#707));
#172=EDGE_LOOP('',(#708,#709,#710,#711));
#173=EDGE_LOOP('',(#712));
#174=EDGE_LOOP('',(#713,#714,#715,#716));
#175=EDGE_LOOP('',(#717));
#176=EDGE_LOOP('',(#718,#719,#720,#721));
#177=EDGE_LOOP('',(#722));
#178=EDGE_LOOP('',(#723,#724,#725,#726));
#179=EDGE_LOOP('',(#727,#728,#729,#730));
#180=EDGE_LOOP('',(#731,#732,#733,#734,#735,#736,#737,#738,#739,#740,#741,
#742));
#181=EDGE_LOOP('',(#743));
#182=EDGE_LOOP('',(#744));
#183=EDGE_LOOP('',(#745,#746,#747,#748));
#184=EDGE_LOOP('',(#749,#750,#751,#752));
#185=EDGE_LOOP('',(#753,#754,#755,#756));
#186=EDGE_LOOP('',(#757,#758,#759,#760));
#187=EDGE_LOOP('',(#761,#762,#763,#764));
#188=EDGE_LOOP('',(#765,#766,#767,#768));
#189=EDGE_LOOP('',(#769,#770,#771,#772));
#190=EDGE_LOOP('',(#773,#774,#775,#776));
#191=EDGE_LOOP('',(#777,#778,#779,#780));
#192=EDGE_LOOP('',(#781,#782,#783,#784));
#193=EDGE_LOOP('',(#785,#786,#787,#788));
#194=EDGE_LOOP('',(#789,#790,#791,#792));
#195=EDGE_LOOP('',(#793,#794,#795,#796));
#196=EDGE_LOOP('',(#797,#798,#799,#800));
#197=EDGE_LOOP('',(#801,#802,#803,#804));
#198=EDGE_LOOP('',(#805,#806,#807,#808));
#199=EDGE_LOOP('',(#809,#810,#811,#812,#813,#814,#815,#816));
#200=EDGE_LOOP('',(#817,#818,#819,#820));
#201=EDGE_LOOP('',(#821,#822,#823,#824,#825,#826,#827,#828));
#202=EDGE_LOOP('',(#829,#830,#831,#832,#833,#834,#835,#836));
#203=EDGE_LOOP('',(#837));
#204=EDGE_LOOP('',(#838));
#205=EDGE_LOOP('',(#839));
#206=EDGE_LOOP('',(#840));
#207=LINE('',#1307,#293);
#208=LINE('',#1309,#294);
#209=LINE('',#1311,#295);
#210=LINE('',#1312,#296);
#211=LINE('',#1315,#297);
#212=LINE('',#1317,#298);
#213=LINE('',#1318,#299);
#214=LINE('',#1321,#300);
#215=LINE('',#1323,#301);
#216=LINE('',#1324,#302);
#217=LINE('',#1326,#303);
#218=LINE('',#1327,#304);
#219=LINE('',#1331,#305);
#220=LINE('',#1333,#306);
#221=LINE('',#1335,#307);
#222=LINE('',#1336,#308);
#223=LINE('',#1339,#309);
#224=LINE('',#1341,#310);
#225=LINE('',#1342,#311);
#226=LINE('',#1345,#312);
#227=LINE('',#1347,#313);
#228=LINE('',#1348,#314);
#229=LINE('',#1350,#315);
#230=LINE('',#1351,#316);
#231=LINE('',#1357,#317);
#232=LINE('',#1361,#318);
#233=LINE('',#1365,#319);
#234=LINE('',#1368,#320);
#235=LINE('',#1374,#321);
#236=LINE('',#1377,#322);
#237=LINE('',#1380,#323);
#238=LINE('',#1382,#324);
#239=LINE('',#1383,#325);
#240=LINE('',#1389,#326);
#241=LINE('',#1392,#327);
#242=LINE('',#1394,#328);
#243=LINE('',#1396,#329);
#244=LINE('',#1398,#330);
#245=LINE('',#1399,#331);
#246=LINE('',#1402,#332);
#247=LINE('',#1404,#333);
#248=LINE('',#1406,#334);
#249=LINE('',#1408,#335);
#250=LINE('',#1409,#336);
#251=LINE('',#1414,#337);
#252=LINE('',#1418,#338);
#253=LINE('',#1420,#339);
#254=LINE('',#1421,#340);
#255=LINE('',#1426,#341);
#256=LINE('',#1429,#342);
#257=LINE('',#1431,#343);
#258=LINE('',#1433,#344);
#259=LINE('',#1435,#345);
#260=LINE('',#1436,#346);
#261=LINE('',#1441,#347);
#262=LINE('',#1448,#348);
#263=LINE('',#1455,#349);
#264=LINE('',#1462,#350);
#265=LINE('',#1469,#351);
#266=LINE('',#1476,#352);
#267=LINE('',#1483,#353);
#268=LINE('',#1490,#354);
#269=LINE('',#1498,#355);
#270=LINE('',#1501,#356);
#271=LINE('',#1504,#357);
#272=LINE('',#1506,#358);
#273=LINE('',#1507,#359);
#274=LINE('',#1512,#360);
#275=LINE('',#1515,#361);
#276=LINE('',#1519,#362);
#277=LINE('',#1523,#363);
#278=LINE('',#1524,#364);
#279=LINE('',#1527,#365);
#280=LINE('',#1530,#366);
#281=LINE('',#1535,#367);
#282=LINE('',#1537,#368);
#283=LINE('',#1538,#369);
#284=LINE('',#1542,#370);
#285=LINE('',#1545,#371);
#286=LINE('',#1546,#372);
#287=LINE('',#1550,#373);
#288=LINE('',#1553,#374);
#289=LINE('',#1554,#375);
#290=LINE('',#1558,#376);
#291=LINE('',#1561,#377);
#292=LINE('',#1562,#378);
#293=VECTOR('',#1035,10.);
#294=VECTOR('',#1036,10.);
#295=VECTOR('',#1037,10.);
#296=VECTOR('',#1038,10.);
#297=VECTOR('',#1041,10.);
#298=VECTOR('',#1042,10.);
#299=VECTOR('',#1043,10.);
#300=VECTOR('',#1046,10.);
#301=VECTOR('',#1047,10.);
#302=VECTOR('',#1048,10.);
#303=VECTOR('',#1051,10.);
#304=VECTOR('',#1052,10.);
#305=VECTOR('',#1055,10.);
#306=VECTOR('',#1056,10.);
#307=VECTOR('',#1057,10.);
#308=VECTOR('',#1058,10.);
#309=VECTOR('',#1061,10.);
#310=VECTOR('',#1062,10.);
#311=VECTOR('',#1063,10.);
#312=VECTOR('',#1066,10.);
#313=VECTOR('',#1067,10.);
#314=VECTOR('',#1068,10.);
#315=VECTOR('',#1071,10.);
#316=VECTOR('',#1072,10.);
#317=VECTOR('',#1077,10.);
#318=VECTOR('',#1080,10.);
#319=VECTOR('',#1083,10.);
#320=VECTOR('',#1086,10.);
#321=VECTOR('',#1091,10.);
#322=VECTOR('',#1094,10.);
#323=VECTOR('',#1097,10.);
#324=VECTOR('',#1098,10.);
#325=VECTOR('',#1099,10.);
#326=VECTOR('',#1106,10.);
#327=VECTOR('',#1109,10.);
#328=VECTOR('',#1110,10.);
#329=VECTOR('',#1111,10.);
#330=VECTOR('',#1112,10.);
#331=VECTOR('',#1113,10.);
#332=VECTOR('',#1116,10.);
#333=VECTOR('',#1117,10.);
#334=VECTOR('',#1118,10.);
#335=VECTOR('',#1119,10.);
#336=VECTOR('',#1120,10.);
#337=VECTOR('',#1125,10.);
#338=VECTOR('',#1130,10.);
#339=VECTOR('',#1131,10.);
#340=VECTOR('',#1132,10.);
#341=VECTOR('',#1141,10.);
#342=VECTOR('',#1144,10.);
#343=VECTOR('',#1145,10.);
#344=VECTOR('',#1146,10.);
#345=VECTOR('',#1147,10.);
#346=VECTOR('',#1148,10.);
#347=VECTOR('',#1153,2.);
#348=VECTOR('',#1162,2.);
#349=VECTOR('',#1171,3.);
#350=VECTOR('',#1180,3.);
#351=VECTOR('',#1189,1.6);
#352=VECTOR('',#1198,1.6);
#353=VECTOR('',#1207,1.6);
#354=VECTOR('',#1216,1.6);
#355=VECTOR('',#1225,10.);
#356=VECTOR('',#1228,10.);
#357=VECTOR('',#1231,10.);
#358=VECTOR('',#1232,10.);
#359=VECTOR('',#1233,10.);
#360=VECTOR('',#1238,10.);
#361=VECTOR('',#1241,10.);
#362=VECTOR('',#1246,10.);
#363=VECTOR('',#1251,10.);
#364=VECTOR('',#1252,10.);
#365=VECTOR('',#1255,10.);
#366=VECTOR('',#1260,10.);
#367=VECTOR('',#1267,10.);
#368=VECTOR('',#1268,10.);
#369=VECTOR('',#1269,10.);
#370=VECTOR('',#1274,10.);
#371=VECTOR('',#1277,10.);
#372=VECTOR('',#1278,10.);
#373=VECTOR('',#1283,10.);
#374=VECTOR('',#1286,10.);
#375=VECTOR('',#1287,10.);
#376=VECTOR('',#1292,10.);
#377=VECTOR('',#1295,10.);
#378=VECTOR('',#1296,10.);
#379=VERTEX_POINT('',#1305);
#380=VERTEX_POINT('',#1306);
#381=VERTEX_POINT('',#1308);
#382=VERTEX_POINT('',#1310);
#383=VERTEX_POINT('',#1314);
#384=VERTEX_POINT('',#1316);
#385=VERTEX_POINT('',#1320);
#386=VERTEX_POINT('',#1322);
#387=VERTEX_POINT('',#1329);
#388=VERTEX_POINT('',#1330);
#389=VERTEX_POINT('',#1332);
#390=VERTEX_POINT('',#1334);
#391=VERTEX_POINT('',#1338);
#392=VERTEX_POINT('',#1340);
#393=VERTEX_POINT('',#1344);
#394=VERTEX_POINT('',#1346);
#395=VERTEX_POINT('',#1353);
#396=VERTEX_POINT('',#1354);
#397=VERTEX_POINT('',#1356);
#398=VERTEX_POINT('',#1358);
#399=VERTEX_POINT('',#1360);
#400=VERTEX_POINT('',#1362);
#401=VERTEX_POINT('',#1364);
#402=VERTEX_POINT('',#1366);
#403=VERTEX_POINT('',#1370);
#404=VERTEX_POINT('',#1371);
#405=VERTEX_POINT('',#1373);
#406=VERTEX_POINT('',#1375);
#407=VERTEX_POINT('',#1379);
#408=VERTEX_POINT('',#1381);
#409=VERTEX_POINT('',#1385);
#410=VERTEX_POINT('',#1387);
#411=VERTEX_POINT('',#1391);
#412=VERTEX_POINT('',#1393);
#413=VERTEX_POINT('',#1395);
#414=VERTEX_POINT('',#1397);
#415=VERTEX_POINT('',#1401);
#416=VERTEX_POINT('',#1403);
#417=VERTEX_POINT('',#1405);
#418=VERTEX_POINT('',#1407);
#419=VERTEX_POINT('',#1411);
#420=VERTEX_POINT('',#1413);
#421=VERTEX_POINT('',#1417);
#422=VERTEX_POINT('',#1419);
#423=VERTEX_POINT('',#1428);
#424=VERTEX_POINT('',#1430);
#425=VERTEX_POINT('',#1432);
#426=VERTEX_POINT('',#1434);
#427=VERTEX_POINT('',#1438);
#428=VERTEX_POINT('',#1440);
#429=VERTEX_POINT('',#1445);
#430=VERTEX_POINT('',#1447);
#431=VERTEX_POINT('',#1452);
#432=VERTEX_POINT('',#1454);
#433=VERTEX_POINT('',#1459);
#434=VERTEX_POINT('',#1461);
#435=VERTEX_POINT('',#1466);
#436=VERTEX_POINT('',#1468);
#437=VERTEX_POINT('',#1473);
#438=VERTEX_POINT('',#1475);
#439=VERTEX_POINT('',#1480);
#440=VERTEX_POINT('',#1482);
#441=VERTEX_POINT('',#1487);
#442=VERTEX_POINT('',#1489);
#443=VERTEX_POINT('',#1494);
#444=VERTEX_POINT('',#1495);
#445=VERTEX_POINT('',#1497);
#446=VERTEX_POINT('',#1499);
#447=VERTEX_POINT('',#1503);
#448=VERTEX_POINT('',#1505);
#449=VERTEX_POINT('',#1509);
#450=VERTEX_POINT('',#1511);
#451=VERTEX_POINT('',#1514);
#452=VERTEX_POINT('',#1518);
#453=VERTEX_POINT('',#1522);
#454=VERTEX_POINT('',#1526);
#455=VERTEX_POINT('',#1534);
#456=VERTEX_POINT('',#1536);
#457=VERTEX_POINT('',#1540);
#458=VERTEX_POINT('',#1544);
#459=VERTEX_POINT('',#1548);
#460=VERTEX_POINT('',#1552);
#461=VERTEX_POINT('',#1556);
#462=VERTEX_POINT('',#1560);
#463=EDGE_CURVE('',#379,#380,#207,.T.);
#464=EDGE_CURVE('',#381,#379,#208,.T.);
#465=EDGE_CURVE('',#382,#381,#209,.T.);
#466=EDGE_CURVE('',#382,#380,#210,.T.);
#467=EDGE_CURVE('',#380,#383,#211,.T.);
#468=EDGE_CURVE('',#384,#382,#212,.T.);
#469=EDGE_CURVE('',#384,#383,#213,.T.);
#470=EDGE_CURVE('',#383,#385,#214,.T.);
#471=EDGE_CURVE('',#386,#384,#215,.T.);
#472=EDGE_CURVE('',#386,#385,#216,.T.);
#473=EDGE_CURVE('',#385,#379,#217,.T.);
#474=EDGE_CURVE('',#381,#386,#218,.T.);
#475=EDGE_CURVE('',#387,#388,#219,.T.);
#476=EDGE_CURVE('',#389,#387,#220,.T.);
#477=EDGE_CURVE('',#390,#389,#221,.T.);
#478=EDGE_CURVE('',#390,#388,#222,.T.);
#479=EDGE_CURVE('',#388,#391,#223,.T.);
#480=EDGE_CURVE('',#392,#390,#224,.T.);
#481=EDGE_CURVE('',#392,#391,#225,.T.);
#482=EDGE_CURVE('',#391,#393,#226,.T.);
#483=EDGE_CURVE('',#394,#392,#227,.T.);
#484=EDGE_CURVE('',#394,#393,#228,.T.);
#485=EDGE_CURVE('',#393,#387,#229,.T.);
#486=EDGE_CURVE('',#389,#394,#230,.T.);
#487=EDGE_CURVE('',#395,#396,#49,.T.);
#488=EDGE_CURVE('',#396,#397,#231,.T.);
#489=EDGE_CURVE('',#397,#398,#50,.T.);
#490=EDGE_CURVE('',#398,#399,#232,.T.);
#491=EDGE_CURVE('',#399,#400,#51,.T.);
#492=EDGE_CURVE('',#400,#401,#233,.T.);
#493=EDGE_CURVE('',#401,#402,#52,.T.);
#494=EDGE_CURVE('',#402,#395,#234,.T.);
#495=EDGE_CURVE('',#403,#404,#53,.T.);
#496=EDGE_CURVE('',#405,#403,#235,.T.);
#497=EDGE_CURVE('',#406,#405,#54,.T.);
#498=EDGE_CURVE('',#406,#404,#236,.T.);
#499=EDGE_CURVE('',#404,#407,#237,.T.);
#500=EDGE_CURVE('',#408,#406,#238,.T.);
#501=EDGE_CURVE('',#408,#407,#239,.T.);
#502=EDGE_CURVE('',#407,#409,#55,.T.);
#503=EDGE_CURVE('',#410,#408,#56,.T.);
#504=EDGE_CURVE('',#410,#409,#240,.T.);
#505=EDGE_CURVE('',#409,#411,#241,.T.);
#506=EDGE_CURVE('',#412,#410,#242,.T.);
#507=EDGE_CURVE('',#412,#413,#243,.T.);
#508=EDGE_CURVE('',#413,#414,#244,.T.);
#509=EDGE_CURVE('',#411,#414,#245,.T.);
#510=EDGE_CURVE('',#415,#403,#246,.T.);
#511=EDGE_CURVE('',#416,#415,#247,.T.);
#512=EDGE_CURVE('',#416,#417,#248,.T.);
#513=EDGE_CURVE('',#418,#417,#249,.T.);
#514=EDGE_CURVE('',#405,#418,#250,.T.);
#515=EDGE_CURVE('',#419,#412,#57,.T.);
#516=EDGE_CURVE('',#419,#420,#251,.T.);
#517=EDGE_CURVE('',#420,#413,#58,.T.);
#518=EDGE_CURVE('',#421,#419,#252,.T.);
#519=EDGE_CURVE('',#421,#422,#253,.T.);
#520=EDGE_CURVE('',#422,#420,#254,.T.);
#521=EDGE_CURVE('',#418,#421,#59,.T.);
#522=EDGE_CURVE('',#417,#422,#60,.T.);
#523=EDGE_CURVE('',#414,#416,#255,.T.);
#524=EDGE_CURVE('',#411,#423,#256,.T.);
#525=EDGE_CURVE('',#423,#424,#257,.T.);
#526=EDGE_CURVE('',#425,#424,#258,.T.);
#527=EDGE_CURVE('',#425,#426,#259,.T.);
#528=EDGE_CURVE('',#426,#415,#260,.T.);
#529=EDGE_CURVE('',#427,#427,#61,.T.);
#530=EDGE_CURVE('',#427,#428,#261,.T.);
#531=EDGE_CURVE('',#428,#428,#62,.T.);
#532=EDGE_CURVE('',#429,#429,#63,.T.);
#533=EDGE_CURVE('',#429,#430,#262,.T.);
#534=EDGE_CURVE('',#430,#430,#64,.T.);
#535=EDGE_CURVE('',#431,#431,#65,.T.);
#536=EDGE_CURVE('',#431,#432,#263,.T.);
#537=EDGE_CURVE('',#432,#432,#66,.T.);
#538=EDGE_CURVE('',#433,#433,#67,.T.);
#539=EDGE_CURVE('',#433,#434,#264,.T.);
#540=EDGE_CURVE('',#434,#434,#68,.T.);
#541=EDGE_CURVE('',#435,#435,#69,.T.);
#542=EDGE_CURVE('',#435,#436,#265,.T.);
#543=EDGE_CURVE('',#436,#436,#70,.T.);
#544=EDGE_CURVE('',#437,#437,#71,.T.);
#545=EDGE_CURVE('',#437,#438,#266,.T.);
#546=EDGE_CURVE('',#438,#438,#72,.T.);
#547=EDGE_CURVE('',#439,#439,#73,.T.);
#548=EDGE_CURVE('',#439,#440,#267,.T.);
#549=EDGE_CURVE('',#440,#440,#74,.T.);
#550=EDGE_CURVE('',#441,#441,#75,.T.);
#551=EDGE_CURVE('',#441,#442,#268,.T.);
#552=EDGE_CURVE('',#442,#442,#76,.T.);
#553=EDGE_CURVE('',#443,#444,#77,.T.);
#554=EDGE_CURVE('',#445,#443,#269,.T.);
#555=EDGE_CURVE('',#446,#445,#78,.T.);
#556=EDGE_CURVE('',#444,#446,#270,.T.);
#557=EDGE_CURVE('',#443,#447,#271,.T.);
#558=EDGE_CURVE('',#447,#448,#272,.T.);
#559=EDGE_CURVE('',#445,#448,#273,.T.);
#560=EDGE_CURVE('',#426,#449,#79,.T.);
#561=EDGE_CURVE('',#450,#449,#274,.T.);
#562=EDGE_CURVE('',#450,#447,#80,.T.);
#563=EDGE_CURVE('',#451,#444,#275,.T.);
#564=EDGE_CURVE('',#451,#423,#81,.T.);
#565=EDGE_CURVE('',#452,#450,#276,.T.);
#566=EDGE_CURVE('',#448,#452,#82,.T.);
#567=EDGE_CURVE('',#449,#453,#277,.T.);
#568=EDGE_CURVE('',#452,#453,#278,.T.);
#569=EDGE_CURVE('',#454,#451,#279,.T.);
#570=EDGE_CURVE('',#424,#454,#83,.T.);
#571=EDGE_CURVE('',#454,#446,#280,.T.);
#572=EDGE_CURVE('',#453,#425,#84,.T.);
#573=EDGE_CURVE('',#455,#396,#281,.T.);
#574=EDGE_CURVE('',#456,#455,#282,.T.);
#575=EDGE_CURVE('',#397,#456,#283,.T.);
#576=EDGE_CURVE('',#457,#456,#85,.T.);
#577=EDGE_CURVE('',#398,#457,#284,.T.);
#578=EDGE_CURVE('',#458,#457,#285,.T.);
#579=EDGE_CURVE('',#399,#458,#286,.T.);
#580=EDGE_CURVE('',#459,#458,#86,.T.);
#581=EDGE_CURVE('',#400,#459,#287,.T.);
#582=EDGE_CURVE('',#460,#459,#288,.T.);
#583=EDGE_CURVE('',#401,#460,#289,.T.);
#584=EDGE_CURVE('',#461,#460,#87,.T.);
#585=EDGE_CURVE('',#402,#461,#290,.T.);
#586=EDGE_CURVE('',#462,#461,#291,.T.);
#587=EDGE_CURVE('',#395,#462,#292,.T.);
#588=EDGE_CURVE('',#455,#462,#88,.T.);
#589=ORIENTED_EDGE('',*,*,#463,.F.);
#590=ORIENTED_EDGE('',*,*,#464,.F.);
#591=ORIENTED_EDGE('',*,*,#465,.F.);
#592=ORIENTED_EDGE('',*,*,#466,.T.);
#593=ORIENTED_EDGE('',*,*,#467,.F.);
#594=ORIENTED_EDGE('',*,*,#466,.F.);
#595=ORIENTED_EDGE('',*,*,#468,.F.);
#596=ORIENTED_EDGE('',*,*,#469,.T.);
#597=ORIENTED_EDGE('',*,*,#470,.F.);
#598=ORIENTED_EDGE('',*,*,#469,.F.);
#599=ORIENTED_EDGE('',*,*,#471,.F.);
#600=ORIENTED_EDGE('',*,*,#472,.T.);
#601=ORIENTED_EDGE('',*,*,#473,.F.);
#602=ORIENTED_EDGE('',*,*,#472,.F.);
#603=ORIENTED_EDGE('',*,*,#474,.F.);
#604=ORIENTED_EDGE('',*,*,#464,.T.);
#605=ORIENTED_EDGE('',*,*,#475,.F.);
#606=ORIENTED_EDGE('',*,*,#476,.F.);
#607=ORIENTED_EDGE('',*,*,#477,.F.);
#608=ORIENTED_EDGE('',*,*,#478,.T.);
#609=ORIENTED_EDGE('',*,*,#479,.F.);
#610=ORIENTED_EDGE('',*,*,#478,.F.);
#611=ORIENTED_EDGE('',*,*,#480,.F.);
#612=ORIENTED_EDGE('',*,*,#481,.T.);
#613=ORIENTED_EDGE('',*,*,#482,.F.);
#614=ORIENTED_EDGE('',*,*,#481,.F.);
#615=ORIENTED_EDGE('',*,*,#483,.F.);
#616=ORIENTED_EDGE('',*,*,#484,.T.);
#617=ORIENTED_EDGE('',*,*,#485,.F.);
#618=ORIENTED_EDGE('',*,*,#484,.F.);
#619=ORIENTED_EDGE('',*,*,#486,.F.);
#620=ORIENTED_EDGE('',*,*,#476,.T.);
#621=ORIENTED_EDGE('',*,*,#487,.T.);
#622=ORIENTED_EDGE('',*,*,#488,.T.);
#623=ORIENTED_EDGE('',*,*,#489,.T.);
#624=ORIENTED_EDGE('',*,*,#490,.T.);
#625=ORIENTED_EDGE('',*,*,#491,.T.);
#626=ORIENTED_EDGE('',*,*,#492,.T.);
#627=ORIENTED_EDGE('',*,*,#493,.T.);
#628=ORIENTED_EDGE('',*,*,#494,.T.);
#629=ORIENTED_EDGE('',*,*,#495,.F.);
#630=ORIENTED_EDGE('',*,*,#496,.F.);
#631=ORIENTED_EDGE('',*,*,#497,.F.);
#632=ORIENTED_EDGE('',*,*,#498,.T.);
#633=ORIENTED_EDGE('',*,*,#499,.F.);
#634=ORIENTED_EDGE('',*,*,#498,.F.);
#635=ORIENTED_EDGE('',*,*,#500,.F.);
#636=ORIENTED_EDGE('',*,*,#501,.T.);
#637=ORIENTED_EDGE('',*,*,#502,.F.);
#638=ORIENTED_EDGE('',*,*,#501,.F.);
#639=ORIENTED_EDGE('',*,*,#503,.F.);
#640=ORIENTED_EDGE('',*,*,#504,.T.);
#641=ORIENTED_EDGE('',*,*,#505,.F.);
#642=ORIENTED_EDGE('',*,*,#504,.F.);
#643=ORIENTED_EDGE('',*,*,#506,.F.);
#644=ORIENTED_EDGE('',*,*,#507,.T.);
#645=ORIENTED_EDGE('',*,*,#508,.T.);
#646=ORIENTED_EDGE('',*,*,#509,.F.);
#647=ORIENTED_EDGE('',*,*,#510,.F.);
#648=ORIENTED_EDGE('',*,*,#511,.F.);
#649=ORIENTED_EDGE('',*,*,#512,.T.);
#650=ORIENTED_EDGE('',*,*,#513,.F.);
#651=ORIENTED_EDGE('',*,*,#514,.F.);
#652=ORIENTED_EDGE('',*,*,#496,.T.);
#653=ORIENTED_EDGE('',*,*,#515,.F.);
#654=ORIENTED_EDGE('',*,*,#516,.T.);
#655=ORIENTED_EDGE('',*,*,#517,.T.);
#656=ORIENTED_EDGE('',*,*,#507,.F.);
#657=ORIENTED_EDGE('',*,*,#518,.F.);
#658=ORIENTED_EDGE('',*,*,#519,.T.);
#659=ORIENTED_EDGE('',*,*,#520,.T.);
#660=ORIENTED_EDGE('',*,*,#516,.F.);
#661=ORIENTED_EDGE('',*,*,#521,.F.);
#662=ORIENTED_EDGE('',*,*,#513,.T.);
#663=ORIENTED_EDGE('',*,*,#522,.T.);
#664=ORIENTED_EDGE('',*,*,#519,.F.);
#665=ORIENTED_EDGE('',*,*,#523,.F.);
#666=ORIENTED_EDGE('',*,*,#508,.F.);
#667=ORIENTED_EDGE('',*,*,#517,.F.);
#668=ORIENTED_EDGE('',*,*,#520,.F.);
#669=ORIENTED_EDGE('',*,*,#522,.F.);
#670=ORIENTED_EDGE('',*,*,#512,.F.);
#671=ORIENTED_EDGE('',*,*,#510,.T.);
#672=ORIENTED_EDGE('',*,*,#495,.T.);
#673=ORIENTED_EDGE('',*,*,#499,.T.);
#674=ORIENTED_EDGE('',*,*,#502,.T.);
#675=ORIENTED_EDGE('',*,*,#505,.T.);
#676=ORIENTED_EDGE('',*,*,#524,.T.);
#677=ORIENTED_EDGE('',*,*,#525,.T.);
#678=ORIENTED_EDGE('',*,*,#526,.F.);
#679=ORIENTED_EDGE('',*,*,#527,.T.);
#680=ORIENTED_EDGE('',*,*,#528,.T.);
#681=ORIENTED_EDGE('',*,*,#529,.F.);
#682=ORIENTED_EDGE('',*,*,#530,.T.);
#683=ORIENTED_EDGE('',*,*,#531,.T.);
#684=ORIENTED_EDGE('',*,*,#530,.F.);
#685=ORIENTED_EDGE('',*,*,#531,.F.);
#686=ORIENTED_EDGE('',*,*,#532,.F.);
#687=ORIENTED_EDGE('',*,*,#533,.T.);
#688=ORIENTED_EDGE('',*,*,#534,.T.);
#689=ORIENTED_EDGE('',*,*,#533,.F.);
#690=ORIENTED_EDGE('',*,*,#534,.F.);
#691=ORIENTED_EDGE('',*,*,#535,.F.);
#692=ORIENTED_EDGE('',*,*,#536,.T.);
#693=ORIENTED_EDGE('',*,*,#537,.F.);
#694=ORIENTED_EDGE('',*,*,#536,.F.);
#695=ORIENTED_EDGE('',*,*,#535,.T.);
#696=ORIENTED_EDGE('',*,*,#532,.T.);
#697=ORIENTED_EDGE('',*,*,#538,.F.);
#698=ORIENTED_EDGE('',*,*,#539,.T.);
#699=ORIENTED_EDGE('',*,*,#540,.F.);
#700=ORIENTED_EDGE('',*,*,#539,.F.);
#701=ORIENTED_EDGE('',*,*,#538,.T.);
#702=ORIENTED_EDGE('',*,*,#529,.T.);
#703=ORIENTED_EDGE('',*,*,#541,.F.);
#704=ORIENTED_EDGE('',*,*,#542,.T.);
#705=ORIENTED_EDGE('',*,*,#543,.T.);
#706=ORIENTED_EDGE('',*,*,#542,.F.);
#707=ORIENTED_EDGE('',*,*,#543,.F.);
#708=ORIENTED_EDGE('',*,*,#544,.F.);
#709=ORIENTED_EDGE('',*,*,#545,.T.);
#710=ORIENTED_EDGE('',*,*,#546,.T.);
#711=ORIENTED_EDGE('',*,*,#545,.F.);
#712=ORIENTED_EDGE('',*,*,#546,.F.);
#713=ORIENTED_EDGE('',*,*,#547,.F.);
#714=ORIENTED_EDGE('',*,*,#548,.T.);
#715=ORIENTED_EDGE('',*,*,#549,.T.);
#716=ORIENTED_EDGE('',*,*,#548,.F.);
#717=ORIENTED_EDGE('',*,*,#549,.F.);
#718=ORIENTED_EDGE('',*,*,#550,.F.);
#719=ORIENTED_EDGE('',*,*,#551,.T.);
#720=ORIENTED_EDGE('',*,*,#552,.T.);
#721=ORIENTED_EDGE('',*,*,#551,.F.);
#722=ORIENTED_EDGE('',*,*,#552,.F.);
#723=ORIENTED_EDGE('',*,*,#553,.F.);
#724=ORIENTED_EDGE('',*,*,#554,.F.);
#725=ORIENTED_EDGE('',*,*,#555,.F.);
#726=ORIENTED_EDGE('',*,*,#556,.F.);
#727=ORIENTED_EDGE('',*,*,#554,.T.);
#728=ORIENTED_EDGE('',*,*,#557,.T.);
#729=ORIENTED_EDGE('',*,*,#558,.T.);
#730=ORIENTED_EDGE('',*,*,#559,.F.);
#731=ORIENTED_EDGE('',*,*,#511,.T.);
#732=ORIENTED_EDGE('',*,*,#528,.F.);
#733=ORIENTED_EDGE('',*,*,#560,.T.);
#734=ORIENTED_EDGE('',*,*,#561,.F.);
#735=ORIENTED_EDGE('',*,*,#562,.T.);
#736=ORIENTED_EDGE('',*,*,#557,.F.);
#737=ORIENTED_EDGE('',*,*,#553,.T.);
#738=ORIENTED_EDGE('',*,*,#563,.F.);
#739=ORIENTED_EDGE('',*,*,#564,.T.);
#740=ORIENTED_EDGE('',*,*,#524,.F.);
#741=ORIENTED_EDGE('',*,*,#509,.T.);
#742=ORIENTED_EDGE('',*,*,#523,.T.);
#743=ORIENTED_EDGE('',*,*,#537,.T.);
#744=ORIENTED_EDGE('',*,*,#540,.T.);
#745=ORIENTED_EDGE('',*,*,#562,.F.);
#746=ORIENTED_EDGE('',*,*,#565,.F.);
#747=ORIENTED_EDGE('',*,*,#566,.F.);
#748=ORIENTED_EDGE('',*,*,#558,.F.);
#749=ORIENTED_EDGE('',*,*,#565,.T.);
#750=ORIENTED_EDGE('',*,*,#561,.T.);
#751=ORIENTED_EDGE('',*,*,#567,.T.);
#752=ORIENTED_EDGE('',*,*,#568,.F.);
#753=ORIENTED_EDGE('',*,*,#564,.F.);
#754=ORIENTED_EDGE('',*,*,#569,.F.);
#755=ORIENTED_EDGE('',*,*,#570,.F.);
#756=ORIENTED_EDGE('',*,*,#525,.F.);
#757=ORIENTED_EDGE('',*,*,#556,.T.);
#758=ORIENTED_EDGE('',*,*,#571,.F.);
#759=ORIENTED_EDGE('',*,*,#569,.T.);
#760=ORIENTED_EDGE('',*,*,#563,.T.);
#761=ORIENTED_EDGE('',*,*,#560,.F.);
#762=ORIENTED_EDGE('',*,*,#527,.F.);
#763=ORIENTED_EDGE('',*,*,#572,.F.);
#764=ORIENTED_EDGE('',*,*,#567,.F.);
#765=ORIENTED_EDGE('',*,*,#573,.F.);
#766=ORIENTED_EDGE('',*,*,#574,.F.);
#767=ORIENTED_EDGE('',*,*,#575,.F.);
#768=ORIENTED_EDGE('',*,*,#488,.F.);
#769=ORIENTED_EDGE('',*,*,#575,.T.);
#770=ORIENTED_EDGE('',*,*,#576,.F.);
#771=ORIENTED_EDGE('',*,*,#577,.F.);
#772=ORIENTED_EDGE('',*,*,#489,.F.);
#773=ORIENTED_EDGE('',*,*,#577,.T.);
#774=ORIENTED_EDGE('',*,*,#578,.F.);
#775=ORIENTED_EDGE('',*,*,#579,.F.);
#776=ORIENTED_EDGE('',*,*,#490,.F.);
#777=ORIENTED_EDGE('',*,*,#470,.T.);
#778=ORIENTED_EDGE('',*,*,#473,.T.);
#779=ORIENTED_EDGE('',*,*,#463,.T.);
#780=ORIENTED_EDGE('',*,*,#467,.T.);
#781=ORIENTED_EDGE('',*,*,#482,.T.);
#782=ORIENTED_EDGE('',*,*,#485,.T.);
#783=ORIENTED_EDGE('',*,*,#475,.T.);
#784=ORIENTED_EDGE('',*,*,#479,.T.);
#785=ORIENTED_EDGE('',*,*,#579,.T.);
#786=ORIENTED_EDGE('',*,*,#580,.F.);
#787=ORIENTED_EDGE('',*,*,#581,.F.);
#788=ORIENTED_EDGE('',*,*,#491,.F.);
#789=ORIENTED_EDGE('',*,*,#581,.T.);
#790=ORIENTED_EDGE('',*,*,#582,.F.);
#791=ORIENTED_EDGE('',*,*,#583,.F.);
#792=ORIENTED_EDGE('',*,*,#492,.F.);
#793=ORIENTED_EDGE('',*,*,#583,.T.);
#794=ORIENTED_EDGE('',*,*,#584,.F.);
#795=ORIENTED_EDGE('',*,*,#585,.F.);
#796=ORIENTED_EDGE('',*,*,#493,.F.);
#797=ORIENTED_EDGE('',*,*,#585,.T.);
#798=ORIENTED_EDGE('',*,*,#586,.F.);
#799=ORIENTED_EDGE('',*,*,#587,.F.);
#800=ORIENTED_EDGE('',*,*,#494,.F.);
#801=ORIENTED_EDGE('',*,*,#471,.T.);
#802=ORIENTED_EDGE('',*,*,#468,.T.);
#803=ORIENTED_EDGE('',*,*,#465,.T.);
#804=ORIENTED_EDGE('',*,*,#474,.T.);
#805=ORIENTED_EDGE('',*,*,#483,.T.);
#806=ORIENTED_EDGE('',*,*,#480,.T.);
#807=ORIENTED_EDGE('',*,*,#477,.T.);
#808=ORIENTED_EDGE('',*,*,#486,.T.);
#809=ORIENTED_EDGE('',*,*,#514,.T.);
#810=ORIENTED_EDGE('',*,*,#521,.T.);
#811=ORIENTED_EDGE('',*,*,#518,.T.);
#812=ORIENTED_EDGE('',*,*,#515,.T.);
#813=ORIENTED_EDGE('',*,*,#506,.T.);
#814=ORIENTED_EDGE('',*,*,#503,.T.);
#815=ORIENTED_EDGE('',*,*,#500,.T.);
#816=ORIENTED_EDGE('',*,*,#497,.T.);
#817=ORIENTED_EDGE('',*,*,#587,.T.);
#818=ORIENTED_EDGE('',*,*,#588,.F.);
#819=ORIENTED_EDGE('',*,*,#573,.T.);
#820=ORIENTED_EDGE('',*,*,#487,.F.);
#821=ORIENTED_EDGE('',*,*,#588,.T.);
#822=ORIENTED_EDGE('',*,*,#586,.T.);
#823=ORIENTED_EDGE('',*,*,#584,.T.);
#824=ORIENTED_EDGE('',*,*,#582,.T.);
#825=ORIENTED_EDGE('',*,*,#580,.T.);
#826=ORIENTED_EDGE('',*,*,#578,.T.);
#827=ORIENTED_EDGE('',*,*,#576,.T.);
#828=ORIENTED_EDGE('',*,*,#574,.T.);
#829=ORIENTED_EDGE('',*,*,#571,.T.);
#830=ORIENTED_EDGE('',*,*,#555,.T.);
#831=ORIENTED_EDGE('',*,*,#559,.T.);
#832=ORIENTED_EDGE('',*,*,#566,.T.);
#833=ORIENTED_EDGE('',*,*,#568,.T.);
#834=ORIENTED_EDGE('',*,*,#572,.T.);
#835=ORIENTED_EDGE('',*,*,#526,.T.);
#836=ORIENTED_EDGE('',*,*,#570,.T.);
#837=ORIENTED_EDGE('',*,*,#550,.T.);
#838=ORIENTED_EDGE('',*,*,#547,.T.);
#839=ORIENTED_EDGE('',*,*,#544,.T.);
#840=ORIENTED_EDGE('',*,*,#541,.T.);
#841=PLANE('',#939);
#842=PLANE('',#940);
#843=PLANE('',#941);
#844=PLANE('',#942);
#845=PLANE('',#943);
#846=PLANE('',#944);
#847=PLANE('',#945);
#848=PLANE('',#946);
#849=PLANE('',#947);
#850=PLANE('',#955);
#851=PLANE('',#959);
#852=PLANE('',#960);
#853=PLANE('',#964);
#854=PLANE('',#968);
#855=PLANE('',#969);
#856=PLANE('',#973);
#857=PLANE('',#977);
#858=PLANE('',#981);
#859=PLANE('',#985);
#860=PLANE('',#989);
#861=PLANE('',#993);
#862=PLANE('',#997);
#863=PLANE('',#1001);
#864=PLANE('',#1005);
#865=PLANE('',#1006);
#866=PLANE('',#1012);
#867=PLANE('',#1015);
#868=PLANE('',#1018);
#869=PLANE('',#1021);
#870=PLANE('',#1024);
#871=PLANE('',#1027);
#872=PLANE('',#1030);
#873=ADVANCED_FACE('',(#89),#841,.F.);
#874=ADVANCED_FACE('',(#90),#842,.F.);
#875=ADVANCED_FACE('',(#91),#843,.F.);
#876=ADVANCED_FACE('',(#92),#844,.F.);
#877=ADVANCED_FACE('',(#93),#845,.F.);
#878=ADVANCED_FACE('',(#94),#846,.F.);
#879=ADVANCED_FACE('',(#95),#847,.F.);
#880=ADVANCED_FACE('',(#96),#848,.F.);
#881=ADVANCED_FACE('',(#97),#849,.F.);
#882=ADVANCED_FACE('',(#98),#29,.F.);
#883=ADVANCED_FACE('',(#99),#850,.F.);
#884=ADVANCED_FACE('',(#100),#30,.F.);
#885=ADVANCED_FACE('',(#101),#851,.F.);
#886=ADVANCED_FACE('',(#102),#852,.F.);
#887=ADVANCED_FACE('',(#103),#31,.F.);
#888=ADVANCED_FACE('',(#104),#853,.F.);
#889=ADVANCED_FACE('',(#105),#32,.F.);
#890=ADVANCED_FACE('',(#106),#854,.T.);
#891=ADVANCED_FACE('',(#107),#855,.T.);
#892=ADVANCED_FACE('',(#108),#33,.F.);
#893=ADVANCED_FACE('',(#109),#856,.F.);
#894=ADVANCED_FACE('',(#110),#34,.F.);
#895=ADVANCED_FACE('',(#111),#857,.F.);
#896=ADVANCED_FACE('',(#112),#35,.T.);
#897=ADVANCED_FACE('',(#113,#15),#858,.T.);
#898=ADVANCED_FACE('',(#114),#36,.T.);
#899=ADVANCED_FACE('',(#115,#16),#859,.T.);
#900=ADVANCED_FACE('',(#116),#37,.F.);
#901=ADVANCED_FACE('',(#117),#860,.F.);
#902=ADVANCED_FACE('',(#118),#38,.F.);
#903=ADVANCED_FACE('',(#119),#861,.F.);
#904=ADVANCED_FACE('',(#120),#39,.F.);
#905=ADVANCED_FACE('',(#121),#862,.F.);
#906=ADVANCED_FACE('',(#122),#40,.F.);
#907=ADVANCED_FACE('',(#123),#863,.F.);
#908=ADVANCED_FACE('',(#124),#41,.T.);
#909=ADVANCED_FACE('',(#125),#864,.T.);
#910=ADVANCED_FACE('',(#126,#17,#18),#865,.T.);
#911=ADVANCED_FACE('',(#127),#42,.T.);
#912=ADVANCED_FACE('',(#128),#866,.T.);
#913=ADVANCED_FACE('',(#129),#43,.T.);
#914=ADVANCED_FACE('',(#130),#867,.T.);
#915=ADVANCED_FACE('',(#131),#44,.T.);
#916=ADVANCED_FACE('',(#132),#868,.T.);
#917=ADVANCED_FACE('',(#133),#45,.T.);
#918=ADVANCED_FACE('',(#134,#19,#20),#869,.T.);
#919=ADVANCED_FACE('',(#135),#46,.T.);
#920=ADVANCED_FACE('',(#136),#870,.T.);
#921=ADVANCED_FACE('',(#137),#47,.T.);
#922=ADVANCED_FACE('',(#138,#21,#22,#23),#871,.T.);
#923=ADVANCED_FACE('',(#139),#48,.T.);
#924=ADVANCED_FACE('',(#140,#24,#25,#26,#27,#28),#872,.T.);
#925=CLOSED_SHELL('',(#873,#874,#875,#876,#877,#878,#879,#880,#881,#882,
#883,#884,#885,#886,#887,#888,#889,#890,#891,#892,#893,#894,#895,#896,#897,
#898,#899,#900,#901,#902,#903,#904,#905,#906,#907,#908,#909,#910,#911,#912,
#913,#914,#915,#916,#917,#918,#919,#920,#921,#922,#923,#924));
#926=DERIVED_UNIT_ELEMENT(#928,1.);
#927=DERIVED_UNIT_ELEMENT(#1571,-3.);
#928=(
MASS_UNIT()
NAMED_UNIT(*)
SI_UNIT(.KILO.,.GRAM.)
);
#929=DERIVED_UNIT((#926,#927));
#930=MEASURE_REPRESENTATION_ITEM('density measure',
POSITIVE_RATIO_MEASURE(7850.),#929);
#931=PROPERTY_DEFINITION_REPRESENTATION(#936,#933);
#932=PROPERTY_DEFINITION_REPRESENTATION(#937,#934);
#933=REPRESENTATION('material name',(#935),#1568);
#934=REPRESENTATION('density',(#930),#1568);
#935=DESCRIPTIVE_REPRESENTATION_ITEM('Steel','Steel');
#936=PROPERTY_DEFINITION('material property','material name',#1578);
#937=PROPERTY_DEFINITION('material property','density of part',#1578);
#938=AXIS2_PLACEMENT_3D('',#1303,#1031,#1032);
#939=AXIS2_PLACEMENT_3D('',#1304,#1033,#1034);
#940=AXIS2_PLACEMENT_3D('',#1313,#1039,#1040);
#941=AXIS2_PLACEMENT_3D('',#1319,#1044,#1045);
#942=AXIS2_PLACEMENT_3D('',#1325,#1049,#1050);
#943=AXIS2_PLACEMENT_3D('',#1328,#1053,#1054);
#944=AXIS2_PLACEMENT_3D('',#1337,#1059,#1060);
#945=AXIS2_PLACEMENT_3D('',#1343,#1064,#1065);
#946=AXIS2_PLACEMENT_3D('',#1349,#1069,#1070);
#947=AXIS2_PLACEMENT_3D('',#1352,#1073,#1074);
#948=AXIS2_PLACEMENT_3D('',#1355,#1075,#1076);
#949=AXIS2_PLACEMENT_3D('',#1359,#1078,#1079);
#950=AXIS2_PLACEMENT_3D('',#1363,#1081,#1082);
#951=AXIS2_PLACEMENT_3D('',#1367,#1084,#1085);
#952=AXIS2_PLACEMENT_3D('',#1369,#1087,#1088);
#953=AXIS2_PLACEMENT_3D('',#1372,#1089,#1090);
#954=AXIS2_PLACEMENT_3D('',#1376,#1092,#1093);
#955=AXIS2_PLACEMENT_3D('',#1378,#1095,#1096);
#956=AXIS2_PLACEMENT_3D('',#1384,#1100,#1101);
#957=AXIS2_PLACEMENT_3D('',#1386,#1102,#1103);
#958=AXIS2_PLACEMENT_3D('',#1388,#1104,#1105);
#959=AXIS2_PLACEMENT_3D('',#1390,#1107,#1108);
#960=AXIS2_PLACEMENT_3D('',#1400,#1114,#1115);
#961=AXIS2_PLACEMENT_3D('',#1410,#1121,#1122);
#962=AXIS2_PLACEMENT_3D('',#1412,#1123,#1124);
#963=AXIS2_PLACEMENT_3D('',#1415,#1126,#1127);
#964=AXIS2_PLACEMENT_3D('',#1416,#1128,#1129);
#965=AXIS2_PLACEMENT_3D('',#1422,#1133,#1134);
#966=AXIS2_PLACEMENT_3D('',#1423,#1135,#1136);
#967=AXIS2_PLACEMENT_3D('',#1424,#1137,#1138);
#968=AXIS2_PLACEMENT_3D('',#1425,#1139,#1140);
#969=AXIS2_PLACEMENT_3D('',#1427,#1142,#1143);
#970=AXIS2_PLACEMENT_3D('',#1437,#1149,#1150);
#971=AXIS2_PLACEMENT_3D('',#1439,#1151,#1152);
#972=AXIS2_PLACEMENT_3D('',#1442,#1154,#1155);
#973=AXIS2_PLACEMENT_3D('',#1443,#1156,#1157);
#974=AXIS2_PLACEMENT_3D('',#1444,#1158,#1159);
#975=AXIS2_PLACEMENT_3D('',#1446,#1160,#1161);
#976=AXIS2_PLACEMENT_3D('',#1449,#1163,#1164);
#977=AXIS2_PLACEMENT_3D('',#1450,#1165,#1166);
#978=AXIS2_PLACEMENT_3D('',#1451,#1167,#1168);
#979=AXIS2_PLACEMENT_3D('',#1453,#1169,#1170);
#980=AXIS2_PLACEMENT_3D('',#1456,#1172,#1173);
#981=AXIS2_PLACEMENT_3D('',#1457,#1174,#1175);
#982=AXIS2_PLACEMENT_3D('',#1458,#1176,#1177);
#983=AXIS2_PLACEMENT_3D('',#1460,#1178,#1179);
#984=AXIS2_PLACEMENT_3D('',#1463,#1181,#1182);
#985=AXIS2_PLACEMENT_3D('',#1464,#1183,#1184);
#986=AXIS2_PLACEMENT_3D('',#1465,#1185,#1186);
#987=AXIS2_PLACEMENT_3D('',#1467,#1187,#1188);
#988=AXIS2_PLACEMENT_3D('',#1470,#1190,#1191);
#989=AXIS2_PLACEMENT_3D('',#1471,#1192,#1193);
#990=AXIS2_PLACEMENT_3D('',#1472,#1194,#1195);
#991=AXIS2_PLACEMENT_3D('',#1474,#1196,#1197);
#992=AXIS2_PLACEMENT_3D('',#1477,#1199,#1200);
#993=AXIS2_PLACEMENT_3D('',#1478,#1201,#1202);
#994=AXIS2_PLACEMENT_3D('',#1479,#1203,#1204);
#995=AXIS2_PLACEMENT_3D('',#1481,#1205,#1206);
#996=AXIS2_PLACEMENT_3D('',#1484,#1208,#1209);
#997=AXIS2_PLACEMENT_3D('',#1485,#1210,#1211);
#998=AXIS2_PLACEMENT_3D('',#1486,#1212,#1213);
#999=AXIS2_PLACEMENT_3D('',#1488,#1214,#1215);
#1000=AXIS2_PLACEMENT_3D('',#1491,#1217,#1218);
#1001=AXIS2_PLACEMENT_3D('',#1492,#1219,#1220);
#1002=AXIS2_PLACEMENT_3D('',#1493,#1221,#1222);
#1003=AXIS2_PLACEMENT_3D('',#1496,#1223,#1224);
#1004=AXIS2_PLACEMENT_3D('',#1500,#1226,#1227);
#1005=AXIS2_PLACEMENT_3D('',#1502,#1229,#1230);
#1006=AXIS2_PLACEMENT_3D('',#1508,#1234,#1235);
#1007=AXIS2_PLACEMENT_3D('',#1510,#1236,#1237);
#1008=AXIS2_PLACEMENT_3D('',#1513,#1239,#1240);
#1009=AXIS2_PLACEMENT_3D('',#1516,#1242,#1243);
#1010=AXIS2_PLACEMENT_3D('',#1517,#1244,#1245);
#1011=AXIS2_PLACEMENT_3D('',#1520,#1247,#1248);
#1012=AXIS2_PLACEMENT_3D('',#1521,#1249,#1250);
#1013=AXIS2_PLACEMENT_3D('',#1525,#1253,#1254);
#1014=AXIS2_PLACEMENT_3D('',#1528,#1256,#1257);
#1015=AXIS2_PLACEMENT_3D('',#1529,#1258,#1259);
#1016=AXIS2_PLACEMENT_3D('',#1531,#1261,#1262);
#1017=AXIS2_PLACEMENT_3D('',#1532,#1263,#1264);
#1018=AXIS2_PLACEMENT_3D('',#1533,#1265,#1266);
#1019=AXIS2_PLACEMENT_3D('',#1539,#1270,#1271);
#1020=AXIS2_PLACEMENT_3D('',#1541,#1272,#1273);
#1021=AXIS2_PLACEMENT_3D('',#1543,#1275,#1276);
#1022=AXIS2_PLACEMENT_3D('',#1547,#1279,#1280);
#1023=AXIS2_PLACEMENT_3D('',#1549,#1281,#1282);
#1024=AXIS2_PLACEMENT_3D('',#1551,#1284,#1285);
#1025=AXIS2_PLACEMENT_3D('',#1555,#1288,#1289);
#1026=AXIS2_PLACEMENT_3D('',#1557,#1290,#1291);
#1027=AXIS2_PLACEMENT_3D('',#1559,#1293,#1294);
#1028=AXIS2_PLACEMENT_3D('',#1563,#1297,#1298);
#1029=AXIS2_PLACEMENT_3D('',#1564,#1299,#1300);
#1030=AXIS2_PLACEMENT_3D('',#1565,#1301,#1302);
#1031=DIRECTION('axis',(0.,0.,1.));
#1032=DIRECTION('refdir',(1.,0.,0.));
#1033=DIRECTION('center_axis',(1.,0.,0.));
#1034=DIRECTION('ref_axis',(0.,1.,0.));
#1035=DIRECTION('',(0.,-1.,0.));
#1036=DIRECTION('',(0.,0.,1.));
#1037=DIRECTION('',(0.,1.,0.));
#1038=DIRECTION('',(0.,0.,1.));
#1039=DIRECTION('center_axis',(0.,-1.,0.));
#1040=DIRECTION('ref_axis',(1.,0.,0.));
#1041=DIRECTION('',(-1.,0.,7.09407683466554E-17));
#1042=DIRECTION('',(1.,0.,-7.09407683466554E-17));
#1043=DIRECTION('',(0.,0.,1.));
#1044=DIRECTION('center_axis',(-1.,0.,0.));
#1045=DIRECTION('ref_axis',(0.,-1.,0.));
#1046=DIRECTION('',(0.,1.,0.));
#1047=DIRECTION('',(0.,-1.,0.));
#1048=DIRECTION('',(0.,0.,1.));
#1049=DIRECTION('center_axis',(0.,1.,0.));
#1050=DIRECTION('ref_axis',(-1.,0.,0.));
#1051=DIRECTION('',(1.,0.,-7.09407683466554E-17));
#1052=DIRECTION('',(-1.,0.,7.09407683466554E-17));
#1053=DIRECTION('center_axis',(1.,0.,0.));
#1054=DIRECTION('ref_axis',(0.,1.,0.));
#1055=DIRECTION('',(0.,-1.,0.));
#1056=DIRECTION('',(0.,0.,1.));
#1057=DIRECTION('',(0.,1.,0.));
#1058=DIRECTION('',(0.,0.,1.));
#1059=DIRECTION('center_axis',(0.,-1.,0.));
#1060=DIRECTION('ref_axis',(1.,0.,0.));
#1061=DIRECTION('',(-1.,0.,7.09407683466554E-17));
#1062=DIRECTION('',(1.,0.,-7.09407683466554E-17));
#1063=DIRECTION('',(0.,0.,1.));
#1064=DIRECTION('center_axis',(-1.,0.,0.));
#1065=DIRECTION('ref_axis',(0.,-1.,0.));
#1066=DIRECTION('',(0.,1.,0.));
#1067=DIRECTION('',(0.,-1.,0.));
#1068=DIRECTION('',(0.,0.,1.));
#1069=DIRECTION('center_axis',(0.,1.,0.));
#1070=DIRECTION('ref_axis',(-1.,0.,0.));
#1071=DIRECTION('',(1.,0.,-7.09407683466554E-17));
#1072=DIRECTION('',(-1.,0.,7.09407683466554E-17));
#1073=DIRECTION('center_axis',(0.,1.,0.));
#1074=DIRECTION('ref_axis',(1.,0.,0.));
#1075=DIRECTION('center_axis',(0.,-1.,0.));
#1076=DIRECTION('ref_axis',(1.,0.,2.22044604925032E-15));
#1077=DIRECTION('',(-1.06241437763173E-16,0.,1.));
#1078=DIRECTION('center_axis',(0.,-1.,0.));
#1079=DIRECTION('ref_axis',(0.,0.,1.));
#1080=DIRECTION('',(-1.,0.,7.09407683466554E-17));
#1081=DIRECTION('center_axis',(0.,-1.,0.));
#1082=DIRECTION('ref_axis',(-1.,0.,2.2204460492503E-15));
#1083=DIRECTION('',(1.06241437763173E-16,0.,-1.));
#1084=DIRECTION('center_axis',(0.,-1.,0.));
#1085=DIRECTION('ref_axis',(2.22044604925031E-15,0.,-1.));
#1086=DIRECTION('',(1.,0.,-7.09407683466554E-17));
#1087=DIRECTION('center_axis',(0.,0.,1.));
#1088=DIRECTION('ref_axis',(-1.,0.,0.));
#1089=DIRECTION('center_axis',(3.65204942310907E-16,0.,-1.));
#1090=DIRECTION('ref_axis',(-1.,0.,0.));
#1091=DIRECTION('',(0.,0.,1.));
#1092=DIRECTION('center_axis',(7.09407683466554E-17,0.,1.));
#1093=DIRECTION('ref_axis',(-1.,0.,0.));
#1094=DIRECTION('',(0.,0.,1.));
#1095=DIRECTION('center_axis',(0.,1.,0.));
#1096=DIRECTION('ref_axis',(-1.,0.,0.));
#1097=DIRECTION('',(1.,0.,3.65204942310907E-16));
#1098=DIRECTION('',(-1.,0.,7.09407683466554E-17));
#1099=DIRECTION('',(0.,0.,1.));
#1100=DIRECTION('center_axis',(0.,0.,1.));
#1101=DIRECTION('ref_axis',(0.,1.,0.));
#1102=DIRECTION('center_axis',(3.65204942310907E-16,0.,-1.));
#1103=DIRECTION('ref_axis',(0.,1.,0.));
#1104=DIRECTION('center_axis',(7.09407683466554E-17,0.,1.));
#1105=DIRECTION('ref_axis',(0.,1.,0.));
#1106=DIRECTION('',(0.,0.,1.));
#1107=DIRECTION('center_axis',(1.,0.,0.));
#1108=DIRECTION('ref_axis',(0.,1.,0.));
#1109=DIRECTION('',(0.,-1.,0.));
#1110=DIRECTION('',(0.,1.,0.));
#1111=DIRECTION('',(0.,0.,1.));
#1112=DIRECTION('',(0.,1.,0.));
#1113=DIRECTION('',(0.,0.,1.));
#1114=DIRECTION('center_axis',(-1.,0.,0.));
#1115=DIRECTION('ref_axis',(0.,-1.,0.));
#1116=DIRECTION('',(0.,1.,0.));
#1117=DIRECTION('',(0.,0.,-1.));
#1118=DIRECTION('',(0.,-1.,0.));
#1119=DIRECTION('',(0.,0.,1.));
#1120=DIRECTION('',(0.,-1.,0.));
#1121=DIRECTION('center_axis',(0.,0.,1.));
#1122=DIRECTION('ref_axis',(1.,0.,0.));
#1123=DIRECTION('center_axis',(7.09407683466554E-17,0.,1.));
#1124=DIRECTION('ref_axis',(1.,0.,0.));
#1125=DIRECTION('',(0.,0.,1.));
#1126=DIRECTION('center_axis',(0.,0.,1.));
#1127=DIRECTION('ref_axis',(1.,0.,0.));
#1128=DIRECTION('center_axis',(0.,-1.,0.));
#1129=DIRECTION('ref_axis',(1.,0.,0.));
#1130=DIRECTION('',(1.,0.,-7.09407683466554E-17));
#1131=DIRECTION('',(0.,0.,1.));
#1132=DIRECTION('',(1.,0.,0.));
#1133=DIRECTION('center_axis',(0.,0.,1.));
#1134=DIRECTION('ref_axis',(0.,-1.,0.));
#1135=DIRECTION('center_axis',(7.09407683466554E-17,0.,1.));
#1136=DIRECTION('ref_axis',(0.,-1.,0.));
#1137=DIRECTION('center_axis',(0.,0.,1.));
#1138=DIRECTION('ref_axis',(0.,-1.,0.));
#1139=DIRECTION('center_axis',(0.,0.,-1.));
#1140=DIRECTION('ref_axis',(-1.,0.,0.));
#1141=DIRECTION('',(-1.,0.,0.));
#1142=DIRECTION('center_axis',(-3.65204942310907E-16,0.,1.));
#1143=DIRECTION('ref_axis',(1.,0.,3.65204942310907E-16));
#1144=DIRECTION('',(1.,0.,3.65204942310907E-16));
#1145=DIRECTION('',(0.,1.,0.));
#1146=DIRECTION('',(1.,0.,3.65204942310907E-16));
#1147=DIRECTION('',(0.,-1.,0.));
#1148=DIRECTION('',(1.,0.,3.65204942310907E-16));
#1149=DIRECTION('center_axis',(0.,-1.,0.));
#1150=DIRECTION('ref_axis',(0.,0.,1.));
#1151=DIRECTION('center_axis',(0.,-1.,0.));
#1152=DIRECTION('ref_axis',(0.,0.,1.));
#1153=DIRECTION('',(0.,-1.,0.));
#1154=DIRECTION('center_axis',(0.,-1.,0.));
#1155=DIRECTION('ref_axis',(0.,0.,1.));
#1156=DIRECTION('center_axis',(0.,-1.,0.));
#1157=DIRECTION('ref_axis',(0.,0.,1.));
#1158=DIRECTION('center_axis',(0.,-1.,0.));
#1159=DIRECTION('ref_axis',(0.,0.,1.));
#1160=DIRECTION('center_axis',(0.,-1.,0.));
#1161=DIRECTION('ref_axis',(0.,0.,1.));
#1162=DIRECTION('',(0.,-1.,0.));
#1163=DIRECTION('center_axis',(0.,-1.,0.));
#1164=DIRECTION('ref_axis',(0.,0.,1.));
#1165=DIRECTION('center_axis',(0.,-1.,0.));
#1166=DIRECTION('ref_axis',(0.,0.,1.));
#1167=DIRECTION('center_axis',(0.,1.,0.));
#1168=DIRECTION('ref_axis',(1.,0.,0.));
#1169=DIRECTION('center_axis',(0.,1.,0.));
#1170=DIRECTION('ref_axis',(1.,0.,0.));
#1171=DIRECTION('',(0.,-1.,0.));
#1172=DIRECTION('center_axis',(0.,-1.,0.));
#1173=DIRECTION('ref_axis',(1.,0.,0.));
#1174=DIRECTION('center_axis',(0.,1.,0.));
#1175=DIRECTION('ref_axis',(1.,0.,0.));
#1176=DIRECTION('center_axis',(0.,1.,0.));
#1177=DIRECTION('ref_axis',(1.,0.,0.));
#1178=DIRECTION('center_axis',(0.,1.,0.));
#1179=DIRECTION('ref_axis',(1.,0.,0.));
#1180=DIRECTION('',(0.,-1.,0.));
#1181=DIRECTION('center_axis',(0.,-1.,0.));
#1182=DIRECTION('ref_axis',(1.,0.,0.));
#1183=DIRECTION('center_axis',(0.,1.,0.));
#1184=DIRECTION('ref_axis',(1.,0.,0.));
#1185=DIRECTION('center_axis',(0.,-1.,0.));
#1186=DIRECTION('ref_axis',(0.,0.,1.));
#1187=DIRECTION('center_axis',(0.,-1.,0.));
#1188=DIRECTION('ref_axis',(0.,0.,1.));
#1189=DIRECTION('',(0.,-1.,0.));
#1190=DIRECTION('center_axis',(0.,-1.,0.));
#1191=DIRECTION('ref_axis',(0.,0.,1.));
#1192=DIRECTION('center_axis',(0.,-1.,0.));
#1193=DIRECTION('ref_axis',(0.,0.,1.));
#1194=DIRECTION('center_axis',(0.,-1.,0.));
#1195=DIRECTION('ref_axis',(0.,0.,1.));
#1196=DIRECTION('center_axis',(0.,-1.,0.));
#1197=DIRECTION('ref_axis',(0.,0.,1.));
#1198=DIRECTION('',(0.,-1.,0.));
#1199=DIRECTION('center_axis',(0.,-1.,0.));
#1200=DIRECTION('ref_axis',(0.,0.,1.));
#1201=DIRECTION('center_axis',(0.,-1.,0.));
#1202=DIRECTION('ref_axis',(0.,0.,1.));
#1203=DIRECTION('center_axis',(0.,-1.,0.));
#1204=DIRECTION('ref_axis',(0.,0.,1.));
#1205=DIRECTION('center_axis',(0.,-1.,0.));
#1206=DIRECTION('ref_axis',(0.,0.,1.));
#1207=DIRECTION('',(0.,-1.,0.));
#1208=DIRECTION('center_axis',(0.,-1.,0.));
#1209=DIRECTION('ref_axis',(0.,0.,1.));
#1210=DIRECTION('center_axis',(0.,-1.,0.));
#1211=DIRECTION('ref_axis',(0.,0.,1.));
#1212=DIRECTION('center_axis',(0.,-1.,0.));
#1213=DIRECTION('ref_axis',(0.,0.,1.));
#1214=DIRECTION('center_axis',(0.,-1.,0.));
#1215=DIRECTION('ref_axis',(0.,0.,1.));
#1216=DIRECTION('',(0.,-1.,0.));
#1217=DIRECTION('center_axis',(0.,-1.,0.));
#1218=DIRECTION('ref_axis',(0.,0.,1.));
#1219=DIRECTION('center_axis',(0.,-1.,0.));
#1220=DIRECTION('ref_axis',(0.,0.,1.));
#1221=DIRECTION('center_axis',(0.,1.,0.));
#1222=DIRECTION('ref_axis',(-1.48029736616688E-15,0.,-1.));
#1223=DIRECTION('center_axis',(0.,-1.,0.));
#1224=DIRECTION('ref_axis',(-1.48029736616688E-15,0.,-1.));
#1225=DIRECTION('',(0.,-1.,0.));
#1226=DIRECTION('center_axis',(0.,1.,0.));
#1227=DIRECTION('ref_axis',(-1.48029736616688E-15,0.,-1.));
#1228=DIRECTION('',(0.,1.,0.));
#1229=DIRECTION('center_axis',(1.46081976924363E-16,0.,-1.));
#1230=DIRECTION('ref_axis',(-1.,0.,-1.46081976924363E-16));
#1231=DIRECTION('',(-1.,0.,-1.46081976924363E-16));
#1232=DIRECTION('',(0.,1.,0.));
#1233=DIRECTION('',(-1.,0.,-1.46081976924363E-16));
#1234=DIRECTION('center_axis',(0.,1.,0.));
#1235=DIRECTION('ref_axis',(1.,0.,0.));
#1236=DIRECTION('center_axis',(0.,-1.,0.));
#1237=DIRECTION('ref_axis',(1.48029736616687E-15,0.,1.));
#1238=DIRECTION('',(7.65671051465625E-16,0.,-1.));
#1239=DIRECTION('center_axis',(0.,-1.,0.));
#1240=DIRECTION('ref_axis',(1.,0.,0.));
#1241=DIRECTION('',(3.28144736342411E-16,0.,1.));
#1242=DIRECTION('center_axis',(0.,-1.,0.));
#1243=DIRECTION('ref_axis',(-1.,0.,0.));
#1244=DIRECTION('center_axis',(0.,1.,0.));
#1245=DIRECTION('ref_axis',(1.,0.,0.));
#1246=DIRECTION('',(0.,-1.,0.));
#1247=DIRECTION('center_axis',(0.,1.,0.));
#1248=DIRECTION('ref_axis',(1.,0.,0.));
#1249=DIRECTION('center_axis',(1.,0.,7.65671051465625E-16));
#1250=DIRECTION('ref_axis',(7.65671051465625E-16,0.,-1.));
#1251=DIRECTION('',(0.,1.,0.));
#1252=DIRECTION('',(7.65671051465625E-16,0.,-1.));
#1253=DIRECTION('center_axis',(0.,1.,0.));
#1254=DIRECTION('ref_axis',(-1.,0.,0.));
#1255=DIRECTION('',(0.,-1.,0.));
#1256=DIRECTION('center_axis',(0.,1.,0.));
#1257=DIRECTION('ref_axis',(-1.,0.,0.));
#1258=DIRECTION('center_axis',(-1.,0.,3.28144736342411E-16));
#1259=DIRECTION('ref_axis',(3.28144736342411E-16,0.,1.));
#1260=DIRECTION('',(3.28144736342411E-16,0.,1.));
#1261=DIRECTION('center_axis',(0.,1.,0.));
#1262=DIRECTION('ref_axis',(1.48029736616687E-15,0.,1.));
#1263=DIRECTION('center_axis',(0.,1.,0.));
#1264=DIRECTION('ref_axis',(1.48029736616687E-15,0.,1.));
#1265=DIRECTION('center_axis',(1.,0.,1.06241437763173E-16));
#1266=DIRECTION('ref_axis',(1.06241437763173E-16,0.,-1.));
#1267=DIRECTION('',(0.,-1.,0.));
#1268=DIRECTION('',(1.06241437763173E-16,0.,-1.));
#1269=DIRECTION('',(0.,1.,0.));
#1270=DIRECTION('center_axis',(0.,1.,0.));
#1271=DIRECTION('ref_axis',(0.,0.,1.));
#1272=DIRECTION('center_axis',(0.,1.,0.));
#1273=DIRECTION('ref_axis',(0.,0.,1.));
#1274=DIRECTION('',(0.,1.,0.));
#1275=DIRECTION('center_axis',(7.09407683466554E-17,0.,1.));
#1276=DIRECTION('ref_axis',(1.,0.,-7.09407683466554E-17));
#1277=DIRECTION('',(1.,0.,-7.09407683466554E-17));
#1278=DIRECTION('',(0.,1.,0.));
#1279=DIRECTION('center_axis',(0.,1.,0.));
#1280=DIRECTION('ref_axis',(-1.,0.,2.2204460492503E-15));
#1281=DIRECTION('center_axis',(0.,1.,0.));
#1282=DIRECTION('ref_axis',(-1.,0.,2.2204460492503E-15));
#1283=DIRECTION('',(0.,1.,0.));
#1284=DIRECTION('center_axis',(-1.,0.,-1.06241437763173E-16));
#1285=DIRECTION('ref_axis',(-1.06241437763173E-16,0.,1.));
#1286=DIRECTION('',(-1.06241437763173E-16,0.,1.));
#1287=DIRECTION('',(0.,1.,0.));
#1288=DIRECTION('center_axis',(0.,1.,0.));
#1289=DIRECTION('ref_axis',(2.22044604925031E-15,0.,-1.));
#1290=DIRECTION('center_axis',(0.,1.,0.));
#1291=DIRECTION('ref_axis',(2.22044604925031E-15,0.,-1.));
#1292=DIRECTION('',(0.,1.,0.));
#1293=DIRECTION('center_axis',(-7.09407683466554E-17,0.,-1.));
#1294=DIRECTION('ref_axis',(-1.,0.,7.09407683466554E-17));
#1295=DIRECTION('',(-1.,0.,7.09407683466554E-17));
#1296=DIRECTION('',(0.,1.,0.));
#1297=DIRECTION('center_axis',(0.,1.,0.));
#1298=DIRECTION('ref_axis',(1.,0.,2.22044604925032E-15));
#1299=DIRECTION('center_axis',(0.,1.,0.));
#1300=DIRECTION('ref_axis',(1.,0.,2.22044604925032E-15));
#1301=DIRECTION('center_axis',(0.,1.,0.));
#1302=DIRECTION('ref_axis',(1.,0.,0.));
#1303=CARTESIAN_POINT('',(0.,0.,0.));
#1304=CARTESIAN_POINT('Origin',(27.3,-6.27272374139934,-22.9));
#1305=CARTESIAN_POINT('',(27.3,-3.27272374139933,22.9));
#1306=CARTESIAN_POINT('',(27.3,-6.27272374139934,22.9));
#1307=CARTESIAN_POINT('',(27.3,-3.13636187069967,22.9));
#1308=CARTESIAN_POINT('',(27.3,-3.27272374139933,-22.9));
#1309=CARTESIAN_POINT('',(27.3,-3.27272374139933,-22.9));
#1310=CARTESIAN_POINT('',(27.3,-6.27272374139934,-22.9));
#1311=CARTESIAN_POINT('',(27.3,-3.13636187069967,-22.9));
#1312=CARTESIAN_POINT('',(27.3,-6.27272374139934,-22.9));
#1313=CARTESIAN_POINT('Origin',(7.30000000000001,-6.27272374139934,-22.9));
#1314=CARTESIAN_POINT('',(7.30000000000001,-6.27272374139934,22.9));
#1315=CARTESIAN_POINT('',(-12.,-6.27272374139934,22.9));
#1316=CARTESIAN_POINT('',(7.30000000000001,-6.27272374139934,-22.9));
#1317=CARTESIAN_POINT('',(19.3,-6.27272374139934,-22.9));
#1318=CARTESIAN_POINT('',(7.30000000000001,-6.27272374139934,-22.9));
#1319=CARTESIAN_POINT('Origin',(7.30000000000001,-3.27272374139933,-22.9));
#1320=CARTESIAN_POINT('',(7.30000000000001,-3.27272374139933,22.9));
#1321=CARTESIAN_POINT('',(7.30000000000001,-1.63636187069967,22.9));
#1322=CARTESIAN_POINT('',(7.30000000000001,-3.27272374139933,-22.9));
#1323=CARTESIAN_POINT('',(7.30000000000001,-1.63636187069967,-22.9));
#1324=CARTESIAN_POINT('',(7.30000000000001,-3.27272374139933,-22.9));
#1325=CARTESIAN_POINT('Origin',(27.3,-3.27272374139933,-22.9));
#1326=CARTESIAN_POINT('',(-1.99999999999998,-3.27272374139933,22.9));
#1327=CARTESIAN_POINT('',(29.3,-3.27272374139933,-22.9));
#1328=CARTESIAN_POINT('Origin',(-7.29999999999998,-6.27272374139934,-22.9));
#1329=CARTESIAN_POINT('',(-7.29999999999998,-3.27272374139933,22.9));
#1330=CARTESIAN_POINT('',(-7.29999999999998,-6.27272374139934,22.9));
#1331=CARTESIAN_POINT('',(-7.29999999999998,-3.13636187069967,22.9));
#1332=CARTESIAN_POINT('',(-7.29999999999998,-3.27272374139933,-22.9));
#1333=CARTESIAN_POINT('',(-7.29999999999998,-3.27272374139933,-22.9));
#1334=CARTESIAN_POINT('',(-7.29999999999998,-6.27272374139934,-22.9));
#1335=CARTESIAN_POINT('',(-7.29999999999998,-3.13636187069967,-22.9));
#1336=CARTESIAN_POINT('',(-7.29999999999998,-6.27272374139934,-22.9));
#1337=CARTESIAN_POINT('Origin',(-27.3,-6.27272374139934,-22.9));
#1338=CARTESIAN_POINT('',(-27.3,-6.27272374139934,22.9));
#1339=CARTESIAN_POINT('',(-29.3,-6.27272374139934,22.9));
#1340=CARTESIAN_POINT('',(-27.3,-6.27272374139934,-22.9));
#1341=CARTESIAN_POINT('',(2.00000000000002,-6.27272374139934,-22.9));
#1342=CARTESIAN_POINT('',(-27.3,-6.27272374139934,-22.9));
#1343=CARTESIAN_POINT('Origin',(-27.3,-3.27272374139933,-22.9));
#1344=CARTESIAN_POINT('',(-27.3,-3.27272374139933,22.9));
#1345=CARTESIAN_POINT('',(-27.3,-1.63636187069967,22.9));
#1346=CARTESIAN_POINT('',(-27.3,-3.27272374139933,-22.9));
#1347=CARTESIAN_POINT('',(-27.3,-1.63636187069967,-22.9));
#1348=CARTESIAN_POINT('',(-27.3,-3.27272374139933,-22.9));
#1349=CARTESIAN_POINT('Origin',(-7.29999999999998,-3.27272374139933,-22.9));
#1350=CARTESIAN_POINT('',(-19.3,-3.27272374139933,22.9));
#1351=CARTESIAN_POINT('',(12.,-3.27272374139933,-22.9));
#1352=CARTESIAN_POINT('Origin',(4.44089209850063E-15,-8.,8.88178419700125E-15));
#1353=CARTESIAN_POINT('',(31.3,-8.,-22.9));
#1354=CARTESIAN_POINT('',(33.3,-8.,-20.9));
#1355=CARTESIAN_POINT('Origin',(31.3,-8.,-20.9));
#1356=CARTESIAN_POINT('',(33.3,-8.,20.9));
#1357=CARTESIAN_POINT('',(33.3,-8.,20.9));
#1358=CARTESIAN_POINT('',(31.3,-8.,22.9));
#1359=CARTESIAN_POINT('Origin',(31.3,-8.,20.9));
#1360=CARTESIAN_POINT('',(-31.3,-8.,22.9));
#1361=CARTESIAN_POINT('',(-31.3,-8.,22.9));
#1362=CARTESIAN_POINT('',(-33.3,-8.,20.9));
#1363=CARTESIAN_POINT('Origin',(-31.3,-8.,20.9));
#1364=CARTESIAN_POINT('',(-33.3,-8.,-20.9));
#1365=CARTESIAN_POINT('',(-33.3,-8.,-20.9));
#1366=CARTESIAN_POINT('',(-31.3,-8.,-22.9));
#1367=CARTESIAN_POINT('Origin',(-31.3,-8.,-20.9));
#1368=CARTESIAN_POINT('',(31.3,-8.,-22.9));
#1369=CARTESIAN_POINT('Origin',(-19.3973075345265,4.42727625860068,-22.9));
#1370=CARTESIAN_POINT('',(-20.3973075345265,4.42727625860068,-20.2999999999993));
#1371=CARTESIAN_POINT('',(-19.3973075345265,5.42727625860065,-20.2999999999993));
#1372=CARTESIAN_POINT('Origin',(-19.3973075345265,4.42727625860068,-20.2999999999993));
#1373=CARTESIAN_POINT('',(-20.3973075345265,4.42727625860068,-22.9));
#1374=CARTESIAN_POINT('',(-20.3973075345265,4.42727625860068,-22.9));
#1375=CARTESIAN_POINT('',(-19.3973075345265,5.42727625860065,-22.9));
#1376=CARTESIAN_POINT('Origin',(-19.3973075345265,4.42727625860068,-22.9));
#1377=CARTESIAN_POINT('',(-19.3973075345265,5.42727625860065,-22.9));
#1378=CARTESIAN_POINT('Origin',(-8.39730753452648,5.42727625860065,-22.9));
#1379=CARTESIAN_POINT('',(-8.39730753452648,5.42727625860065,-20.2999999999993));
#1380=CARTESIAN_POINT('',(-19.3986537672673,5.42727625860065,-20.2999999999993));
#1381=CARTESIAN_POINT('',(-8.39730753452648,5.42727625860065,-22.9));
#1382=CARTESIAN_POINT('',(11.4513462327368,5.42727625860065,-22.9));
#1383=CARTESIAN_POINT('',(-8.39730753452648,5.42727625860065,-22.9));
#1384=CARTESIAN_POINT('Origin',(-8.39730753452648,4.42727625860066,-22.9));
#1385=CARTESIAN_POINT('',(-7.3973075345265,4.42727625860066,-20.2999999999993));
#1386=CARTESIAN_POINT('Origin',(-8.39730753452648,4.42727625860066,-20.2999999999993));
#1387=CARTESIAN_POINT('',(-7.3973075345265,4.42727625860066,-22.9));
#1388=CARTESIAN_POINT('Origin',(-8.39730753452648,4.42727625860066,-22.9));
#1389=CARTESIAN_POINT('',(-7.3973075345265,4.42727625860066,-22.9));
#1390=CARTESIAN_POINT('Origin',(-7.3973075345265,-0.272723741399336,-22.9));
#1391=CARTESIAN_POINT('',(-7.3973075345265,0.,-20.2999999999993));
#1392=CARTESIAN_POINT('',(-7.3973075345265,-0.136361870699668,-20.2999999999993));
#1393=CARTESIAN_POINT('',(-7.3973075345265,-0.272723741399336,-22.9));
#1394=CARTESIAN_POINT('',(-7.3973075345265,-0.136361870699668,-22.9));
#1395=CARTESIAN_POINT('',(-7.3973075345265,-0.272723741399336,-18.4));
#1396=CARTESIAN_POINT('',(-7.3973075345265,-0.272723741399336,-22.9));
#1397=CARTESIAN_POINT('',(-7.3973075345265,0.,-18.4));
#1398=CARTESIAN_POINT('',(-7.3973075345265,-0.272723741399336,-18.4));
#1399=CARTESIAN_POINT('',(-7.3973075345265,0.,-11.45));
#1400=CARTESIAN_POINT('Origin',(-20.3973075345265,4.42727625860068,-22.9));
#1401=CARTESIAN_POINT('',(-20.3973075345265,0.,-20.2999999999993));
#1402=CARTESIAN_POINT('',(-20.3973075345265,2.21363812930034,-20.2999999999993));
#1403=CARTESIAN_POINT('',(-20.3973075345265,0.,-18.4));
#1404=CARTESIAN_POINT('',(-20.3973075345265,0.,-11.45));
#1405=CARTESIAN_POINT('',(-20.3973075345265,-0.272723741399333,-18.4));
#1406=CARTESIAN_POINT('',(-20.3973075345265,4.42727625860068,-18.4));
#1407=CARTESIAN_POINT('',(-20.3973075345265,-0.272723741399333,-22.9));
#1408=CARTESIAN_POINT('',(-20.3973075345265,-0.272723741399333,-22.9));
#1409=CARTESIAN_POINT('',(-20.3973075345265,2.21363812930034,-22.9));
#1410=CARTESIAN_POINT('Origin',(-8.3973075345265,-0.272723741399336,-22.9));
#1411=CARTESIAN_POINT('',(-8.3973075345265,-1.27272374139933,-22.9));
#1412=CARTESIAN_POINT('Origin',(-8.3973075345265,-0.272723741399336,-22.9));
#1413=CARTESIAN_POINT('',(-8.3973075345265,-1.27272374139933,-18.4));
#1414=CARTESIAN_POINT('',(-8.3973075345265,-1.27272374139933,-22.9));
#1415=CARTESIAN_POINT('Origin',(-8.3973075345265,-0.272723741399336,-18.4));
#1416=CARTESIAN_POINT('Origin',(-19.3973075345265,-1.27272374139933,-22.9));
#1417=CARTESIAN_POINT('',(-19.3973075345265,-1.27272374139933,-22.9));
#1418=CARTESIAN_POINT('',(5.95134623273676,-1.27272374139933,-22.9));
#1419=CARTESIAN_POINT('',(-19.3973075345265,-1.27272374139933,-18.4));
#1420=CARTESIAN_POINT('',(-19.3973075345265,-1.27272374139933,-22.9));
#1421=CARTESIAN_POINT('',(-19.3973075345265,-1.27272374139933,-18.4));
#1422=CARTESIAN_POINT('Origin',(-19.3973075345265,-0.272723741399333,-22.9));
#1423=CARTESIAN_POINT('Origin',(-19.3973075345265,-0.272723741399333,-22.9));
#1424=CARTESIAN_POINT('Origin',(-19.3973075345265,-0.272723741399333,-18.4));
#1425=CARTESIAN_POINT('Origin',(-13.8973075345265,2.07727625860066,-18.4));
#1426=CARTESIAN_POINT('',(-6.94865376726325,0.,-18.4));
#1427=CARTESIAN_POINT('Origin',(-30.400000000008,0.,-20.2999999999993));
#1428=CARTESIAN_POINT('',(27.399999999992,0.,-20.2999999999993));
#1429=CARTESIAN_POINT('',(30.399999999992,0.,-20.2999999999993));
#1430=CARTESIAN_POINT('',(27.399999999992,14.,-20.2999999999993));
#1431=CARTESIAN_POINT('',(27.399999999992,0.,-20.2999999999993));
#1432=CARTESIAN_POINT('',(-27.400000000008,14.,-20.2999999999993));
#1433=CARTESIAN_POINT('',(30.399999999992,14.,-20.2999999999993));
#1434=CARTESIAN_POINT('',(-27.400000000008,0.,-20.2999999999993));
#1435=CARTESIAN_POINT('',(-27.400000000008,0.,-20.2999999999993));
#1436=CARTESIAN_POINT('',(30.399999999992,0.,-20.2999999999993));
#1437=CARTESIAN_POINT('Origin',(-23.8891937028794,3.,13.0712016437845));
#1438=CARTESIAN_POINT('',(-23.8891937028794,6.,11.0712016437845));
#1439=CARTESIAN_POINT('Origin',(-23.8891937028794,6.,13.0712016437845));
#1440=CARTESIAN_POINT('',(-23.8891937028794,0.,11.0712016437845));
#1441=CARTESIAN_POINT('',(-23.8891937028794,3.,11.0712016437845));
#1442=CARTESIAN_POINT('Origin',(-23.8891937028794,0.,13.0712016437845));
#1443=CARTESIAN_POINT('Origin',(-23.8891937028794,0.,13.0712016437845));
#1444=CARTESIAN_POINT('Origin',(24.704237380856,3.,-15.2279569011924));
#1445=CARTESIAN_POINT('',(24.704237380856,6.,-17.2279569011924));
#1446=CARTESIAN_POINT('Origin',(24.704237380856,6.,-15.2279569011924));
#1447=CARTESIAN_POINT('',(24.704237380856,0.,-17.2279569011924));
#1448=CARTESIAN_POINT('',(24.704237380856,3.,-17.2279569011924));
#1449=CARTESIAN_POINT('Origin',(24.704237380856,0.,-15.2279569011924));
#1450=CARTESIAN_POINT('Origin',(24.704237380856,0.,-15.2279569011924));
#1451=CARTESIAN_POINT('Origin',(24.704237380856,0.,-15.2279569011924));
#1452=CARTESIAN_POINT('',(21.704237380856,6.,-15.2279569011924));
#1453=CARTESIAN_POINT('Origin',(24.704237380856,6.,-15.2279569011924));
#1454=CARTESIAN_POINT('',(21.704237380856,0.,-15.2279569011924));
#1455=CARTESIAN_POINT('',(21.704237380856,0.,-15.2279569011924));
#1456=CARTESIAN_POINT('Origin',(24.704237380856,0.,-15.2279569011924));
#1457=CARTESIAN_POINT('Origin',(24.704237380856,6.,-15.2279569011924));
#1458=CARTESIAN_POINT('Origin',(-23.8891937028794,0.,13.0712016437845));
#1459=CARTESIAN_POINT('',(-26.8891937028794,6.,13.0712016437845));
#1460=CARTESIAN_POINT('Origin',(-23.8891937028794,6.,13.0712016437845));
#1461=CARTESIAN_POINT('',(-26.8891937028794,0.,13.0712016437845));
#1462=CARTESIAN_POINT('',(-26.8891937028794,0.,13.0712016437845));
#1463=CARTESIAN_POINT('Origin',(-23.8891937028794,0.,13.0712016437845));
#1464=CARTESIAN_POINT('Origin',(-23.8891937028794,6.,13.0712016437845));
#1465=CARTESIAN_POINT('Origin',(30.399999999992,11.9,20.3000000000008));
#1466=CARTESIAN_POINT('',(30.399999999992,14.,18.7000000000007));
#1467=CARTESIAN_POINT('Origin',(30.399999999992,14.,20.3000000000008));
#1468=CARTESIAN_POINT('',(30.399999999992,9.8,18.7000000000007));
#1469=CARTESIAN_POINT('',(30.399999999992,11.9,18.7000000000007));
#1470=CARTESIAN_POINT('Origin',(30.399999999992,9.8,20.3000000000008));
#1471=CARTESIAN_POINT('Origin',(30.399999999992,9.8,20.3000000000008));
#1472=CARTESIAN_POINT('Origin',(-30.400000000008,11.9,-20.2999999999993));
#1473=CARTESIAN_POINT('',(-30.400000000008,14.,-21.8999999999993));
#1474=CARTESIAN_POINT('Origin',(-30.400000000008,14.,-20.2999999999993));
#1475=CARTESIAN_POINT('',(-30.400000000008,9.8,-21.8999999999993));
#1476=CARTESIAN_POINT('',(-30.400000000008,11.9,-21.8999999999993));
#1477=CARTESIAN_POINT('Origin',(-30.400000000008,9.8,-20.2999999999993));
#1478=CARTESIAN_POINT('Origin',(-30.400000000008,9.8,-20.2999999999993));
#1479=CARTESIAN_POINT('Origin',(-30.4000000000081,11.9,20.3000000000007));
#1480=CARTESIAN_POINT('',(-30.4000000000081,14.,18.7000000000007));
#1481=CARTESIAN_POINT('Origin',(-30.4000000000081,14.,20.3000000000007));
#1482=CARTESIAN_POINT('',(-30.4000000000081,9.8,18.7000000000007));
#1483=CARTESIAN_POINT('',(-30.4000000000081,11.9,18.7000000000007));
#1484=CARTESIAN_POINT('Origin',(-30.4000000000081,9.8,20.3000000000007));
#1485=CARTESIAN_POINT('Origin',(-30.4000000000081,9.8,20.3000000000007));
#1486=CARTESIAN_POINT('Origin',(30.399999999992,11.9,-20.2999999999993));
#1487=CARTESIAN_POINT('',(30.399999999992,14.,-21.8999999999993));
#1488=CARTESIAN_POINT('Origin',(30.399999999992,14.,-20.2999999999993));
#1489=CARTESIAN_POINT('',(30.399999999992,9.8,-21.8999999999993));
#1490=CARTESIAN_POINT('',(30.399999999992,11.9,-21.8999999999993));
#1491=CARTESIAN_POINT('Origin',(30.399999999992,9.8,-20.2999999999993));
#1492=CARTESIAN_POINT('Origin',(30.399999999992,9.8,-20.2999999999993));
#1493=CARTESIAN_POINT('Origin',(30.399999999992,0.,20.3000000000007));
#1494=CARTESIAN_POINT('',(27.399999999992,0.,20.3000000000008));
#1495=CARTESIAN_POINT('',(30.399999999992,0.,17.3000000000007));
#1496=CARTESIAN_POINT('Origin',(30.399999999992,0.,20.3000000000007));
#1497=CARTESIAN_POINT('',(27.399999999992,14.,20.3000000000008));
#1498=CARTESIAN_POINT('',(27.399999999992,0.,20.3000000000008));
#1499=CARTESIAN_POINT('',(30.399999999992,14.,17.3000000000007));
#1500=CARTESIAN_POINT('Origin',(30.399999999992,14.,20.3000000000007));
#1501=CARTESIAN_POINT('',(30.399999999992,0.,17.3000000000007));
#1502=CARTESIAN_POINT('Origin',(30.399999999992,0.,20.3000000000008));
#1503=CARTESIAN_POINT('',(-27.4000000000081,0.,20.3000000000007));
#1504=CARTESIAN_POINT('',(-30.4000000000081,0.,20.3000000000007));
#1505=CARTESIAN_POINT('',(-27.4000000000081,14.,20.3000000000007));
#1506=CARTESIAN_POINT('',(-27.4000000000081,0.,20.3000000000007));
#1507=CARTESIAN_POINT('',(-30.4000000000081,14.,20.3000000000007));
#1508=CARTESIAN_POINT('Origin',(4.44089209850063E-15,0.,8.88178419700125E-15));
#1509=CARTESIAN_POINT('',(-30.400000000008,0.,-17.2999999999993));
#1510=CARTESIAN_POINT('Origin',(-30.4000000000081,0.,-20.2999999999993));
#1511=CARTESIAN_POINT('',(-30.4000000000081,0.,17.3000000000008));
#1512=CARTESIAN_POINT('',(-30.4000000000081,0.,-20.2999999999993));
#1513=CARTESIAN_POINT('Origin',(-30.4000000000081,0.,20.3000000000007));
#1514=CARTESIAN_POINT('',(30.399999999992,0.,-17.2999999999993));
#1515=CARTESIAN_POINT('',(30.399999999992,0.,20.3000000000008));
#1516=CARTESIAN_POINT('Origin',(30.399999999992,0.,-20.2999999999993));
#1517=CARTESIAN_POINT('Origin',(-30.4000000000081,0.,20.3000000000007));
#1518=CARTESIAN_POINT('',(-30.4000000000081,14.,17.3000000000008));
#1519=CARTESIAN_POINT('',(-30.4000000000081,0.,17.3000000000008));
#1520=CARTESIAN_POINT('Origin',(-30.4000000000081,14.,20.3000000000007));
#1521=CARTESIAN_POINT('Origin',(-30.4000000000081,0.,20.3000000000007));
#1522=CARTESIAN_POINT('',(-30.400000000008,14.,-17.2999999999993));
#1523=CARTESIAN_POINT('',(-30.4000000000081,0.,-17.2999999999993));
#1524=CARTESIAN_POINT('',(-30.4000000000081,14.,-20.2999999999993));
#1525=CARTESIAN_POINT('Origin',(30.399999999992,0.,-20.2999999999993));
#1526=CARTESIAN_POINT('',(30.399999999992,14.,-17.2999999999993));
#1527=CARTESIAN_POINT('',(30.399999999992,0.,-17.2999999999993));
#1528=CARTESIAN_POINT('Origin',(30.399999999992,14.,-20.2999999999993));
#1529=CARTESIAN_POINT('Origin',(30.399999999992,0.,-20.2999999999993));
#1530=CARTESIAN_POINT('',(30.399999999992,14.,20.3000000000008));
#1531=CARTESIAN_POINT('Origin',(-30.4000000000081,0.,-20.2999999999993));
#1532=CARTESIAN_POINT('Origin',(-30.4000000000081,14.,-20.2999999999993));
#1533=CARTESIAN_POINT('Origin',(33.3,0.,20.9));
#1534=CARTESIAN_POINT('',(33.3,14.,-20.9));
#1535=CARTESIAN_POINT('',(33.3,0.,-20.9));
#1536=CARTESIAN_POINT('',(33.3,14.,20.9));
#1537=CARTESIAN_POINT('',(33.3,14.,20.9));
#1538=CARTESIAN_POINT('',(33.3,0.,20.9));
#1539=CARTESIAN_POINT('Origin',(31.3,0.,20.9));
#1540=CARTESIAN_POINT('',(31.3,14.,22.9));
#1541=CARTESIAN_POINT('Origin',(31.3,14.,20.9));
#1542=CARTESIAN_POINT('',(31.3,0.,22.9));
#1543=CARTESIAN_POINT('Origin',(-31.3,0.,22.9));
#1544=CARTESIAN_POINT('',(-31.3,14.,22.9));
#1545=CARTESIAN_POINT('',(-31.3,14.,22.9));
#1546=CARTESIAN_POINT('',(-31.3,0.,22.9));
#1547=CARTESIAN_POINT('Origin',(-31.3,0.,20.9));
#1548=CARTESIAN_POINT('',(-33.3,14.,20.9));
#1549=CARTESIAN_POINT('Origin',(-31.3,14.,20.9));
#1550=CARTESIAN_POINT('',(-33.3,0.,20.9));
#1551=CARTESIAN_POINT('Origin',(-33.3,0.,-20.9));
#1552=CARTESIAN_POINT('',(-33.3,14.,-20.9));
#1553=CARTESIAN_POINT('',(-33.3,14.,-20.9));
#1554=CARTESIAN_POINT('',(-33.3,0.,-20.9));
#1555=CARTESIAN_POINT('Origin',(-31.3,0.,-20.9));
#1556=CARTESIAN_POINT('',(-31.3,14.,-22.9));
#1557=CARTESIAN_POINT('Origin',(-31.3,14.,-20.9));
#1558=CARTESIAN_POINT('',(-31.3,0.,-22.9));
#1559=CARTESIAN_POINT('Origin',(31.3,0.,-22.9));
#1560=CARTESIAN_POINT('',(31.3,14.,-22.9));
#1561=CARTESIAN_POINT('',(31.3,14.,-22.9));
#1562=CARTESIAN_POINT('',(31.3,0.,-22.9));
#1563=CARTESIAN_POINT('Origin',(31.3,0.,-20.9));
#1564=CARTESIAN_POINT('Origin',(31.3,14.,-20.9));
#1565=CARTESIAN_POINT('Origin',(4.44089209850063E-15,14.,8.88178419700125E-15));
#1566=UNCERTAINTY_MEASURE_WITH_UNIT(LENGTH_MEASURE(0.01),#1570,
'DISTANCE_ACCURACY_VALUE',
'Maximum model space distance between geometric entities at asserted c
onnectivities');
#1567=UNCERTAINTY_MEASURE_WITH_UNIT(LENGTH_MEASURE(0.01),#1570,
'DISTANCE_ACCURACY_VALUE',
'Maximum model space distance between geometric entities at asserted c
onnectivities');
#1568=(
GEOMETRIC_REPRESENTATION_CONTEXT(3)
GLOBAL_UNCERTAINTY_ASSIGNED_CONTEXT((#1566))
GLOBAL_UNIT_ASSIGNED_CONTEXT((#1570,#1572,#1573))
REPRESENTATION_CONTEXT('','3D')
);
#1569=(
GEOMETRIC_REPRESENTATION_CONTEXT(3)
GLOBAL_UNCERTAINTY_ASSIGNED_CONTEXT((#1567))
GLOBAL_UNIT_ASSIGNED_CONTEXT((#1570,#1572,#1573))
REPRESENTATION_CONTEXT('','3D')
);
#1570=(
LENGTH_UNIT()
NAMED_UNIT(*)
SI_UNIT(.MILLI.,.METRE.)
);
#1571=(
LENGTH_UNIT()
NAMED_UNIT(*)
SI_UNIT($,.METRE.)
);
#1572=(
NAMED_UNIT(*)
PLANE_ANGLE_UNIT()
SI_UNIT($,.RADIAN.)
);
#1573=(
NAMED_UNIT(*)
SI_UNIT($,.STERADIAN.)
SOLID_ANGLE_UNIT()
);
#1574=SHAPE_DEFINITION_REPRESENTATION(#1575,#1576);
#1575=PRODUCT_DEFINITION_SHAPE('',$,#1578);
#1576=SHAPE_REPRESENTATION('',(#938),#1568);
#1577=PRODUCT_DEFINITION_CONTEXT('part definition',#1582,'design');
#1578=PRODUCT_DEFINITION('Enclosure Unit 1','Enclosure Unit 1 v12',#1579,
#1577);
#1579=PRODUCT_DEFINITION_FORMATION('',$,#1584);
#1580=PRODUCT_RELATED_PRODUCT_CATEGORY('Enclosure Unit 1 v12',
'Enclosure Unit 1 v12',(#1584));
#1581=APPLICATION_PROTOCOL_DEFINITION('international standard',
'automotive_design',2009,#1582);
#1582=APPLICATION_CONTEXT(
'Core Data for Automotive Mechanical Design Process');
#1583=PRODUCT_CONTEXT('part definition',#1582,'mechanical');
#1584=PRODUCT('Enclosure Unit 1','Enclosure Unit 1 v12',$,(#1583));
#1585=PRESENTATION_STYLE_ASSIGNMENT((#1587));
#1586=PRESENTATION_STYLE_ASSIGNMENT((#1588));
#1587=SURFACE_STYLE_USAGE(.BOTH.,#1589);
#1588=SURFACE_STYLE_USAGE(.BOTH.,#1590);
#1589=SURFACE_SIDE_STYLE('',(#1591));
#1590=SURFACE_SIDE_STYLE('',(#1592));
#1591=SURFACE_STYLE_FILL_AREA(#1593);
#1592=SURFACE_STYLE_FILL_AREA(#1594);
#1593=FILL_AREA_STYLE('Steel - Satin',(#1595));
#1594=FILL_AREA_STYLE('ABS (White)',(#1596));
#1595=FILL_AREA_STYLE_COLOUR('Steel - Satin',#1597);
#1596=FILL_AREA_STYLE_COLOUR('ABS (White)',#1598);
#1597=COLOUR_RGB('Steel - Satin',0.627450980392157,0.627450980392157,0.627450980392157);
#1598=COLOUR_RGB('ABS (White)',0.298039215686275,0.305882352941176,0.337254901960784);
ENDSEC;
END-ISO-10303-21;
