ISO-10303-21;
HEADER;
/* Generated by software containing ST-Developer
 * from STEP Tools, Inc. (www.steptools.com) 
 */

FILE_DESCRIPTION(
/* description */ ('Cheese Head Screw DIN 84 - M2.5 x 4'),
/* implementation_level */ '2;1');

FILE_NAME(
/* name */ 'Cheese Head Screw DIN 84 - M2.5 x 4 Steel 4.6 Plain.step',
/* time_stamp */ '2026-05-23T13:50:33+02:00',
/* author */ (''),
/* organization */ (''),
/* preprocessor_version */ 'ST-DEVELOPER v20.1',
/* originating_system */ 'Autodesk Translation Framework v15.8.0.0',
/* authorisation */ '');

FILE_SCHEMA (('AUTOMOTIVE_DESIGN { 1 0 10303 214 3 1 1 }'));
ENDSEC;

DATA;
#10=MECHANICAL_DESIGN_GEOMETRIC_PRESENTATION_REPRESENTATION('',(#13),#438);
#11=SHAPE_REPRESENTATION_RELATIONSHIP('SRR','None',#445,#12);
#12=ADVANCED_BREP_SHAPE_REPRESENTATION('',(#14),#437);
#13=STYLED_ITEM('',(#454),#14);
#14=MANIFOLD_SOLID_BREP('Body1',#225);
#15=CYLINDRICAL_SURFACE('',#261,1.12821515000056);
#16=CYLINDRICAL_SURFACE('',#265,1.215);
#17=FACE_BOUND('',#56,.T.);
#18=TOROIDAL_SURFACE('',#252,2.0183850209568,0.1);
#19=TOROIDAL_SURFACE('',#254,2.0183850209568,0.1);
#20=B_SPLINE_CURVE_WITH_KNOTS('',3,(#351,#352,#353,#354,#355,#356,#357,
#358,#359,#360),.UNSPECIFIED.,.F.,.F.,(4,2,2,2,4),(0.0446828063309354,0.0484391706026064,
0.0521729778365241,0.0558822342646414,0.0587290209648334),.UNSPECIFIED.);
#21=B_SPLINE_CURVE_WITH_KNOTS('',3,(#363,#364,#365,#366,#367,#368,#369,
#370,#371,#372),.UNSPECIFIED.,.F.,.F.,(4,2,2,2,4),(0.000843279119956005,
0.003690065820148,0.00739932224826537,0.011133129482183,0.014889493753854),
 .UNSPECIFIED.);
#22=B_SPLINE_CURVE_WITH_KNOTS('',3,(#378,#379,#380,#381,#382,#383,#384,
#385,#386,#387),.UNSPECIFIED.,.F.,.F.,(4,2,2,2,4),(0.0446828063309354,0.0484391706026064,
0.052172977836524,0.0558822342646414,0.0587290209648335),.UNSPECIFIED.);
#23=B_SPLINE_CURVE_WITH_KNOTS('',3,(#391,#392,#393,#394,#395,#396,#397,
#398,#399,#400),.UNSPECIFIED.,.F.,.F.,(4,2,2,2,4),(0.000843279119955946,
0.00369006582014809,0.00739932224826541,0.011133129482183,0.014889493753854),
 .UNSPECIFIED.);
#24=PLANE('',#242);
#25=PLANE('',#243);
#26=PLANE('',#244);
#27=PLANE('',#248);
#28=PLANE('',#250);
#29=PLANE('',#258);
#30=PLANE('',#259);
#31=FACE_OUTER_BOUND('',#45,.T.);
#32=FACE_OUTER_BOUND('',#46,.T.);
#33=FACE_OUTER_BOUND('',#47,.T.);
#34=FACE_OUTER_BOUND('',#48,.T.);
#35=FACE_OUTER_BOUND('',#49,.T.);
#36=FACE_OUTER_BOUND('',#50,.T.);
#37=FACE_OUTER_BOUND('',#51,.T.);
#38=FACE_OUTER_BOUND('',#52,.T.);
#39=FACE_OUTER_BOUND('',#53,.T.);
#40=FACE_OUTER_BOUND('',#54,.T.);
#41=FACE_OUTER_BOUND('',#55,.T.);
#42=FACE_OUTER_BOUND('',#57,.T.);
#43=FACE_OUTER_BOUND('',#58,.T.);
#44=FACE_OUTER_BOUND('',#59,.T.);
#45=EDGE_LOOP('',(#148,#149,#150,#151));
#46=EDGE_LOOP('',(#152,#153,#154,#155,#156,#157));
#47=EDGE_LOOP('',(#158,#159,#160,#161,#162,#163));
#48=EDGE_LOOP('',(#164,#165,#166,#167,#168));
#49=EDGE_LOOP('',(#169,#170));
#50=EDGE_LOOP('',(#171,#172));
#51=EDGE_LOOP('',(#173,#174,#175,#176));
#52=EDGE_LOOP('',(#177,#178,#179,#180));
#53=EDGE_LOOP('',(#181,#182,#183,#184,#185,#186,#187,#188,#189,#190,#191,
#192));
#54=EDGE_LOOP('',(#193));
#55=EDGE_LOOP('',(#194));
#56=EDGE_LOOP('',(#195));
#57=EDGE_LOOP('',(#196,#197,#198,#199));
#58=EDGE_LOOP('',(#200,#201,#202,#203));
#59=EDGE_LOOP('',(#204,#205,#206,#207));
#60=LINE('',#340,#73);
#61=LINE('',#345,#74);
#62=LINE('',#347,#75);
#63=LINE('',#349,#76);
#64=LINE('',#362,#77);
#65=LINE('',#376,#78);
#66=LINE('',#389,#79);
#67=LINE('',#402,#80);
#68=LINE('',#403,#81);
#69=LINE('',#420,#82);
#70=LINE('',#428,#83);
#71=LINE('',#432,#84);
#72=LINE('',#434,#85);
#73=VECTOR('',#272,1.12447375);
#74=VECTOR('',#277,10.);
#75=VECTOR('',#278,10.);
#76=VECTOR('',#279,10.);
#77=VECTOR('',#280,10.);
#78=VECTOR('',#283,10.);
#79=VECTOR('',#284,10.);
#80=VECTOR('',#285,10.);
#81=VECTOR('',#286,10.);
#82=VECTOR('',#315,2.18000906917927);
#83=VECTOR('',#326,1.12821515000056);
#84=VECTOR('',#331,1.1891075750008);
#85=VECTOR('',#334,1.25);
#86=CIRCLE('',#240,1.215);
#87=CIRCLE('',#241,0.9739475);
#88=CIRCLE('',#245,2.17126020282663);
#89=CIRCLE('',#246,2.17126020282663);
#90=CIRCLE('',#247,2.17126020282663);
#91=CIRCLE('',#249,2.0183850209568);
#92=CIRCLE('',#251,2.0183850209568);
#93=CIRCLE('',#253,2.11800449076597);
#94=CIRCLE('',#255,2.11800449076597);
#95=CIRCLE('',#257,2.25);
#96=CIRCLE('',#260,1.12821514999983);
#97=CIRCLE('',#262,1.12821515000128);
#98=CIRCLE('',#264,1.215);
#99=VERTEX_POINT('',#337);
#100=VERTEX_POINT('',#339);
#101=VERTEX_POINT('',#343);
#102=VERTEX_POINT('',#344);
#103=VERTEX_POINT('',#346);
#104=VERTEX_POINT('',#348);
#105=VERTEX_POINT('',#350);
#106=VERTEX_POINT('',#361);
#107=VERTEX_POINT('',#374);
#108=VERTEX_POINT('',#375);
#109=VERTEX_POINT('',#377);
#110=VERTEX_POINT('',#388);
#111=VERTEX_POINT('',#390);
#112=VERTEX_POINT('',#401);
#113=VERTEX_POINT('',#406);
#114=VERTEX_POINT('',#418);
#115=VERTEX_POINT('',#423);
#116=VERTEX_POINT('',#426);
#117=VERTEX_POINT('',#430);
#118=EDGE_CURVE('',#99,#99,#86,.T.);
#119=EDGE_CURVE('',#99,#100,#60,.T.);
#120=EDGE_CURVE('',#100,#100,#87,.T.);
#121=EDGE_CURVE('',#101,#102,#61,.T.);
#122=EDGE_CURVE('',#101,#103,#62,.T.);
#123=EDGE_CURVE('',#104,#103,#63,.T.);
#124=EDGE_CURVE('',#105,#104,#20,.T.);
#125=EDGE_CURVE('',#106,#105,#64,.T.);
#126=EDGE_CURVE('',#102,#106,#21,.T.);
#127=EDGE_CURVE('',#107,#108,#65,.T.);
#128=EDGE_CURVE('',#109,#107,#22,.T.);
#129=EDGE_CURVE('',#110,#109,#66,.T.);
#130=EDGE_CURVE('',#111,#110,#23,.T.);
#131=EDGE_CURVE('',#112,#111,#67,.T.);
#132=EDGE_CURVE('',#112,#108,#68,.T.);
#133=EDGE_CURVE('',#108,#101,#88,.T.);
#134=EDGE_CURVE('',#113,#112,#89,.T.);
#135=EDGE_CURVE('',#103,#113,#90,.T.);
#136=EDGE_CURVE('',#110,#109,#91,.T.);
#137=EDGE_CURVE('',#106,#105,#92,.T.);
#138=EDGE_CURVE('',#107,#111,#93,.T.);
#139=EDGE_CURVE('',#104,#102,#94,.T.);
#140=EDGE_CURVE('',#114,#114,#95,.T.);
#141=EDGE_CURVE('',#114,#113,#69,.T.);
#142=EDGE_CURVE('',#115,#115,#96,.T.);
#143=EDGE_CURVE('',#116,#116,#97,.T.);
#144=EDGE_CURVE('',#116,#115,#70,.T.);
#145=EDGE_CURVE('',#117,#117,#98,.T.);
#146=EDGE_CURVE('',#117,#116,#71,.T.);
#147=EDGE_CURVE('',#99,#117,#72,.T.);
#148=ORIENTED_EDGE('',*,*,#118,.F.);
#149=ORIENTED_EDGE('',*,*,#119,.T.);
#150=ORIENTED_EDGE('',*,*,#120,.F.);
#151=ORIENTED_EDGE('',*,*,#119,.F.);
#152=ORIENTED_EDGE('',*,*,#121,.F.);
#153=ORIENTED_EDGE('',*,*,#122,.T.);
#154=ORIENTED_EDGE('',*,*,#123,.F.);
#155=ORIENTED_EDGE('',*,*,#124,.F.);
#156=ORIENTED_EDGE('',*,*,#125,.F.);
#157=ORIENTED_EDGE('',*,*,#126,.F.);
#158=ORIENTED_EDGE('',*,*,#127,.F.);
#159=ORIENTED_EDGE('',*,*,#128,.F.);
#160=ORIENTED_EDGE('',*,*,#129,.F.);
#161=ORIENTED_EDGE('',*,*,#130,.F.);
#162=ORIENTED_EDGE('',*,*,#131,.F.);
#163=ORIENTED_EDGE('',*,*,#132,.T.);
#164=ORIENTED_EDGE('',*,*,#133,.F.);
#165=ORIENTED_EDGE('',*,*,#132,.F.);
#166=ORIENTED_EDGE('',*,*,#134,.F.);
#167=ORIENTED_EDGE('',*,*,#135,.F.);
#168=ORIENTED_EDGE('',*,*,#122,.F.);
#169=ORIENTED_EDGE('',*,*,#129,.T.);
#170=ORIENTED_EDGE('',*,*,#136,.F.);
#171=ORIENTED_EDGE('',*,*,#125,.T.);
#172=ORIENTED_EDGE('',*,*,#137,.F.);
#173=ORIENTED_EDGE('',*,*,#128,.T.);
#174=ORIENTED_EDGE('',*,*,#138,.T.);
#175=ORIENTED_EDGE('',*,*,#130,.T.);
#176=ORIENTED_EDGE('',*,*,#136,.T.);
#177=ORIENTED_EDGE('',*,*,#126,.T.);
#178=ORIENTED_EDGE('',*,*,#137,.T.);
#179=ORIENTED_EDGE('',*,*,#124,.T.);
#180=ORIENTED_EDGE('',*,*,#139,.T.);
#181=ORIENTED_EDGE('',*,*,#140,.F.);
#182=ORIENTED_EDGE('',*,*,#141,.T.);
#183=ORIENTED_EDGE('',*,*,#134,.T.);
#184=ORIENTED_EDGE('',*,*,#131,.T.);
#185=ORIENTED_EDGE('',*,*,#138,.F.);
#186=ORIENTED_EDGE('',*,*,#127,.T.);
#187=ORIENTED_EDGE('',*,*,#133,.T.);
#188=ORIENTED_EDGE('',*,*,#121,.T.);
#189=ORIENTED_EDGE('',*,*,#139,.F.);
#190=ORIENTED_EDGE('',*,*,#123,.T.);
#191=ORIENTED_EDGE('',*,*,#135,.T.);
#192=ORIENTED_EDGE('',*,*,#141,.F.);
#193=ORIENTED_EDGE('',*,*,#120,.T.);
#194=ORIENTED_EDGE('',*,*,#140,.T.);
#195=ORIENTED_EDGE('',*,*,#142,.F.);
#196=ORIENTED_EDGE('',*,*,#143,.F.);
#197=ORIENTED_EDGE('',*,*,#144,.T.);
#198=ORIENTED_EDGE('',*,*,#142,.T.);
#199=ORIENTED_EDGE('',*,*,#144,.F.);
#200=ORIENTED_EDGE('',*,*,#145,.F.);
#201=ORIENTED_EDGE('',*,*,#146,.T.);
#202=ORIENTED_EDGE('',*,*,#143,.T.);
#203=ORIENTED_EDGE('',*,*,#146,.F.);
#204=ORIENTED_EDGE('',*,*,#118,.T.);
#205=ORIENTED_EDGE('',*,*,#147,.T.);
#206=ORIENTED_EDGE('',*,*,#145,.T.);
#207=ORIENTED_EDGE('',*,*,#147,.F.);
#208=CONICAL_SURFACE('',#239,1.12447375,0.828689867018303);
#209=CONICAL_SURFACE('',#256,2.18000906917927,0.08726646259966);
#210=CONICAL_SURFACE('',#263,1.1891075750008,0.523598775596934);
#211=ADVANCED_FACE('',(#31),#208,.T.);
#212=ADVANCED_FACE('',(#32),#24,.F.);
#213=ADVANCED_FACE('',(#33),#25,.F.);
#214=ADVANCED_FACE('',(#34),#26,.T.);
#215=ADVANCED_FACE('',(#35),#27,.T.);
#216=ADVANCED_FACE('',(#36),#28,.T.);
#217=ADVANCED_FACE('',(#37),#18,.T.);
#218=ADVANCED_FACE('',(#38),#19,.T.);
#219=ADVANCED_FACE('',(#39),#209,.T.);
#220=ADVANCED_FACE('',(#40),#29,.T.);
#221=ADVANCED_FACE('',(#41,#17),#30,.T.);
#222=ADVANCED_FACE('',(#42),#15,.T.);
#223=ADVANCED_FACE('',(#43),#210,.T.);
#224=ADVANCED_FACE('',(#44),#16,.T.);
#225=CLOSED_SHELL('',(#211,#212,#213,#214,#215,#216,#217,#218,#219,#220,
#221,#222,#223,#224));
#226=DERIVED_UNIT_ELEMENT(#228,1.);
#227=DERIVED_UNIT_ELEMENT(#440,-3.);
#228=(
MASS_UNIT()
NAMED_UNIT(*)
SI_UNIT(.KILO.,.GRAM.)
);
#229=DERIVED_UNIT((#226,#227));
#230=MEASURE_REPRESENTATION_ITEM('density measure',
POSITIVE_RATIO_MEASURE(7750.),#229);
#231=PROPERTY_DEFINITION_REPRESENTATION(#236,#233);
#232=PROPERTY_DEFINITION_REPRESENTATION(#237,#234);
#233=REPRESENTATION('material name',(#235),#437);
#234=REPRESENTATION('density',(#230),#437);
#235=DESCRIPTIVE_REPRESENTATION_ITEM('Steel 4.6, Plain',
'Steel 4.6, Plain');
#236=PROPERTY_DEFINITION('material property','material name',#447);
#237=PROPERTY_DEFINITION('material property','density of part',#447);
#238=AXIS2_PLACEMENT_3D('',#335,#266,#267);
#239=AXIS2_PLACEMENT_3D('',#336,#268,#269);
#240=AXIS2_PLACEMENT_3D('',#338,#270,#271);
#241=AXIS2_PLACEMENT_3D('',#341,#273,#274);
#242=AXIS2_PLACEMENT_3D('',#342,#275,#276);
#243=AXIS2_PLACEMENT_3D('',#373,#281,#282);
#244=AXIS2_PLACEMENT_3D('',#404,#287,#288);
#245=AXIS2_PLACEMENT_3D('',#405,#289,#290);
#246=AXIS2_PLACEMENT_3D('',#407,#291,#292);
#247=AXIS2_PLACEMENT_3D('',#408,#293,#294);
#248=AXIS2_PLACEMENT_3D('',#409,#295,#296);
#249=AXIS2_PLACEMENT_3D('',#410,#297,#298);
#250=AXIS2_PLACEMENT_3D('',#411,#299,#300);
#251=AXIS2_PLACEMENT_3D('',#412,#301,#302);
#252=AXIS2_PLACEMENT_3D('',#413,#303,#304);
#253=AXIS2_PLACEMENT_3D('',#414,#305,#306);
#254=AXIS2_PLACEMENT_3D('',#415,#307,#308);
#255=AXIS2_PLACEMENT_3D('',#416,#309,#310);
#256=AXIS2_PLACEMENT_3D('',#417,#311,#312);
#257=AXIS2_PLACEMENT_3D('',#419,#313,#314);
#258=AXIS2_PLACEMENT_3D('',#421,#316,#317);
#259=AXIS2_PLACEMENT_3D('',#422,#318,#319);
#260=AXIS2_PLACEMENT_3D('',#424,#320,#321);
#261=AXIS2_PLACEMENT_3D('',#425,#322,#323);
#262=AXIS2_PLACEMENT_3D('',#427,#324,#325);
#263=AXIS2_PLACEMENT_3D('',#429,#327,#328);
#264=AXIS2_PLACEMENT_3D('',#431,#329,#330);
#265=AXIS2_PLACEMENT_3D('',#433,#332,#333);
#266=DIRECTION('axis',(0.,0.,1.));
#267=DIRECTION('refdir',(1.,0.,0.));
#268=DIRECTION('center_axis',(0.,0.,1.));
#269=DIRECTION('ref_axis',(-1.,0.,0.));
#270=DIRECTION('center_axis',(-7.29513176060221E-17,0.,1.));
#271=DIRECTION('ref_axis',(-1.,0.,0.));
#272=DIRECTION('',(-0.737046561060606,9.02621711825435E-17,-0.675841968827577));
#273=DIRECTION('center_axis',(7.29513176060221E-17,0.,-1.));
#274=DIRECTION('ref_axis',(-1.,0.,0.));
#275=DIRECTION('center_axis',(-6.16790569236198E-17,1.,0.));
#276=DIRECTION('ref_axis',(1.,6.16790569236198E-17,0.));
#277=DIRECTION('',(0.0880146429921068,0.,0.996119180931163));
#278=DIRECTION('',(1.,6.16790569236198E-17,0.));
#279=DIRECTION('',(0.0880146429921068,0.,-0.996119180931163));
#280=DIRECTION('',(1.,6.16790569236198E-17,7.29513176060221E-17));
#281=DIRECTION('center_axis',(2.00456935001764E-16,-1.,0.));
#282=DIRECTION('ref_axis',(-1.,-2.00456935001764E-16,0.));
#283=DIRECTION('',(-0.0880146429921073,5.6774999722699E-17,-0.996119180931163));
#284=DIRECTION('',(-1.,-2.00456935001764E-16,-7.29513176060221E-17));
#285=DIRECTION('',(-0.0880146429921072,0.,0.996119180931163));
#286=DIRECTION('',(-1.,-2.00456935001764E-16,0.));
#287=DIRECTION('center_axis',(0.,0.,1.));
#288=DIRECTION('ref_axis',(1.,0.,0.));
#289=DIRECTION('center_axis',(0.,0.,-1.));
#290=DIRECTION('ref_axis',(-1.,0.,0.));
#291=DIRECTION('center_axis',(0.,0.,-1.));
#292=DIRECTION('ref_axis',(-1.,0.,0.));
#293=DIRECTION('center_axis',(0.,0.,-1.));
#294=DIRECTION('ref_axis',(-1.,0.,0.));
#295=DIRECTION('center_axis',(-7.29513176060221E-17,0.,1.));
#296=DIRECTION('ref_axis',(1.,0.,7.29513176060221E-17));
#297=DIRECTION('center_axis',(7.29513176060221E-17,0.,-1.));
#298=DIRECTION('ref_axis',(1.,0.,7.29513176060221E-17));
#299=DIRECTION('center_axis',(-7.29513176060221E-17,0.,1.));
#300=DIRECTION('ref_axis',(1.,0.,7.29513176060221E-17));
#301=DIRECTION('center_axis',(7.29513176060221E-17,0.,-1.));
#302=DIRECTION('ref_axis',(1.,0.,7.29513176060221E-17));
#303=DIRECTION('center_axis',(7.29513176060221E-17,0.,-1.));
#304=DIRECTION('ref_axis',(-1.,0.,-1.04817869616894E-16));
#305=DIRECTION('center_axis',(-1.31045877082117E-16,1.31045877082117E-16,
1.));
#306=DIRECTION('ref_axis',(1.,-6.12323399573677E-17,1.31045877082117E-16));
#307=DIRECTION('center_axis',(7.29513176060221E-17,0.,-1.));
#308=DIRECTION('ref_axis',(-1.,0.,-1.04817869616894E-16));
#309=DIRECTION('center_axis',(-1.31045877082117E-16,1.31045877082117E-16,
1.));
#310=DIRECTION('ref_axis',(1.,-6.12323399573677E-17,1.31045877082117E-16));
#311=DIRECTION('center_axis',(7.29513176060221E-17,0.,-1.));
#312=DIRECTION('ref_axis',(-1.,0.,0.));
#313=DIRECTION('center_axis',(7.29513176060221E-17,0.,-1.));
#314=DIRECTION('ref_axis',(1.,0.,7.29513176060221E-17));
#315=DIRECTION('',(-0.087155742747602,1.06735001383161E-17,0.99619469809175));
#316=DIRECTION('center_axis',(7.29513176060221E-17,0.,-1.));
#317=DIRECTION('ref_axis',(-1.,0.,-7.29513176060221E-17));
#318=DIRECTION('center_axis',(7.29513176060221E-17,0.,-1.));
#319=DIRECTION('ref_axis',(-1.,0.,-7.29513176060221E-17));
#320=DIRECTION('center_axis',(7.29513176060221E-17,0.,-1.));
#321=DIRECTION('ref_axis',(1.,0.,7.29513176060221E-17));
#322=DIRECTION('center_axis',(7.29513176060221E-17,0.,-1.));
#323=DIRECTION('ref_axis',(-1.,0.,0.));
#324=DIRECTION('center_axis',(7.29513176060221E-17,0.,-1.));
#325=DIRECTION('ref_axis',(1.,0.,7.29513176060221E-17));
#326=DIRECTION('',(-7.29513176060221E-17,0.,1.));
#327=DIRECTION('center_axis',(7.29513176060221E-17,0.,-1.));
#328=DIRECTION('ref_axis',(-1.,0.,0.));
#329=DIRECTION('center_axis',(7.29513176060221E-17,0.,-1.));
#330=DIRECTION('ref_axis',(-1.,0.,0.));
#331=DIRECTION('',(-0.499999999998818,6.12323399572229E-17,0.866025403785121));
#332=DIRECTION('center_axis',(7.29513176060221E-17,0.,-1.));
#333=DIRECTION('ref_axis',(-1.,0.,0.));
#334=DIRECTION('',(-7.29513176060221E-17,0.,1.));
#335=CARTESIAN_POINT('',(0.,0.,0.));
#336=CARTESIAN_POINT('Origin',(0.,0.,-3.86197349999915));
#337=CARTESIAN_POINT('',(1.215,1.48794586096403E-16,-3.77896457998935));
#338=CARTESIAN_POINT('Origin',(1.96378800680674E-16,0.,-3.77896457998935));
#339=CARTESIAN_POINT('',(0.9739475,-1.19274168841257E-16,-3.99999999999915));
#340=CARTESIAN_POINT('',(1.12447375,-1.37708317866272E-16,-3.86197349999915));
#341=CARTESIAN_POINT('Origin',(0.,0.,-3.99999999999915));
#342=CARTESIAN_POINT('Origin',(-2.22991031209778,0.3,1.6));
#343=CARTESIAN_POINT('',(-2.15043504165524,0.3,0.9));
#344=CARTESIAN_POINT('',(-2.09665042935269,0.3,1.50871557427457));
#345=CARTESIAN_POINT('',(-2.12354273550396,0.3,1.20435778713729));
#346=CARTESIAN_POINT('',(2.15043504165524,0.3,0.9));
#347=CARTESIAN_POINT('',(-2.25,0.3,0.9));
#348=CARTESIAN_POINT('',(2.09665042935269,0.3,1.50871557427457));
#349=CARTESIAN_POINT('',(2.12354273550396,0.3,1.20435778713729));
#350=CARTESIAN_POINT('',(1.99596545381496,0.3,1.6));
#351=CARTESIAN_POINT('Ctrl Pts',(1.99596545381496,0.3,1.59999999999981));
#352=CARTESIAN_POINT('Ctrl Pts',(2.00848666805387,0.3,1.59999999999981));
#353=CARTESIAN_POINT('Ctrl Pts',(2.02322809744375,0.3,1.59709231703792));
#354=CARTESIAN_POINT('Ctrl Pts',(2.04631559868832,0.3,1.58758809286099));
#355=CARTESIAN_POINT('Ctrl Pts',(2.05876405864722,0.3,1.57933600779038));
#356=CARTESIAN_POINT('Ctrl Pts',(2.07636217833994,0.3,1.56184735967149));
#357=CARTESIAN_POINT('Ctrl Pts',(2.08464876408133,0.3,1.54954005173096));
#358=CARTESIAN_POINT('Ctrl Pts',(2.09305367832106,0.3,1.52936749914739));
#359=CARTESIAN_POINT('Ctrl Pts',(2.09576216177282,0.3,1.51876615555044));
#360=CARTESIAN_POINT('Ctrl Pts',(2.09665042935269,0.3,1.50871557427457));
#361=CARTESIAN_POINT('',(-1.99596545381496,0.3,1.6));
#362=CARTESIAN_POINT('',(-2.16996422522816,0.3,1.59999999999981));
#363=CARTESIAN_POINT('Ctrl Pts',(-2.09665042935269,0.3,1.50871557427457));
#364=CARTESIAN_POINT('Ctrl Pts',(-2.09576216177282,0.3,1.51876615555044));
#365=CARTESIAN_POINT('Ctrl Pts',(-2.09305367832106,0.3,1.52936749914739));
#366=CARTESIAN_POINT('Ctrl Pts',(-2.08464876408133,0.3,1.54954005173096));
#367=CARTESIAN_POINT('Ctrl Pts',(-2.07636217833994,0.3,1.56184735967149));
#368=CARTESIAN_POINT('Ctrl Pts',(-2.05876405864722,0.3,1.57933600779038));
#369=CARTESIAN_POINT('Ctrl Pts',(-2.04631559868833,0.3,1.58758809286099));
#370=CARTESIAN_POINT('Ctrl Pts',(-2.02322809744375,0.3,1.59709231703792));
#371=CARTESIAN_POINT('Ctrl Pts',(-2.00848666805387,0.3,1.59999999999981));
#372=CARTESIAN_POINT('Ctrl Pts',(-1.99596545381496,0.3,1.59999999999981));
#373=CARTESIAN_POINT('Origin',(2.22991031209778,-0.3,1.6));
#374=CARTESIAN_POINT('',(-2.09665042935269,-0.3,1.50871557427457));
#375=CARTESIAN_POINT('',(-2.15043504165524,-0.300000000000001,0.9));
#376=CARTESIAN_POINT('',(-2.12354273550396,-0.3,1.20435778713729));
#377=CARTESIAN_POINT('',(-1.99596545381496,-0.3,1.6));
#378=CARTESIAN_POINT('Ctrl Pts',(-1.99596545381496,-0.3,1.59999999999981));
#379=CARTESIAN_POINT('Ctrl Pts',(-2.00848666805387,-0.3,1.59999999999981));
#380=CARTESIAN_POINT('Ctrl Pts',(-2.02322809744375,-0.3,1.59709231703792));
#381=CARTESIAN_POINT('Ctrl Pts',(-2.04631559868833,-0.3,1.58758809286099));
#382=CARTESIAN_POINT('Ctrl Pts',(-2.05876405864722,-0.3,1.57933600779038));
#383=CARTESIAN_POINT('Ctrl Pts',(-2.07636217833994,-0.3,1.56184735967149));
#384=CARTESIAN_POINT('Ctrl Pts',(-2.08464876408133,-0.3,1.54954005173096));
#385=CARTESIAN_POINT('Ctrl Pts',(-2.09305367832106,-0.3,1.52936749914739));
#386=CARTESIAN_POINT('Ctrl Pts',(-2.09576216177282,-0.3,1.51876615555044));
#387=CARTESIAN_POINT('Ctrl Pts',(-2.09665042935269,-0.3,1.50871557427457));
#388=CARTESIAN_POINT('',(1.99596545381496,-0.3,1.6));
#389=CARTESIAN_POINT('',(0.059946086869616,-0.3,1.59999999999981));
#390=CARTESIAN_POINT('',(2.09665042935269,-0.3,1.50871557427457));
#391=CARTESIAN_POINT('Ctrl Pts',(2.09665042935269,-0.3,1.50871557427457));
#392=CARTESIAN_POINT('Ctrl Pts',(2.09576216177282,-0.3,1.51876615555044));
#393=CARTESIAN_POINT('Ctrl Pts',(2.09305367832106,-0.3,1.52936749914739));
#394=CARTESIAN_POINT('Ctrl Pts',(2.08464876408133,-0.3,1.54954005173096));
#395=CARTESIAN_POINT('Ctrl Pts',(2.07636217833994,-0.3,1.56184735967149));
#396=CARTESIAN_POINT('Ctrl Pts',(2.05876405864722,-0.3,1.57933600779038));
#397=CARTESIAN_POINT('Ctrl Pts',(2.04631559868832,-0.3,1.58758809286099));
#398=CARTESIAN_POINT('Ctrl Pts',(2.02322809744375,-0.3,1.59709231703792));
#399=CARTESIAN_POINT('Ctrl Pts',(2.00848666805386,-0.3,1.59999999999981));
#400=CARTESIAN_POINT('Ctrl Pts',(1.99596545381496,-0.3,1.59999999999981));
#401=CARTESIAN_POINT('',(2.15043504165524,-0.3,0.9));
#402=CARTESIAN_POINT('',(2.12354273550396,-0.3,1.20435778713729));
#403=CARTESIAN_POINT('',(2.25,-0.3,0.9));
#404=CARTESIAN_POINT('Origin',(0.,0.,0.9));
#405=CARTESIAN_POINT('Origin',(-1.44957830461457E-16,0.,0.9));
#406=CARTESIAN_POINT('',(2.17126020282663,-2.65902685750767E-16,0.9));
#407=CARTESIAN_POINT('Origin',(-1.44957830461457E-16,0.,0.9));
#408=CARTESIAN_POINT('Origin',(-1.44957830461457E-16,0.,0.9));
#409=CARTESIAN_POINT('Origin',(-2.11001813835854,0.,1.59999999999981));
#410=CARTESIAN_POINT('Origin',(-1.96023752785659E-16,0.,1.59999999999981));
#411=CARTESIAN_POINT('Origin',(-2.11001813835854,0.,1.59999999999981));
#412=CARTESIAN_POINT('Origin',(-1.96023752785659E-16,0.,1.59999999999981));
#413=CARTESIAN_POINT('Origin',(-1.88728621025056E-16,0.,1.49999999999981));
#414=CARTESIAN_POINT('Origin',(-1.38777878078145E-16,-1.29690371009813E-16,
1.50871557427457));
#415=CARTESIAN_POINT('Origin',(-1.88728621025056E-16,0.,1.49999999999981));
#416=CARTESIAN_POINT('Origin',(-1.38777878078145E-16,-1.29690371009813E-16,
1.50871557427457));
#417=CARTESIAN_POINT('Origin',(-1.37662698700812E-16,0.,0.799999999999421));
#418=CARTESIAN_POINT('',(2.25,-2.75545529808154E-16,-9.72832925327793E-13));
#419=CARTESIAN_POINT('Origin',(-7.93016446159658E-17,0.,-9.72555369571637E-13));
#420=CARTESIAN_POINT('',(2.18000906917927,-2.6697411286826E-16,0.799999999999421));
#421=CARTESIAN_POINT('Origin',(2.77555756156289E-16,0.,-3.99999999999915));
#422=CARTESIAN_POINT('Origin',(-1.12821514999983,0.,-4.87797513068896E-13));
#423=CARTESIAN_POINT('',(1.12821515000056,-1.38166507219773E-16,-4.87596074627561E-13));
#424=CARTESIAN_POINT('Origin',(-7.93016446160012E-17,0.,-4.876654635666E-13));
#425=CARTESIAN_POINT('Origin',(-4.64735516933022E-17,0.,-0.450000000000337));
#426=CARTESIAN_POINT('',(1.12821515000056,-1.38166507219773E-16,-0.900000000000187));
#427=CARTESIAN_POINT('Origin',(-1.36454587706033E-17,0.,-0.900000000000187));
#428=CARTESIAN_POINT('',(1.12821515000056,-1.38166507219773E-16,-0.450000000000337));
#429=CARTESIAN_POINT('Origin',(-5.95137274862991E-18,0.,-1.00546877389576));
#430=CARTESIAN_POINT('',(1.215,-1.48794586096403E-16,-1.05031576952569));
#431=CARTESIAN_POINT('Origin',(-2.67972532675502E-18,0.,-1.05031576952569));
#432=CARTESIAN_POINT('',(1.1891075750008,-1.4562367855666E-16,-1.00546877389576));
#433=CARTESIAN_POINT('Origin',(1.07123169540729E-16,0.,-2.55546877389609));
#434=CARTESIAN_POINT('',(1.215,-1.48794586096403E-16,-2.55546877389609));
#435=UNCERTAINTY_MEASURE_WITH_UNIT(LENGTH_MEASURE(0.01),#439,
'DISTANCE_ACCURACY_VALUE',
'Maximum model space distance between geometric entities at asserted c
onnectivities');
#436=UNCERTAINTY_MEASURE_WITH_UNIT(LENGTH_MEASURE(0.01),#439,
'DISTANCE_ACCURACY_VALUE',
'Maximum model space distance between geometric entities at asserted c
onnectivities');
#437=(
GEOMETRIC_REPRESENTATION_CONTEXT(3)
GLOBAL_UNCERTAINTY_ASSIGNED_CONTEXT((#435))
GLOBAL_UNIT_ASSIGNED_CONTEXT((#439,#441,#442))
REPRESENTATION_CONTEXT('','3D')
);
#438=(
GEOMETRIC_REPRESENTATION_CONTEXT(3)
GLOBAL_UNCERTAINTY_ASSIGNED_CONTEXT((#436))
GLOBAL_UNIT_ASSIGNED_CONTEXT((#439,#441,#442))
REPRESENTATION_CONTEXT('','3D')
);
#439=(
LENGTH_UNIT()
NAMED_UNIT(*)
SI_UNIT(.MILLI.,.METRE.)
);
#440=(
LENGTH_UNIT()
NAMED_UNIT(*)
SI_UNIT($,.METRE.)
);
#441=(
NAMED_UNIT(*)
PLANE_ANGLE_UNIT()
SI_UNIT($,.RADIAN.)
);
#442=(
NAMED_UNIT(*)
SI_UNIT($,.STERADIAN.)
SOLID_ANGLE_UNIT()
);
#443=SHAPE_DEFINITION_REPRESENTATION(#444,#445);
#444=PRODUCT_DEFINITION_SHAPE('',$,#447);
#445=SHAPE_REPRESENTATION('',(#238),#437);
#446=PRODUCT_DEFINITION_CONTEXT('part definition',#451,'design');
#447=PRODUCT_DEFINITION('DIN 84 - M2.5 x 4 Steel 4.6 Plain',
'Cheese Head Screw DIN 84 - M2.5 x 4 Steel 4.6 Plain v1',#448,#446);
#448=PRODUCT_DEFINITION_FORMATION('',$,#453);
#449=PRODUCT_RELATED_PRODUCT_CATEGORY(
'Cheese Head Screw DIN 84 - M2.5 x 4 Steel 4.6 Plain v1',
'Cheese Head Screw DIN 84 - M2.5 x 4 Steel 4.6 Plain v1',(#453));
#450=APPLICATION_PROTOCOL_DEFINITION('international standard',
'automotive_design',2009,#451);
#451=APPLICATION_CONTEXT(
'Core Data for Automotive Mechanical Design Process');
#452=PRODUCT_CONTEXT('part definition',#451,'mechanical');
#453=PRODUCT('DIN 84 - M2.5 x 4 Steel 4.6 Plain',
'Cheese Head Screw DIN 84 - M2.5 x 4 Steel 4.6 Plain v1',
'Cheese Head Screw DIN 84 - M2.5 x 4',(#452));
#454=PRESENTATION_STYLE_ASSIGNMENT((#455));
#455=SURFACE_STYLE_USAGE(.BOTH.,#456);
#456=SURFACE_SIDE_STYLE('',(#457));
#457=SURFACE_STYLE_FILL_AREA(#458);
#458=FILL_AREA_STYLE('Steel - Satin',(#459));
#459=FILL_AREA_STYLE_COLOUR('Steel - Satin',#460);
#460=COLOUR_RGB('Steel - Satin',0.627450980392157,0.627450980392157,0.627450980392157);
ENDSEC;
END-ISO-10303-21;
