ISO-10303-21;
HEADER;
/* Generated by software containing ST-Developer
 * from STEP Tools, Inc. (www.steptools.com) 
 */

FILE_DESCRIPTION(
/* description */ (''),
/* implementation_level */ '2;1');

FILE_NAME(
/* name */ 'Enclosure Lid Unit 3,4.step',
/* time_stamp */ '2026-05-23T13:49:52+02:00',
/* author */ (''),
/* organization */ (''),
/* preprocessor_version */ 'ST-DEVELOPER v20.1',
/* originating_system */ 'Autodesk Translation Framework v15.8.0.0',
/* authorisation */ '');

FILE_SCHEMA (('AUTOMOTIVE_DESIGN { 1 0 10303 214 3 1 1 }'));
ENDSEC;

DATA;
#10=MECHANICAL_DESIGN_GEOMETRIC_PRESENTATION_REPRESENTATION('',(#13),#621);
#11=SHAPE_REPRESENTATION_RELATIONSHIP('SRR','None',#628,#12);
#12=ADVANCED_BREP_SHAPE_REPRESENTATION('',(#14),#620);
#13=STYLED_ITEM('',(#638),#14);
#14=MANIFOLD_SOLID_BREP('Body1',#365);
#15=FACE_BOUND('',#59,.T.);
#16=FACE_BOUND('',#60,.T.);
#17=FACE_BOUND('',#61,.T.);
#18=FACE_BOUND('',#62,.T.);
#19=FACE_BOUND('',#63,.T.);
#20=FACE_BOUND('',#65,.T.);
#21=FACE_BOUND('',#66,.T.);
#22=FACE_BOUND('',#67,.T.);
#23=FACE_BOUND('',#68,.T.);
#24=PLANE('',#391);
#25=PLANE('',#396);
#26=PLANE('',#397);
#27=PLANE('',#398);
#28=PLANE('',#399);
#29=PLANE('',#400);
#30=PLANE('',#403);
#31=PLANE('',#406);
#32=PLANE('',#409);
#33=PLANE('',#412);
#34=PLANE('',#413);
#35=FACE_OUTER_BOUND('',#54,.T.);
#36=FACE_OUTER_BOUND('',#55,.T.);
#37=FACE_OUTER_BOUND('',#56,.T.);
#38=FACE_OUTER_BOUND('',#57,.T.);
#39=FACE_OUTER_BOUND('',#58,.T.);
#40=FACE_OUTER_BOUND('',#64,.T.);
#41=FACE_OUTER_BOUND('',#69,.T.);
#42=FACE_OUTER_BOUND('',#70,.T.);
#43=FACE_OUTER_BOUND('',#71,.T.);
#44=FACE_OUTER_BOUND('',#72,.T.);
#45=FACE_OUTER_BOUND('',#73,.T.);
#46=FACE_OUTER_BOUND('',#74,.T.);
#47=FACE_OUTER_BOUND('',#75,.T.);
#48=FACE_OUTER_BOUND('',#76,.T.);
#49=FACE_OUTER_BOUND('',#77,.T.);
#50=FACE_OUTER_BOUND('',#78,.T.);
#51=FACE_OUTER_BOUND('',#79,.T.);
#52=FACE_OUTER_BOUND('',#80,.T.);
#53=FACE_OUTER_BOUND('',#81,.T.);
#54=EDGE_LOOP('',(#242,#243,#244,#245));
#55=EDGE_LOOP('',(#246,#247,#248,#249));
#56=EDGE_LOOP('',(#250,#251,#252,#253));
#57=EDGE_LOOP('',(#254,#255,#256,#257));
#58=EDGE_LOOP('',(#258,#259,#260,#261));
#59=EDGE_LOOP('',(#262,#263,#264,#265,#266,#267,#268,#269));
#60=EDGE_LOOP('',(#270));
#61=EDGE_LOOP('',(#271));
#62=EDGE_LOOP('',(#272));
#63=EDGE_LOOP('',(#273));
#64=EDGE_LOOP('',(#274,#275,#276,#277));
#65=EDGE_LOOP('',(#278));
#66=EDGE_LOOP('',(#279));
#67=EDGE_LOOP('',(#280));
#68=EDGE_LOOP('',(#281));
#69=EDGE_LOOP('',(#282,#283,#284,#285));
#70=EDGE_LOOP('',(#286,#287,#288,#289));
#71=EDGE_LOOP('',(#290,#291,#292,#293));
#72=EDGE_LOOP('',(#294,#295,#296,#297));
#73=EDGE_LOOP('',(#298,#299,#300,#301));
#74=EDGE_LOOP('',(#302,#303,#304,#305));
#75=EDGE_LOOP('',(#306,#307,#308,#309));
#76=EDGE_LOOP('',(#310,#311,#312,#313));
#77=EDGE_LOOP('',(#314,#315,#316,#317));
#78=EDGE_LOOP('',(#318,#319,#320,#321));
#79=EDGE_LOOP('',(#322,#323,#324,#325));
#80=EDGE_LOOP('',(#326,#327,#328,#329));
#81=EDGE_LOOP('',(#330,#331,#332,#333,#334,#335,#336,#337));
#82=LINE('',#523,#114);
#83=LINE('',#529,#115);
#84=LINE('',#535,#116);
#85=LINE('',#541,#117);
#86=LINE('',#546,#118);
#87=LINE('',#548,#119);
#88=LINE('',#550,#120);
#89=LINE('',#551,#121);
#90=LINE('',#556,#122);
#91=LINE('',#560,#123);
#92=LINE('',#564,#124);
#93=LINE('',#567,#125);
#94=LINE('',#571,#126);
#95=LINE('',#573,#127);
#96=LINE('',#575,#128);
#97=LINE('',#576,#129);
#98=LINE('',#578,#130);
#99=LINE('',#579,#131);
#100=LINE('',#581,#132);
#101=LINE('',#583,#133);
#102=LINE('',#587,#134);
#103=LINE('',#590,#135);
#104=LINE('',#593,#136);
#105=LINE('',#594,#137);
#106=LINE('',#598,#138);
#107=LINE('',#601,#139);
#108=LINE('',#602,#140);
#109=LINE('',#606,#141);
#110=LINE('',#609,#142);
#111=LINE('',#610,#143);
#112=LINE('',#614,#144);
#113=LINE('',#616,#145);
#114=VECTOR('',#420,1.25);
#115=VECTOR('',#427,1.25);
#116=VECTOR('',#434,1.25);
#117=VECTOR('',#441,1.25);
#118=VECTOR('',#446,10.);
#119=VECTOR('',#447,10.);
#120=VECTOR('',#448,10.);
#121=VECTOR('',#449,10.);
#122=VECTOR('',#452,10.);
#123=VECTOR('',#455,10.);
#124=VECTOR('',#458,10.);
#125=VECTOR('',#461,10.);
#126=VECTOR('',#464,10.);
#127=VECTOR('',#465,10.);
#128=VECTOR('',#466,10.);
#129=VECTOR('',#467,10.);
#130=VECTOR('',#470,10.);
#131=VECTOR('',#471,10.);
#132=VECTOR('',#474,10.);
#133=VECTOR('',#477,10.);
#134=VECTOR('',#482,10.);
#135=VECTOR('',#485,10.);
#136=VECTOR('',#488,10.);
#137=VECTOR('',#489,10.);
#138=VECTOR('',#494,10.);
#139=VECTOR('',#497,10.);
#140=VECTOR('',#498,10.);
#141=VECTOR('',#503,10.);
#142=VECTOR('',#506,10.);
#143=VECTOR('',#507,10.);
#144=VECTOR('',#512,10.);
#145=VECTOR('',#515,10.);
#146=CIRCLE('',#380,1.25);
#147=CIRCLE('',#381,1.25);
#148=CIRCLE('',#383,1.25);
#149=CIRCLE('',#384,1.25);
#150=CIRCLE('',#386,1.25);
#151=CIRCLE('',#387,1.25);
#152=CIRCLE('',#389,1.25);
#153=CIRCLE('',#390,1.25);
#154=CIRCLE('',#392,3.);
#155=CIRCLE('',#393,3.);
#156=CIRCLE('',#394,2.99999999999999);
#157=CIRCLE('',#395,3.);
#158=CIRCLE('',#402,3.);
#159=CIRCLE('',#405,3.);
#160=CIRCLE('',#408,2.99999999999999);
#161=CIRCLE('',#411,3.);
#162=VERTEX_POINT('',#520);
#163=VERTEX_POINT('',#522);
#164=VERTEX_POINT('',#526);
#165=VERTEX_POINT('',#528);
#166=VERTEX_POINT('',#532);
#167=VERTEX_POINT('',#534);
#168=VERTEX_POINT('',#538);
#169=VERTEX_POINT('',#540);
#170=VERTEX_POINT('',#544);
#171=VERTEX_POINT('',#545);
#172=VERTEX_POINT('',#547);
#173=VERTEX_POINT('',#549);
#174=VERTEX_POINT('',#552);
#175=VERTEX_POINT('',#553);
#176=VERTEX_POINT('',#555);
#177=VERTEX_POINT('',#557);
#178=VERTEX_POINT('',#559);
#179=VERTEX_POINT('',#561);
#180=VERTEX_POINT('',#563);
#181=VERTEX_POINT('',#565);
#182=VERTEX_POINT('',#569);
#183=VERTEX_POINT('',#570);
#184=VERTEX_POINT('',#572);
#185=VERTEX_POINT('',#574);
#186=VERTEX_POINT('',#586);
#187=VERTEX_POINT('',#588);
#188=VERTEX_POINT('',#592);
#189=VERTEX_POINT('',#596);
#190=VERTEX_POINT('',#600);
#191=VERTEX_POINT('',#604);
#192=VERTEX_POINT('',#608);
#193=VERTEX_POINT('',#612);
#194=EDGE_CURVE('',#162,#162,#146,.T.);
#195=EDGE_CURVE('',#162,#163,#82,.T.);
#196=EDGE_CURVE('',#163,#163,#147,.T.);
#197=EDGE_CURVE('',#164,#164,#148,.T.);
#198=EDGE_CURVE('',#164,#165,#83,.T.);
#199=EDGE_CURVE('',#165,#165,#149,.T.);
#200=EDGE_CURVE('',#166,#166,#150,.T.);
#201=EDGE_CURVE('',#166,#167,#84,.T.);
#202=EDGE_CURVE('',#167,#167,#151,.T.);
#203=EDGE_CURVE('',#168,#168,#152,.T.);
#204=EDGE_CURVE('',#168,#169,#85,.T.);
#205=EDGE_CURVE('',#169,#169,#153,.T.);
#206=EDGE_CURVE('',#170,#171,#86,.T.);
#207=EDGE_CURVE('',#172,#170,#87,.T.);
#208=EDGE_CURVE('',#173,#172,#88,.T.);
#209=EDGE_CURVE('',#171,#173,#89,.T.);
#210=EDGE_CURVE('',#174,#175,#154,.T.);
#211=EDGE_CURVE('',#174,#176,#90,.T.);
#212=EDGE_CURVE('',#177,#176,#155,.T.);
#213=EDGE_CURVE('',#177,#178,#91,.T.);
#214=EDGE_CURVE('',#179,#178,#156,.T.);
#215=EDGE_CURVE('',#179,#180,#92,.T.);
#216=EDGE_CURVE('',#181,#180,#157,.T.);
#217=EDGE_CURVE('',#181,#175,#93,.T.);
#218=EDGE_CURVE('',#182,#183,#94,.T.);
#219=EDGE_CURVE('',#183,#184,#95,.T.);
#220=EDGE_CURVE('',#184,#185,#96,.T.);
#221=EDGE_CURVE('',#185,#182,#97,.T.);
#222=EDGE_CURVE('',#170,#183,#98,.T.);
#223=EDGE_CURVE('',#171,#184,#99,.T.);
#224=EDGE_CURVE('',#172,#182,#100,.T.);
#225=EDGE_CURVE('',#173,#185,#101,.T.);
#226=EDGE_CURVE('',#175,#186,#102,.T.);
#227=EDGE_CURVE('',#187,#186,#158,.T.);
#228=EDGE_CURVE('',#174,#187,#103,.T.);
#229=EDGE_CURVE('',#188,#187,#104,.T.);
#230=EDGE_CURVE('',#176,#188,#105,.T.);
#231=EDGE_CURVE('',#189,#188,#159,.T.);
#232=EDGE_CURVE('',#177,#189,#106,.T.);
#233=EDGE_CURVE('',#190,#189,#107,.T.);
#234=EDGE_CURVE('',#178,#190,#108,.T.);
#235=EDGE_CURVE('',#191,#190,#160,.T.);
#236=EDGE_CURVE('',#179,#191,#109,.T.);
#237=EDGE_CURVE('',#192,#191,#110,.T.);
#238=EDGE_CURVE('',#180,#192,#111,.T.);
#239=EDGE_CURVE('',#193,#192,#161,.T.);
#240=EDGE_CURVE('',#181,#193,#112,.T.);
#241=EDGE_CURVE('',#186,#193,#113,.T.);
#242=ORIENTED_EDGE('',*,*,#194,.F.);
#243=ORIENTED_EDGE('',*,*,#195,.T.);
#244=ORIENTED_EDGE('',*,*,#196,.F.);
#245=ORIENTED_EDGE('',*,*,#195,.F.);
#246=ORIENTED_EDGE('',*,*,#197,.F.);
#247=ORIENTED_EDGE('',*,*,#198,.T.);
#248=ORIENTED_EDGE('',*,*,#199,.F.);
#249=ORIENTED_EDGE('',*,*,#198,.F.);
#250=ORIENTED_EDGE('',*,*,#200,.F.);
#251=ORIENTED_EDGE('',*,*,#201,.T.);
#252=ORIENTED_EDGE('',*,*,#202,.F.);
#253=ORIENTED_EDGE('',*,*,#201,.F.);
#254=ORIENTED_EDGE('',*,*,#203,.F.);
#255=ORIENTED_EDGE('',*,*,#204,.T.);
#256=ORIENTED_EDGE('',*,*,#205,.F.);
#257=ORIENTED_EDGE('',*,*,#204,.F.);
#258=ORIENTED_EDGE('',*,*,#206,.F.);
#259=ORIENTED_EDGE('',*,*,#207,.F.);
#260=ORIENTED_EDGE('',*,*,#208,.F.);
#261=ORIENTED_EDGE('',*,*,#209,.F.);
#262=ORIENTED_EDGE('',*,*,#210,.F.);
#263=ORIENTED_EDGE('',*,*,#211,.T.);
#264=ORIENTED_EDGE('',*,*,#212,.F.);
#265=ORIENTED_EDGE('',*,*,#213,.T.);
#266=ORIENTED_EDGE('',*,*,#214,.F.);
#267=ORIENTED_EDGE('',*,*,#215,.T.);
#268=ORIENTED_EDGE('',*,*,#216,.F.);
#269=ORIENTED_EDGE('',*,*,#217,.T.);
#270=ORIENTED_EDGE('',*,*,#205,.T.);
#271=ORIENTED_EDGE('',*,*,#202,.T.);
#272=ORIENTED_EDGE('',*,*,#199,.T.);
#273=ORIENTED_EDGE('',*,*,#196,.T.);
#274=ORIENTED_EDGE('',*,*,#218,.T.);
#275=ORIENTED_EDGE('',*,*,#219,.T.);
#276=ORIENTED_EDGE('',*,*,#220,.T.);
#277=ORIENTED_EDGE('',*,*,#221,.T.);
#278=ORIENTED_EDGE('',*,*,#194,.T.);
#279=ORIENTED_EDGE('',*,*,#197,.T.);
#280=ORIENTED_EDGE('',*,*,#200,.T.);
#281=ORIENTED_EDGE('',*,*,#203,.T.);
#282=ORIENTED_EDGE('',*,*,#219,.F.);
#283=ORIENTED_EDGE('',*,*,#222,.F.);
#284=ORIENTED_EDGE('',*,*,#206,.T.);
#285=ORIENTED_EDGE('',*,*,#223,.T.);
#286=ORIENTED_EDGE('',*,*,#207,.T.);
#287=ORIENTED_EDGE('',*,*,#222,.T.);
#288=ORIENTED_EDGE('',*,*,#218,.F.);
#289=ORIENTED_EDGE('',*,*,#224,.F.);
#290=ORIENTED_EDGE('',*,*,#208,.T.);
#291=ORIENTED_EDGE('',*,*,#224,.T.);
#292=ORIENTED_EDGE('',*,*,#221,.F.);
#293=ORIENTED_EDGE('',*,*,#225,.F.);
#294=ORIENTED_EDGE('',*,*,#220,.F.);
#295=ORIENTED_EDGE('',*,*,#223,.F.);
#296=ORIENTED_EDGE('',*,*,#209,.T.);
#297=ORIENTED_EDGE('',*,*,#225,.T.);
#298=ORIENTED_EDGE('',*,*,#210,.T.);
#299=ORIENTED_EDGE('',*,*,#226,.T.);
#300=ORIENTED_EDGE('',*,*,#227,.F.);
#301=ORIENTED_EDGE('',*,*,#228,.F.);
#302=ORIENTED_EDGE('',*,*,#211,.F.);
#303=ORIENTED_EDGE('',*,*,#228,.T.);
#304=ORIENTED_EDGE('',*,*,#229,.F.);
#305=ORIENTED_EDGE('',*,*,#230,.F.);
#306=ORIENTED_EDGE('',*,*,#212,.T.);
#307=ORIENTED_EDGE('',*,*,#230,.T.);
#308=ORIENTED_EDGE('',*,*,#231,.F.);
#309=ORIENTED_EDGE('',*,*,#232,.F.);
#310=ORIENTED_EDGE('',*,*,#213,.F.);
#311=ORIENTED_EDGE('',*,*,#232,.T.);
#312=ORIENTED_EDGE('',*,*,#233,.F.);
#313=ORIENTED_EDGE('',*,*,#234,.F.);
#314=ORIENTED_EDGE('',*,*,#214,.T.);
#315=ORIENTED_EDGE('',*,*,#234,.T.);
#316=ORIENTED_EDGE('',*,*,#235,.F.);
#317=ORIENTED_EDGE('',*,*,#236,.F.);
#318=ORIENTED_EDGE('',*,*,#215,.F.);
#319=ORIENTED_EDGE('',*,*,#236,.T.);
#320=ORIENTED_EDGE('',*,*,#237,.F.);
#321=ORIENTED_EDGE('',*,*,#238,.F.);
#322=ORIENTED_EDGE('',*,*,#216,.T.);
#323=ORIENTED_EDGE('',*,*,#238,.T.);
#324=ORIENTED_EDGE('',*,*,#239,.F.);
#325=ORIENTED_EDGE('',*,*,#240,.F.);
#326=ORIENTED_EDGE('',*,*,#217,.F.);
#327=ORIENTED_EDGE('',*,*,#240,.T.);
#328=ORIENTED_EDGE('',*,*,#241,.F.);
#329=ORIENTED_EDGE('',*,*,#226,.F.);
#330=ORIENTED_EDGE('',*,*,#241,.T.);
#331=ORIENTED_EDGE('',*,*,#239,.T.);
#332=ORIENTED_EDGE('',*,*,#237,.T.);
#333=ORIENTED_EDGE('',*,*,#235,.T.);
#334=ORIENTED_EDGE('',*,*,#233,.T.);
#335=ORIENTED_EDGE('',*,*,#231,.T.);
#336=ORIENTED_EDGE('',*,*,#229,.T.);
#337=ORIENTED_EDGE('',*,*,#227,.T.);
#338=CYLINDRICAL_SURFACE('',#379,1.25);
#339=CYLINDRICAL_SURFACE('',#382,1.25);
#340=CYLINDRICAL_SURFACE('',#385,1.25);
#341=CYLINDRICAL_SURFACE('',#388,1.25);
#342=CYLINDRICAL_SURFACE('',#401,3.);
#343=CYLINDRICAL_SURFACE('',#404,3.);
#344=CYLINDRICAL_SURFACE('',#407,2.99999999999999);
#345=CYLINDRICAL_SURFACE('',#410,3.);
#346=ADVANCED_FACE('',(#35),#338,.F.);
#347=ADVANCED_FACE('',(#36),#339,.F.);
#348=ADVANCED_FACE('',(#37),#340,.F.);
#349=ADVANCED_FACE('',(#38),#341,.F.);
#350=ADVANCED_FACE('',(#39,#15,#16,#17,#18,#19),#24,.F.);
#351=ADVANCED_FACE('',(#40,#20,#21,#22,#23),#25,.T.);
#352=ADVANCED_FACE('',(#41),#26,.T.);
#353=ADVANCED_FACE('',(#42),#27,.T.);
#354=ADVANCED_FACE('',(#43),#28,.T.);
#355=ADVANCED_FACE('',(#44),#29,.T.);
#356=ADVANCED_FACE('',(#45),#342,.F.);
#357=ADVANCED_FACE('',(#46),#30,.T.);
#358=ADVANCED_FACE('',(#47),#343,.F.);
#359=ADVANCED_FACE('',(#48),#31,.T.);
#360=ADVANCED_FACE('',(#49),#344,.F.);
#361=ADVANCED_FACE('',(#50),#32,.T.);
#362=ADVANCED_FACE('',(#51),#345,.F.);
#363=ADVANCED_FACE('',(#52),#33,.T.);
#364=ADVANCED_FACE('',(#53),#34,.F.);
#365=CLOSED_SHELL('',(#346,#347,#348,#349,#350,#351,#352,#353,#354,#355,
#356,#357,#358,#359,#360,#361,#362,#363,#364));
#366=DERIVED_UNIT_ELEMENT(#368,1.);
#367=DERIVED_UNIT_ELEMENT(#623,-3.);
#368=(
MASS_UNIT()
NAMED_UNIT(*)
SI_UNIT(.KILO.,.GRAM.)
);
#369=DERIVED_UNIT((#366,#367));
#370=MEASURE_REPRESENTATION_ITEM('density measure',
POSITIVE_RATIO_MEASURE(7850.),#369);
#371=PROPERTY_DEFINITION_REPRESENTATION(#376,#373);
#372=PROPERTY_DEFINITION_REPRESENTATION(#377,#374);
#373=REPRESENTATION('material name',(#375),#620);
#374=REPRESENTATION('density',(#370),#620);
#375=DESCRIPTIVE_REPRESENTATION_ITEM('Steel','Steel');
#376=PROPERTY_DEFINITION('material property','material name',#630);
#377=PROPERTY_DEFINITION('material property','density of part',#630);
#378=AXIS2_PLACEMENT_3D('',#518,#414,#415);
#379=AXIS2_PLACEMENT_3D('',#519,#416,#417);
#380=AXIS2_PLACEMENT_3D('',#521,#418,#419);
#381=AXIS2_PLACEMENT_3D('',#524,#421,#422);
#382=AXIS2_PLACEMENT_3D('',#525,#423,#424);
#383=AXIS2_PLACEMENT_3D('',#527,#425,#426);
#384=AXIS2_PLACEMENT_3D('',#530,#428,#429);
#385=AXIS2_PLACEMENT_3D('',#531,#430,#431);
#386=AXIS2_PLACEMENT_3D('',#533,#432,#433);
#387=AXIS2_PLACEMENT_3D('',#536,#435,#436);
#388=AXIS2_PLACEMENT_3D('',#537,#437,#438);
#389=AXIS2_PLACEMENT_3D('',#539,#439,#440);
#390=AXIS2_PLACEMENT_3D('',#542,#442,#443);
#391=AXIS2_PLACEMENT_3D('',#543,#444,#445);
#392=AXIS2_PLACEMENT_3D('',#554,#450,#451);
#393=AXIS2_PLACEMENT_3D('',#558,#453,#454);
#394=AXIS2_PLACEMENT_3D('',#562,#456,#457);
#395=AXIS2_PLACEMENT_3D('',#566,#459,#460);
#396=AXIS2_PLACEMENT_3D('',#568,#462,#463);
#397=AXIS2_PLACEMENT_3D('',#577,#468,#469);
#398=AXIS2_PLACEMENT_3D('',#580,#472,#473);
#399=AXIS2_PLACEMENT_3D('',#582,#475,#476);
#400=AXIS2_PLACEMENT_3D('',#584,#478,#479);
#401=AXIS2_PLACEMENT_3D('',#585,#480,#481);
#402=AXIS2_PLACEMENT_3D('',#589,#483,#484);
#403=AXIS2_PLACEMENT_3D('',#591,#486,#487);
#404=AXIS2_PLACEMENT_3D('',#595,#490,#491);
#405=AXIS2_PLACEMENT_3D('',#597,#492,#493);
#406=AXIS2_PLACEMENT_3D('',#599,#495,#496);
#407=AXIS2_PLACEMENT_3D('',#603,#499,#500);
#408=AXIS2_PLACEMENT_3D('',#605,#501,#502);
#409=AXIS2_PLACEMENT_3D('',#607,#504,#505);
#410=AXIS2_PLACEMENT_3D('',#611,#508,#509);
#411=AXIS2_PLACEMENT_3D('',#613,#510,#511);
#412=AXIS2_PLACEMENT_3D('',#615,#513,#514);
#413=AXIS2_PLACEMENT_3D('',#617,#516,#517);
#414=DIRECTION('axis',(0.,0.,1.));
#415=DIRECTION('refdir',(1.,0.,0.));
#416=DIRECTION('center_axis',(0.,-1.,0.));
#417=DIRECTION('ref_axis',(0.,0.,1.));
#418=DIRECTION('center_axis',(0.,-1.,0.));
#419=DIRECTION('ref_axis',(0.,0.,1.));
#420=DIRECTION('',(0.,-1.,0.));
#421=DIRECTION('center_axis',(0.,1.,0.));
#422=DIRECTION('ref_axis',(0.,0.,1.));
#423=DIRECTION('center_axis',(0.,-1.,0.));
#424=DIRECTION('ref_axis',(0.,0.,1.));
#425=DIRECTION('center_axis',(0.,-1.,0.));
#426=DIRECTION('ref_axis',(0.,0.,1.));
#427=DIRECTION('',(0.,-1.,0.));
#428=DIRECTION('center_axis',(0.,1.,0.));
#429=DIRECTION('ref_axis',(0.,0.,1.));
#430=DIRECTION('center_axis',(0.,-1.,0.));
#431=DIRECTION('ref_axis',(0.,0.,1.));
#432=DIRECTION('center_axis',(0.,-1.,0.));
#433=DIRECTION('ref_axis',(0.,0.,1.));
#434=DIRECTION('',(0.,-1.,0.));
#435=DIRECTION('center_axis',(0.,1.,0.));
#436=DIRECTION('ref_axis',(0.,0.,1.));
#437=DIRECTION('center_axis',(0.,-1.,0.));
#438=DIRECTION('ref_axis',(0.,0.,1.));
#439=DIRECTION('center_axis',(0.,-1.,0.));
#440=DIRECTION('ref_axis',(0.,0.,1.));
#441=DIRECTION('',(0.,-1.,0.));
#442=DIRECTION('center_axis',(0.,1.,0.));
#443=DIRECTION('ref_axis',(0.,0.,1.));
#444=DIRECTION('center_axis',(0.,1.,0.));
#445=DIRECTION('ref_axis',(-1.,0.,0.));
#446=DIRECTION('',(-1.,0.,1.1686558153949E-16));
#447=DIRECTION('',(-3.1720657846433E-16,0.,-1.));
#448=DIRECTION('',(1.,0.,0.));
#449=DIRECTION('',(-7.93016446160826E-17,0.,1.));
#450=DIRECTION('center_axis',(0.,1.,0.));
#451=DIRECTION('ref_axis',(0.972396809720988,0.,0.233333333333333));
#452=DIRECTION('',(1.,0.,-1.99927654946256E-17));
#453=DIRECTION('center_axis',(0.,1.,0.));
#454=DIRECTION('ref_axis',(0.233333333333331,0.,-0.972396809720989));
#455=DIRECTION('',(9.54306314869233E-16,0.,-1.));
#456=DIRECTION('center_axis',(0.,1.,0.));
#457=DIRECTION('ref_axis',(-0.972396809720988,0.,-0.233333333333333));
#458=DIRECTION('',(-1.,0.,0.));
#459=DIRECTION('center_axis',(0.,1.,0.));
#460=DIRECTION('ref_axis',(-0.233333333333333,0.,0.972396809720988));
#461=DIRECTION('',(0.,0.,1.));
#462=DIRECTION('center_axis',(0.,1.,0.));
#463=DIRECTION('ref_axis',(0.,0.,1.));
#464=DIRECTION('',(-3.1720657846433E-16,0.,-1.));
#465=DIRECTION('',(-1.,0.,1.1686558153949E-16));
#466=DIRECTION('',(-7.93016446160826E-17,0.,1.));
#467=DIRECTION('',(1.,0.,0.));
#468=DIRECTION('center_axis',(-1.1686558153949E-16,0.,-1.));
#469=DIRECTION('ref_axis',(-1.,0.,1.1686558153949E-16));
#470=DIRECTION('',(0.,1.,0.));
#471=DIRECTION('',(0.,1.,0.));
#472=DIRECTION('center_axis',(1.,0.,-3.1720657846433E-16));
#473=DIRECTION('ref_axis',(-3.1720657846433E-16,0.,-1.));
#474=DIRECTION('',(0.,1.,0.));
#475=DIRECTION('center_axis',(0.,0.,1.));
#476=DIRECTION('ref_axis',(1.,0.,0.));
#477=DIRECTION('',(0.,1.,0.));
#478=DIRECTION('center_axis',(-1.,0.,-7.93016446160826E-17));
#479=DIRECTION('ref_axis',(-7.93016446160826E-17,0.,1.));
#480=DIRECTION('center_axis',(0.,-1.,0.));
#481=DIRECTION('ref_axis',(0.972396809720988,0.,0.233333333333333));
#482=DIRECTION('',(0.,-1.,0.));
#483=DIRECTION('center_axis',(0.,1.,0.));
#484=DIRECTION('ref_axis',(0.972396809720988,0.,0.233333333333333));
#485=DIRECTION('',(0.,-1.,0.));
#486=DIRECTION('center_axis',(1.99927654946256E-17,0.,1.));
#487=DIRECTION('ref_axis',(-1.,0.,1.99927654946256E-17));
#488=DIRECTION('',(-1.,0.,1.99927654946256E-17));
#489=DIRECTION('',(0.,-1.,0.));
#490=DIRECTION('center_axis',(0.,-1.,0.));
#491=DIRECTION('ref_axis',(0.233333333333331,0.,-0.972396809720989));
#492=DIRECTION('center_axis',(0.,1.,0.));
#493=DIRECTION('ref_axis',(0.233333333333331,0.,-0.972396809720989));
#494=DIRECTION('',(0.,-1.,0.));
#495=DIRECTION('center_axis',(1.,0.,9.54306314869233E-16));
#496=DIRECTION('ref_axis',(-9.54306314869233E-16,0.,1.));
#497=DIRECTION('',(-9.54306314869233E-16,0.,1.));
#498=DIRECTION('',(0.,-1.,0.));
#499=DIRECTION('center_axis',(0.,-1.,0.));
#500=DIRECTION('ref_axis',(-0.972396809720988,0.,-0.233333333333333));
#501=DIRECTION('center_axis',(0.,1.,0.));
#502=DIRECTION('ref_axis',(-0.972396809720988,0.,-0.233333333333333));
#503=DIRECTION('',(0.,-1.,0.));
#504=DIRECTION('center_axis',(0.,0.,-1.));
#505=DIRECTION('ref_axis',(1.,0.,0.));
#506=DIRECTION('',(1.,0.,0.));
#507=DIRECTION('',(0.,-1.,0.));
#508=DIRECTION('center_axis',(0.,-1.,0.));
#509=DIRECTION('ref_axis',(-0.233333333333333,0.,0.972396809720988));
#510=DIRECTION('center_axis',(0.,1.,0.));
#511=DIRECTION('ref_axis',(-0.233333333333333,0.,0.972396809720988));
#512=DIRECTION('',(0.,-1.,0.));
#513=DIRECTION('center_axis',(-1.,0.,0.));
#514=DIRECTION('ref_axis',(0.,0.,-1.));
#515=DIRECTION('',(0.,0.,-1.));
#516=DIRECTION('center_axis',(0.,1.,0.));
#517=DIRECTION('ref_axis',(-1.,0.,0.));
#518=CARTESIAN_POINT('',(0.,0.,0.));
#519=CARTESIAN_POINT('Origin',(-0.799999999999999,17.75,-22.8));
#520=CARTESIAN_POINT('',(-0.799999999999999,18.5,-24.05));
#521=CARTESIAN_POINT('Origin',(-0.799999999999999,18.5,-22.8));
#522=CARTESIAN_POINT('',(-0.799999999999999,17.,-24.05));
#523=CARTESIAN_POINT('',(-0.799999999999999,17.75,-24.05));
#524=CARTESIAN_POINT('Origin',(-0.799999999999999,17.,-22.8));
#525=CARTESIAN_POINT('Origin',(32.8,17.75,0.800000000000001));
#526=CARTESIAN_POINT('',(32.8,18.5,-0.449999999999999));
#527=CARTESIAN_POINT('Origin',(32.8,18.5,0.800000000000001));
#528=CARTESIAN_POINT('',(32.8,17.,-0.449999999999999));
#529=CARTESIAN_POINT('',(32.8,17.75,-0.449999999999999));
#530=CARTESIAN_POINT('Origin',(32.8,17.,0.800000000000001));
#531=CARTESIAN_POINT('Origin',(-0.800000000000001,17.75,0.8));
#532=CARTESIAN_POINT('',(-0.800000000000001,18.5,-0.45));
#533=CARTESIAN_POINT('Origin',(-0.800000000000001,18.5,0.8));
#534=CARTESIAN_POINT('',(-0.800000000000001,17.,-0.45));
#535=CARTESIAN_POINT('',(-0.800000000000001,17.75,-0.45));
#536=CARTESIAN_POINT('Origin',(-0.800000000000001,17.,0.8));
#537=CARTESIAN_POINT('Origin',(32.8,17.75,-22.8));
#538=CARTESIAN_POINT('',(32.8,18.5,-24.05));
#539=CARTESIAN_POINT('Origin',(32.8,18.5,-22.8));
#540=CARTESIAN_POINT('',(32.8,17.,-24.05));
#541=CARTESIAN_POINT('',(32.8,17.75,-24.05));
#542=CARTESIAN_POINT('Origin',(32.8,17.,-22.8));
#543=CARTESIAN_POINT('Origin',(16.,17.,-11.));
#544=CARTESIAN_POINT('',(35.,17.,-25.));
#545=CARTESIAN_POINT('',(-3.,17.,-25.));
#546=CARTESIAN_POINT('',(35.,17.,-25.));
#547=CARTESIAN_POINT('',(35.,17.,3.));
#548=CARTESIAN_POINT('',(35.,17.,3.));
#549=CARTESIAN_POINT('',(-3.,17.,3.));
#550=CARTESIAN_POINT('',(-3.,17.,3.));
#551=CARTESIAN_POINT('',(-3.,17.,-25.));
#552=CARTESIAN_POINT('',(2.11719042916296,17.,1.5));
#553=CARTESIAN_POINT('',(-1.5,17.,-2.11719042916297));
#554=CARTESIAN_POINT('Origin',(-0.800000000000001,17.,0.8));
#555=CARTESIAN_POINT('',(29.882809570837,17.,1.5));
#556=CARTESIAN_POINT('',(2.11719042916296,17.,1.5));
#557=CARTESIAN_POINT('',(33.5,17.,-2.11719042916297));
#558=CARTESIAN_POINT('Origin',(32.8,17.,0.800000000000001));
#559=CARTESIAN_POINT('',(33.5,17.,-19.882809570837));
#560=CARTESIAN_POINT('',(33.5,17.,-2.11719042916297));
#561=CARTESIAN_POINT('',(29.882809570837,17.,-23.5));
#562=CARTESIAN_POINT('Origin',(32.8,17.,-22.8));
#563=CARTESIAN_POINT('',(2.11719042916297,17.,-23.5));
#564=CARTESIAN_POINT('',(29.882809570837,17.,-23.5));
#565=CARTESIAN_POINT('',(-1.5,17.,-19.882809570837));
#566=CARTESIAN_POINT('Origin',(-0.799999999999999,17.,-22.8));
#567=CARTESIAN_POINT('',(-1.5,17.,-19.882809570837));
#568=CARTESIAN_POINT('Origin',(16.,18.5,-11.));
#569=CARTESIAN_POINT('',(35.,18.5,3.));
#570=CARTESIAN_POINT('',(35.,18.5,-25.));
#571=CARTESIAN_POINT('',(35.,18.5,3.));
#572=CARTESIAN_POINT('',(-3.,18.5,-25.));
#573=CARTESIAN_POINT('',(35.,18.5,-25.));
#574=CARTESIAN_POINT('',(-3.,18.5,3.));
#575=CARTESIAN_POINT('',(-3.,18.5,-25.));
#576=CARTESIAN_POINT('',(-3.,18.5,3.));
#577=CARTESIAN_POINT('Origin',(35.,17.,-25.));
#578=CARTESIAN_POINT('',(35.,17.,-25.));
#579=CARTESIAN_POINT('',(-3.,17.,-25.));
#580=CARTESIAN_POINT('Origin',(35.,17.,3.));
#581=CARTESIAN_POINT('',(35.,17.,3.));
#582=CARTESIAN_POINT('Origin',(-3.,17.,3.));
#583=CARTESIAN_POINT('',(-3.,17.,3.));
#584=CARTESIAN_POINT('Origin',(-3.,17.,-25.));
#585=CARTESIAN_POINT('Origin',(-0.800000000000001,17.,0.8));
#586=CARTESIAN_POINT('',(-1.5,15.5,-2.11719042916297));
#587=CARTESIAN_POINT('',(-1.5,17.,-2.11719042916297));
#588=CARTESIAN_POINT('',(2.11719042916296,15.5,1.5));
#589=CARTESIAN_POINT('Origin',(-0.800000000000001,15.5,0.8));
#590=CARTESIAN_POINT('',(2.11719042916296,17.,1.5));
#591=CARTESIAN_POINT('Origin',(29.882809570837,17.,1.5));
#592=CARTESIAN_POINT('',(29.882809570837,15.5,1.5));
#593=CARTESIAN_POINT('',(2.11719042916296,15.5,1.5));
#594=CARTESIAN_POINT('',(29.882809570837,17.,1.5));
#595=CARTESIAN_POINT('Origin',(32.8,17.,0.800000000000001));
#596=CARTESIAN_POINT('',(33.5,15.5,-2.11719042916297));
#597=CARTESIAN_POINT('Origin',(32.8,15.5,0.800000000000001));
#598=CARTESIAN_POINT('',(33.5,17.,-2.11719042916297));
#599=CARTESIAN_POINT('Origin',(33.5,17.,-19.882809570837));
#600=CARTESIAN_POINT('',(33.5,15.5,-19.882809570837));
#601=CARTESIAN_POINT('',(33.5,15.5,-2.11719042916297));
#602=CARTESIAN_POINT('',(33.5,17.,-19.882809570837));
#603=CARTESIAN_POINT('Origin',(32.8,17.,-22.8));
#604=CARTESIAN_POINT('',(29.882809570837,15.5,-23.5));
#605=CARTESIAN_POINT('Origin',(32.8,15.5,-22.8));
#606=CARTESIAN_POINT('',(29.882809570837,17.,-23.5));
#607=CARTESIAN_POINT('Origin',(2.11719042916297,17.,-23.5));
#608=CARTESIAN_POINT('',(2.11719042916297,15.5,-23.5));
#609=CARTESIAN_POINT('',(29.882809570837,15.5,-23.5));
#610=CARTESIAN_POINT('',(2.11719042916297,17.,-23.5));
#611=CARTESIAN_POINT('Origin',(-0.799999999999999,17.,-22.8));
#612=CARTESIAN_POINT('',(-1.5,15.5,-19.882809570837));
#613=CARTESIAN_POINT('Origin',(-0.799999999999999,15.5,-22.8));
#614=CARTESIAN_POINT('',(-1.5,17.,-19.882809570837));
#615=CARTESIAN_POINT('Origin',(-1.5,17.,-2.11719042916297));
#616=CARTESIAN_POINT('',(-1.5,15.5,-19.882809570837));
#617=CARTESIAN_POINT('Origin',(16.,15.5,-11.));
#618=UNCERTAINTY_MEASURE_WITH_UNIT(LENGTH_MEASURE(0.01),#622,
'DISTANCE_ACCURACY_VALUE',
'Maximum model space distance between geometric entities at asserted c
onnectivities');
#619=UNCERTAINTY_MEASURE_WITH_UNIT(LENGTH_MEASURE(0.01),#622,
'DISTANCE_ACCURACY_VALUE',
'Maximum model space distance between geometric entities at asserted c
onnectivities');
#620=(
GEOMETRIC_REPRESENTATION_CONTEXT(3)
GLOBAL_UNCERTAINTY_ASSIGNED_CONTEXT((#618))
GLOBAL_UNIT_ASSIGNED_CONTEXT((#622,#624,#625))
REPRESENTATION_CONTEXT('','3D')
);
#621=(
GEOMETRIC_REPRESENTATION_CONTEXT(3)
GLOBAL_UNCERTAINTY_ASSIGNED_CONTEXT((#619))
GLOBAL_UNIT_ASSIGNED_CONTEXT((#622,#624,#625))
REPRESENTATION_CONTEXT('','3D')
);
#622=(
LENGTH_UNIT()
NAMED_UNIT(*)
SI_UNIT(.MILLI.,.METRE.)
);
#623=(
LENGTH_UNIT()
NAMED_UNIT(*)
SI_UNIT($,.METRE.)
);
#624=(
NAMED_UNIT(*)
PLANE_ANGLE_UNIT()
SI_UNIT($,.RADIAN.)
);
#625=(
NAMED_UNIT(*)
SI_UNIT($,.STERADIAN.)
SOLID_ANGLE_UNIT()
);
#626=SHAPE_DEFINITION_REPRESENTATION(#627,#628);
#627=PRODUCT_DEFINITION_SHAPE('',$,#630);
#628=SHAPE_REPRESENTATION('',(#378),#620);
#629=PRODUCT_DEFINITION_CONTEXT('part definition',#634,'design');
#630=PRODUCT_DEFINITION('Enclosure Lid Unit 3,4',
'Enclosure Lid Unit 3,4 v8',#631,#629);
#631=PRODUCT_DEFINITION_FORMATION('',$,#636);
#632=PRODUCT_RELATED_PRODUCT_CATEGORY('Enclosure Lid Unit 3,4 v8',
'Enclosure Lid Unit 3,4 v8',(#636));
#633=APPLICATION_PROTOCOL_DEFINITION('international standard',
'automotive_design',2009,#634);
#634=APPLICATION_CONTEXT(
'Core Data for Automotive Mechanical Design Process');
#635=PRODUCT_CONTEXT('part definition',#634,'mechanical');
#636=PRODUCT('Enclosure Lid Unit 3,4','Enclosure Lid Unit 3,4 v8',$,(#635));
#637=PRESENTATION_STYLE_ASSIGNMENT((#639));
#638=PRESENTATION_STYLE_ASSIGNMENT((#640));
#639=SURFACE_STYLE_USAGE(.BOTH.,#641);
#640=SURFACE_STYLE_USAGE(.BOTH.,#642);
#641=SURFACE_SIDE_STYLE('',(#643));
#642=SURFACE_SIDE_STYLE('',(#644));
#643=SURFACE_STYLE_FILL_AREA(#645);
#644=SURFACE_STYLE_FILL_AREA(#646);
#645=FILL_AREA_STYLE('Steel - Satin',(#647));
#646=FILL_AREA_STYLE('ABS (White)',(#648));
#647=FILL_AREA_STYLE_COLOUR('Steel - Satin',#649);
#648=FILL_AREA_STYLE_COLOUR('ABS (White)',#650);
#649=COLOUR_RGB('Steel - Satin',0.627450980392157,0.627450980392157,0.627450980392157);
#650=COLOUR_RGB('ABS (White)',0.298039215686275,0.305882352941176,0.337254901960784);
ENDSEC;
END-ISO-10303-21;
