ISO-10303-21;
HEADER;
/* Generated by software containing ST-Developer
 * from STEP Tools, Inc. (www.steptools.com) 
 */

FILE_DESCRIPTION(
/* description */ (''),
/* implementation_level */ '2;1');

FILE_NAME(
/* name */ 'Enclosure Unit 3, 4.step',
/* time_stamp */ '2026-05-23T13:49:21+02:00',
/* author */ (''),
/* organization */ (''),
/* preprocessor_version */ 'ST-DEVELOPER v20.1',
/* originating_system */ 'Autodesk Translation Framework v15.8.0.0',
/* authorisation */ '');

FILE_SCHEMA (('AUTOMOTIVE_DESIGN { 1 0 10303 214 3 1 1 }'));
ENDSEC;

DATA;
#10=MECHANICAL_DESIGN_GEOMETRIC_PRESENTATION_REPRESENTATION('',(#13),#1979);
#11=SHAPE_REPRESENTATION_RELATIONSHIP('SRR','None',#1986,#12);
#12=ADVANCED_BREP_SHAPE_REPRESENTATION('',(#14),#1978);
#13=STYLED_ITEM('',(#1996),#14);
#14=MANIFOLD_SOLID_BREP('Body3',#1169);
#15=FACE_BOUND('',#178,.T.);
#16=FACE_BOUND('',#181,.T.);
#17=FACE_BOUND('',#184,.T.);
#18=FACE_BOUND('',#188,.T.);
#19=FACE_BOUND('',#189,.T.);
#20=FACE_BOUND('',#190,.T.);
#21=FACE_BOUND('',#191,.T.);
#22=FACE_BOUND('',#192,.T.);
#23=PLANE('',#1186);
#24=PLANE('',#1190);
#25=PLANE('',#1194);
#26=PLANE('',#1198);
#27=PLANE('',#1199);
#28=PLANE('',#1200);
#29=PLANE('',#1201);
#30=PLANE('',#1202);
#31=PLANE('',#1203);
#32=PLANE('',#1206);
#33=PLANE('',#1210);
#34=PLANE('',#1214);
#35=PLANE('',#1218);
#36=PLANE('',#1222);
#37=PLANE('',#1223);
#38=PLANE('',#1224);
#39=PLANE('',#1225);
#40=PLANE('',#1229);
#41=PLANE('',#1236);
#42=PLANE('',#1240);
#43=PLANE('',#1244);
#44=PLANE('',#1248);
#45=PLANE('',#1249);
#46=PLANE('',#1253);
#47=PLANE('',#1257);
#48=PLANE('',#1258);
#49=PLANE('',#1259);
#50=PLANE('',#1260);
#51=PLANE('',#1261);
#52=PLANE('',#1266);
#53=PLANE('',#1271);
#54=PLANE('',#1274);
#55=PLANE('',#1277);
#56=PLANE('',#1284);
#57=PLANE('',#1287);
#58=PLANE('',#1290);
#59=PLANE('',#1293);
#60=PLANE('',#1294);
#61=FACE_OUTER_BOUND('',#123,.T.);
#62=FACE_OUTER_BOUND('',#124,.T.);
#63=FACE_OUTER_BOUND('',#125,.T.);
#64=FACE_OUTER_BOUND('',#126,.T.);
#65=FACE_OUTER_BOUND('',#127,.T.);
#66=FACE_OUTER_BOUND('',#128,.T.);
#67=FACE_OUTER_BOUND('',#129,.T.);
#68=FACE_OUTER_BOUND('',#130,.T.);
#69=FACE_OUTER_BOUND('',#131,.T.);
#70=FACE_OUTER_BOUND('',#132,.T.);
#71=FACE_OUTER_BOUND('',#133,.T.);
#72=FACE_OUTER_BOUND('',#134,.T.);
#73=FACE_OUTER_BOUND('',#135,.T.);
#74=FACE_OUTER_BOUND('',#136,.T.);
#75=FACE_OUTER_BOUND('',#137,.T.);
#76=FACE_OUTER_BOUND('',#138,.T.);
#77=FACE_OUTER_BOUND('',#139,.T.);
#78=FACE_OUTER_BOUND('',#140,.T.);
#79=FACE_OUTER_BOUND('',#141,.T.);
#80=FACE_OUTER_BOUND('',#142,.T.);
#81=FACE_OUTER_BOUND('',#143,.T.);
#82=FACE_OUTER_BOUND('',#144,.T.);
#83=FACE_OUTER_BOUND('',#145,.T.);
#84=FACE_OUTER_BOUND('',#146,.T.);
#85=FACE_OUTER_BOUND('',#147,.T.);
#86=FACE_OUTER_BOUND('',#148,.T.);
#87=FACE_OUTER_BOUND('',#149,.T.);
#88=FACE_OUTER_BOUND('',#150,.T.);
#89=FACE_OUTER_BOUND('',#151,.T.);
#90=FACE_OUTER_BOUND('',#152,.T.);
#91=FACE_OUTER_BOUND('',#153,.T.);
#92=FACE_OUTER_BOUND('',#154,.T.);
#93=FACE_OUTER_BOUND('',#155,.T.);
#94=FACE_OUTER_BOUND('',#156,.T.);
#95=FACE_OUTER_BOUND('',#157,.T.);
#96=FACE_OUTER_BOUND('',#158,.T.);
#97=FACE_OUTER_BOUND('',#159,.T.);
#98=FACE_OUTER_BOUND('',#160,.T.);
#99=FACE_OUTER_BOUND('',#161,.T.);
#100=FACE_OUTER_BOUND('',#162,.T.);
#101=FACE_OUTER_BOUND('',#163,.T.);
#102=FACE_OUTER_BOUND('',#164,.T.);
#103=FACE_OUTER_BOUND('',#165,.T.);
#104=FACE_OUTER_BOUND('',#166,.T.);
#105=FACE_OUTER_BOUND('',#167,.T.);
#106=FACE_OUTER_BOUND('',#168,.T.);
#107=FACE_OUTER_BOUND('',#169,.T.);
#108=FACE_OUTER_BOUND('',#170,.T.);
#109=FACE_OUTER_BOUND('',#171,.T.);
#110=FACE_OUTER_BOUND('',#172,.T.);
#111=FACE_OUTER_BOUND('',#173,.T.);
#112=FACE_OUTER_BOUND('',#174,.T.);
#113=FACE_OUTER_BOUND('',#175,.T.);
#114=FACE_OUTER_BOUND('',#176,.T.);
#115=FACE_OUTER_BOUND('',#177,.T.);
#116=FACE_OUTER_BOUND('',#179,.T.);
#117=FACE_OUTER_BOUND('',#180,.T.);
#118=FACE_OUTER_BOUND('',#182,.T.);
#119=FACE_OUTER_BOUND('',#183,.T.);
#120=FACE_OUTER_BOUND('',#185,.T.);
#121=FACE_OUTER_BOUND('',#186,.T.);
#122=FACE_OUTER_BOUND('',#187,.T.);
#123=EDGE_LOOP('',(#751,#752,#753,#754));
#124=EDGE_LOOP('',(#755));
#125=EDGE_LOOP('',(#756,#757,#758,#759));
#126=EDGE_LOOP('',(#760));
#127=EDGE_LOOP('',(#761,#762,#763,#764));
#128=EDGE_LOOP('',(#765));
#129=EDGE_LOOP('',(#766,#767,#768,#769));
#130=EDGE_LOOP('',(#770));
#131=EDGE_LOOP('',(#771,#772,#773,#774));
#132=EDGE_LOOP('',(#775,#776,#777,#778));
#133=EDGE_LOOP('',(#779,#780,#781,#782));
#134=EDGE_LOOP('',(#783,#784,#785,#786));
#135=EDGE_LOOP('',(#787,#788,#789,#790));
#136=EDGE_LOOP('',(#791,#792,#793,#794));
#137=EDGE_LOOP('',(#795,#796,#797,#798,#799));
#138=EDGE_LOOP('',(#800,#801,#802,#803));
#139=EDGE_LOOP('',(#804,#805,#806,#807,#808));
#140=EDGE_LOOP('',(#809,#810,#811,#812));
#141=EDGE_LOOP('',(#813,#814,#815,#816));
#142=EDGE_LOOP('',(#817,#818,#819,#820));
#143=EDGE_LOOP('',(#821,#822,#823,#824));
#144=EDGE_LOOP('',(#825,#826,#827,#828,#829,#830));
#145=EDGE_LOOP('',(#831,#832,#833,#834));
#146=EDGE_LOOP('',(#835,#836,#837,#838));
#147=EDGE_LOOP('',(#839,#840,#841,#842,#843,#844,#845,#846));
#148=EDGE_LOOP('',(#847,#848,#849,#850));
#149=EDGE_LOOP('',(#851,#852,#853,#854));
#150=EDGE_LOOP('',(#855,#856,#857,#858));
#151=EDGE_LOOP('',(#859,#860,#861,#862));
#152=EDGE_LOOP('',(#863,#864,#865,#866));
#153=EDGE_LOOP('',(#867,#868,#869,#870));
#154=EDGE_LOOP('',(#871,#872,#873,#874));
#155=EDGE_LOOP('',(#875,#876,#877,#878));
#156=EDGE_LOOP('',(#879,#880,#881,#882));
#157=EDGE_LOOP('',(#883,#884,#885,#886));
#158=EDGE_LOOP('',(#887,#888,#889,#890));
#159=EDGE_LOOP('',(#891,#892,#893,#894));
#160=EDGE_LOOP('',(#895,#896,#897,#898));
#161=EDGE_LOOP('',(#899,#900,#901,#902));
#162=EDGE_LOOP('',(#903,#904,#905,#906));
#163=EDGE_LOOP('',(#907,#908,#909,#910));
#164=EDGE_LOOP('',(#911,#912,#913,#914,#915,#916));
#165=EDGE_LOOP('',(#917,#918,#919,#920));
#166=EDGE_LOOP('',(#921,#922,#923,#924,#925,#926,#927,#928,#929,#930,#931,
#932,#933,#934,#935,#936,#937,#938,#939));
#167=EDGE_LOOP('',(#940,#941,#942,#943,#944,#945,#946,#947,#948,#949,#950,
#951,#952,#953,#954,#955,#956,#957,#958,#959,#960,#961,#962,#963,#964,#965,
#966,#967,#968,#969,#970));
#168=EDGE_LOOP('',(#971,#972,#973,#974,#975,#976,#977,#978));
#169=EDGE_LOOP('',(#979,#980,#981,#982));
#170=EDGE_LOOP('',(#983,#984,#985,#986));
#171=EDGE_LOOP('',(#987,#988,#989,#990,#991,#992,#993,#994,#995,#996,#997,
#998));
#172=EDGE_LOOP('',(#999,#1000,#1001,#1002));
#173=EDGE_LOOP('',(#1003,#1004,#1005,#1006));
#174=EDGE_LOOP('',(#1007,#1008,#1009,#1010));
#175=EDGE_LOOP('',(#1011,#1012,#1013,#1014));
#176=EDGE_LOOP('',(#1015,#1016,#1017,#1018));
#177=EDGE_LOOP('',(#1019,#1020,#1021,#1022));
#178=EDGE_LOOP('',(#1023,#1024,#1025,#1026));
#179=EDGE_LOOP('',(#1027,#1028,#1029,#1030));
#180=EDGE_LOOP('',(#1031,#1032,#1033,#1034));
#181=EDGE_LOOP('',(#1035,#1036,#1037,#1038,#1039,#1040,#1041,#1042));
#182=EDGE_LOOP('',(#1043,#1044,#1045,#1046));
#183=EDGE_LOOP('',(#1047,#1048,#1049,#1050));
#184=EDGE_LOOP('',(#1051,#1052,#1053,#1054));
#185=EDGE_LOOP('',(#1055,#1056,#1057,#1058));
#186=EDGE_LOOP('',(#1059,#1060,#1061,#1062));
#187=EDGE_LOOP('',(#1063,#1064,#1065,#1066,#1067,#1068,#1069,#1070));
#188=EDGE_LOOP('',(#1071,#1072,#1073,#1074,#1075,#1076,#1077,#1078));
#189=EDGE_LOOP('',(#1079));
#190=EDGE_LOOP('',(#1080));
#191=EDGE_LOOP('',(#1081));
#192=EDGE_LOOP('',(#1082));
#193=LINE('',#1642,#309);
#194=LINE('',#1649,#310);
#195=LINE('',#1656,#311);
#196=LINE('',#1663,#312);
#197=LINE('',#1669,#313);
#198=LINE('',#1671,#314);
#199=LINE('',#1673,#315);
#200=LINE('',#1674,#316);
#201=LINE('',#1677,#317);
#202=LINE('',#1679,#318);
#203=LINE('',#1680,#319);
#204=LINE('',#1683,#320);
#205=LINE('',#1685,#321);
#206=LINE('',#1686,#322);
#207=LINE('',#1688,#323);
#208=LINE('',#1689,#324);
#209=LINE('',#1693,#325);
#210=LINE('',#1697,#326);
#211=LINE('',#1702,#327);
#212=LINE('',#1704,#328);
#213=LINE('',#1706,#329);
#214=LINE('',#1707,#330);
#215=LINE('',#1711,#331);
#216=LINE('',#1715,#332);
#217=LINE('',#1716,#333);
#218=LINE('',#1721,#334);
#219=LINE('',#1725,#335);
#220=LINE('',#1727,#336);
#221=LINE('',#1728,#337);
#222=LINE('',#1733,#338);
#223=LINE('',#1737,#339);
#224=LINE('',#1739,#340);
#225=LINE('',#1740,#341);
#226=LINE('',#1747,#342);
#227=LINE('',#1749,#343);
#228=LINE('',#1751,#344);
#229=LINE('',#1753,#345);
#230=LINE('',#1755,#346);
#231=LINE('',#1756,#347);
#232=LINE('',#1759,#348);
#233=LINE('',#1761,#349);
#234=LINE('',#1762,#350);
#235=LINE('',#1765,#351);
#236=LINE('',#1766,#352);
#237=LINE('',#1769,#353);
#238=LINE('',#1771,#354);
#239=LINE('',#1773,#355);
#240=LINE('',#1775,#356);
#241=LINE('',#1777,#357);
#242=LINE('',#1778,#358);
#243=LINE('',#1784,#359);
#244=LINE('',#1787,#360);
#245=LINE('',#1790,#361);
#246=LINE('',#1792,#362);
#247=LINE('',#1793,#363);
#248=LINE('',#1799,#364);
#249=LINE('',#1805,#365);
#250=LINE('',#1808,#366);
#251=LINE('',#1810,#367);
#252=LINE('',#1811,#368);
#253=LINE('',#1817,#369);
#254=LINE('',#1820,#370);
#255=LINE('',#1822,#371);
#256=LINE('',#1823,#372);
#257=LINE('',#1829,#373);
#258=LINE('',#1832,#374);
#259=LINE('',#1834,#375);
#260=LINE('',#1835,#376);
#261=LINE('',#1841,#377);
#262=LINE('',#1844,#378);
#263=LINE('',#1846,#379);
#264=LINE('',#1847,#380);
#265=LINE('',#1850,#381);
#266=LINE('',#1852,#382);
#267=LINE('',#1853,#383);
#268=LINE('',#1859,#384);
#269=LINE('',#1862,#385);
#270=LINE('',#1864,#386);
#271=LINE('',#1865,#387);
#272=LINE('',#1871,#388);
#273=LINE('',#1874,#389);
#274=LINE('',#1876,#390);
#275=LINE('',#1877,#391);
#276=LINE('',#1879,#392);
#277=LINE('',#1880,#393);
#278=LINE('',#1882,#394);
#279=LINE('',#1883,#395);
#280=LINE('',#1889,#396);
#281=LINE('',#1892,#397);
#282=LINE('',#1894,#398);
#283=LINE('',#1898,#399);
#284=LINE('',#1903,#400);
#285=LINE('',#1907,#401);
#286=LINE('',#1911,#402);
#287=LINE('',#1915,#403);
#288=LINE('',#1919,#404);
#289=LINE('',#1921,#405);
#290=LINE('',#1922,#406);
#291=LINE('',#1926,#407);
#292=LINE('',#1929,#408);
#293=LINE('',#1930,#409);
#294=LINE('',#1934,#410);
#295=LINE('',#1937,#411);
#296=LINE('',#1938,#412);
#297=LINE('',#1945,#413);
#298=LINE('',#1948,#414);
#299=LINE('',#1951,#415);
#300=LINE('',#1952,#416);
#301=LINE('',#1956,#417);
#302=LINE('',#1959,#418);
#303=LINE('',#1960,#419);
#304=LINE('',#1964,#420);
#305=LINE('',#1967,#421);
#306=LINE('',#1968,#422);
#307=LINE('',#1972,#423);
#308=LINE('',#1974,#424);
#309=VECTOR('',#1301,1.6);
#310=VECTOR('',#1310,1.6);
#311=VECTOR('',#1319,1.6);
#312=VECTOR('',#1328,1.6);
#313=VECTOR('',#1335,10.);
#314=VECTOR('',#1336,10.);
#315=VECTOR('',#1337,10.);
#316=VECTOR('',#1338,10.);
#317=VECTOR('',#1341,10.);
#318=VECTOR('',#1342,10.);
#319=VECTOR('',#1343,10.);
#320=VECTOR('',#1346,10.);
#321=VECTOR('',#1347,10.);
#322=VECTOR('',#1348,10.);
#323=VECTOR('',#1351,10.);
#324=VECTOR('',#1352,10.);
#325=VECTOR('',#1355,10.);
#326=VECTOR('',#1358,10.);
#327=VECTOR('',#1363,10.);
#328=VECTOR('',#1364,10.);
#329=VECTOR('',#1365,10.);
#330=VECTOR('',#1366,10.);
#331=VECTOR('',#1371,10.);
#332=VECTOR('',#1376,10.);
#333=VECTOR('',#1377,10.);
#334=VECTOR('',#1382,10.);
#335=VECTOR('',#1387,10.);
#336=VECTOR('',#1388,10.);
#337=VECTOR('',#1389,10.);
#338=VECTOR('',#1394,10.);
#339=VECTOR('',#1399,10.);
#340=VECTOR('',#1400,10.);
#341=VECTOR('',#1401,10.);
#342=VECTOR('',#1410,10.);
#343=VECTOR('',#1411,10.);
#344=VECTOR('',#1412,10.);
#345=VECTOR('',#1413,10.);
#346=VECTOR('',#1414,10.);
#347=VECTOR('',#1415,10.);
#348=VECTOR('',#1418,10.);
#349=VECTOR('',#1419,10.);
#350=VECTOR('',#1420,10.);
#351=VECTOR('',#1423,10.);
#352=VECTOR('',#1424,10.);
#353=VECTOR('',#1427,10.);
#354=VECTOR('',#1428,10.);
#355=VECTOR('',#1429,10.);
#356=VECTOR('',#1430,10.);
#357=VECTOR('',#1431,10.);
#358=VECTOR('',#1432,10.);
#359=VECTOR('',#1437,10.);
#360=VECTOR('',#1440,10.);
#361=VECTOR('',#1443,10.);
#362=VECTOR('',#1444,10.);
#363=VECTOR('',#1445,10.);
#364=VECTOR('',#1452,10.);
#365=VECTOR('',#1459,10.);
#366=VECTOR('',#1462,10.);
#367=VECTOR('',#1463,10.);
#368=VECTOR('',#1464,10.);
#369=VECTOR('',#1471,10.);
#370=VECTOR('',#1474,10.);
#371=VECTOR('',#1475,10.);
#372=VECTOR('',#1476,10.);
#373=VECTOR('',#1483,10.);
#374=VECTOR('',#1486,10.);
#375=VECTOR('',#1487,10.);
#376=VECTOR('',#1488,10.);
#377=VECTOR('',#1495,10.);
#378=VECTOR('',#1498,10.);
#379=VECTOR('',#1499,10.);
#380=VECTOR('',#1500,10.);
#381=VECTOR('',#1503,10.);
#382=VECTOR('',#1504,10.);
#383=VECTOR('',#1505,10.);
#384=VECTOR('',#1512,10.);
#385=VECTOR('',#1515,10.);
#386=VECTOR('',#1516,10.);
#387=VECTOR('',#1517,10.);
#388=VECTOR('',#1524,10.);
#389=VECTOR('',#1527,10.);
#390=VECTOR('',#1528,10.);
#391=VECTOR('',#1529,10.);
#392=VECTOR('',#1532,10.);
#393=VECTOR('',#1533,10.);
#394=VECTOR('',#1536,10.);
#395=VECTOR('',#1537,10.);
#396=VECTOR('',#1544,10.);
#397=VECTOR('',#1547,10.);
#398=VECTOR('',#1548,10.);
#399=VECTOR('',#1551,10.);
#400=VECTOR('',#1556,10.);
#401=VECTOR('',#1559,10.);
#402=VECTOR('',#1562,10.);
#403=VECTOR('',#1565,10.);
#404=VECTOR('',#1570,10.);
#405=VECTOR('',#1571,10.);
#406=VECTOR('',#1572,10.);
#407=VECTOR('',#1577,10.);
#408=VECTOR('',#1580,10.);
#409=VECTOR('',#1581,10.);
#410=VECTOR('',#1586,10.);
#411=VECTOR('',#1589,10.);
#412=VECTOR('',#1590,10.);
#413=VECTOR('',#1601,10.);
#414=VECTOR('',#1604,10.);
#415=VECTOR('',#1607,10.);
#416=VECTOR('',#1608,10.);
#417=VECTOR('',#1613,10.);
#418=VECTOR('',#1616,10.);
#419=VECTOR('',#1617,10.);
#420=VECTOR('',#1622,10.);
#421=VECTOR('',#1625,10.);
#422=VECTOR('',#1626,10.);
#423=VECTOR('',#1631,10.);
#424=VECTOR('',#1634,10.);
#425=CIRCLE('',#1184,1.6);
#426=CIRCLE('',#1185,1.6);
#427=CIRCLE('',#1188,1.6);
#428=CIRCLE('',#1189,1.6);
#429=CIRCLE('',#1192,1.6);
#430=CIRCLE('',#1193,1.6);
#431=CIRCLE('',#1196,1.6);
#432=CIRCLE('',#1197,1.6);
#433=CIRCLE('',#1204,1.65);
#434=CIRCLE('',#1205,1.65);
#435=CIRCLE('',#1208,1.65);
#436=CIRCLE('',#1209,1.65);
#437=CIRCLE('',#1212,1.65);
#438=CIRCLE('',#1213,1.65);
#439=CIRCLE('',#1216,1.65);
#440=CIRCLE('',#1217,1.65);
#441=CIRCLE('',#1220,1.65);
#442=CIRCLE('',#1221,1.65);
#443=CIRCLE('',#1227,0.694822453073874);
#444=CIRCLE('',#1228,0.694822453073874);
#445=CIRCLE('',#1231,0.694822453073874);
#446=CIRCLE('',#1232,0.694822453073874);
#447=CIRCLE('',#1234,0.69482245307398);
#448=CIRCLE('',#1235,0.69482245307398);
#449=CIRCLE('',#1238,0.694822453073877);
#450=CIRCLE('',#1239,0.694822453073877);
#451=CIRCLE('',#1242,0.694822453073874);
#452=CIRCLE('',#1243,0.694822453073874);
#453=CIRCLE('',#1246,0.694822453073881);
#454=CIRCLE('',#1247,0.694822453073881);
#455=CIRCLE('',#1251,0.25400000000001);
#456=CIRCLE('',#1252,0.25400000000001);
#457=CIRCLE('',#1255,0.254000000000003);
#458=CIRCLE('',#1256,0.254000000000003);
#459=CIRCLE('',#1262,3.);
#460=CIRCLE('',#1263,3.);
#461=CIRCLE('',#1264,2.99999999999999);
#462=CIRCLE('',#1265,3.);
#463=CIRCLE('',#1267,3.);
#464=CIRCLE('',#1268,2.99999999999999);
#465=CIRCLE('',#1269,3.);
#466=CIRCLE('',#1270,3.);
#467=CIRCLE('',#1273,3.);
#468=CIRCLE('',#1276,2.99999999999999);
#469=CIRCLE('',#1279,3.);
#470=CIRCLE('',#1281,3.);
#471=CIRCLE('',#1283,3.);
#472=CIRCLE('',#1286,2.99999999999999);
#473=CIRCLE('',#1289,3.);
#474=CIRCLE('',#1292,3.);
#475=VERTEX_POINT('',#1639);
#476=VERTEX_POINT('',#1641);
#477=VERTEX_POINT('',#1646);
#478=VERTEX_POINT('',#1648);
#479=VERTEX_POINT('',#1653);
#480=VERTEX_POINT('',#1655);
#481=VERTEX_POINT('',#1660);
#482=VERTEX_POINT('',#1662);
#483=VERTEX_POINT('',#1667);
#484=VERTEX_POINT('',#1668);
#485=VERTEX_POINT('',#1670);
#486=VERTEX_POINT('',#1672);
#487=VERTEX_POINT('',#1676);
#488=VERTEX_POINT('',#1678);
#489=VERTEX_POINT('',#1682);
#490=VERTEX_POINT('',#1684);
#491=VERTEX_POINT('',#1691);
#492=VERTEX_POINT('',#1692);
#493=VERTEX_POINT('',#1694);
#494=VERTEX_POINT('',#1696);
#495=VERTEX_POINT('',#1700);
#496=VERTEX_POINT('',#1701);
#497=VERTEX_POINT('',#1703);
#498=VERTEX_POINT('',#1705);
#499=VERTEX_POINT('',#1709);
#500=VERTEX_POINT('',#1714);
#501=VERTEX_POINT('',#1718);
#502=VERTEX_POINT('',#1720);
#503=VERTEX_POINT('',#1724);
#504=VERTEX_POINT('',#1726);
#505=VERTEX_POINT('',#1730);
#506=VERTEX_POINT('',#1732);
#507=VERTEX_POINT('',#1736);
#508=VERTEX_POINT('',#1738);
#509=VERTEX_POINT('',#1745);
#510=VERTEX_POINT('',#1746);
#511=VERTEX_POINT('',#1748);
#512=VERTEX_POINT('',#1750);
#513=VERTEX_POINT('',#1752);
#514=VERTEX_POINT('',#1754);
#515=VERTEX_POINT('',#1758);
#516=VERTEX_POINT('',#1760);
#517=VERTEX_POINT('',#1764);
#518=VERTEX_POINT('',#1768);
#519=VERTEX_POINT('',#1770);
#520=VERTEX_POINT('',#1772);
#521=VERTEX_POINT('',#1774);
#522=VERTEX_POINT('',#1776);
#523=VERTEX_POINT('',#1780);
#524=VERTEX_POINT('',#1781);
#525=VERTEX_POINT('',#1783);
#526=VERTEX_POINT('',#1785);
#527=VERTEX_POINT('',#1789);
#528=VERTEX_POINT('',#1791);
#529=VERTEX_POINT('',#1795);
#530=VERTEX_POINT('',#1797);
#531=VERTEX_POINT('',#1801);
#532=VERTEX_POINT('',#1803);
#533=VERTEX_POINT('',#1807);
#534=VERTEX_POINT('',#1809);
#535=VERTEX_POINT('',#1813);
#536=VERTEX_POINT('',#1815);
#537=VERTEX_POINT('',#1819);
#538=VERTEX_POINT('',#1821);
#539=VERTEX_POINT('',#1825);
#540=VERTEX_POINT('',#1827);
#541=VERTEX_POINT('',#1831);
#542=VERTEX_POINT('',#1833);
#543=VERTEX_POINT('',#1837);
#544=VERTEX_POINT('',#1839);
#545=VERTEX_POINT('',#1843);
#546=VERTEX_POINT('',#1845);
#547=VERTEX_POINT('',#1849);
#548=VERTEX_POINT('',#1851);
#549=VERTEX_POINT('',#1855);
#550=VERTEX_POINT('',#1857);
#551=VERTEX_POINT('',#1861);
#552=VERTEX_POINT('',#1863);
#553=VERTEX_POINT('',#1867);
#554=VERTEX_POINT('',#1869);
#555=VERTEX_POINT('',#1873);
#556=VERTEX_POINT('',#1875);
#557=VERTEX_POINT('',#1886);
#558=VERTEX_POINT('',#1888);
#559=VERTEX_POINT('',#1890);
#560=VERTEX_POINT('',#1893);
#561=VERTEX_POINT('',#1895);
#562=VERTEX_POINT('',#1897);
#563=VERTEX_POINT('',#1901);
#564=VERTEX_POINT('',#1902);
#565=VERTEX_POINT('',#1904);
#566=VERTEX_POINT('',#1906);
#567=VERTEX_POINT('',#1908);
#568=VERTEX_POINT('',#1910);
#569=VERTEX_POINT('',#1912);
#570=VERTEX_POINT('',#1914);
#571=VERTEX_POINT('',#1918);
#572=VERTEX_POINT('',#1920);
#573=VERTEX_POINT('',#1924);
#574=VERTEX_POINT('',#1928);
#575=VERTEX_POINT('',#1932);
#576=VERTEX_POINT('',#1936);
#577=VERTEX_POINT('',#1944);
#578=VERTEX_POINT('',#1946);
#579=VERTEX_POINT('',#1950);
#580=VERTEX_POINT('',#1954);
#581=VERTEX_POINT('',#1958);
#582=VERTEX_POINT('',#1962);
#583=VERTEX_POINT('',#1966);
#584=VERTEX_POINT('',#1970);
#585=EDGE_CURVE('',#475,#475,#425,.T.);
#586=EDGE_CURVE('',#475,#476,#193,.T.);
#587=EDGE_CURVE('',#476,#476,#426,.T.);
#588=EDGE_CURVE('',#477,#477,#427,.T.);
#589=EDGE_CURVE('',#477,#478,#194,.T.);
#590=EDGE_CURVE('',#478,#478,#428,.T.);
#591=EDGE_CURVE('',#479,#479,#429,.T.);
#592=EDGE_CURVE('',#479,#480,#195,.T.);
#593=EDGE_CURVE('',#480,#480,#430,.T.);
#594=EDGE_CURVE('',#481,#481,#431,.T.);
#595=EDGE_CURVE('',#481,#482,#196,.T.);
#596=EDGE_CURVE('',#482,#482,#432,.T.);
#597=EDGE_CURVE('',#483,#484,#197,.T.);
#598=EDGE_CURVE('',#485,#483,#198,.T.);
#599=EDGE_CURVE('',#486,#485,#199,.T.);
#600=EDGE_CURVE('',#486,#484,#200,.T.);
#601=EDGE_CURVE('',#484,#487,#201,.T.);
#602=EDGE_CURVE('',#488,#486,#202,.T.);
#603=EDGE_CURVE('',#488,#487,#203,.T.);
#604=EDGE_CURVE('',#487,#489,#204,.T.);
#605=EDGE_CURVE('',#490,#488,#205,.T.);
#606=EDGE_CURVE('',#490,#489,#206,.T.);
#607=EDGE_CURVE('',#489,#483,#207,.T.);
#608=EDGE_CURVE('',#485,#490,#208,.T.);
#609=EDGE_CURVE('',#491,#492,#209,.T.);
#610=EDGE_CURVE('',#493,#491,#433,.T.);
#611=EDGE_CURVE('',#494,#493,#210,.T.);
#612=EDGE_CURVE('',#492,#494,#434,.T.);
#613=EDGE_CURVE('',#495,#496,#211,.T.);
#614=EDGE_CURVE('',#495,#497,#212,.T.);
#615=EDGE_CURVE('',#498,#497,#213,.T.);
#616=EDGE_CURVE('',#496,#498,#214,.T.);
#617=EDGE_CURVE('',#499,#495,#435,.T.);
#618=EDGE_CURVE('',#499,#493,#215,.T.);
#619=EDGE_CURVE('',#497,#491,#436,.T.);
#620=EDGE_CURVE('',#500,#499,#216,.T.);
#621=EDGE_CURVE('',#500,#494,#217,.T.);
#622=EDGE_CURVE('',#501,#500,#437,.T.);
#623=EDGE_CURVE('',#501,#502,#218,.T.);
#624=EDGE_CURVE('',#492,#502,#438,.T.);
#625=EDGE_CURVE('',#503,#501,#219,.T.);
#626=EDGE_CURVE('',#503,#504,#220,.T.);
#627=EDGE_CURVE('',#502,#504,#221,.T.);
#628=EDGE_CURVE('',#505,#503,#439,.T.);
#629=EDGE_CURVE('',#505,#506,#222,.T.);
#630=EDGE_CURVE('',#504,#506,#440,.T.);
#631=EDGE_CURVE('',#507,#505,#223,.T.);
#632=EDGE_CURVE('',#507,#508,#224,.T.);
#633=EDGE_CURVE('',#506,#508,#225,.T.);
#634=EDGE_CURVE('',#496,#507,#441,.T.);
#635=EDGE_CURVE('',#508,#498,#442,.T.);
#636=EDGE_CURVE('',#509,#510,#226,.T.);
#637=EDGE_CURVE('',#511,#509,#227,.T.);
#638=EDGE_CURVE('',#512,#511,#228,.T.);
#639=EDGE_CURVE('',#512,#513,#229,.T.);
#640=EDGE_CURVE('',#514,#513,#230,.T.);
#641=EDGE_CURVE('',#510,#514,#231,.T.);
#642=EDGE_CURVE('',#515,#512,#232,.T.);
#643=EDGE_CURVE('',#516,#515,#233,.T.);
#644=EDGE_CURVE('',#513,#516,#234,.T.);
#645=EDGE_CURVE('',#517,#516,#235,.T.);
#646=EDGE_CURVE('',#517,#514,#236,.T.);
#647=EDGE_CURVE('',#518,#517,#237,.T.);
#648=EDGE_CURVE('',#519,#515,#238,.T.);
#649=EDGE_CURVE('',#519,#520,#239,.T.);
#650=EDGE_CURVE('',#521,#520,#240,.T.);
#651=EDGE_CURVE('',#522,#521,#241,.T.);
#652=EDGE_CURVE('',#518,#522,#242,.T.);
#653=EDGE_CURVE('',#523,#524,#443,.T.);
#654=EDGE_CURVE('',#523,#525,#243,.T.);
#655=EDGE_CURVE('',#526,#525,#444,.T.);
#656=EDGE_CURVE('',#524,#526,#244,.T.);
#657=EDGE_CURVE('',#524,#527,#245,.T.);
#658=EDGE_CURVE('',#528,#526,#246,.T.);
#659=EDGE_CURVE('',#527,#528,#247,.T.);
#660=EDGE_CURVE('',#527,#529,#445,.T.);
#661=EDGE_CURVE('',#530,#528,#446,.T.);
#662=EDGE_CURVE('',#529,#530,#248,.T.);
#663=EDGE_CURVE('',#529,#531,#447,.T.);
#664=EDGE_CURVE('',#532,#530,#448,.T.);
#665=EDGE_CURVE('',#531,#532,#249,.T.);
#666=EDGE_CURVE('',#531,#533,#250,.T.);
#667=EDGE_CURVE('',#534,#532,#251,.T.);
#668=EDGE_CURVE('',#533,#534,#252,.T.);
#669=EDGE_CURVE('',#533,#535,#449,.T.);
#670=EDGE_CURVE('',#536,#534,#450,.T.);
#671=EDGE_CURVE('',#535,#536,#253,.T.);
#672=EDGE_CURVE('',#535,#537,#254,.T.);
#673=EDGE_CURVE('',#538,#536,#255,.T.);
#674=EDGE_CURVE('',#537,#538,#256,.T.);
#675=EDGE_CURVE('',#537,#539,#451,.T.);
#676=EDGE_CURVE('',#540,#538,#452,.T.);
#677=EDGE_CURVE('',#539,#540,#257,.T.);
#678=EDGE_CURVE('',#539,#541,#258,.T.);
#679=EDGE_CURVE('',#542,#540,#259,.T.);
#680=EDGE_CURVE('',#541,#542,#260,.T.);
#681=EDGE_CURVE('',#541,#543,#453,.T.);
#682=EDGE_CURVE('',#544,#542,#454,.T.);
#683=EDGE_CURVE('',#543,#544,#261,.T.);
#684=EDGE_CURVE('',#543,#545,#262,.T.);
#685=EDGE_CURVE('',#546,#544,#263,.T.);
#686=EDGE_CURVE('',#545,#546,#264,.T.);
#687=EDGE_CURVE('',#545,#547,#265,.T.);
#688=EDGE_CURVE('',#548,#546,#266,.T.);
#689=EDGE_CURVE('',#547,#548,#267,.T.);
#690=EDGE_CURVE('',#547,#549,#455,.T.);
#691=EDGE_CURVE('',#550,#548,#456,.T.);
#692=EDGE_CURVE('',#549,#550,#268,.T.);
#693=EDGE_CURVE('',#549,#551,#269,.T.);
#694=EDGE_CURVE('',#552,#550,#270,.T.);
#695=EDGE_CURVE('',#551,#552,#271,.T.);
#696=EDGE_CURVE('',#551,#553,#457,.T.);
#697=EDGE_CURVE('',#554,#552,#458,.T.);
#698=EDGE_CURVE('',#553,#554,#272,.T.);
#699=EDGE_CURVE('',#553,#555,#273,.T.);
#700=EDGE_CURVE('',#556,#554,#274,.T.);
#701=EDGE_CURVE('',#555,#556,#275,.T.);
#702=EDGE_CURVE('',#555,#518,#276,.T.);
#703=EDGE_CURVE('',#510,#556,#277,.T.);
#704=EDGE_CURVE('',#511,#523,#278,.T.);
#705=EDGE_CURVE('',#525,#509,#279,.T.);
#706=EDGE_CURVE('',#557,#522,#459,.T.);
#707=EDGE_CURVE('',#557,#558,#280,.T.);
#708=EDGE_CURVE('',#559,#558,#460,.T.);
#709=EDGE_CURVE('',#559,#491,#281,.T.);
#710=EDGE_CURVE('',#492,#560,#282,.T.);
#711=EDGE_CURVE('',#561,#560,#461,.T.);
#712=EDGE_CURVE('',#561,#562,#283,.T.);
#713=EDGE_CURVE('',#519,#562,#462,.T.);
#714=EDGE_CURVE('',#563,#564,#284,.T.);
#715=EDGE_CURVE('',#564,#565,#463,.T.);
#716=EDGE_CURVE('',#565,#566,#285,.T.);
#717=EDGE_CURVE('',#566,#567,#464,.T.);
#718=EDGE_CURVE('',#567,#568,#286,.T.);
#719=EDGE_CURVE('',#568,#569,#465,.T.);
#720=EDGE_CURVE('',#569,#570,#287,.T.);
#721=EDGE_CURVE('',#570,#563,#466,.T.);
#722=EDGE_CURVE('',#557,#571,#288,.T.);
#723=EDGE_CURVE('',#572,#571,#289,.T.);
#724=EDGE_CURVE('',#558,#572,#290,.T.);
#725=EDGE_CURVE('',#573,#572,#467,.T.);
#726=EDGE_CURVE('',#559,#573,#291,.T.);
#727=EDGE_CURVE('',#574,#573,#292,.T.);
#728=EDGE_CURVE('',#560,#574,#293,.T.);
#729=EDGE_CURVE('',#575,#574,#468,.T.);
#730=EDGE_CURVE('',#561,#575,#294,.T.);
#731=EDGE_CURVE('',#576,#575,#295,.T.);
#732=EDGE_CURVE('',#562,#576,#296,.T.);
#733=EDGE_CURVE('',#520,#576,#469,.T.);
#734=EDGE_CURVE('',#571,#521,#470,.T.);
#735=EDGE_CURVE('',#564,#577,#297,.T.);
#736=EDGE_CURVE('',#578,#577,#471,.T.);
#737=EDGE_CURVE('',#565,#578,#298,.T.);
#738=EDGE_CURVE('',#579,#578,#299,.T.);
#739=EDGE_CURVE('',#566,#579,#300,.T.);
#740=EDGE_CURVE('',#580,#579,#472,.T.);
#741=EDGE_CURVE('',#580,#567,#301,.T.);
#742=EDGE_CURVE('',#581,#580,#302,.T.);
#743=EDGE_CURVE('',#568,#581,#303,.T.);
#744=EDGE_CURVE('',#582,#581,#473,.T.);
#745=EDGE_CURVE('',#582,#569,#304,.T.);
#746=EDGE_CURVE('',#583,#582,#305,.T.);
#747=EDGE_CURVE('',#570,#583,#306,.T.);
#748=EDGE_CURVE('',#584,#583,#474,.T.);
#749=EDGE_CURVE('',#563,#584,#307,.T.);
#750=EDGE_CURVE('',#577,#584,#308,.T.);
#751=ORIENTED_EDGE('',*,*,#585,.F.);
#752=ORIENTED_EDGE('',*,*,#586,.T.);
#753=ORIENTED_EDGE('',*,*,#587,.T.);
#754=ORIENTED_EDGE('',*,*,#586,.F.);
#755=ORIENTED_EDGE('',*,*,#587,.F.);
#756=ORIENTED_EDGE('',*,*,#588,.F.);
#757=ORIENTED_EDGE('',*,*,#589,.T.);
#758=ORIENTED_EDGE('',*,*,#590,.T.);
#759=ORIENTED_EDGE('',*,*,#589,.F.);
#760=ORIENTED_EDGE('',*,*,#590,.F.);
#761=ORIENTED_EDGE('',*,*,#591,.F.);
#762=ORIENTED_EDGE('',*,*,#592,.T.);
#763=ORIENTED_EDGE('',*,*,#593,.T.);
#764=ORIENTED_EDGE('',*,*,#592,.F.);
#765=ORIENTED_EDGE('',*,*,#593,.F.);
#766=ORIENTED_EDGE('',*,*,#594,.F.);
#767=ORIENTED_EDGE('',*,*,#595,.T.);
#768=ORIENTED_EDGE('',*,*,#596,.T.);
#769=ORIENTED_EDGE('',*,*,#595,.F.);
#770=ORIENTED_EDGE('',*,*,#596,.F.);
#771=ORIENTED_EDGE('',*,*,#597,.F.);
#772=ORIENTED_EDGE('',*,*,#598,.F.);
#773=ORIENTED_EDGE('',*,*,#599,.F.);
#774=ORIENTED_EDGE('',*,*,#600,.T.);
#775=ORIENTED_EDGE('',*,*,#601,.F.);
#776=ORIENTED_EDGE('',*,*,#600,.F.);
#777=ORIENTED_EDGE('',*,*,#602,.F.);
#778=ORIENTED_EDGE('',*,*,#603,.T.);
#779=ORIENTED_EDGE('',*,*,#604,.F.);
#780=ORIENTED_EDGE('',*,*,#603,.F.);
#781=ORIENTED_EDGE('',*,*,#605,.F.);
#782=ORIENTED_EDGE('',*,*,#606,.T.);
#783=ORIENTED_EDGE('',*,*,#607,.F.);
#784=ORIENTED_EDGE('',*,*,#606,.F.);
#785=ORIENTED_EDGE('',*,*,#608,.F.);
#786=ORIENTED_EDGE('',*,*,#598,.T.);
#787=ORIENTED_EDGE('',*,*,#609,.F.);
#788=ORIENTED_EDGE('',*,*,#610,.F.);
#789=ORIENTED_EDGE('',*,*,#611,.F.);
#790=ORIENTED_EDGE('',*,*,#612,.F.);
#791=ORIENTED_EDGE('',*,*,#613,.F.);
#792=ORIENTED_EDGE('',*,*,#614,.T.);
#793=ORIENTED_EDGE('',*,*,#615,.F.);
#794=ORIENTED_EDGE('',*,*,#616,.F.);
#795=ORIENTED_EDGE('',*,*,#617,.F.);
#796=ORIENTED_EDGE('',*,*,#618,.T.);
#797=ORIENTED_EDGE('',*,*,#610,.T.);
#798=ORIENTED_EDGE('',*,*,#619,.F.);
#799=ORIENTED_EDGE('',*,*,#614,.F.);
#800=ORIENTED_EDGE('',*,*,#620,.F.);
#801=ORIENTED_EDGE('',*,*,#621,.T.);
#802=ORIENTED_EDGE('',*,*,#611,.T.);
#803=ORIENTED_EDGE('',*,*,#618,.F.);
#804=ORIENTED_EDGE('',*,*,#622,.F.);
#805=ORIENTED_EDGE('',*,*,#623,.T.);
#806=ORIENTED_EDGE('',*,*,#624,.F.);
#807=ORIENTED_EDGE('',*,*,#612,.T.);
#808=ORIENTED_EDGE('',*,*,#621,.F.);
#809=ORIENTED_EDGE('',*,*,#625,.F.);
#810=ORIENTED_EDGE('',*,*,#626,.T.);
#811=ORIENTED_EDGE('',*,*,#627,.F.);
#812=ORIENTED_EDGE('',*,*,#623,.F.);
#813=ORIENTED_EDGE('',*,*,#628,.F.);
#814=ORIENTED_EDGE('',*,*,#629,.T.);
#815=ORIENTED_EDGE('',*,*,#630,.F.);
#816=ORIENTED_EDGE('',*,*,#626,.F.);
#817=ORIENTED_EDGE('',*,*,#631,.F.);
#818=ORIENTED_EDGE('',*,*,#632,.T.);
#819=ORIENTED_EDGE('',*,*,#633,.F.);
#820=ORIENTED_EDGE('',*,*,#629,.F.);
#821=ORIENTED_EDGE('',*,*,#634,.F.);
#822=ORIENTED_EDGE('',*,*,#616,.T.);
#823=ORIENTED_EDGE('',*,*,#635,.F.);
#824=ORIENTED_EDGE('',*,*,#632,.F.);
#825=ORIENTED_EDGE('',*,*,#636,.F.);
#826=ORIENTED_EDGE('',*,*,#637,.F.);
#827=ORIENTED_EDGE('',*,*,#638,.F.);
#828=ORIENTED_EDGE('',*,*,#639,.T.);
#829=ORIENTED_EDGE('',*,*,#640,.F.);
#830=ORIENTED_EDGE('',*,*,#641,.F.);
#831=ORIENTED_EDGE('',*,*,#642,.F.);
#832=ORIENTED_EDGE('',*,*,#643,.F.);
#833=ORIENTED_EDGE('',*,*,#644,.F.);
#834=ORIENTED_EDGE('',*,*,#639,.F.);
#835=ORIENTED_EDGE('',*,*,#644,.T.);
#836=ORIENTED_EDGE('',*,*,#645,.F.);
#837=ORIENTED_EDGE('',*,*,#646,.T.);
#838=ORIENTED_EDGE('',*,*,#640,.T.);
#839=ORIENTED_EDGE('',*,*,#647,.T.);
#840=ORIENTED_EDGE('',*,*,#645,.T.);
#841=ORIENTED_EDGE('',*,*,#643,.T.);
#842=ORIENTED_EDGE('',*,*,#648,.F.);
#843=ORIENTED_EDGE('',*,*,#649,.T.);
#844=ORIENTED_EDGE('',*,*,#650,.F.);
#845=ORIENTED_EDGE('',*,*,#651,.F.);
#846=ORIENTED_EDGE('',*,*,#652,.F.);
#847=ORIENTED_EDGE('',*,*,#653,.F.);
#848=ORIENTED_EDGE('',*,*,#654,.T.);
#849=ORIENTED_EDGE('',*,*,#655,.F.);
#850=ORIENTED_EDGE('',*,*,#656,.F.);
#851=ORIENTED_EDGE('',*,*,#657,.F.);
#852=ORIENTED_EDGE('',*,*,#656,.T.);
#853=ORIENTED_EDGE('',*,*,#658,.F.);
#854=ORIENTED_EDGE('',*,*,#659,.F.);
#855=ORIENTED_EDGE('',*,*,#660,.F.);
#856=ORIENTED_EDGE('',*,*,#659,.T.);
#857=ORIENTED_EDGE('',*,*,#661,.F.);
#858=ORIENTED_EDGE('',*,*,#662,.F.);
#859=ORIENTED_EDGE('',*,*,#663,.F.);
#860=ORIENTED_EDGE('',*,*,#662,.T.);
#861=ORIENTED_EDGE('',*,*,#664,.F.);
#862=ORIENTED_EDGE('',*,*,#665,.F.);
#863=ORIENTED_EDGE('',*,*,#666,.F.);
#864=ORIENTED_EDGE('',*,*,#665,.T.);
#865=ORIENTED_EDGE('',*,*,#667,.F.);
#866=ORIENTED_EDGE('',*,*,#668,.F.);
#867=ORIENTED_EDGE('',*,*,#669,.F.);
#868=ORIENTED_EDGE('',*,*,#668,.T.);
#869=ORIENTED_EDGE('',*,*,#670,.F.);
#870=ORIENTED_EDGE('',*,*,#671,.F.);
#871=ORIENTED_EDGE('',*,*,#672,.F.);
#872=ORIENTED_EDGE('',*,*,#671,.T.);
#873=ORIENTED_EDGE('',*,*,#673,.F.);
#874=ORIENTED_EDGE('',*,*,#674,.F.);
#875=ORIENTED_EDGE('',*,*,#675,.F.);
#876=ORIENTED_EDGE('',*,*,#674,.T.);
#877=ORIENTED_EDGE('',*,*,#676,.F.);
#878=ORIENTED_EDGE('',*,*,#677,.F.);
#879=ORIENTED_EDGE('',*,*,#678,.F.);
#880=ORIENTED_EDGE('',*,*,#677,.T.);
#881=ORIENTED_EDGE('',*,*,#679,.F.);
#882=ORIENTED_EDGE('',*,*,#680,.F.);
#883=ORIENTED_EDGE('',*,*,#681,.F.);
#884=ORIENTED_EDGE('',*,*,#680,.T.);
#885=ORIENTED_EDGE('',*,*,#682,.F.);
#886=ORIENTED_EDGE('',*,*,#683,.F.);
#887=ORIENTED_EDGE('',*,*,#684,.F.);
#888=ORIENTED_EDGE('',*,*,#683,.T.);
#889=ORIENTED_EDGE('',*,*,#685,.F.);
#890=ORIENTED_EDGE('',*,*,#686,.F.);
#891=ORIENTED_EDGE('',*,*,#687,.F.);
#892=ORIENTED_EDGE('',*,*,#686,.T.);
#893=ORIENTED_EDGE('',*,*,#688,.F.);
#894=ORIENTED_EDGE('',*,*,#689,.F.);
#895=ORIENTED_EDGE('',*,*,#690,.F.);
#896=ORIENTED_EDGE('',*,*,#689,.T.);
#897=ORIENTED_EDGE('',*,*,#691,.F.);
#898=ORIENTED_EDGE('',*,*,#692,.F.);
#899=ORIENTED_EDGE('',*,*,#693,.F.);
#900=ORIENTED_EDGE('',*,*,#692,.T.);
#901=ORIENTED_EDGE('',*,*,#694,.F.);
#902=ORIENTED_EDGE('',*,*,#695,.F.);
#903=ORIENTED_EDGE('',*,*,#696,.F.);
#904=ORIENTED_EDGE('',*,*,#695,.T.);
#905=ORIENTED_EDGE('',*,*,#697,.F.);
#906=ORIENTED_EDGE('',*,*,#698,.F.);
#907=ORIENTED_EDGE('',*,*,#699,.F.);
#908=ORIENTED_EDGE('',*,*,#698,.T.);
#909=ORIENTED_EDGE('',*,*,#700,.F.);
#910=ORIENTED_EDGE('',*,*,#701,.F.);
#911=ORIENTED_EDGE('',*,*,#702,.F.);
#912=ORIENTED_EDGE('',*,*,#701,.T.);
#913=ORIENTED_EDGE('',*,*,#703,.F.);
#914=ORIENTED_EDGE('',*,*,#641,.T.);
#915=ORIENTED_EDGE('',*,*,#646,.F.);
#916=ORIENTED_EDGE('',*,*,#647,.F.);
#917=ORIENTED_EDGE('',*,*,#704,.F.);
#918=ORIENTED_EDGE('',*,*,#637,.T.);
#919=ORIENTED_EDGE('',*,*,#705,.F.);
#920=ORIENTED_EDGE('',*,*,#654,.F.);
#921=ORIENTED_EDGE('',*,*,#705,.T.);
#922=ORIENTED_EDGE('',*,*,#636,.T.);
#923=ORIENTED_EDGE('',*,*,#703,.T.);
#924=ORIENTED_EDGE('',*,*,#700,.T.);
#925=ORIENTED_EDGE('',*,*,#697,.T.);
#926=ORIENTED_EDGE('',*,*,#694,.T.);
#927=ORIENTED_EDGE('',*,*,#691,.T.);
#928=ORIENTED_EDGE('',*,*,#688,.T.);
#929=ORIENTED_EDGE('',*,*,#685,.T.);
#930=ORIENTED_EDGE('',*,*,#682,.T.);
#931=ORIENTED_EDGE('',*,*,#679,.T.);
#932=ORIENTED_EDGE('',*,*,#676,.T.);
#933=ORIENTED_EDGE('',*,*,#673,.T.);
#934=ORIENTED_EDGE('',*,*,#670,.T.);
#935=ORIENTED_EDGE('',*,*,#667,.T.);
#936=ORIENTED_EDGE('',*,*,#664,.T.);
#937=ORIENTED_EDGE('',*,*,#661,.T.);
#938=ORIENTED_EDGE('',*,*,#658,.T.);
#939=ORIENTED_EDGE('',*,*,#655,.T.);
#940=ORIENTED_EDGE('',*,*,#702,.T.);
#941=ORIENTED_EDGE('',*,*,#652,.T.);
#942=ORIENTED_EDGE('',*,*,#706,.F.);
#943=ORIENTED_EDGE('',*,*,#707,.T.);
#944=ORIENTED_EDGE('',*,*,#708,.F.);
#945=ORIENTED_EDGE('',*,*,#709,.T.);
#946=ORIENTED_EDGE('',*,*,#609,.T.);
#947=ORIENTED_EDGE('',*,*,#710,.T.);
#948=ORIENTED_EDGE('',*,*,#711,.F.);
#949=ORIENTED_EDGE('',*,*,#712,.T.);
#950=ORIENTED_EDGE('',*,*,#713,.F.);
#951=ORIENTED_EDGE('',*,*,#648,.T.);
#952=ORIENTED_EDGE('',*,*,#642,.T.);
#953=ORIENTED_EDGE('',*,*,#638,.T.);
#954=ORIENTED_EDGE('',*,*,#704,.T.);
#955=ORIENTED_EDGE('',*,*,#653,.T.);
#956=ORIENTED_EDGE('',*,*,#657,.T.);
#957=ORIENTED_EDGE('',*,*,#660,.T.);
#958=ORIENTED_EDGE('',*,*,#663,.T.);
#959=ORIENTED_EDGE('',*,*,#666,.T.);
#960=ORIENTED_EDGE('',*,*,#669,.T.);
#961=ORIENTED_EDGE('',*,*,#672,.T.);
#962=ORIENTED_EDGE('',*,*,#675,.T.);
#963=ORIENTED_EDGE('',*,*,#678,.T.);
#964=ORIENTED_EDGE('',*,*,#681,.T.);
#965=ORIENTED_EDGE('',*,*,#684,.T.);
#966=ORIENTED_EDGE('',*,*,#687,.T.);
#967=ORIENTED_EDGE('',*,*,#690,.T.);
#968=ORIENTED_EDGE('',*,*,#693,.T.);
#969=ORIENTED_EDGE('',*,*,#696,.T.);
#970=ORIENTED_EDGE('',*,*,#699,.T.);
#971=ORIENTED_EDGE('',*,*,#714,.T.);
#972=ORIENTED_EDGE('',*,*,#715,.T.);
#973=ORIENTED_EDGE('',*,*,#716,.T.);
#974=ORIENTED_EDGE('',*,*,#717,.T.);
#975=ORIENTED_EDGE('',*,*,#718,.T.);
#976=ORIENTED_EDGE('',*,*,#719,.T.);
#977=ORIENTED_EDGE('',*,*,#720,.T.);
#978=ORIENTED_EDGE('',*,*,#721,.T.);
#979=ORIENTED_EDGE('',*,*,#707,.F.);
#980=ORIENTED_EDGE('',*,*,#722,.T.);
#981=ORIENTED_EDGE('',*,*,#723,.F.);
#982=ORIENTED_EDGE('',*,*,#724,.F.);
#983=ORIENTED_EDGE('',*,*,#708,.T.);
#984=ORIENTED_EDGE('',*,*,#724,.T.);
#985=ORIENTED_EDGE('',*,*,#725,.F.);
#986=ORIENTED_EDGE('',*,*,#726,.F.);
#987=ORIENTED_EDGE('',*,*,#619,.T.);
#988=ORIENTED_EDGE('',*,*,#709,.F.);
#989=ORIENTED_EDGE('',*,*,#726,.T.);
#990=ORIENTED_EDGE('',*,*,#727,.F.);
#991=ORIENTED_EDGE('',*,*,#728,.F.);
#992=ORIENTED_EDGE('',*,*,#710,.F.);
#993=ORIENTED_EDGE('',*,*,#624,.T.);
#994=ORIENTED_EDGE('',*,*,#627,.T.);
#995=ORIENTED_EDGE('',*,*,#630,.T.);
#996=ORIENTED_EDGE('',*,*,#633,.T.);
#997=ORIENTED_EDGE('',*,*,#635,.T.);
#998=ORIENTED_EDGE('',*,*,#615,.T.);
#999=ORIENTED_EDGE('',*,*,#711,.T.);
#1000=ORIENTED_EDGE('',*,*,#728,.T.);
#1001=ORIENTED_EDGE('',*,*,#729,.F.);
#1002=ORIENTED_EDGE('',*,*,#730,.F.);
#1003=ORIENTED_EDGE('',*,*,#712,.F.);
#1004=ORIENTED_EDGE('',*,*,#730,.T.);
#1005=ORIENTED_EDGE('',*,*,#731,.F.);
#1006=ORIENTED_EDGE('',*,*,#732,.F.);
#1007=ORIENTED_EDGE('',*,*,#713,.T.);
#1008=ORIENTED_EDGE('',*,*,#732,.T.);
#1009=ORIENTED_EDGE('',*,*,#733,.F.);
#1010=ORIENTED_EDGE('',*,*,#649,.F.);
#1011=ORIENTED_EDGE('',*,*,#706,.T.);
#1012=ORIENTED_EDGE('',*,*,#651,.T.);
#1013=ORIENTED_EDGE('',*,*,#734,.F.);
#1014=ORIENTED_EDGE('',*,*,#722,.F.);
#1015=ORIENTED_EDGE('',*,*,#735,.T.);
#1016=ORIENTED_EDGE('',*,*,#736,.F.);
#1017=ORIENTED_EDGE('',*,*,#737,.F.);
#1018=ORIENTED_EDGE('',*,*,#715,.F.);
#1019=ORIENTED_EDGE('',*,*,#737,.T.);
#1020=ORIENTED_EDGE('',*,*,#738,.F.);
#1021=ORIENTED_EDGE('',*,*,#739,.F.);
#1022=ORIENTED_EDGE('',*,*,#716,.F.);
#1023=ORIENTED_EDGE('',*,*,#605,.T.);
#1024=ORIENTED_EDGE('',*,*,#602,.T.);
#1025=ORIENTED_EDGE('',*,*,#599,.T.);
#1026=ORIENTED_EDGE('',*,*,#608,.T.);
#1027=ORIENTED_EDGE('',*,*,#739,.T.);
#1028=ORIENTED_EDGE('',*,*,#740,.F.);
#1029=ORIENTED_EDGE('',*,*,#741,.T.);
#1030=ORIENTED_EDGE('',*,*,#717,.F.);
#1031=ORIENTED_EDGE('',*,*,#741,.F.);
#1032=ORIENTED_EDGE('',*,*,#742,.F.);
#1033=ORIENTED_EDGE('',*,*,#743,.F.);
#1034=ORIENTED_EDGE('',*,*,#718,.F.);
#1035=ORIENTED_EDGE('',*,*,#613,.T.);
#1036=ORIENTED_EDGE('',*,*,#634,.T.);
#1037=ORIENTED_EDGE('',*,*,#631,.T.);
#1038=ORIENTED_EDGE('',*,*,#628,.T.);
#1039=ORIENTED_EDGE('',*,*,#625,.T.);
#1040=ORIENTED_EDGE('',*,*,#622,.T.);
#1041=ORIENTED_EDGE('',*,*,#620,.T.);
#1042=ORIENTED_EDGE('',*,*,#617,.T.);
#1043=ORIENTED_EDGE('',*,*,#743,.T.);
#1044=ORIENTED_EDGE('',*,*,#744,.F.);
#1045=ORIENTED_EDGE('',*,*,#745,.T.);
#1046=ORIENTED_EDGE('',*,*,#719,.F.);
#1047=ORIENTED_EDGE('',*,*,#745,.F.);
#1048=ORIENTED_EDGE('',*,*,#746,.F.);
#1049=ORIENTED_EDGE('',*,*,#747,.F.);
#1050=ORIENTED_EDGE('',*,*,#720,.F.);
#1051=ORIENTED_EDGE('',*,*,#604,.T.);
#1052=ORIENTED_EDGE('',*,*,#607,.T.);
#1053=ORIENTED_EDGE('',*,*,#597,.T.);
#1054=ORIENTED_EDGE('',*,*,#601,.T.);
#1055=ORIENTED_EDGE('',*,*,#747,.T.);
#1056=ORIENTED_EDGE('',*,*,#748,.F.);
#1057=ORIENTED_EDGE('',*,*,#749,.F.);
#1058=ORIENTED_EDGE('',*,*,#721,.F.);
#1059=ORIENTED_EDGE('',*,*,#749,.T.);
#1060=ORIENTED_EDGE('',*,*,#750,.F.);
#1061=ORIENTED_EDGE('',*,*,#735,.F.);
#1062=ORIENTED_EDGE('',*,*,#714,.F.);
#1063=ORIENTED_EDGE('',*,*,#750,.T.);
#1064=ORIENTED_EDGE('',*,*,#748,.T.);
#1065=ORIENTED_EDGE('',*,*,#746,.T.);
#1066=ORIENTED_EDGE('',*,*,#744,.T.);
#1067=ORIENTED_EDGE('',*,*,#742,.T.);
#1068=ORIENTED_EDGE('',*,*,#740,.T.);
#1069=ORIENTED_EDGE('',*,*,#738,.T.);
#1070=ORIENTED_EDGE('',*,*,#736,.T.);
#1071=ORIENTED_EDGE('',*,*,#734,.T.);
#1072=ORIENTED_EDGE('',*,*,#650,.T.);
#1073=ORIENTED_EDGE('',*,*,#733,.T.);
#1074=ORIENTED_EDGE('',*,*,#731,.T.);
#1075=ORIENTED_EDGE('',*,*,#729,.T.);
#1076=ORIENTED_EDGE('',*,*,#727,.T.);
#1077=ORIENTED_EDGE('',*,*,#725,.T.);
#1078=ORIENTED_EDGE('',*,*,#723,.T.);
#1079=ORIENTED_EDGE('',*,*,#594,.T.);
#1080=ORIENTED_EDGE('',*,*,#591,.T.);
#1081=ORIENTED_EDGE('',*,*,#588,.T.);
#1082=ORIENTED_EDGE('',*,*,#585,.T.);
#1083=CYLINDRICAL_SURFACE('',#1183,1.6);
#1084=CYLINDRICAL_SURFACE('',#1187,1.6);
#1085=CYLINDRICAL_SURFACE('',#1191,1.6);
#1086=CYLINDRICAL_SURFACE('',#1195,1.6);
#1087=CYLINDRICAL_SURFACE('',#1207,1.65);
#1088=CYLINDRICAL_SURFACE('',#1211,1.65);
#1089=CYLINDRICAL_SURFACE('',#1215,1.65);
#1090=CYLINDRICAL_SURFACE('',#1219,1.65);
#1091=CYLINDRICAL_SURFACE('',#1226,0.694822453073874);
#1092=CYLINDRICAL_SURFACE('',#1230,0.694822453073874);
#1093=CYLINDRICAL_SURFACE('',#1233,0.69482245307398);
#1094=CYLINDRICAL_SURFACE('',#1237,0.694822453073877);
#1095=CYLINDRICAL_SURFACE('',#1241,0.694822453073874);
#1096=CYLINDRICAL_SURFACE('',#1245,0.694822453073881);
#1097=CYLINDRICAL_SURFACE('',#1250,0.25400000000001);
#1098=CYLINDRICAL_SURFACE('',#1254,0.254000000000003);
#1099=CYLINDRICAL_SURFACE('',#1272,3.);
#1100=CYLINDRICAL_SURFACE('',#1275,2.99999999999999);
#1101=CYLINDRICAL_SURFACE('',#1278,3.);
#1102=CYLINDRICAL_SURFACE('',#1280,3.);
#1103=CYLINDRICAL_SURFACE('',#1282,3.);
#1104=CYLINDRICAL_SURFACE('',#1285,2.99999999999999);
#1105=CYLINDRICAL_SURFACE('',#1288,3.);
#1106=CYLINDRICAL_SURFACE('',#1291,3.);
#1107=ADVANCED_FACE('',(#61),#1083,.F.);
#1108=ADVANCED_FACE('',(#62),#23,.F.);
#1109=ADVANCED_FACE('',(#63),#1084,.F.);
#1110=ADVANCED_FACE('',(#64),#24,.F.);
#1111=ADVANCED_FACE('',(#65),#1085,.F.);
#1112=ADVANCED_FACE('',(#66),#25,.F.);
#1113=ADVANCED_FACE('',(#67),#1086,.F.);
#1114=ADVANCED_FACE('',(#68),#26,.F.);
#1115=ADVANCED_FACE('',(#69),#27,.F.);
#1116=ADVANCED_FACE('',(#70),#28,.F.);
#1117=ADVANCED_FACE('',(#71),#29,.F.);
#1118=ADVANCED_FACE('',(#72),#30,.F.);
#1119=ADVANCED_FACE('',(#73),#31,.T.);
#1120=ADVANCED_FACE('',(#74),#32,.F.);
#1121=ADVANCED_FACE('',(#75),#1087,.F.);
#1122=ADVANCED_FACE('',(#76),#33,.F.);
#1123=ADVANCED_FACE('',(#77),#1088,.F.);
#1124=ADVANCED_FACE('',(#78),#34,.F.);
#1125=ADVANCED_FACE('',(#79),#1089,.F.);
#1126=ADVANCED_FACE('',(#80),#35,.F.);
#1127=ADVANCED_FACE('',(#81),#1090,.F.);
#1128=ADVANCED_FACE('',(#82),#36,.T.);
#1129=ADVANCED_FACE('',(#83),#37,.T.);
#1130=ADVANCED_FACE('',(#84),#38,.T.);
#1131=ADVANCED_FACE('',(#85),#39,.T.);
#1132=ADVANCED_FACE('',(#86),#1091,.F.);
#1133=ADVANCED_FACE('',(#87),#40,.T.);
#1134=ADVANCED_FACE('',(#88),#1092,.F.);
#1135=ADVANCED_FACE('',(#89),#1093,.F.);
#1136=ADVANCED_FACE('',(#90),#41,.T.);
#1137=ADVANCED_FACE('',(#91),#1094,.F.);
#1138=ADVANCED_FACE('',(#92),#42,.T.);
#1139=ADVANCED_FACE('',(#93),#1095,.F.);
#1140=ADVANCED_FACE('',(#94),#43,.T.);
#1141=ADVANCED_FACE('',(#95),#1096,.F.);
#1142=ADVANCED_FACE('',(#96),#44,.T.);
#1143=ADVANCED_FACE('',(#97),#45,.T.);
#1144=ADVANCED_FACE('',(#98),#1097,.F.);
#1145=ADVANCED_FACE('',(#99),#46,.T.);
#1146=ADVANCED_FACE('',(#100),#1098,.F.);
#1147=ADVANCED_FACE('',(#101),#47,.T.);
#1148=ADVANCED_FACE('',(#102),#48,.T.);
#1149=ADVANCED_FACE('',(#103),#49,.T.);
#1150=ADVANCED_FACE('',(#104),#50,.T.);
#1151=ADVANCED_FACE('',(#105),#51,.T.);
#1152=ADVANCED_FACE('',(#106),#52,.F.);
#1153=ADVANCED_FACE('',(#107),#53,.T.);
#1154=ADVANCED_FACE('',(#108),#1099,.T.);
#1155=ADVANCED_FACE('',(#109),#54,.T.);
#1156=ADVANCED_FACE('',(#110),#1100,.T.);
#1157=ADVANCED_FACE('',(#111),#55,.T.);
#1158=ADVANCED_FACE('',(#112),#1101,.T.);
#1159=ADVANCED_FACE('',(#113),#1102,.T.);
#1160=ADVANCED_FACE('',(#114),#1103,.T.);
#1161=ADVANCED_FACE('',(#115,#15),#56,.T.);
#1162=ADVANCED_FACE('',(#116),#1104,.T.);
#1163=ADVANCED_FACE('',(#117,#16),#57,.T.);
#1164=ADVANCED_FACE('',(#118),#1105,.T.);
#1165=ADVANCED_FACE('',(#119,#17),#58,.T.);
#1166=ADVANCED_FACE('',(#120),#1106,.T.);
#1167=ADVANCED_FACE('',(#121),#59,.T.);
#1168=ADVANCED_FACE('',(#122,#18,#19,#20,#21,#22),#60,.T.);
#1169=CLOSED_SHELL('',(#1107,#1108,#1109,#1110,#1111,#1112,#1113,#1114,
#1115,#1116,#1117,#1118,#1119,#1120,#1121,#1122,#1123,#1124,#1125,#1126,
#1127,#1128,#1129,#1130,#1131,#1132,#1133,#1134,#1135,#1136,#1137,#1138,
#1139,#1140,#1141,#1142,#1143,#1144,#1145,#1146,#1147,#1148,#1149,#1150,
#1151,#1152,#1153,#1154,#1155,#1156,#1157,#1158,#1159,#1160,#1161,#1162,
#1163,#1164,#1165,#1166,#1167,#1168));
#1170=DERIVED_UNIT_ELEMENT(#1172,1.);
#1171=DERIVED_UNIT_ELEMENT(#1981,-3.);
#1172=(
MASS_UNIT()
NAMED_UNIT(*)
SI_UNIT(.KILO.,.GRAM.)
);
#1173=DERIVED_UNIT((#1170,#1171));
#1174=MEASURE_REPRESENTATION_ITEM('density measure',
POSITIVE_RATIO_MEASURE(7850.),#1173);
#1175=PROPERTY_DEFINITION_REPRESENTATION(#1180,#1177);
#1176=PROPERTY_DEFINITION_REPRESENTATION(#1181,#1178);
#1177=REPRESENTATION('material name',(#1179),#1978);
#1178=REPRESENTATION('density',(#1174),#1978);
#1179=DESCRIPTIVE_REPRESENTATION_ITEM('Steel','Steel');
#1180=PROPERTY_DEFINITION('material property','material name',#1988);
#1181=PROPERTY_DEFINITION('material property','density of part',#1988);
#1182=AXIS2_PLACEMENT_3D('',#1637,#1295,#1296);
#1183=AXIS2_PLACEMENT_3D('',#1638,#1297,#1298);
#1184=AXIS2_PLACEMENT_3D('',#1640,#1299,#1300);
#1185=AXIS2_PLACEMENT_3D('',#1643,#1302,#1303);
#1186=AXIS2_PLACEMENT_3D('',#1644,#1304,#1305);
#1187=AXIS2_PLACEMENT_3D('',#1645,#1306,#1307);
#1188=AXIS2_PLACEMENT_3D('',#1647,#1308,#1309);
#1189=AXIS2_PLACEMENT_3D('',#1650,#1311,#1312);
#1190=AXIS2_PLACEMENT_3D('',#1651,#1313,#1314);
#1191=AXIS2_PLACEMENT_3D('',#1652,#1315,#1316);
#1192=AXIS2_PLACEMENT_3D('',#1654,#1317,#1318);
#1193=AXIS2_PLACEMENT_3D('',#1657,#1320,#1321);
#1194=AXIS2_PLACEMENT_3D('',#1658,#1322,#1323);
#1195=AXIS2_PLACEMENT_3D('',#1659,#1324,#1325);
#1196=AXIS2_PLACEMENT_3D('',#1661,#1326,#1327);
#1197=AXIS2_PLACEMENT_3D('',#1664,#1329,#1330);
#1198=AXIS2_PLACEMENT_3D('',#1665,#1331,#1332);
#1199=AXIS2_PLACEMENT_3D('',#1666,#1333,#1334);
#1200=AXIS2_PLACEMENT_3D('',#1675,#1339,#1340);
#1201=AXIS2_PLACEMENT_3D('',#1681,#1344,#1345);
#1202=AXIS2_PLACEMENT_3D('',#1687,#1349,#1350);
#1203=AXIS2_PLACEMENT_3D('',#1690,#1353,#1354);
#1204=AXIS2_PLACEMENT_3D('',#1695,#1356,#1357);
#1205=AXIS2_PLACEMENT_3D('',#1698,#1359,#1360);
#1206=AXIS2_PLACEMENT_3D('',#1699,#1361,#1362);
#1207=AXIS2_PLACEMENT_3D('',#1708,#1367,#1368);
#1208=AXIS2_PLACEMENT_3D('',#1710,#1369,#1370);
#1209=AXIS2_PLACEMENT_3D('',#1712,#1372,#1373);
#1210=AXIS2_PLACEMENT_3D('',#1713,#1374,#1375);
#1211=AXIS2_PLACEMENT_3D('',#1717,#1378,#1379);
#1212=AXIS2_PLACEMENT_3D('',#1719,#1380,#1381);
#1213=AXIS2_PLACEMENT_3D('',#1722,#1383,#1384);
#1214=AXIS2_PLACEMENT_3D('',#1723,#1385,#1386);
#1215=AXIS2_PLACEMENT_3D('',#1729,#1390,#1391);
#1216=AXIS2_PLACEMENT_3D('',#1731,#1392,#1393);
#1217=AXIS2_PLACEMENT_3D('',#1734,#1395,#1396);
#1218=AXIS2_PLACEMENT_3D('',#1735,#1397,#1398);
#1219=AXIS2_PLACEMENT_3D('',#1741,#1402,#1403);
#1220=AXIS2_PLACEMENT_3D('',#1742,#1404,#1405);
#1221=AXIS2_PLACEMENT_3D('',#1743,#1406,#1407);
#1222=AXIS2_PLACEMENT_3D('',#1744,#1408,#1409);
#1223=AXIS2_PLACEMENT_3D('',#1757,#1416,#1417);
#1224=AXIS2_PLACEMENT_3D('',#1763,#1421,#1422);
#1225=AXIS2_PLACEMENT_3D('',#1767,#1425,#1426);
#1226=AXIS2_PLACEMENT_3D('',#1779,#1433,#1434);
#1227=AXIS2_PLACEMENT_3D('',#1782,#1435,#1436);
#1228=AXIS2_PLACEMENT_3D('',#1786,#1438,#1439);
#1229=AXIS2_PLACEMENT_3D('',#1788,#1441,#1442);
#1230=AXIS2_PLACEMENT_3D('',#1794,#1446,#1447);
#1231=AXIS2_PLACEMENT_3D('',#1796,#1448,#1449);
#1232=AXIS2_PLACEMENT_3D('',#1798,#1450,#1451);
#1233=AXIS2_PLACEMENT_3D('',#1800,#1453,#1454);
#1234=AXIS2_PLACEMENT_3D('',#1802,#1455,#1456);
#1235=AXIS2_PLACEMENT_3D('',#1804,#1457,#1458);
#1236=AXIS2_PLACEMENT_3D('',#1806,#1460,#1461);
#1237=AXIS2_PLACEMENT_3D('',#1812,#1465,#1466);
#1238=AXIS2_PLACEMENT_3D('',#1814,#1467,#1468);
#1239=AXIS2_PLACEMENT_3D('',#1816,#1469,#1470);
#1240=AXIS2_PLACEMENT_3D('',#1818,#1472,#1473);
#1241=AXIS2_PLACEMENT_3D('',#1824,#1477,#1478);
#1242=AXIS2_PLACEMENT_3D('',#1826,#1479,#1480);
#1243=AXIS2_PLACEMENT_3D('',#1828,#1481,#1482);
#1244=AXIS2_PLACEMENT_3D('',#1830,#1484,#1485);
#1245=AXIS2_PLACEMENT_3D('',#1836,#1489,#1490);
#1246=AXIS2_PLACEMENT_3D('',#1838,#1491,#1492);
#1247=AXIS2_PLACEMENT_3D('',#1840,#1493,#1494);
#1248=AXIS2_PLACEMENT_3D('',#1842,#1496,#1497);
#1249=AXIS2_PLACEMENT_3D('',#1848,#1501,#1502);
#1250=AXIS2_PLACEMENT_3D('',#1854,#1506,#1507);
#1251=AXIS2_PLACEMENT_3D('',#1856,#1508,#1509);
#1252=AXIS2_PLACEMENT_3D('',#1858,#1510,#1511);
#1253=AXIS2_PLACEMENT_3D('',#1860,#1513,#1514);
#1254=AXIS2_PLACEMENT_3D('',#1866,#1518,#1519);
#1255=AXIS2_PLACEMENT_3D('',#1868,#1520,#1521);
#1256=AXIS2_PLACEMENT_3D('',#1870,#1522,#1523);
#1257=AXIS2_PLACEMENT_3D('',#1872,#1525,#1526);
#1258=AXIS2_PLACEMENT_3D('',#1878,#1530,#1531);
#1259=AXIS2_PLACEMENT_3D('',#1881,#1534,#1535);
#1260=AXIS2_PLACEMENT_3D('',#1884,#1538,#1539);
#1261=AXIS2_PLACEMENT_3D('',#1885,#1540,#1541);
#1262=AXIS2_PLACEMENT_3D('',#1887,#1542,#1543);
#1263=AXIS2_PLACEMENT_3D('',#1891,#1545,#1546);
#1264=AXIS2_PLACEMENT_3D('',#1896,#1549,#1550);
#1265=AXIS2_PLACEMENT_3D('',#1899,#1552,#1553);
#1266=AXIS2_PLACEMENT_3D('',#1900,#1554,#1555);
#1267=AXIS2_PLACEMENT_3D('',#1905,#1557,#1558);
#1268=AXIS2_PLACEMENT_3D('',#1909,#1560,#1561);
#1269=AXIS2_PLACEMENT_3D('',#1913,#1563,#1564);
#1270=AXIS2_PLACEMENT_3D('',#1916,#1566,#1567);
#1271=AXIS2_PLACEMENT_3D('',#1917,#1568,#1569);
#1272=AXIS2_PLACEMENT_3D('',#1923,#1573,#1574);
#1273=AXIS2_PLACEMENT_3D('',#1925,#1575,#1576);
#1274=AXIS2_PLACEMENT_3D('',#1927,#1578,#1579);
#1275=AXIS2_PLACEMENT_3D('',#1931,#1582,#1583);
#1276=AXIS2_PLACEMENT_3D('',#1933,#1584,#1585);
#1277=AXIS2_PLACEMENT_3D('',#1935,#1587,#1588);
#1278=AXIS2_PLACEMENT_3D('',#1939,#1591,#1592);
#1279=AXIS2_PLACEMENT_3D('',#1940,#1593,#1594);
#1280=AXIS2_PLACEMENT_3D('',#1941,#1595,#1596);
#1281=AXIS2_PLACEMENT_3D('',#1942,#1597,#1598);
#1282=AXIS2_PLACEMENT_3D('',#1943,#1599,#1600);
#1283=AXIS2_PLACEMENT_3D('',#1947,#1602,#1603);
#1284=AXIS2_PLACEMENT_3D('',#1949,#1605,#1606);
#1285=AXIS2_PLACEMENT_3D('',#1953,#1609,#1610);
#1286=AXIS2_PLACEMENT_3D('',#1955,#1611,#1612);
#1287=AXIS2_PLACEMENT_3D('',#1957,#1614,#1615);
#1288=AXIS2_PLACEMENT_3D('',#1961,#1618,#1619);
#1289=AXIS2_PLACEMENT_3D('',#1963,#1620,#1621);
#1290=AXIS2_PLACEMENT_3D('',#1965,#1623,#1624);
#1291=AXIS2_PLACEMENT_3D('',#1969,#1627,#1628);
#1292=AXIS2_PLACEMENT_3D('',#1971,#1629,#1630);
#1293=AXIS2_PLACEMENT_3D('',#1973,#1632,#1633);
#1294=AXIS2_PLACEMENT_3D('',#1975,#1635,#1636);
#1295=DIRECTION('axis',(0.,0.,1.));
#1296=DIRECTION('refdir',(1.,0.,0.));
#1297=DIRECTION('center_axis',(0.,-1.,0.));
#1298=DIRECTION('ref_axis',(0.,0.,1.));
#1299=DIRECTION('center_axis',(0.,-1.,0.));
#1300=DIRECTION('ref_axis',(0.,0.,1.));
#1301=DIRECTION('',(0.,-1.,0.));
#1302=DIRECTION('center_axis',(0.,-1.,0.));
#1303=DIRECTION('ref_axis',(0.,0.,1.));
#1304=DIRECTION('center_axis',(0.,-1.,0.));
#1305=DIRECTION('ref_axis',(0.,0.,1.));
#1306=DIRECTION('center_axis',(0.,-1.,0.));
#1307=DIRECTION('ref_axis',(0.,0.,1.));
#1308=DIRECTION('center_axis',(0.,-1.,0.));
#1309=DIRECTION('ref_axis',(0.,0.,1.));
#1310=DIRECTION('',(0.,-1.,0.));
#1311=DIRECTION('center_axis',(0.,-1.,0.));
#1312=DIRECTION('ref_axis',(0.,0.,1.));
#1313=DIRECTION('center_axis',(0.,-1.,0.));
#1314=DIRECTION('ref_axis',(0.,0.,1.));
#1315=DIRECTION('center_axis',(0.,-1.,0.));
#1316=DIRECTION('ref_axis',(0.,0.,1.));
#1317=DIRECTION('center_axis',(0.,-1.,0.));
#1318=DIRECTION('ref_axis',(0.,0.,1.));
#1319=DIRECTION('',(0.,-1.,0.));
#1320=DIRECTION('center_axis',(0.,-1.,0.));
#1321=DIRECTION('ref_axis',(0.,0.,1.));
#1322=DIRECTION('center_axis',(0.,-1.,0.));
#1323=DIRECTION('ref_axis',(0.,0.,1.));
#1324=DIRECTION('center_axis',(0.,-1.,0.));
#1325=DIRECTION('ref_axis',(0.,0.,1.));
#1326=DIRECTION('center_axis',(0.,-1.,0.));
#1327=DIRECTION('ref_axis',(0.,0.,1.));
#1328=DIRECTION('',(0.,-1.,0.));
#1329=DIRECTION('center_axis',(0.,-1.,0.));
#1330=DIRECTION('ref_axis',(0.,0.,1.));
#1331=DIRECTION('center_axis',(0.,-1.,0.));
#1332=DIRECTION('ref_axis',(0.,0.,1.));
#1333=DIRECTION('center_axis',(-2.77555756156289E-17,-1.,0.));
#1334=DIRECTION('ref_axis',(1.,-2.77555756156289E-17,0.));
#1335=DIRECTION('',(-1.,2.77555756156289E-17,0.));
#1336=DIRECTION('',(0.,0.,1.));
#1337=DIRECTION('',(1.,-2.77555756156289E-17,0.));
#1338=DIRECTION('',(0.,0.,1.));
#1339=DIRECTION('center_axis',(-1.,3.58136459556502E-16,0.));
#1340=DIRECTION('ref_axis',(-3.58136459556502E-16,-1.,0.));
#1341=DIRECTION('',(3.58136459556502E-16,1.,0.));
#1342=DIRECTION('',(-3.58136459556502E-16,-1.,0.));
#1343=DIRECTION('',(0.,0.,1.));
#1344=DIRECTION('center_axis',(0.,1.,0.));
#1345=DIRECTION('ref_axis',(-1.,0.,0.));
#1346=DIRECTION('',(1.,0.,0.));
#1347=DIRECTION('',(-1.,0.,0.));
#1348=DIRECTION('',(0.,0.,1.));
#1349=DIRECTION('center_axis',(1.,0.,0.));
#1350=DIRECTION('ref_axis',(0.,1.,0.));
#1351=DIRECTION('',(0.,-1.,0.));
#1352=DIRECTION('',(0.,1.,0.));
#1353=DIRECTION('center_axis',(1.,-3.94430452610507E-30,-3.55271367880051E-15));
#1354=DIRECTION('ref_axis',(-3.55271367880051E-15,0.,-1.));
#1355=DIRECTION('',(0.,0.,-1.));
#1356=DIRECTION('center_axis',(-1.,0.,0.));
#1357=DIRECTION('ref_axis',(0.,1.34572487833352E-15,1.));
#1358=DIRECTION('',(-6.89579518400718E-16,1.50845519650157E-15,1.));
#1359=DIRECTION('center_axis',(-1.,0.,0.));
#1360=DIRECTION('ref_axis',(0.,-1.,0.));
#1361=DIRECTION('center_axis',(3.70074341541719E-15,1.5636944008805E-15,
1.));
#1362=DIRECTION('ref_axis',(-1.45381191281171E-47,1.,-1.5636944008805E-15));
#1363=DIRECTION('',(-2.48007075333567E-31,1.,-1.5636944008805E-15));
#1364=DIRECTION('',(-1.,0.,3.70074341541719E-15));
#1365=DIRECTION('',(0.,-1.,1.5636944008805E-15));
#1366=DIRECTION('',(-1.,0.,3.70074341541719E-15));
#1367=DIRECTION('center_axis',(-1.,0.,3.70074341541719E-15));
#1368=DIRECTION('ref_axis',(3.70074341541719E-15,1.34572487833352E-15,1.));
#1369=DIRECTION('center_axis',(-1.,0.,1.58603289232165E-16));
#1370=DIRECTION('ref_axis',(3.70074341541719E-15,1.34572487833352E-15,1.));
#1371=DIRECTION('',(-1.,0.,3.70074341541719E-15));
#1372=DIRECTION('center_axis',(1.,0.,0.));
#1373=DIRECTION('ref_axis',(3.70074341541719E-15,1.34572487833352E-15,1.));
#1374=DIRECTION('center_axis',(5.58240563590503E-30,-1.,1.50845519650157E-15));
#1375=DIRECTION('ref_axis',(-6.89579518400718E-16,1.50845519650157E-15,
1.));
#1376=DIRECTION('',(1.58603289232165E-16,1.50845519650157E-15,1.));
#1377=DIRECTION('',(-1.,0.,3.70074341541719E-15));
#1378=DIRECTION('center_axis',(-1.,0.,3.70074341541719E-15));
#1379=DIRECTION('ref_axis',(0.,-1.,0.));
#1380=DIRECTION('center_axis',(-1.,0.,1.58603289232165E-16));
#1381=DIRECTION('ref_axis',(0.,-1.,0.));
#1382=DIRECTION('',(-1.,0.,3.70074341541719E-15));
#1383=DIRECTION('center_axis',(1.,0.,0.));
#1384=DIRECTION('ref_axis',(0.,-1.,0.));
#1385=DIRECTION('center_axis',(-3.70074341541719E-15,-3.05544716810955E-29,
-1.));
#1386=DIRECTION('ref_axis',(8.25630643664905E-15,-1.,0.));
#1387=DIRECTION('',(4.8460397093728E-45,-1.,3.05544716810955E-29));
#1388=DIRECTION('',(-1.,0.,3.70074341541719E-15));
#1389=DIRECTION('',(0.,1.,-3.05544716810955E-29));
#1390=DIRECTION('center_axis',(-1.,0.,3.70074341541719E-15));
#1391=DIRECTION('ref_axis',(-3.70074341541719E-15,-1.00929365875014E-15,
-1.));
#1392=DIRECTION('center_axis',(-1.,0.,1.58603289232165E-16));
#1393=DIRECTION('ref_axis',(-3.70074341541719E-15,-1.00929365875014E-15,
-1.));
#1394=DIRECTION('',(-1.,0.,3.70074341541719E-15));
#1395=DIRECTION('center_axis',(1.,0.,0.));
#1396=DIRECTION('ref_axis',(-3.70074341541719E-15,-1.00929365875014E-15,
-1.));
#1397=DIRECTION('center_axis',(-6.37989215532004E-30,1.,-1.72394879600179E-15));
#1398=DIRECTION('ref_axis',(6.89579518400718E-16,-1.72394879600179E-15,
-1.));
#1399=DIRECTION('',(-1.58603289232165E-16,-1.72394879600179E-15,-1.));
#1400=DIRECTION('',(-1.,0.,3.70074341541719E-15));
#1401=DIRECTION('',(0.,1.72394879600179E-15,1.));
#1402=DIRECTION('center_axis',(-1.,0.,3.70074341541719E-15));
#1403=DIRECTION('ref_axis',(-2.49009124122794E-30,1.,-6.72862439166761E-16));
#1404=DIRECTION('center_axis',(-1.,0.,1.58603289232165E-16));
#1405=DIRECTION('ref_axis',(-2.49009124122794E-30,1.,-6.72862439166761E-16));
#1406=DIRECTION('center_axis',(1.,0.,0.));
#1407=DIRECTION('ref_axis',(-2.49009124122794E-30,1.,-6.72862439166761E-16));
#1408=DIRECTION('center_axis',(1.,0.,0.));
#1409=DIRECTION('ref_axis',(0.,0.,-1.));
#1410=DIRECTION('',(0.,0.,1.));
#1411=DIRECTION('',(0.,1.,0.));
#1412=DIRECTION('',(0.,0.,1.));
#1413=DIRECTION('',(0.,1.,0.));
#1414=DIRECTION('',(0.,0.,-1.));
#1415=DIRECTION('',(0.,1.,0.));
#1416=DIRECTION('center_axis',(0.,0.,-1.));
#1417=DIRECTION('ref_axis',(-1.,0.,0.));
#1418=DIRECTION('',(1.,0.,0.));
#1419=DIRECTION('',(0.,-1.,0.));
#1420=DIRECTION('',(-1.,0.,0.));
#1421=DIRECTION('center_axis',(0.,1.,0.));
#1422=DIRECTION('ref_axis',(0.,0.,1.));
#1423=DIRECTION('',(4.44089209850063E-17,0.,-1.));
#1424=DIRECTION('',(1.,0.,0.));
#1425=DIRECTION('center_axis',(1.,0.,4.44089209850063E-17));
#1426=DIRECTION('ref_axis',(4.44089209850063E-17,0.,-1.));
#1427=DIRECTION('',(0.,1.,0.));
#1428=DIRECTION('',(-4.44089209850063E-17,0.,1.));
#1429=DIRECTION('',(0.,1.,0.));
#1430=DIRECTION('',(4.44089209850063E-17,0.,-1.));
#1431=DIRECTION('',(0.,1.,0.));
#1432=DIRECTION('',(-4.44089209850063E-17,0.,1.));
#1433=DIRECTION('center_axis',(0.,1.,0.));
#1434=DIRECTION('ref_axis',(-0.635959714491967,0.,-0.771722256737031));
#1435=DIRECTION('center_axis',(0.,1.,0.));
#1436=DIRECTION('ref_axis',(-0.635959714491967,0.,-0.771722256737031));
#1437=DIRECTION('',(0.,1.,0.));
#1438=DIRECTION('center_axis',(0.,-1.,0.));
#1439=DIRECTION('ref_axis',(-0.635959714491967,0.,-0.771722256737031));
#1440=DIRECTION('',(0.,1.,0.));
#1441=DIRECTION('center_axis',(0.,0.,-1.));
#1442=DIRECTION('ref_axis',(-1.,0.,0.));
#1443=DIRECTION('',(1.,0.,0.));
#1444=DIRECTION('',(-1.,0.,0.));
#1445=DIRECTION('',(0.,1.,0.));
#1446=DIRECTION('center_axis',(0.,1.,0.));
#1447=DIRECTION('ref_axis',(-0.635959714491967,0.,-0.771722256737031));
#1448=DIRECTION('center_axis',(0.,1.,0.));
#1449=DIRECTION('ref_axis',(-0.635959714491967,0.,-0.771722256737031));
#1450=DIRECTION('center_axis',(0.,-1.,0.));
#1451=DIRECTION('ref_axis',(-0.635959714491967,0.,-0.771722256737031));
#1452=DIRECTION('',(0.,1.,0.));
#1453=DIRECTION('center_axis',(0.,1.,0.));
#1454=DIRECTION('ref_axis',(0.0056870400314758,0.,0.999983828657084));
#1455=DIRECTION('center_axis',(0.,1.,0.));
#1456=DIRECTION('ref_axis',(0.0056870400314758,0.,0.999983828657084));
#1457=DIRECTION('center_axis',(0.,-1.,0.));
#1458=DIRECTION('ref_axis',(0.0056870400314758,0.,0.999983828657084));
#1459=DIRECTION('',(0.,1.,0.));
#1460=DIRECTION('center_axis',(0.,0.,-1.));
#1461=DIRECTION('ref_axis',(-1.,0.,0.));
#1462=DIRECTION('',(1.,0.,0.));
#1463=DIRECTION('',(-1.,0.,0.));
#1464=DIRECTION('',(0.,1.,0.));
#1465=DIRECTION('center_axis',(0.,1.,0.));
#1466=DIRECTION('ref_axis',(-0.635959714491971,0.,-0.771722256737028));
#1467=DIRECTION('center_axis',(0.,1.,0.));
#1468=DIRECTION('ref_axis',(-0.635959714491971,0.,-0.771722256737028));
#1469=DIRECTION('center_axis',(0.,-1.,0.));
#1470=DIRECTION('ref_axis',(-0.635959714491971,0.,-0.771722256737028));
#1471=DIRECTION('',(0.,1.,0.));
#1472=DIRECTION('center_axis',(0.,0.,-1.));
#1473=DIRECTION('ref_axis',(-1.,0.,0.));
#1474=DIRECTION('',(1.,0.,0.));
#1475=DIRECTION('',(-1.,0.,0.));
#1476=DIRECTION('',(0.,1.,0.));
#1477=DIRECTION('center_axis',(0.,1.,0.));
#1478=DIRECTION('ref_axis',(-0.635959714492002,0.,-0.771722256737002));
#1479=DIRECTION('center_axis',(0.,1.,0.));
#1480=DIRECTION('ref_axis',(-0.635959714492002,0.,-0.771722256737002));
#1481=DIRECTION('center_axis',(0.,-1.,0.));
#1482=DIRECTION('ref_axis',(-0.635959714492002,0.,-0.771722256737002));
#1483=DIRECTION('',(0.,1.,0.));
#1484=DIRECTION('center_axis',(0.,0.,-1.));
#1485=DIRECTION('ref_axis',(-1.,0.,0.));
#1486=DIRECTION('',(1.,0.,0.));
#1487=DIRECTION('',(-1.,0.,0.));
#1488=DIRECTION('',(0.,1.,0.));
#1489=DIRECTION('center_axis',(0.,1.,0.));
#1490=DIRECTION('ref_axis',(-0.635959714491976,0.,-0.771722256737023));
#1491=DIRECTION('center_axis',(0.,1.,0.));
#1492=DIRECTION('ref_axis',(-0.635959714491976,0.,-0.771722256737023));
#1493=DIRECTION('center_axis',(0.,-1.,0.));
#1494=DIRECTION('ref_axis',(-0.635959714491976,0.,-0.771722256737023));
#1495=DIRECTION('',(0.,1.,0.));
#1496=DIRECTION('center_axis',(0.,0.,-1.));
#1497=DIRECTION('ref_axis',(-1.,0.,0.));
#1498=DIRECTION('',(1.,0.,0.));
#1499=DIRECTION('',(-1.,0.,0.));
#1500=DIRECTION('',(0.,1.,0.));
#1501=DIRECTION('center_axis',(1.,0.,0.));
#1502=DIRECTION('ref_axis',(0.,0.,-1.));
#1503=DIRECTION('',(0.,0.,1.));
#1504=DIRECTION('',(0.,0.,-1.));
#1505=DIRECTION('',(0.,1.,0.));
#1506=DIRECTION('center_axis',(0.,1.,0.));
#1507=DIRECTION('ref_axis',(0.,0.,-1.));
#1508=DIRECTION('center_axis',(0.,1.,0.));
#1509=DIRECTION('ref_axis',(0.,0.,-1.));
#1510=DIRECTION('center_axis',(0.,-1.,0.));
#1511=DIRECTION('ref_axis',(0.,0.,-1.));
#1512=DIRECTION('',(0.,1.,0.));
#1513=DIRECTION('center_axis',(1.,0.,0.));
#1514=DIRECTION('ref_axis',(0.,0.,-1.));
#1515=DIRECTION('',(0.,0.,1.));
#1516=DIRECTION('',(0.,0.,-1.));
#1517=DIRECTION('',(0.,1.,0.));
#1518=DIRECTION('center_axis',(0.,1.,0.));
#1519=DIRECTION('ref_axis',(0.,0.,-1.));
#1520=DIRECTION('center_axis',(0.,1.,0.));
#1521=DIRECTION('ref_axis',(0.,0.,-1.));
#1522=DIRECTION('center_axis',(0.,-1.,0.));
#1523=DIRECTION('ref_axis',(0.,0.,-1.));
#1524=DIRECTION('',(0.,1.,0.));
#1525=DIRECTION('center_axis',(1.,0.,0.));
#1526=DIRECTION('ref_axis',(0.,0.,-1.));
#1527=DIRECTION('',(0.,0.,1.));
#1528=DIRECTION('',(0.,0.,-1.));
#1529=DIRECTION('',(0.,1.,0.));
#1530=DIRECTION('center_axis',(0.,0.,1.));
#1531=DIRECTION('ref_axis',(1.,0.,0.));
#1532=DIRECTION('',(-1.,0.,0.));
#1533=DIRECTION('',(1.,0.,0.));
#1534=DIRECTION('center_axis',(0.,0.,-1.));
#1535=DIRECTION('ref_axis',(-1.,0.,0.));
#1536=DIRECTION('',(1.,0.,0.));
#1537=DIRECTION('',(-1.,0.,0.));
#1538=DIRECTION('center_axis',(0.,1.,0.));
#1539=DIRECTION('ref_axis',(1.,0.,0.));
#1540=DIRECTION('center_axis',(0.,1.,0.));
#1541=DIRECTION('ref_axis',(1.,0.,0.));
#1542=DIRECTION('center_axis',(0.,1.,0.));
#1543=DIRECTION('ref_axis',(1.,0.,0.));
#1544=DIRECTION('',(1.,0.,3.1720657846433E-17));
#1545=DIRECTION('center_axis',(0.,1.,0.));
#1546=DIRECTION('ref_axis',(1.,0.,0.));
#1547=DIRECTION('',(0.,0.,-1.));
#1548=DIRECTION('',(0.,0.,-1.));
#1549=DIRECTION('center_axis',(0.,1.,0.));
#1550=DIRECTION('ref_axis',(1.,0.,0.));
#1551=DIRECTION('',(-1.,0.,0.));
#1552=DIRECTION('center_axis',(0.,1.,0.));
#1553=DIRECTION('ref_axis',(1.,0.,0.));
#1554=DIRECTION('center_axis',(0.,1.,0.));
#1555=DIRECTION('ref_axis',(1.,0.,0.));
#1556=DIRECTION('',(3.96508223080413E-17,0.,-1.));
#1557=DIRECTION('center_axis',(0.,-1.,0.));
#1558=DIRECTION('ref_axis',(1.,0.,0.));
#1559=DIRECTION('',(1.,0.,0.));
#1560=DIRECTION('center_axis',(0.,-1.,0.));
#1561=DIRECTION('ref_axis',(1.,0.,0.));
#1562=DIRECTION('',(1.58603289232165E-16,0.,1.));
#1563=DIRECTION('center_axis',(0.,-1.,0.));
#1564=DIRECTION('ref_axis',(1.,0.,0.));
#1565=DIRECTION('',(-1.,0.,0.));
#1566=DIRECTION('center_axis',(0.,-1.,0.));
#1567=DIRECTION('ref_axis',(1.,0.,0.));
#1568=DIRECTION('center_axis',(3.1720657846433E-17,0.,-1.));
#1569=DIRECTION('ref_axis',(-1.,0.,-3.1720657846433E-17));
#1570=DIRECTION('',(0.,1.,0.));
#1571=DIRECTION('',(-1.,0.,-3.1720657846433E-17));
#1572=DIRECTION('',(0.,1.,0.));
#1573=DIRECTION('center_axis',(0.,1.,0.));
#1574=DIRECTION('ref_axis',(-0.707106781186548,0.,-0.707106781186547));
#1575=DIRECTION('center_axis',(0.,1.,0.));
#1576=DIRECTION('ref_axis',(1.,0.,0.));
#1577=DIRECTION('',(0.,1.,0.));
#1578=DIRECTION('center_axis',(-1.,0.,0.));
#1579=DIRECTION('ref_axis',(0.,0.,1.));
#1580=DIRECTION('',(0.,0.,1.));
#1581=DIRECTION('',(0.,1.,0.));
#1582=DIRECTION('center_axis',(0.,1.,0.));
#1583=DIRECTION('ref_axis',(-0.707106781186548,0.,0.707106781186547));
#1584=DIRECTION('center_axis',(0.,1.,0.));
#1585=DIRECTION('ref_axis',(1.,0.,0.));
#1586=DIRECTION('',(0.,1.,0.));
#1587=DIRECTION('center_axis',(0.,0.,1.));
#1588=DIRECTION('ref_axis',(1.,0.,0.));
#1589=DIRECTION('',(1.,0.,0.));
#1590=DIRECTION('',(0.,1.,0.));
#1591=DIRECTION('center_axis',(0.,1.,0.));
#1592=DIRECTION('ref_axis',(1.,0.,0.));
#1593=DIRECTION('center_axis',(0.,1.,0.));
#1594=DIRECTION('ref_axis',(1.,0.,0.));
#1595=DIRECTION('center_axis',(0.,1.,0.));
#1596=DIRECTION('ref_axis',(1.,0.,0.));
#1597=DIRECTION('center_axis',(0.,1.,0.));
#1598=DIRECTION('ref_axis',(1.,0.,0.));
#1599=DIRECTION('center_axis',(0.,1.,0.));
#1600=DIRECTION('ref_axis',(1.,0.,0.));
#1601=DIRECTION('',(0.,1.,0.));
#1602=DIRECTION('center_axis',(0.,1.,0.));
#1603=DIRECTION('ref_axis',(1.,0.,0.));
#1604=DIRECTION('',(0.,1.,0.));
#1605=DIRECTION('center_axis',(0.,0.,-1.));
#1606=DIRECTION('ref_axis',(-1.,0.,0.));
#1607=DIRECTION('',(-1.,0.,0.));
#1608=DIRECTION('',(0.,1.,0.));
#1609=DIRECTION('center_axis',(0.,1.,0.));
#1610=DIRECTION('ref_axis',(1.,0.,0.));
#1611=DIRECTION('center_axis',(0.,1.,0.));
#1612=DIRECTION('ref_axis',(1.,0.,0.));
#1613=DIRECTION('',(0.,-1.,0.));
#1614=DIRECTION('center_axis',(1.,0.,-1.58603289232165E-16));
#1615=DIRECTION('ref_axis',(-1.58603289232165E-16,0.,-1.));
#1616=DIRECTION('',(-1.58603289232165E-16,0.,-1.));
#1617=DIRECTION('',(0.,1.,0.));
#1618=DIRECTION('center_axis',(0.,1.,0.));
#1619=DIRECTION('ref_axis',(1.,0.,0.));
#1620=DIRECTION('center_axis',(0.,1.,0.));
#1621=DIRECTION('ref_axis',(1.,0.,0.));
#1622=DIRECTION('',(0.,-1.,0.));
#1623=DIRECTION('center_axis',(0.,0.,1.));
#1624=DIRECTION('ref_axis',(1.,0.,0.));
#1625=DIRECTION('',(1.,0.,0.));
#1626=DIRECTION('',(0.,1.,0.));
#1627=DIRECTION('center_axis',(0.,1.,0.));
#1628=DIRECTION('ref_axis',(1.,0.,0.));
#1629=DIRECTION('center_axis',(0.,1.,0.));
#1630=DIRECTION('ref_axis',(1.,0.,0.));
#1631=DIRECTION('',(0.,1.,0.));
#1632=DIRECTION('center_axis',(-1.,0.,-3.96508223080413E-17));
#1633=DIRECTION('ref_axis',(-3.96508223080413E-17,0.,1.));
#1634=DIRECTION('',(-3.96508223080413E-17,0.,1.));
#1635=DIRECTION('center_axis',(0.,1.,0.));
#1636=DIRECTION('ref_axis',(1.,0.,0.));
#1637=CARTESIAN_POINT('',(0.,0.,0.));
#1638=CARTESIAN_POINT('Origin',(-0.799999999999999,15.,-22.8));
#1639=CARTESIAN_POINT('',(-0.799999999999999,17.,-24.4));
#1640=CARTESIAN_POINT('Origin',(-0.799999999999999,17.,-22.8));
#1641=CARTESIAN_POINT('',(-0.799999999999999,13.,-24.4));
#1642=CARTESIAN_POINT('',(-0.799999999999999,15.,-24.4));
#1643=CARTESIAN_POINT('Origin',(-0.799999999999999,13.,-22.8));
#1644=CARTESIAN_POINT('Origin',(-0.799999999999999,13.,-22.8));
#1645=CARTESIAN_POINT('Origin',(32.8,15.,0.800000000000001));
#1646=CARTESIAN_POINT('',(32.8,17.,-0.8));
#1647=CARTESIAN_POINT('Origin',(32.8,17.,0.800000000000001));
#1648=CARTESIAN_POINT('',(32.8,13.,-0.8));
#1649=CARTESIAN_POINT('',(32.8,15.,-0.8));
#1650=CARTESIAN_POINT('Origin',(32.8,13.,0.800000000000001));
#1651=CARTESIAN_POINT('Origin',(32.8,13.,0.800000000000001));
#1652=CARTESIAN_POINT('Origin',(32.8,15.,-22.8));
#1653=CARTESIAN_POINT('',(32.8,17.,-24.4));
#1654=CARTESIAN_POINT('Origin',(32.8,17.,-22.8));
#1655=CARTESIAN_POINT('',(32.8,13.,-24.4));
#1656=CARTESIAN_POINT('',(32.8,15.,-24.4));
#1657=CARTESIAN_POINT('Origin',(32.8,13.,-22.8));
#1658=CARTESIAN_POINT('Origin',(32.8,13.,-22.8));
#1659=CARTESIAN_POINT('Origin',(-0.800000000000001,15.,0.8));
#1660=CARTESIAN_POINT('',(-0.800000000000001,17.,-0.800000000000001));
#1661=CARTESIAN_POINT('Origin',(-0.800000000000001,17.,0.8));
#1662=CARTESIAN_POINT('',(-0.800000000000001,13.,-0.800000000000001));
#1663=CARTESIAN_POINT('',(-0.800000000000001,15.,-0.800000000000001));
#1664=CARTESIAN_POINT('Origin',(-0.800000000000001,13.,0.8));
#1665=CARTESIAN_POINT('Origin',(-0.800000000000001,13.,0.8));
#1666=CARTESIAN_POINT('Origin',(5.99039219456289,-4.29882610732035,-25.));
#1667=CARTESIAN_POINT('',(25.9903921945629,-4.29882610732035,3.));
#1668=CARTESIAN_POINT('',(5.99039219456289,-4.29882610732035,3.));
#1669=CARTESIAN_POINT('',(1.57539219456289,-4.29882610732035,3.));
#1670=CARTESIAN_POINT('',(25.9903921945629,-4.29882610732035,-25.));
#1671=CARTESIAN_POINT('',(25.9903921945629,-4.29882610732035,-25.));
#1672=CARTESIAN_POINT('',(5.99039219456289,-4.29882610732035,-25.));
#1673=CARTESIAN_POINT('',(20.415,-4.29882610732035,-25.));
#1674=CARTESIAN_POINT('',(5.99039219456289,-4.29882610732035,-25.));
#1675=CARTESIAN_POINT('Origin',(5.99039219456289,-1.19882610732035,-25.));
#1676=CARTESIAN_POINT('',(5.99039219456289,-1.19882610732035,3.));
#1677=CARTESIAN_POINT('',(5.99039219456289,-0.599413053660174,3.));
#1678=CARTESIAN_POINT('',(5.99039219456289,-1.19882610732035,-25.));
#1679=CARTESIAN_POINT('',(5.99039219456289,-0.599413053660167,-25.));
#1680=CARTESIAN_POINT('',(5.99039219456289,-1.19882610732035,-25.));
#1681=CARTESIAN_POINT('Origin',(25.9903921945629,-1.19882610732035,-25.));
#1682=CARTESIAN_POINT('',(25.9903921945629,-1.19882610732035,3.));
#1683=CARTESIAN_POINT('',(11.5753921945629,-1.19882610732035,3.));
#1684=CARTESIAN_POINT('',(25.9903921945629,-1.19882610732035,-25.));
#1685=CARTESIAN_POINT('',(30.415,-1.19882610732035,-25.));
#1686=CARTESIAN_POINT('',(25.9903921945629,-1.19882610732035,-25.));
#1687=CARTESIAN_POINT('Origin',(25.9903921945629,-4.29882610732035,-25.));
#1688=CARTESIAN_POINT('',(25.9903921945629,-2.14941305366017,3.));
#1689=CARTESIAN_POINT('',(25.9903921945629,-2.14941305366017,-25.));
#1690=CARTESIAN_POINT('Origin',(33.5,1.69438114541704,-10.954336636254));
#1691=CARTESIAN_POINT('',(33.5,0.,-6.77071941593191));
#1692=CARTESIAN_POINT('',(33.5,0.,-15.1379538565762));
#1693=CARTESIAN_POINT('',(33.5,0.,1.5));
#1694=CARTESIAN_POINT('',(33.5,-0.310618854582952,-7.73433663625403));
#1695=CARTESIAN_POINT('Origin',(33.5,1.33938114541705,-7.73433663625403));
#1696=CARTESIAN_POINT('',(33.5,-0.310618854582962,-14.174336636254));
#1697=CARTESIAN_POINT('',(33.5,-0.310618854582962,-14.174336636254));
#1698=CARTESIAN_POINT('Origin',(33.5,1.33938114541704,-14.174336636254));
#1699=CARTESIAN_POINT('Origin',(35.,1.33938114541705,-6.08433663625403));
#1700=CARTESIAN_POINT('',(35.,1.33938114541705,-6.08433663625403));
#1701=CARTESIAN_POINT('',(35.,2.04938114541705,-6.08433663625403));
#1702=CARTESIAN_POINT('',(35.,0.669690572708517,-6.08433663625403));
#1703=CARTESIAN_POINT('',(33.5,1.33938114541705,-6.08433663625403));
#1704=CARTESIAN_POINT('',(35.,1.33938114541705,-6.08433663625403));
#1705=CARTESIAN_POINT('',(33.5,2.04938114541705,-6.08433663625403));
#1706=CARTESIAN_POINT('',(33.5,0.669690572708535,-6.08433663625403));
#1707=CARTESIAN_POINT('',(35.,2.04938114541705,-6.08433663625403));
#1708=CARTESIAN_POINT('Origin',(35.,1.33938114541705,-7.73433663625403));
#1709=CARTESIAN_POINT('',(35.,-0.310618854582953,-7.73433663625403));
#1710=CARTESIAN_POINT('Origin',(35.,1.33938114541705,-7.73433663625403));
#1711=CARTESIAN_POINT('',(35.,-0.310618854582953,-7.73433663625403));
#1712=CARTESIAN_POINT('Origin',(33.5,1.33938114541705,-7.73433663625403));
#1713=CARTESIAN_POINT('Origin',(35.,-0.310618854582962,-14.174336636254));
#1714=CARTESIAN_POINT('',(35.,-0.310618854582962,-14.174336636254));
#1715=CARTESIAN_POINT('',(35.,-0.31061885458295,-5.66736441540846));
#1716=CARTESIAN_POINT('',(35.,-0.310618854582962,-14.174336636254));
#1717=CARTESIAN_POINT('Origin',(35.,1.33938114541704,-14.174336636254));
#1718=CARTESIAN_POINT('',(35.,1.33938114541704,-15.824336636254));
#1719=CARTESIAN_POINT('Origin',(34.9999999999999,1.33938114541704,-14.174336636254));
#1720=CARTESIAN_POINT('',(33.5,1.33938114541704,-15.824336636254));
#1721=CARTESIAN_POINT('',(35.,1.33938114541704,-15.824336636254));
#1722=CARTESIAN_POINT('Origin',(33.5,1.33938114541704,-14.174336636254));
#1723=CARTESIAN_POINT('Origin',(35.,2.04938114541704,-15.824336636254));
#1724=CARTESIAN_POINT('',(35.,2.04938114541704,-15.824336636254));
#1725=CARTESIAN_POINT('',(35.,1.02469057270852,-15.824336636254));
#1726=CARTESIAN_POINT('',(33.5,2.04938114541704,-15.824336636254));
#1727=CARTESIAN_POINT('',(35.,2.04938114541704,-15.824336636254));
#1728=CARTESIAN_POINT('',(33.5,1.02469057270852,-15.824336636254));
#1729=CARTESIAN_POINT('Origin',(35.,2.04938114541704,-14.174336636254));
#1730=CARTESIAN_POINT('',(35.,3.69938114541704,-14.174336636254));
#1731=CARTESIAN_POINT('Origin',(34.9999999999999,2.04938114541704,-14.174336636254));
#1732=CARTESIAN_POINT('',(33.5,3.69938114541704,-14.174336636254));
#1733=CARTESIAN_POINT('',(35.,3.69938114541704,-14.174336636254));
#1734=CARTESIAN_POINT('Origin',(33.5,2.04938114541704,-14.174336636254));
#1735=CARTESIAN_POINT('Origin',(35.,3.69938114541705,-7.73433663625404));
#1736=CARTESIAN_POINT('',(35.,3.69938114541705,-7.73433663625404));
#1737=CARTESIAN_POINT('',(35.,3.69938114541706,-2.44736441540846));
#1738=CARTESIAN_POINT('',(33.5,3.69938114541705,-7.73433663625403));
#1739=CARTESIAN_POINT('',(35.,3.69938114541705,-7.73433663625404));
#1740=CARTESIAN_POINT('',(33.5,3.69938114541704,-13.8085731035455));
#1741=CARTESIAN_POINT('Origin',(35.,2.04938114541705,-7.73433663625403));
#1742=CARTESIAN_POINT('Origin',(35.,2.04938114541705,-7.73433663625403));
#1743=CARTESIAN_POINT('Origin',(33.5,2.04938114541705,-7.73433663625403));
#1744=CARTESIAN_POINT('Origin',(11.565998713001,0.,-3.96607117199869));
#1745=CARTESIAN_POINT('',(11.565998713001,1.289,-17.875215164267));
#1746=CARTESIAN_POINT('',(11.565998713001,1.289,-3.96607117199869));
#1747=CARTESIAN_POINT('',(11.565998713001,1.289,-17.875215164267));
#1748=CARTESIAN_POINT('',(11.565998713001,0.,-17.875215164267));
#1749=CARTESIAN_POINT('',(11.565998713001,0.,-17.875215164267));
#1750=CARTESIAN_POINT('',(11.565998713001,0.,-17.884117405036));
#1751=CARTESIAN_POINT('',(11.565998713001,0.,-7.48303558599935));
#1752=CARTESIAN_POINT('',(11.565998713001,4.5,-17.884117405036));
#1753=CARTESIAN_POINT('',(11.565998713001,0.,-17.884117405036));
#1754=CARTESIAN_POINT('',(11.565998713001,4.5,-3.96607117199869));
#1755=CARTESIAN_POINT('',(11.565998713001,4.5,-17.884117405036));
#1756=CARTESIAN_POINT('',(11.565998713001,0.,-3.96607117199869));
#1757=CARTESIAN_POINT('Origin',(11.565998713001,0.,-17.884117405036));
#1758=CARTESIAN_POINT('',(-1.5,0.,-17.884117405036));
#1759=CARTESIAN_POINT('',(13.7829993565005,0.,-17.884117405036));
#1760=CARTESIAN_POINT('',(-1.5,4.5,-17.884117405036));
#1761=CARTESIAN_POINT('',(-1.5,0.,-17.884117405036));
#1762=CARTESIAN_POINT('',(-1.5,4.5,-17.884117405036));
#1763=CARTESIAN_POINT('Origin',(5.03299935650051,4.5,-10.9250942885174));
#1764=CARTESIAN_POINT('',(-1.5,4.5,-3.96607117199869));
#1765=CARTESIAN_POINT('',(-1.5,4.5,-6.52114235884017));
#1766=CARTESIAN_POINT('',(11.565998713001,4.5,-3.96607117199869));
#1767=CARTESIAN_POINT('Origin',(-1.5,0.,-2.11719042916297));
#1768=CARTESIAN_POINT('',(-1.5,0.,-3.96607117199869));
#1769=CARTESIAN_POINT('',(-1.5,0.,-3.96607117199869));
#1770=CARTESIAN_POINT('',(-1.5,0.,-19.882809570837));
#1771=CARTESIAN_POINT('',(-1.5,0.,-23.5));
#1772=CARTESIAN_POINT('',(-1.5,17.,-19.882809570837));
#1773=CARTESIAN_POINT('',(-1.5,0.,-19.882809570837));
#1774=CARTESIAN_POINT('',(-1.5,17.,-2.11719042916297));
#1775=CARTESIAN_POINT('',(-1.5,17.,-23.5));
#1776=CARTESIAN_POINT('',(-1.5,0.,-2.11719042916297));
#1777=CARTESIAN_POINT('',(-1.5,0.,-2.11719042916297));
#1778=CARTESIAN_POINT('',(-1.5,0.,-23.5));
#1779=CARTESIAN_POINT('Origin',(14.4245987129915,0.,-18.5698420859791));
#1780=CARTESIAN_POINT('',(14.4081159666089,0.,-17.875215164267));
#1781=CARTESIAN_POINT('',(14.441081459374,0.,-17.875215164267));
#1782=CARTESIAN_POINT('Origin',(14.4245987129915,0.,-18.5698420859791));
#1783=CARTESIAN_POINT('',(14.4081159666089,1.289,-17.875215164267));
#1784=CARTESIAN_POINT('',(14.4081159666089,0.,-17.875215164267));
#1785=CARTESIAN_POINT('',(14.441081459374,1.289,-17.875215164267));
#1786=CARTESIAN_POINT('Origin',(14.4245987129915,1.289,-18.5698420859791));
#1787=CARTESIAN_POINT('',(14.441081459374,0.,-17.875215164267));
#1788=CARTESIAN_POINT('Origin',(16.9606354901814,0.,-17.875215164267));
#1789=CARTESIAN_POINT('',(16.9606354901814,0.,-17.875215164267));
#1790=CARTESIAN_POINT('',(16.4803177450907,0.,-17.875215164267));
#1791=CARTESIAN_POINT('',(16.9606354901814,1.289,-17.875215164267));
#1792=CARTESIAN_POINT('',(26.7871018473465,1.289,-17.875215164267));
#1793=CARTESIAN_POINT('',(16.9606354901814,0.,-17.875215164267));
#1794=CARTESIAN_POINT('Origin',(16.9771182365639,0.,-18.5698420859791));
#1795=CARTESIAN_POINT('',(16.9731667534767,0.,-17.8750308691173));
#1796=CARTESIAN_POINT('Origin',(16.9771182365639,0.,-18.5698420859791));
#1797=CARTESIAN_POINT('',(16.9731667534767,1.289,-17.8750308691173));
#1798=CARTESIAN_POINT('Origin',(16.9771182365639,1.289,-18.5698420859791));
#1799=CARTESIAN_POINT('',(16.9731667534767,0.,-17.8750308691173));
#1800=CARTESIAN_POINT('Origin',(16.9692152703713,0.,-18.5698420859791));
#1801=CARTESIAN_POINT('',(16.9856980167583,0.,-17.875215164267));
#1802=CARTESIAN_POINT('Origin',(16.9692152703713,0.,-18.5698420859791));
#1803=CARTESIAN_POINT('',(16.9856980167583,1.289,-17.875215164267));
#1804=CARTESIAN_POINT('Origin',(16.9692152703713,1.289,-18.5698420859791));
#1805=CARTESIAN_POINT('',(16.9856980167583,0.,-17.875215164267));
#1806=CARTESIAN_POINT('Origin',(19.4973490813685,0.,-17.875215164267));
#1807=CARTESIAN_POINT('',(19.4973490813685,0.,-17.875215164267));
#1808=CARTESIAN_POINT('',(17.7486745406842,0.,-17.875215164267));
#1809=CARTESIAN_POINT('',(19.4973490813685,1.289,-17.875215164267));
#1810=CARTESIAN_POINT('',(26.7871018473465,1.289,-17.875215164267));
#1811=CARTESIAN_POINT('',(19.4973490813685,0.,-17.875215164267));
#1812=CARTESIAN_POINT('Origin',(19.5138318277512,0.,-18.5698420859791));
#1813=CARTESIAN_POINT('',(19.5303145741338,0.,-17.875215164267));
#1814=CARTESIAN_POINT('Origin',(19.5138318277512,0.,-18.5698420859791));
#1815=CARTESIAN_POINT('',(19.5303145741338,1.289,-17.875215164267));
#1816=CARTESIAN_POINT('Origin',(19.5138318277512,1.289,-18.5698420859791));
#1817=CARTESIAN_POINT('',(19.5303145741338,0.,-17.875215164267));
#1818=CARTESIAN_POINT('Origin',(22.0419656387486,0.,-17.875215164267));
#1819=CARTESIAN_POINT('',(22.0419656387486,0.,-17.875215164267));
#1820=CARTESIAN_POINT('',(19.0209828193743,0.,-17.875215164267));
#1821=CARTESIAN_POINT('',(22.0419656387486,1.289,-17.875215164267));
#1822=CARTESIAN_POINT('',(26.7871018473465,1.289,-17.875215164267));
#1823=CARTESIAN_POINT('',(22.0419656387486,0.,-17.875215164267));
#1824=CARTESIAN_POINT('Origin',(22.0584483851311,0.,-18.5698420859791));
#1825=CARTESIAN_POINT('',(22.0749311315136,0.,-17.875215164267));
#1826=CARTESIAN_POINT('Origin',(22.0584483851311,0.,-18.5698420859791));
#1827=CARTESIAN_POINT('',(22.0749311315136,1.289,-17.875215164267));
#1828=CARTESIAN_POINT('Origin',(22.0584483851311,1.289,-18.5698420859791));
#1829=CARTESIAN_POINT('',(22.0749311315136,0.,-17.875215164267));
#1830=CARTESIAN_POINT('Origin',(24.5865821961282,0.,-17.875215164267));
#1831=CARTESIAN_POINT('',(24.5865821961282,0.,-17.875215164267));
#1832=CARTESIAN_POINT('',(20.2932910980641,0.,-17.875215164267));
#1833=CARTESIAN_POINT('',(24.5865821961282,1.289,-17.875215164267));
#1834=CARTESIAN_POINT('',(26.7871018473465,1.289,-17.875215164267));
#1835=CARTESIAN_POINT('',(24.5865821961282,0.,-17.875215164267));
#1836=CARTESIAN_POINT('Origin',(24.6030649425109,0.,-18.5698420859791));
#1837=CARTESIAN_POINT('',(24.6195476888937,0.,-17.875215164267));
#1838=CARTESIAN_POINT('Origin',(24.6030649425109,0.,-18.5698420859791));
#1839=CARTESIAN_POINT('',(24.6195476888937,1.289,-17.875215164267));
#1840=CARTESIAN_POINT('Origin',(24.6030649425109,1.289,-18.5698420859791));
#1841=CARTESIAN_POINT('',(24.6195476888937,0.,-17.875215164267));
#1842=CARTESIAN_POINT('Origin',(26.7871018473465,0.,-17.875215164267));
#1843=CARTESIAN_POINT('',(26.7871018473465,0.,-17.875215164267));
#1844=CARTESIAN_POINT('',(21.3935509236732,0.,-17.875215164267));
#1845=CARTESIAN_POINT('',(26.7871018473465,1.289,-17.875215164267));
#1846=CARTESIAN_POINT('',(26.7871018473465,1.289,-17.875215164267));
#1847=CARTESIAN_POINT('',(26.7871018473465,0.,-17.875215164267));
#1848=CARTESIAN_POINT('Origin',(26.7871018473465,0.,-15.3266106442679));
#1849=CARTESIAN_POINT('',(26.7871018473465,0.,-15.3266106442679));
#1850=CARTESIAN_POINT('',(26.7871018473465,0.,-13.1633053221339));
#1851=CARTESIAN_POINT('',(26.7871018473465,1.289,-15.3266106442679));
#1852=CARTESIAN_POINT('',(26.7871018473465,1.289,-3.96607117199869));
#1853=CARTESIAN_POINT('',(26.7871018473465,0.,-15.3266106442679));
#1854=CARTESIAN_POINT('Origin',(27.0344987129915,0.,-15.2690711719987));
#1855=CARTESIAN_POINT('',(26.7871018473465,0.,-15.2115316997294));
#1856=CARTESIAN_POINT('Origin',(27.0344987129915,0.,-15.2690711719987));
#1857=CARTESIAN_POINT('',(26.7871018473465,1.289,-15.2115316997294));
#1858=CARTESIAN_POINT('Origin',(27.0344987129915,1.289,-15.2690711719987));
#1859=CARTESIAN_POINT('',(26.7871018473465,0.,-15.2115316997294));
#1860=CARTESIAN_POINT('Origin',(26.7871018473465,0.,-6.69061064426787));
#1861=CARTESIAN_POINT('',(26.7871018473465,0.,-6.69061064426787));
#1862=CARTESIAN_POINT('',(26.7871018473465,0.,-8.84530532213393));
#1863=CARTESIAN_POINT('',(26.7871018473465,1.289,-6.69061064426787));
#1864=CARTESIAN_POINT('',(26.7871018473465,1.289,-3.96607117199869));
#1865=CARTESIAN_POINT('',(26.7871018473465,0.,-6.69061064426787));
#1866=CARTESIAN_POINT('Origin',(27.0344987129915,0.,-6.63307117199869));
#1867=CARTESIAN_POINT('',(26.7871018473465,0.,-6.57553169972952));
#1868=CARTESIAN_POINT('Origin',(27.0344987129915,0.,-6.63307117199869));
#1869=CARTESIAN_POINT('',(26.7871018473465,1.289,-6.57553169972952));
#1870=CARTESIAN_POINT('Origin',(27.0344987129915,1.289,-6.63307117199869));
#1871=CARTESIAN_POINT('',(26.7871018473465,0.,-6.57553169972952));
#1872=CARTESIAN_POINT('Origin',(26.7871018473465,0.,-3.96607117199869));
#1873=CARTESIAN_POINT('',(26.7871018473465,0.,-3.96607117199869));
#1874=CARTESIAN_POINT('',(26.7871018473465,0.,-7.48303558599935));
#1875=CARTESIAN_POINT('',(26.7871018473465,1.289,-3.96607117199869));
#1876=CARTESIAN_POINT('',(26.7871018473465,1.289,-3.96607117199869));
#1877=CARTESIAN_POINT('',(26.7871018473465,0.,-3.96607117199869));
#1878=CARTESIAN_POINT('Origin',(11.565998713001,0.,-3.96607117199869));
#1879=CARTESIAN_POINT('',(13.7829993565005,0.,-3.96607117199869));
#1880=CARTESIAN_POINT('',(11.565998713001,1.289,-3.96607117199869));
#1881=CARTESIAN_POINT('Origin',(14.4081159666089,0.,-17.875215164267));
#1882=CARTESIAN_POINT('',(15.2040579833045,0.,-17.875215164267));
#1883=CARTESIAN_POINT('',(26.7871018473465,1.289,-17.875215164267));
#1884=CARTESIAN_POINT('Origin',(19.1765502801737,1.289,-10.9206431681329));
#1885=CARTESIAN_POINT('Origin',(16.,0.,-11.));
#1886=CARTESIAN_POINT('',(2.11719042916296,0.,1.5));
#1887=CARTESIAN_POINT('Origin',(-0.800000000000001,0.,0.8));
#1888=CARTESIAN_POINT('',(29.882809570837,0.,1.5));
#1889=CARTESIAN_POINT('',(-1.5,0.,1.5));
#1890=CARTESIAN_POINT('',(33.5,0.,-2.11719042916297));
#1891=CARTESIAN_POINT('Origin',(32.8,0.,0.800000000000001));
#1892=CARTESIAN_POINT('',(33.5,0.,1.5));
#1893=CARTESIAN_POINT('',(33.5,0.,-19.882809570837));
#1894=CARTESIAN_POINT('',(33.5,0.,1.5));
#1895=CARTESIAN_POINT('',(29.882809570837,0.,-23.5));
#1896=CARTESIAN_POINT('Origin',(32.8,0.,-22.8));
#1897=CARTESIAN_POINT('',(2.11719042916297,0.,-23.5));
#1898=CARTESIAN_POINT('',(33.5,0.,-23.5));
#1899=CARTESIAN_POINT('Origin',(-0.799999999999999,0.,-22.8));
#1900=CARTESIAN_POINT('Origin',(16.,-6.,-11.));
#1901=CARTESIAN_POINT('',(-3.,-6.,2.83960780543711));
#1902=CARTESIAN_POINT('',(-3.,-6.,-24.8396078054371));
#1903=CARTESIAN_POINT('',(-3.,-6.,-25.));
#1904=CARTESIAN_POINT('',(-2.83960780543711,-6.,-25.));
#1905=CARTESIAN_POINT('Origin',(-0.799999999999999,-6.,-22.8));
#1906=CARTESIAN_POINT('',(34.8396078054371,-6.,-25.));
#1907=CARTESIAN_POINT('',(35.,-6.,-25.));
#1908=CARTESIAN_POINT('',(35.,-6.,-24.8396078054371));
#1909=CARTESIAN_POINT('Origin',(32.8,-6.,-22.8));
#1910=CARTESIAN_POINT('',(35.,-6.,2.83960780543712));
#1911=CARTESIAN_POINT('',(35.,-6.,3.));
#1912=CARTESIAN_POINT('',(34.8396078054371,-6.,3.));
#1913=CARTESIAN_POINT('Origin',(32.8,-6.,0.800000000000001));
#1914=CARTESIAN_POINT('',(-2.83960780543711,-6.,3.));
#1915=CARTESIAN_POINT('',(-3.,-6.,3.));
#1916=CARTESIAN_POINT('Origin',(-0.800000000000001,-6.,0.8));
#1917=CARTESIAN_POINT('Origin',(29.882809570837,0.,1.5));
#1918=CARTESIAN_POINT('',(2.11719042916296,17.,1.5));
#1919=CARTESIAN_POINT('',(2.11719042916296,0.,1.5));
#1920=CARTESIAN_POINT('',(29.882809570837,17.,1.5));
#1921=CARTESIAN_POINT('',(-1.5,17.,1.5));
#1922=CARTESIAN_POINT('',(29.882809570837,0.,1.5));
#1923=CARTESIAN_POINT('Origin',(32.8,0.,0.800000000000001));
#1924=CARTESIAN_POINT('',(33.5,17.,-2.11719042916297));
#1925=CARTESIAN_POINT('Origin',(32.8,17.,0.800000000000001));
#1926=CARTESIAN_POINT('',(33.5,0.,-2.11719042916297));
#1927=CARTESIAN_POINT('Origin',(33.5,0.,-19.882809570837));
#1928=CARTESIAN_POINT('',(33.5,17.,-19.882809570837));
#1929=CARTESIAN_POINT('',(33.5,17.,1.5));
#1930=CARTESIAN_POINT('',(33.5,0.,-19.882809570837));
#1931=CARTESIAN_POINT('Origin',(32.8,0.,-22.8));
#1932=CARTESIAN_POINT('',(29.882809570837,17.,-23.5));
#1933=CARTESIAN_POINT('Origin',(32.8,17.,-22.8));
#1934=CARTESIAN_POINT('',(29.882809570837,0.,-23.5));
#1935=CARTESIAN_POINT('Origin',(2.11719042916297,0.,-23.5));
#1936=CARTESIAN_POINT('',(2.11719042916297,17.,-23.5));
#1937=CARTESIAN_POINT('',(33.5,17.,-23.5));
#1938=CARTESIAN_POINT('',(2.11719042916297,0.,-23.5));
#1939=CARTESIAN_POINT('Origin',(-0.799999999999999,0.,-22.8));
#1940=CARTESIAN_POINT('Origin',(-0.799999999999999,17.,-22.8));
#1941=CARTESIAN_POINT('Origin',(-0.800000000000001,0.,0.8));
#1942=CARTESIAN_POINT('Origin',(-0.800000000000001,17.,0.8));
#1943=CARTESIAN_POINT('Origin',(-0.799999999999999,0.,-22.8));
#1944=CARTESIAN_POINT('',(-3.,17.,-24.8396078054371));
#1945=CARTESIAN_POINT('',(-3.,0.,-24.8396078054371));
#1946=CARTESIAN_POINT('',(-2.83960780543711,17.,-25.));
#1947=CARTESIAN_POINT('Origin',(-0.799999999999999,17.,-22.8));
#1948=CARTESIAN_POINT('',(-2.83960780543711,0.,-25.));
#1949=CARTESIAN_POINT('Origin',(34.8396078054371,0.,-25.));
#1950=CARTESIAN_POINT('',(34.8396078054371,17.,-25.));
#1951=CARTESIAN_POINT('',(35.,17.,-25.));
#1952=CARTESIAN_POINT('',(34.8396078054371,0.,-25.));
#1953=CARTESIAN_POINT('Origin',(32.8,0.,-22.8));
#1954=CARTESIAN_POINT('',(35.,17.,-24.8396078054371));
#1955=CARTESIAN_POINT('Origin',(32.8,17.,-22.8));
#1956=CARTESIAN_POINT('',(35.,0.,-24.8396078054371));
#1957=CARTESIAN_POINT('Origin',(35.,0.,2.83960780543712));
#1958=CARTESIAN_POINT('',(35.,17.,2.83960780543712));
#1959=CARTESIAN_POINT('',(35.,17.,3.));
#1960=CARTESIAN_POINT('',(35.,0.,2.83960780543712));
#1961=CARTESIAN_POINT('Origin',(32.8,0.,0.800000000000001));
#1962=CARTESIAN_POINT('',(34.8396078054371,17.,3.));
#1963=CARTESIAN_POINT('Origin',(32.8,17.,0.800000000000001));
#1964=CARTESIAN_POINT('',(34.8396078054371,0.,3.));
#1965=CARTESIAN_POINT('Origin',(-2.83960780543711,0.,3.));
#1966=CARTESIAN_POINT('',(-2.83960780543711,17.,3.));
#1967=CARTESIAN_POINT('',(-3.,17.,3.));
#1968=CARTESIAN_POINT('',(-2.83960780543711,0.,3.));
#1969=CARTESIAN_POINT('Origin',(-0.800000000000001,0.,0.8));
#1970=CARTESIAN_POINT('',(-3.,17.,2.83960780543711));
#1971=CARTESIAN_POINT('Origin',(-0.800000000000001,17.,0.8));
#1972=CARTESIAN_POINT('',(-3.,0.,2.83960780543711));
#1973=CARTESIAN_POINT('Origin',(-3.,0.,-24.8396078054371));
#1974=CARTESIAN_POINT('',(-3.,17.,-25.));
#1975=CARTESIAN_POINT('Origin',(-0.800000000000001,17.,0.8));
#1976=UNCERTAINTY_MEASURE_WITH_UNIT(LENGTH_MEASURE(0.01),#1980,
'DISTANCE_ACCURACY_VALUE',
'Maximum model space distance between geometric entities at asserted c
onnectivities');
#1977=UNCERTAINTY_MEASURE_WITH_UNIT(LENGTH_MEASURE(0.01),#1980,
'DISTANCE_ACCURACY_VALUE',
'Maximum model space distance between geometric entities at asserted c
onnectivities');
#1978=(
GEOMETRIC_REPRESENTATION_CONTEXT(3)
GLOBAL_UNCERTAINTY_ASSIGNED_CONTEXT((#1976))
GLOBAL_UNIT_ASSIGNED_CONTEXT((#1980,#1982,#1983))
REPRESENTATION_CONTEXT('','3D')
);
#1979=(
GEOMETRIC_REPRESENTATION_CONTEXT(3)
GLOBAL_UNCERTAINTY_ASSIGNED_CONTEXT((#1977))
GLOBAL_UNIT_ASSIGNED_CONTEXT((#1980,#1982,#1983))
REPRESENTATION_CONTEXT('','3D')
);
#1980=(
LENGTH_UNIT()
NAMED_UNIT(*)
SI_UNIT(.MILLI.,.METRE.)
);
#1981=(
LENGTH_UNIT()
NAMED_UNIT(*)
SI_UNIT($,.METRE.)
);
#1982=(
NAMED_UNIT(*)
PLANE_ANGLE_UNIT()
SI_UNIT($,.RADIAN.)
);
#1983=(
NAMED_UNIT(*)
SI_UNIT($,.STERADIAN.)
SOLID_ANGLE_UNIT()
);
#1984=SHAPE_DEFINITION_REPRESENTATION(#1985,#1986);
#1985=PRODUCT_DEFINITION_SHAPE('',$,#1988);
#1986=SHAPE_REPRESENTATION('',(#1182),#1978);
#1987=PRODUCT_DEFINITION_CONTEXT('part definition',#1992,'design');
#1988=PRODUCT_DEFINITION('Enclosure Unit 3, 4',
'Enclosure Unit 3, 4 v11',#1989,#1987);
#1989=PRODUCT_DEFINITION_FORMATION('',$,#1994);
#1990=PRODUCT_RELATED_PRODUCT_CATEGORY('Enclosure Unit 3, 4 v11',
'Enclosure Unit 3, 4 v11',(#1994));
#1991=APPLICATION_PROTOCOL_DEFINITION('international standard',
'automotive_design',2009,#1992);
#1992=APPLICATION_CONTEXT(
'Core Data for Automotive Mechanical Design Process');
#1993=PRODUCT_CONTEXT('part definition',#1992,'mechanical');
#1994=PRODUCT('Enclosure Unit 3, 4','Enclosure Unit 3, 4 v11',$,(#1993));
#1995=PRESENTATION_STYLE_ASSIGNMENT((#1997));
#1996=PRESENTATION_STYLE_ASSIGNMENT((#1998));
#1997=SURFACE_STYLE_USAGE(.BOTH.,#1999);
#1998=SURFACE_STYLE_USAGE(.BOTH.,#2000);
#1999=SURFACE_SIDE_STYLE('',(#2001));
#2000=SURFACE_SIDE_STYLE('',(#2002));
#2001=SURFACE_STYLE_FILL_AREA(#2003);
#2002=SURFACE_STYLE_FILL_AREA(#2004);
#2003=FILL_AREA_STYLE('Steel - Satin',(#2005));
#2004=FILL_AREA_STYLE('ABS (White)',(#2006));
#2005=FILL_AREA_STYLE_COLOUR('Steel - Satin',#2007);
#2006=FILL_AREA_STYLE_COLOUR('ABS (White)',#2008);
#2007=COLOUR_RGB('Steel - Satin',0.627450980392157,0.627450980392157,0.627450980392157);
#2008=COLOUR_RGB('ABS (White)',0.298039215686275,0.305882352941176,0.337254901960784);
ENDSEC;
END-ISO-10303-21;
