ISO-10303-21;
HEADER;
/* Generated by software containing ST-Developer
 * from STEP Tools, Inc. (www.steptools.com) 
 */

FILE_DESCRIPTION(
/* description */ (''),
/* implementation_level */ '2;1');

FILE_NAME(
/* name */ 'Enclosure Lid Unit 2.step',
/* time_stamp */ '2026-05-23T13:53:09+02:00',
/* author */ (''),
/* organization */ (''),
/* preprocessor_version */ 'ST-DEVELOPER v20.1',
/* originating_system */ 'Autodesk Translation Framework v15.8.0.0',
/* authorisation */ '');

FILE_SCHEMA (('AUTOMOTIVE_DESIGN { 1 0 10303 214 3 1 1 }'));
ENDSEC;

DATA;
#10=MECHANICAL_DESIGN_GEOMETRIC_PRESENTATION_REPRESENTATION('',(#13),#761);
#11=SHAPE_REPRESENTATION_RELATIONSHIP('SRR','None',#768,#12);
#12=ADVANCED_BREP_SHAPE_REPRESENTATION('',(#14),#760);
#13=STYLED_ITEM('',(#778),#14);
#14=MANIFOLD_SOLID_BREP('Body1',#441);
#15=FACE_BOUND('',#63,.T.);
#16=FACE_BOUND('',#64,.T.);
#17=FACE_BOUND('',#65,.T.);
#18=FACE_BOUND('',#66,.T.);
#19=FACE_BOUND('',#67,.T.);
#20=FACE_BOUND('',#77,.T.);
#21=FACE_BOUND('',#78,.T.);
#22=FACE_BOUND('',#79,.T.);
#23=FACE_BOUND('',#80,.T.);
#24=PLANE('',#467);
#25=PLANE('',#478);
#26=PLANE('',#481);
#27=PLANE('',#484);
#28=PLANE('',#487);
#29=PLANE('',#488);
#30=PLANE('',#489);
#31=PLANE('',#492);
#32=PLANE('',#495);
#33=PLANE('',#498);
#34=PLANE('',#501);
#35=FACE_OUTER_BOUND('',#58,.T.);
#36=FACE_OUTER_BOUND('',#59,.T.);
#37=FACE_OUTER_BOUND('',#60,.T.);
#38=FACE_OUTER_BOUND('',#61,.T.);
#39=FACE_OUTER_BOUND('',#62,.T.);
#40=FACE_OUTER_BOUND('',#68,.T.);
#41=FACE_OUTER_BOUND('',#69,.T.);
#42=FACE_OUTER_BOUND('',#70,.T.);
#43=FACE_OUTER_BOUND('',#71,.T.);
#44=FACE_OUTER_BOUND('',#72,.T.);
#45=FACE_OUTER_BOUND('',#73,.T.);
#46=FACE_OUTER_BOUND('',#74,.T.);
#47=FACE_OUTER_BOUND('',#75,.T.);
#48=FACE_OUTER_BOUND('',#76,.T.);
#49=FACE_OUTER_BOUND('',#81,.T.);
#50=FACE_OUTER_BOUND('',#82,.T.);
#51=FACE_OUTER_BOUND('',#83,.T.);
#52=FACE_OUTER_BOUND('',#84,.T.);
#53=FACE_OUTER_BOUND('',#85,.T.);
#54=FACE_OUTER_BOUND('',#86,.T.);
#55=FACE_OUTER_BOUND('',#87,.T.);
#56=FACE_OUTER_BOUND('',#88,.T.);
#57=FACE_OUTER_BOUND('',#89,.T.);
#58=EDGE_LOOP('',(#286,#287,#288,#289));
#59=EDGE_LOOP('',(#290,#291,#292,#293));
#60=EDGE_LOOP('',(#294,#295,#296,#297));
#61=EDGE_LOOP('',(#298,#299,#300,#301));
#62=EDGE_LOOP('',(#302,#303,#304,#305,#306,#307,#308,#309));
#63=EDGE_LOOP('',(#310,#311,#312,#313,#314,#315,#316,#317));
#64=EDGE_LOOP('',(#318));
#65=EDGE_LOOP('',(#319));
#66=EDGE_LOOP('',(#320));
#67=EDGE_LOOP('',(#321));
#68=EDGE_LOOP('',(#322,#323,#324,#325));
#69=EDGE_LOOP('',(#326,#327,#328,#329));
#70=EDGE_LOOP('',(#330,#331,#332,#333));
#71=EDGE_LOOP('',(#334,#335,#336,#337));
#72=EDGE_LOOP('',(#338,#339,#340,#341));
#73=EDGE_LOOP('',(#342,#343,#344,#345));
#74=EDGE_LOOP('',(#346,#347,#348,#349));
#75=EDGE_LOOP('',(#350,#351,#352,#353));
#76=EDGE_LOOP('',(#354,#355,#356,#357,#358,#359,#360,#361));
#77=EDGE_LOOP('',(#362));
#78=EDGE_LOOP('',(#363));
#79=EDGE_LOOP('',(#364));
#80=EDGE_LOOP('',(#365));
#81=EDGE_LOOP('',(#366,#367,#368,#369));
#82=EDGE_LOOP('',(#370,#371,#372,#373));
#83=EDGE_LOOP('',(#374,#375,#376,#377));
#84=EDGE_LOOP('',(#378,#379,#380,#381));
#85=EDGE_LOOP('',(#382,#383,#384,#385));
#86=EDGE_LOOP('',(#386,#387,#388,#389));
#87=EDGE_LOOP('',(#390,#391,#392,#393));
#88=EDGE_LOOP('',(#394,#395,#396,#397));
#89=EDGE_LOOP('',(#398,#399,#400,#401,#402,#403,#404,#405));
#90=LINE('',#639,#126);
#91=LINE('',#645,#127);
#92=LINE('',#651,#128);
#93=LINE('',#657,#129);
#94=LINE('',#662,#130);
#95=LINE('',#666,#131);
#96=LINE('',#670,#132);
#97=LINE('',#674,#133);
#98=LINE('',#678,#134);
#99=LINE('',#682,#135);
#100=LINE('',#686,#136);
#101=LINE('',#690,#137);
#102=LINE('',#694,#138);
#103=LINE('',#697,#139);
#104=LINE('',#700,#140);
#105=LINE('',#701,#141);
#106=LINE('',#705,#142);
#107=LINE('',#708,#143);
#108=LINE('',#709,#144);
#109=LINE('',#713,#145);
#110=LINE('',#716,#146);
#111=LINE('',#717,#147);
#112=LINE('',#721,#148);
#113=LINE('',#723,#149);
#114=LINE('',#727,#150);
#115=LINE('',#729,#151);
#116=LINE('',#730,#152);
#117=LINE('',#734,#153);
#118=LINE('',#737,#154);
#119=LINE('',#738,#155);
#120=LINE('',#742,#156);
#121=LINE('',#745,#157);
#122=LINE('',#746,#158);
#123=LINE('',#750,#159);
#124=LINE('',#753,#160);
#125=LINE('',#754,#161);
#126=VECTOR('',#508,1.25);
#127=VECTOR('',#515,1.25);
#128=VECTOR('',#522,1.25);
#129=VECTOR('',#529,1.25);
#130=VECTOR('',#534,10.);
#131=VECTOR('',#537,10.);
#132=VECTOR('',#540,10.);
#133=VECTOR('',#543,10.);
#134=VECTOR('',#546,10.);
#135=VECTOR('',#549,10.);
#136=VECTOR('',#552,10.);
#137=VECTOR('',#555,10.);
#138=VECTOR('',#560,10.);
#139=VECTOR('',#563,10.);
#140=VECTOR('',#566,10.);
#141=VECTOR('',#567,10.);
#142=VECTOR('',#572,10.);
#143=VECTOR('',#575,10.);
#144=VECTOR('',#576,10.);
#145=VECTOR('',#581,10.);
#146=VECTOR('',#584,10.);
#147=VECTOR('',#585,10.);
#148=VECTOR('',#590,10.);
#149=VECTOR('',#593,10.);
#150=VECTOR('',#598,10.);
#151=VECTOR('',#599,10.);
#152=VECTOR('',#600,10.);
#153=VECTOR('',#605,10.);
#154=VECTOR('',#608,10.);
#155=VECTOR('',#609,10.);
#156=VECTOR('',#614,10.);
#157=VECTOR('',#617,10.);
#158=VECTOR('',#618,10.);
#159=VECTOR('',#623,10.);
#160=VECTOR('',#626,10.);
#161=VECTOR('',#627,10.);
#162=CIRCLE('',#456,1.25);
#163=CIRCLE('',#457,1.25);
#164=CIRCLE('',#459,1.25);
#165=CIRCLE('',#460,1.25);
#166=CIRCLE('',#462,1.25);
#167=CIRCLE('',#463,1.25);
#168=CIRCLE('',#465,1.25);
#169=CIRCLE('',#466,1.25);
#170=CIRCLE('',#468,3.);
#171=CIRCLE('',#469,3.);
#172=CIRCLE('',#470,3.);
#173=CIRCLE('',#471,3.);
#174=CIRCLE('',#472,3.1);
#175=CIRCLE('',#473,3.1);
#176=CIRCLE('',#474,3.1);
#177=CIRCLE('',#475,3.1);
#178=CIRCLE('',#477,3.);
#179=CIRCLE('',#480,3.);
#180=CIRCLE('',#483,3.);
#181=CIRCLE('',#486,3.);
#182=CIRCLE('',#491,3.1);
#183=CIRCLE('',#494,3.1);
#184=CIRCLE('',#497,3.1);
#185=CIRCLE('',#500,3.1);
#186=VERTEX_POINT('',#636);
#187=VERTEX_POINT('',#638);
#188=VERTEX_POINT('',#642);
#189=VERTEX_POINT('',#644);
#190=VERTEX_POINT('',#648);
#191=VERTEX_POINT('',#650);
#192=VERTEX_POINT('',#654);
#193=VERTEX_POINT('',#656);
#194=VERTEX_POINT('',#660);
#195=VERTEX_POINT('',#661);
#196=VERTEX_POINT('',#663);
#197=VERTEX_POINT('',#665);
#198=VERTEX_POINT('',#667);
#199=VERTEX_POINT('',#669);
#200=VERTEX_POINT('',#671);
#201=VERTEX_POINT('',#673);
#202=VERTEX_POINT('',#676);
#203=VERTEX_POINT('',#677);
#204=VERTEX_POINT('',#679);
#205=VERTEX_POINT('',#681);
#206=VERTEX_POINT('',#683);
#207=VERTEX_POINT('',#685);
#208=VERTEX_POINT('',#687);
#209=VERTEX_POINT('',#689);
#210=VERTEX_POINT('',#693);
#211=VERTEX_POINT('',#695);
#212=VERTEX_POINT('',#699);
#213=VERTEX_POINT('',#703);
#214=VERTEX_POINT('',#707);
#215=VERTEX_POINT('',#711);
#216=VERTEX_POINT('',#715);
#217=VERTEX_POINT('',#719);
#218=VERTEX_POINT('',#726);
#219=VERTEX_POINT('',#728);
#220=VERTEX_POINT('',#732);
#221=VERTEX_POINT('',#736);
#222=VERTEX_POINT('',#740);
#223=VERTEX_POINT('',#744);
#224=VERTEX_POINT('',#748);
#225=VERTEX_POINT('',#752);
#226=EDGE_CURVE('',#186,#186,#162,.T.);
#227=EDGE_CURVE('',#186,#187,#90,.T.);
#228=EDGE_CURVE('',#187,#187,#163,.T.);
#229=EDGE_CURVE('',#188,#188,#164,.T.);
#230=EDGE_CURVE('',#188,#189,#91,.T.);
#231=EDGE_CURVE('',#189,#189,#165,.T.);
#232=EDGE_CURVE('',#190,#190,#166,.T.);
#233=EDGE_CURVE('',#190,#191,#92,.T.);
#234=EDGE_CURVE('',#191,#191,#167,.T.);
#235=EDGE_CURVE('',#192,#192,#168,.T.);
#236=EDGE_CURVE('',#192,#193,#93,.T.);
#237=EDGE_CURVE('',#193,#193,#169,.T.);
#238=EDGE_CURVE('',#194,#195,#94,.T.);
#239=EDGE_CURVE('',#196,#194,#170,.T.);
#240=EDGE_CURVE('',#197,#196,#95,.T.);
#241=EDGE_CURVE('',#198,#197,#171,.T.);
#242=EDGE_CURVE('',#199,#198,#96,.T.);
#243=EDGE_CURVE('',#200,#199,#172,.T.);
#244=EDGE_CURVE('',#201,#200,#97,.T.);
#245=EDGE_CURVE('',#195,#201,#173,.T.);
#246=EDGE_CURVE('',#202,#203,#98,.T.);
#247=EDGE_CURVE('',#204,#202,#174,.T.);
#248=EDGE_CURVE('',#205,#204,#99,.T.);
#249=EDGE_CURVE('',#206,#205,#175,.T.);
#250=EDGE_CURVE('',#207,#206,#100,.T.);
#251=EDGE_CURVE('',#208,#207,#176,.T.);
#252=EDGE_CURVE('',#209,#208,#101,.T.);
#253=EDGE_CURVE('',#203,#209,#177,.T.);
#254=EDGE_CURVE('',#194,#210,#102,.T.);
#255=EDGE_CURVE('',#211,#210,#178,.T.);
#256=EDGE_CURVE('',#196,#211,#103,.T.);
#257=EDGE_CURVE('',#212,#211,#104,.T.);
#258=EDGE_CURVE('',#197,#212,#105,.T.);
#259=EDGE_CURVE('',#213,#212,#179,.T.);
#260=EDGE_CURVE('',#198,#213,#106,.T.);
#261=EDGE_CURVE('',#214,#213,#107,.T.);
#262=EDGE_CURVE('',#199,#214,#108,.T.);
#263=EDGE_CURVE('',#215,#214,#180,.T.);
#264=EDGE_CURVE('',#200,#215,#109,.T.);
#265=EDGE_CURVE('',#216,#215,#110,.T.);
#266=EDGE_CURVE('',#201,#216,#111,.T.);
#267=EDGE_CURVE('',#217,#216,#181,.T.);
#268=EDGE_CURVE('',#195,#217,#112,.T.);
#269=EDGE_CURVE('',#210,#217,#113,.T.);
#270=EDGE_CURVE('',#203,#218,#114,.T.);
#271=EDGE_CURVE('',#219,#218,#115,.T.);
#272=EDGE_CURVE('',#202,#219,#116,.T.);
#273=EDGE_CURVE('',#220,#219,#182,.T.);
#274=EDGE_CURVE('',#204,#220,#117,.T.);
#275=EDGE_CURVE('',#221,#220,#118,.T.);
#276=EDGE_CURVE('',#205,#221,#119,.T.);
#277=EDGE_CURVE('',#222,#221,#183,.T.);
#278=EDGE_CURVE('',#206,#222,#120,.T.);
#279=EDGE_CURVE('',#223,#222,#121,.T.);
#280=EDGE_CURVE('',#207,#223,#122,.T.);
#281=EDGE_CURVE('',#224,#223,#184,.T.);
#282=EDGE_CURVE('',#208,#224,#123,.T.);
#283=EDGE_CURVE('',#225,#224,#124,.T.);
#284=EDGE_CURVE('',#209,#225,#125,.T.);
#285=EDGE_CURVE('',#218,#225,#185,.T.);
#286=ORIENTED_EDGE('',*,*,#226,.F.);
#287=ORIENTED_EDGE('',*,*,#227,.T.);
#288=ORIENTED_EDGE('',*,*,#228,.F.);
#289=ORIENTED_EDGE('',*,*,#227,.F.);
#290=ORIENTED_EDGE('',*,*,#229,.F.);
#291=ORIENTED_EDGE('',*,*,#230,.T.);
#292=ORIENTED_EDGE('',*,*,#231,.F.);
#293=ORIENTED_EDGE('',*,*,#230,.F.);
#294=ORIENTED_EDGE('',*,*,#232,.F.);
#295=ORIENTED_EDGE('',*,*,#233,.T.);
#296=ORIENTED_EDGE('',*,*,#234,.F.);
#297=ORIENTED_EDGE('',*,*,#233,.F.);
#298=ORIENTED_EDGE('',*,*,#235,.F.);
#299=ORIENTED_EDGE('',*,*,#236,.T.);
#300=ORIENTED_EDGE('',*,*,#237,.F.);
#301=ORIENTED_EDGE('',*,*,#236,.F.);
#302=ORIENTED_EDGE('',*,*,#238,.F.);
#303=ORIENTED_EDGE('',*,*,#239,.F.);
#304=ORIENTED_EDGE('',*,*,#240,.F.);
#305=ORIENTED_EDGE('',*,*,#241,.F.);
#306=ORIENTED_EDGE('',*,*,#242,.F.);
#307=ORIENTED_EDGE('',*,*,#243,.F.);
#308=ORIENTED_EDGE('',*,*,#244,.F.);
#309=ORIENTED_EDGE('',*,*,#245,.F.);
#310=ORIENTED_EDGE('',*,*,#246,.F.);
#311=ORIENTED_EDGE('',*,*,#247,.F.);
#312=ORIENTED_EDGE('',*,*,#248,.F.);
#313=ORIENTED_EDGE('',*,*,#249,.F.);
#314=ORIENTED_EDGE('',*,*,#250,.F.);
#315=ORIENTED_EDGE('',*,*,#251,.F.);
#316=ORIENTED_EDGE('',*,*,#252,.F.);
#317=ORIENTED_EDGE('',*,*,#253,.F.);
#318=ORIENTED_EDGE('',*,*,#237,.T.);
#319=ORIENTED_EDGE('',*,*,#234,.T.);
#320=ORIENTED_EDGE('',*,*,#231,.T.);
#321=ORIENTED_EDGE('',*,*,#228,.T.);
#322=ORIENTED_EDGE('',*,*,#239,.T.);
#323=ORIENTED_EDGE('',*,*,#254,.T.);
#324=ORIENTED_EDGE('',*,*,#255,.F.);
#325=ORIENTED_EDGE('',*,*,#256,.F.);
#326=ORIENTED_EDGE('',*,*,#240,.T.);
#327=ORIENTED_EDGE('',*,*,#256,.T.);
#328=ORIENTED_EDGE('',*,*,#257,.F.);
#329=ORIENTED_EDGE('',*,*,#258,.F.);
#330=ORIENTED_EDGE('',*,*,#241,.T.);
#331=ORIENTED_EDGE('',*,*,#258,.T.);
#332=ORIENTED_EDGE('',*,*,#259,.F.);
#333=ORIENTED_EDGE('',*,*,#260,.F.);
#334=ORIENTED_EDGE('',*,*,#242,.T.);
#335=ORIENTED_EDGE('',*,*,#260,.T.);
#336=ORIENTED_EDGE('',*,*,#261,.F.);
#337=ORIENTED_EDGE('',*,*,#262,.F.);
#338=ORIENTED_EDGE('',*,*,#243,.T.);
#339=ORIENTED_EDGE('',*,*,#262,.T.);
#340=ORIENTED_EDGE('',*,*,#263,.F.);
#341=ORIENTED_EDGE('',*,*,#264,.F.);
#342=ORIENTED_EDGE('',*,*,#244,.T.);
#343=ORIENTED_EDGE('',*,*,#264,.T.);
#344=ORIENTED_EDGE('',*,*,#265,.F.);
#345=ORIENTED_EDGE('',*,*,#266,.F.);
#346=ORIENTED_EDGE('',*,*,#245,.T.);
#347=ORIENTED_EDGE('',*,*,#266,.T.);
#348=ORIENTED_EDGE('',*,*,#267,.F.);
#349=ORIENTED_EDGE('',*,*,#268,.F.);
#350=ORIENTED_EDGE('',*,*,#238,.T.);
#351=ORIENTED_EDGE('',*,*,#268,.T.);
#352=ORIENTED_EDGE('',*,*,#269,.F.);
#353=ORIENTED_EDGE('',*,*,#254,.F.);
#354=ORIENTED_EDGE('',*,*,#269,.T.);
#355=ORIENTED_EDGE('',*,*,#267,.T.);
#356=ORIENTED_EDGE('',*,*,#265,.T.);
#357=ORIENTED_EDGE('',*,*,#263,.T.);
#358=ORIENTED_EDGE('',*,*,#261,.T.);
#359=ORIENTED_EDGE('',*,*,#259,.T.);
#360=ORIENTED_EDGE('',*,*,#257,.T.);
#361=ORIENTED_EDGE('',*,*,#255,.T.);
#362=ORIENTED_EDGE('',*,*,#226,.T.);
#363=ORIENTED_EDGE('',*,*,#229,.T.);
#364=ORIENTED_EDGE('',*,*,#232,.T.);
#365=ORIENTED_EDGE('',*,*,#235,.T.);
#366=ORIENTED_EDGE('',*,*,#246,.T.);
#367=ORIENTED_EDGE('',*,*,#270,.T.);
#368=ORIENTED_EDGE('',*,*,#271,.F.);
#369=ORIENTED_EDGE('',*,*,#272,.F.);
#370=ORIENTED_EDGE('',*,*,#247,.T.);
#371=ORIENTED_EDGE('',*,*,#272,.T.);
#372=ORIENTED_EDGE('',*,*,#273,.F.);
#373=ORIENTED_EDGE('',*,*,#274,.F.);
#374=ORIENTED_EDGE('',*,*,#248,.T.);
#375=ORIENTED_EDGE('',*,*,#274,.T.);
#376=ORIENTED_EDGE('',*,*,#275,.F.);
#377=ORIENTED_EDGE('',*,*,#276,.F.);
#378=ORIENTED_EDGE('',*,*,#249,.T.);
#379=ORIENTED_EDGE('',*,*,#276,.T.);
#380=ORIENTED_EDGE('',*,*,#277,.F.);
#381=ORIENTED_EDGE('',*,*,#278,.F.);
#382=ORIENTED_EDGE('',*,*,#250,.T.);
#383=ORIENTED_EDGE('',*,*,#278,.T.);
#384=ORIENTED_EDGE('',*,*,#279,.F.);
#385=ORIENTED_EDGE('',*,*,#280,.F.);
#386=ORIENTED_EDGE('',*,*,#251,.T.);
#387=ORIENTED_EDGE('',*,*,#280,.T.);
#388=ORIENTED_EDGE('',*,*,#281,.F.);
#389=ORIENTED_EDGE('',*,*,#282,.F.);
#390=ORIENTED_EDGE('',*,*,#252,.T.);
#391=ORIENTED_EDGE('',*,*,#282,.T.);
#392=ORIENTED_EDGE('',*,*,#283,.F.);
#393=ORIENTED_EDGE('',*,*,#284,.F.);
#394=ORIENTED_EDGE('',*,*,#253,.T.);
#395=ORIENTED_EDGE('',*,*,#284,.T.);
#396=ORIENTED_EDGE('',*,*,#285,.F.);
#397=ORIENTED_EDGE('',*,*,#270,.F.);
#398=ORIENTED_EDGE('',*,*,#285,.T.);
#399=ORIENTED_EDGE('',*,*,#283,.T.);
#400=ORIENTED_EDGE('',*,*,#281,.T.);
#401=ORIENTED_EDGE('',*,*,#279,.T.);
#402=ORIENTED_EDGE('',*,*,#277,.T.);
#403=ORIENTED_EDGE('',*,*,#275,.T.);
#404=ORIENTED_EDGE('',*,*,#273,.T.);
#405=ORIENTED_EDGE('',*,*,#271,.T.);
#406=CYLINDRICAL_SURFACE('',#455,1.25);
#407=CYLINDRICAL_SURFACE('',#458,1.25);
#408=CYLINDRICAL_SURFACE('',#461,1.25);
#409=CYLINDRICAL_SURFACE('',#464,1.25);
#410=CYLINDRICAL_SURFACE('',#476,3.);
#411=CYLINDRICAL_SURFACE('',#479,3.);
#412=CYLINDRICAL_SURFACE('',#482,3.);
#413=CYLINDRICAL_SURFACE('',#485,3.);
#414=CYLINDRICAL_SURFACE('',#490,3.1);
#415=CYLINDRICAL_SURFACE('',#493,3.1);
#416=CYLINDRICAL_SURFACE('',#496,3.1);
#417=CYLINDRICAL_SURFACE('',#499,3.1);
#418=ADVANCED_FACE('',(#35),#406,.F.);
#419=ADVANCED_FACE('',(#36),#407,.F.);
#420=ADVANCED_FACE('',(#37),#408,.F.);
#421=ADVANCED_FACE('',(#38),#409,.F.);
#422=ADVANCED_FACE('',(#39,#15,#16,#17,#18,#19),#24,.F.);
#423=ADVANCED_FACE('',(#40),#410,.T.);
#424=ADVANCED_FACE('',(#41),#25,.T.);
#425=ADVANCED_FACE('',(#42),#411,.T.);
#426=ADVANCED_FACE('',(#43),#26,.T.);
#427=ADVANCED_FACE('',(#44),#412,.T.);
#428=ADVANCED_FACE('',(#45),#27,.T.);
#429=ADVANCED_FACE('',(#46),#413,.T.);
#430=ADVANCED_FACE('',(#47),#28,.T.);
#431=ADVANCED_FACE('',(#48,#20,#21,#22,#23),#29,.T.);
#432=ADVANCED_FACE('',(#49),#30,.T.);
#433=ADVANCED_FACE('',(#50),#414,.F.);
#434=ADVANCED_FACE('',(#51),#31,.T.);
#435=ADVANCED_FACE('',(#52),#415,.F.);
#436=ADVANCED_FACE('',(#53),#32,.T.);
#437=ADVANCED_FACE('',(#54),#416,.F.);
#438=ADVANCED_FACE('',(#55),#33,.T.);
#439=ADVANCED_FACE('',(#56),#417,.F.);
#440=ADVANCED_FACE('',(#57),#34,.F.);
#441=CLOSED_SHELL('',(#418,#419,#420,#421,#422,#423,#424,#425,#426,#427,
#428,#429,#430,#431,#432,#433,#434,#435,#436,#437,#438,#439,#440));
#442=DERIVED_UNIT_ELEMENT(#444,1.);
#443=DERIVED_UNIT_ELEMENT(#763,-3.);
#444=(
MASS_UNIT()
NAMED_UNIT(*)
SI_UNIT(.KILO.,.GRAM.)
);
#445=DERIVED_UNIT((#442,#443));
#446=MEASURE_REPRESENTATION_ITEM('density measure',
POSITIVE_RATIO_MEASURE(7850.),#445);
#447=PROPERTY_DEFINITION_REPRESENTATION(#452,#449);
#448=PROPERTY_DEFINITION_REPRESENTATION(#453,#450);
#449=REPRESENTATION('material name',(#451),#760);
#450=REPRESENTATION('density',(#446),#760);
#451=DESCRIPTIVE_REPRESENTATION_ITEM('Steel','Steel');
#452=PROPERTY_DEFINITION('material property','material name',#770);
#453=PROPERTY_DEFINITION('material property','density of part',#770);
#454=AXIS2_PLACEMENT_3D('',#634,#502,#503);
#455=AXIS2_PLACEMENT_3D('',#635,#504,#505);
#456=AXIS2_PLACEMENT_3D('',#637,#506,#507);
#457=AXIS2_PLACEMENT_3D('',#640,#509,#510);
#458=AXIS2_PLACEMENT_3D('',#641,#511,#512);
#459=AXIS2_PLACEMENT_3D('',#643,#513,#514);
#460=AXIS2_PLACEMENT_3D('',#646,#516,#517);
#461=AXIS2_PLACEMENT_3D('',#647,#518,#519);
#462=AXIS2_PLACEMENT_3D('',#649,#520,#521);
#463=AXIS2_PLACEMENT_3D('',#652,#523,#524);
#464=AXIS2_PLACEMENT_3D('',#653,#525,#526);
#465=AXIS2_PLACEMENT_3D('',#655,#527,#528);
#466=AXIS2_PLACEMENT_3D('',#658,#530,#531);
#467=AXIS2_PLACEMENT_3D('',#659,#532,#533);
#468=AXIS2_PLACEMENT_3D('',#664,#535,#536);
#469=AXIS2_PLACEMENT_3D('',#668,#538,#539);
#470=AXIS2_PLACEMENT_3D('',#672,#541,#542);
#471=AXIS2_PLACEMENT_3D('',#675,#544,#545);
#472=AXIS2_PLACEMENT_3D('',#680,#547,#548);
#473=AXIS2_PLACEMENT_3D('',#684,#550,#551);
#474=AXIS2_PLACEMENT_3D('',#688,#553,#554);
#475=AXIS2_PLACEMENT_3D('',#691,#556,#557);
#476=AXIS2_PLACEMENT_3D('',#692,#558,#559);
#477=AXIS2_PLACEMENT_3D('',#696,#561,#562);
#478=AXIS2_PLACEMENT_3D('',#698,#564,#565);
#479=AXIS2_PLACEMENT_3D('',#702,#568,#569);
#480=AXIS2_PLACEMENT_3D('',#704,#570,#571);
#481=AXIS2_PLACEMENT_3D('',#706,#573,#574);
#482=AXIS2_PLACEMENT_3D('',#710,#577,#578);
#483=AXIS2_PLACEMENT_3D('',#712,#579,#580);
#484=AXIS2_PLACEMENT_3D('',#714,#582,#583);
#485=AXIS2_PLACEMENT_3D('',#718,#586,#587);
#486=AXIS2_PLACEMENT_3D('',#720,#588,#589);
#487=AXIS2_PLACEMENT_3D('',#722,#591,#592);
#488=AXIS2_PLACEMENT_3D('',#724,#594,#595);
#489=AXIS2_PLACEMENT_3D('',#725,#596,#597);
#490=AXIS2_PLACEMENT_3D('',#731,#601,#602);
#491=AXIS2_PLACEMENT_3D('',#733,#603,#604);
#492=AXIS2_PLACEMENT_3D('',#735,#606,#607);
#493=AXIS2_PLACEMENT_3D('',#739,#610,#611);
#494=AXIS2_PLACEMENT_3D('',#741,#612,#613);
#495=AXIS2_PLACEMENT_3D('',#743,#615,#616);
#496=AXIS2_PLACEMENT_3D('',#747,#619,#620);
#497=AXIS2_PLACEMENT_3D('',#749,#621,#622);
#498=AXIS2_PLACEMENT_3D('',#751,#624,#625);
#499=AXIS2_PLACEMENT_3D('',#755,#628,#629);
#500=AXIS2_PLACEMENT_3D('',#756,#630,#631);
#501=AXIS2_PLACEMENT_3D('',#757,#632,#633);
#502=DIRECTION('axis',(0.,0.,1.));
#503=DIRECTION('refdir',(1.,0.,0.));
#504=DIRECTION('center_axis',(0.,-1.,0.));
#505=DIRECTION('ref_axis',(0.,0.,1.));
#506=DIRECTION('center_axis',(0.,-1.,0.));
#507=DIRECTION('ref_axis',(0.,0.,1.));
#508=DIRECTION('',(0.,-1.,0.));
#509=DIRECTION('center_axis',(0.,1.,0.));
#510=DIRECTION('ref_axis',(0.,0.,1.));
#511=DIRECTION('center_axis',(0.,-1.,0.));
#512=DIRECTION('ref_axis',(0.,0.,1.));
#513=DIRECTION('center_axis',(0.,-1.,0.));
#514=DIRECTION('ref_axis',(0.,0.,1.));
#515=DIRECTION('',(0.,-1.,0.));
#516=DIRECTION('center_axis',(0.,1.,0.));
#517=DIRECTION('ref_axis',(0.,0.,1.));
#518=DIRECTION('center_axis',(0.,-1.,0.));
#519=DIRECTION('ref_axis',(0.,0.,1.));
#520=DIRECTION('center_axis',(0.,-1.,0.));
#521=DIRECTION('ref_axis',(0.,0.,1.));
#522=DIRECTION('',(0.,-1.,0.));
#523=DIRECTION('center_axis',(0.,1.,0.));
#524=DIRECTION('ref_axis',(0.,0.,1.));
#525=DIRECTION('center_axis',(0.,-1.,0.));
#526=DIRECTION('ref_axis',(0.,0.,1.));
#527=DIRECTION('center_axis',(0.,-1.,0.));
#528=DIRECTION('ref_axis',(0.,0.,1.));
#529=DIRECTION('',(0.,-1.,0.));
#530=DIRECTION('center_axis',(0.,1.,0.));
#531=DIRECTION('ref_axis',(0.,0.,1.));
#532=DIRECTION('center_axis',(0.,1.,0.));
#533=DIRECTION('ref_axis',(-1.,0.,0.));
#534=DIRECTION('',(0.,0.,-1.));
#535=DIRECTION('center_axis',(0.,1.,0.));
#536=DIRECTION('ref_axis',(-1.,0.,0.));
#537=DIRECTION('',(1.,0.,3.70074341541719E-17));
#538=DIRECTION('center_axis',(0.,1.,0.));
#539=DIRECTION('ref_axis',(-1.,0.,0.));
#540=DIRECTION('',(0.,0.,1.));
#541=DIRECTION('center_axis',(0.,1.,0.));
#542=DIRECTION('ref_axis',(-1.,0.,0.));
#543=DIRECTION('',(-1.,0.,-2.96059473233375E-16));
#544=DIRECTION('center_axis',(0.,1.,0.));
#545=DIRECTION('ref_axis',(-1.,0.,0.));
#546=DIRECTION('',(0.,0.,1.));
#547=DIRECTION('center_axis',(0.,1.,0.));
#548=DIRECTION('ref_axis',(-0.981090730693261,0.,-0.193548387096775));
#549=DIRECTION('',(1.,0.,2.27536919884004E-16));
#550=DIRECTION('center_axis',(0.,1.,0.));
#551=DIRECTION('ref_axis',(-0.193548387096776,0.,0.981090730693261));
#552=DIRECTION('',(0.,0.,-1.));
#553=DIRECTION('center_axis',(0.,1.,0.));
#554=DIRECTION('ref_axis',(0.999479573214817,0.,-0.0322580645161288));
#555=DIRECTION('',(-1.,0.,-1.43046185677851E-16));
#556=DIRECTION('center_axis',(0.,1.,0.));
#557=DIRECTION('ref_axis',(0.193548387096776,0.,-0.981090730693261));
#558=DIRECTION('center_axis',(0.,1.,0.));
#559=DIRECTION('ref_axis',(-1.,0.,0.));
#560=DIRECTION('',(0.,1.,0.));
#561=DIRECTION('center_axis',(0.,1.,0.));
#562=DIRECTION('ref_axis',(-1.,0.,0.));
#563=DIRECTION('',(0.,1.,0.));
#564=DIRECTION('center_axis',(-3.70074341541719E-17,0.,1.));
#565=DIRECTION('ref_axis',(1.,0.,3.70074341541719E-17));
#566=DIRECTION('',(1.,0.,3.70074341541719E-17));
#567=DIRECTION('',(0.,1.,0.));
#568=DIRECTION('center_axis',(0.,1.,0.));
#569=DIRECTION('ref_axis',(-1.,0.,0.));
#570=DIRECTION('center_axis',(0.,1.,0.));
#571=DIRECTION('ref_axis',(-1.,0.,0.));
#572=DIRECTION('',(0.,1.,0.));
#573=DIRECTION('center_axis',(-1.,0.,0.));
#574=DIRECTION('ref_axis',(0.,0.,1.));
#575=DIRECTION('',(0.,0.,1.));
#576=DIRECTION('',(0.,1.,0.));
#577=DIRECTION('center_axis',(0.,1.,0.));
#578=DIRECTION('ref_axis',(-1.,0.,0.));
#579=DIRECTION('center_axis',(0.,1.,0.));
#580=DIRECTION('ref_axis',(-1.,0.,0.));
#581=DIRECTION('',(0.,1.,0.));
#582=DIRECTION('center_axis',(2.96059473233375E-16,0.,-1.));
#583=DIRECTION('ref_axis',(-1.,0.,-2.96059473233375E-16));
#584=DIRECTION('',(-1.,0.,-2.96059473233375E-16));
#585=DIRECTION('',(0.,1.,0.));
#586=DIRECTION('center_axis',(0.,1.,0.));
#587=DIRECTION('ref_axis',(-1.,0.,0.));
#588=DIRECTION('center_axis',(0.,1.,0.));
#589=DIRECTION('ref_axis',(-1.,0.,0.));
#590=DIRECTION('',(0.,1.,0.));
#591=DIRECTION('center_axis',(1.,0.,0.));
#592=DIRECTION('ref_axis',(0.,0.,-1.));
#593=DIRECTION('',(0.,0.,-1.));
#594=DIRECTION('center_axis',(0.,1.,0.));
#595=DIRECTION('ref_axis',(-1.,0.,0.));
#596=DIRECTION('center_axis',(1.,0.,0.));
#597=DIRECTION('ref_axis',(0.,0.,1.));
#598=DIRECTION('',(0.,-1.,0.));
#599=DIRECTION('',(0.,0.,1.));
#600=DIRECTION('',(0.,-1.,0.));
#601=DIRECTION('center_axis',(0.,-1.,0.));
#602=DIRECTION('ref_axis',(-0.981090730693261,0.,-0.193548387096775));
#603=DIRECTION('center_axis',(0.,1.,0.));
#604=DIRECTION('ref_axis',(-0.981090730693261,0.,-0.193548387096775));
#605=DIRECTION('',(0.,-1.,0.));
#606=DIRECTION('center_axis',(2.27536919884004E-16,0.,-1.));
#607=DIRECTION('ref_axis',(1.,0.,2.27536919884004E-16));
#608=DIRECTION('',(1.,0.,2.27536919884004E-16));
#609=DIRECTION('',(0.,-1.,0.));
#610=DIRECTION('center_axis',(0.,-1.,0.));
#611=DIRECTION('ref_axis',(-0.193548387096776,0.,0.981090730693261));
#612=DIRECTION('center_axis',(0.,1.,0.));
#613=DIRECTION('ref_axis',(-0.193548387096776,0.,0.981090730693261));
#614=DIRECTION('',(0.,-1.,0.));
#615=DIRECTION('center_axis',(-1.,0.,0.));
#616=DIRECTION('ref_axis',(0.,0.,-1.));
#617=DIRECTION('',(0.,0.,-1.));
#618=DIRECTION('',(0.,-1.,0.));
#619=DIRECTION('center_axis',(0.,-1.,0.));
#620=DIRECTION('ref_axis',(0.999479573214817,0.,-0.0322580645161288));
#621=DIRECTION('center_axis',(0.,1.,0.));
#622=DIRECTION('ref_axis',(0.999479573214817,0.,-0.0322580645161288));
#623=DIRECTION('',(0.,-1.,0.));
#624=DIRECTION('center_axis',(-1.43046185677851E-16,0.,1.));
#625=DIRECTION('ref_axis',(-1.,0.,-1.43046185677851E-16));
#626=DIRECTION('',(-1.,0.,-1.43046185677851E-16));
#627=DIRECTION('',(0.,-1.,0.));
#628=DIRECTION('center_axis',(0.,-1.,0.));
#629=DIRECTION('ref_axis',(0.193548387096776,0.,-0.981090730693261));
#630=DIRECTION('center_axis',(0.,1.,0.));
#631=DIRECTION('ref_axis',(0.193548387096776,0.,-0.981090730693261));
#632=DIRECTION('center_axis',(0.,1.,0.));
#633=DIRECTION('ref_axis',(-1.,0.,0.));
#634=CARTESIAN_POINT('',(0.,0.,0.));
#635=CARTESIAN_POINT('Origin',(50.2000011175871,13.75,0.8));
#636=CARTESIAN_POINT('',(50.2000011175871,14.5,-0.45));
#637=CARTESIAN_POINT('Origin',(50.2000011175871,14.5,0.8));
#638=CARTESIAN_POINT('',(50.2000011175871,13.,-0.45));
#639=CARTESIAN_POINT('',(50.2000011175871,13.75,-0.45));
#640=CARTESIAN_POINT('Origin',(50.2000011175871,13.,0.8));
#641=CARTESIAN_POINT('Origin',(75.8000011175871,13.75,-22.4));
#642=CARTESIAN_POINT('',(75.8000011175871,14.5,-23.65));
#643=CARTESIAN_POINT('Origin',(75.8000011175871,14.5,-22.4));
#644=CARTESIAN_POINT('',(75.8000011175871,13.,-23.65));
#645=CARTESIAN_POINT('',(75.8000011175871,13.75,-23.65));
#646=CARTESIAN_POINT('Origin',(75.8000011175871,13.,-22.4));
#647=CARTESIAN_POINT('Origin',(75.8000011175871,13.75,0.8));
#648=CARTESIAN_POINT('',(75.8000011175871,14.5,-0.45));
#649=CARTESIAN_POINT('Origin',(75.8000011175871,14.5,0.8));
#650=CARTESIAN_POINT('',(75.8000011175871,13.,-0.45));
#651=CARTESIAN_POINT('',(75.8000011175871,13.75,-0.45));
#652=CARTESIAN_POINT('Origin',(75.8000011175871,13.,0.8));
#653=CARTESIAN_POINT('Origin',(50.2000011175871,13.75,-22.4));
#654=CARTESIAN_POINT('',(50.2000011175871,14.5,-23.65));
#655=CARTESIAN_POINT('Origin',(50.2000011175871,14.5,-22.4));
#656=CARTESIAN_POINT('',(50.2000011175871,13.,-23.65));
#657=CARTESIAN_POINT('',(50.2000011175871,13.75,-23.65));
#658=CARTESIAN_POINT('Origin',(50.2000011175871,13.,-22.4));
#659=CARTESIAN_POINT('Origin',(63.0000011175871,13.,-10.8));
#660=CARTESIAN_POINT('',(78.0000011175871,13.,2.83960780543711));
#661=CARTESIAN_POINT('',(78.0000011175871,13.,-24.4396078054371));
#662=CARTESIAN_POINT('',(78.0000011175871,13.,3.));
#663=CARTESIAN_POINT('',(77.8396089230242,13.,3.));
#664=CARTESIAN_POINT('Origin',(75.8000011175871,13.,0.8));
#665=CARTESIAN_POINT('',(48.16039331215,13.,3.));
#666=CARTESIAN_POINT('',(48.0000011175871,13.,3.));
#667=CARTESIAN_POINT('',(48.0000011175871,13.,2.83960780543711));
#668=CARTESIAN_POINT('Origin',(50.2000011175871,13.,0.8));
#669=CARTESIAN_POINT('',(48.0000011175871,13.,-24.4396078054371));
#670=CARTESIAN_POINT('',(48.0000011175871,13.,-24.6));
#671=CARTESIAN_POINT('',(48.16039331215,13.,-24.6));
#672=CARTESIAN_POINT('Origin',(50.2000011175871,13.,-22.4));
#673=CARTESIAN_POINT('',(77.8396089230242,13.,-24.6));
#674=CARTESIAN_POINT('',(78.0000011175871,13.,-24.6));
#675=CARTESIAN_POINT('Origin',(75.8000011175871,13.,-22.4));
#676=CARTESIAN_POINT('',(76.4000011175871,13.,-19.3586187348509));
#677=CARTESIAN_POINT('',(76.4000011175871,13.,-2.24138126514911));
#678=CARTESIAN_POINT('',(76.4000011175871,13.,-19.3586187348509));
#679=CARTESIAN_POINT('',(72.758619852438,13.,-23.));
#680=CARTESIAN_POINT('Origin',(75.8000011175871,13.,-22.4));
#681=CARTESIAN_POINT('',(53.2413823827362,13.,-23.));
#682=CARTESIAN_POINT('',(53.2413823827362,13.,-23.));
#683=CARTESIAN_POINT('',(49.6000011175871,13.,-19.3586187348509));
#684=CARTESIAN_POINT('Origin',(50.2000011175871,13.,-22.4));
#685=CARTESIAN_POINT('',(49.6000011175871,13.,-2.24138126514911));
#686=CARTESIAN_POINT('',(49.6000011175871,13.,-2.24138126514911));
#687=CARTESIAN_POINT('',(53.298387794553,13.,0.700000000000001));
#688=CARTESIAN_POINT('Origin',(50.2000011175871,13.,0.8));
#689=CARTESIAN_POINT('',(72.7016144406212,13.,0.700000000000004));
#690=CARTESIAN_POINT('',(72.7016144406212,13.,0.700000000000004));
#691=CARTESIAN_POINT('Origin',(75.8000011175871,13.,0.8));
#692=CARTESIAN_POINT('Origin',(75.8000011175871,13.,0.8));
#693=CARTESIAN_POINT('',(78.0000011175871,14.5,2.83960780543711));
#694=CARTESIAN_POINT('',(78.0000011175871,13.,2.83960780543711));
#695=CARTESIAN_POINT('',(77.8396089230242,14.5,3.));
#696=CARTESIAN_POINT('Origin',(75.8000011175871,14.5,0.8));
#697=CARTESIAN_POINT('',(77.8396089230242,13.,3.));
#698=CARTESIAN_POINT('Origin',(48.16039331215,13.,3.));
#699=CARTESIAN_POINT('',(48.16039331215,14.5,3.));
#700=CARTESIAN_POINT('',(48.0000011175871,14.5,3.));
#701=CARTESIAN_POINT('',(48.16039331215,13.,3.));
#702=CARTESIAN_POINT('Origin',(50.2000011175871,13.,0.8));
#703=CARTESIAN_POINT('',(48.0000011175871,14.5,2.83960780543711));
#704=CARTESIAN_POINT('Origin',(50.2000011175871,14.5,0.8));
#705=CARTESIAN_POINT('',(48.0000011175871,13.,2.83960780543711));
#706=CARTESIAN_POINT('Origin',(48.0000011175871,13.,-24.4396078054371));
#707=CARTESIAN_POINT('',(48.0000011175871,14.5,-24.4396078054371));
#708=CARTESIAN_POINT('',(48.0000011175871,14.5,-24.6));
#709=CARTESIAN_POINT('',(48.0000011175871,13.,-24.4396078054371));
#710=CARTESIAN_POINT('Origin',(50.2000011175871,13.,-22.4));
#711=CARTESIAN_POINT('',(48.16039331215,14.5,-24.6));
#712=CARTESIAN_POINT('Origin',(50.2000011175871,14.5,-22.4));
#713=CARTESIAN_POINT('',(48.16039331215,13.,-24.6));
#714=CARTESIAN_POINT('Origin',(77.8396089230242,13.,-24.6));
#715=CARTESIAN_POINT('',(77.8396089230242,14.5,-24.6));
#716=CARTESIAN_POINT('',(78.0000011175871,14.5,-24.6));
#717=CARTESIAN_POINT('',(77.8396089230242,13.,-24.6));
#718=CARTESIAN_POINT('Origin',(75.8000011175871,13.,-22.4));
#719=CARTESIAN_POINT('',(78.0000011175871,14.5,-24.4396078054371));
#720=CARTESIAN_POINT('Origin',(75.8000011175871,14.5,-22.4));
#721=CARTESIAN_POINT('',(78.0000011175871,13.,-24.4396078054371));
#722=CARTESIAN_POINT('Origin',(78.0000011175871,13.,2.83960780543711));
#723=CARTESIAN_POINT('',(78.0000011175871,14.5,3.));
#724=CARTESIAN_POINT('Origin',(63.0000011175871,14.5,-10.8));
#725=CARTESIAN_POINT('Origin',(76.4000011175871,13.,-19.3586187348509));
#726=CARTESIAN_POINT('',(76.4000011175871,12.,-2.24138126514911));
#727=CARTESIAN_POINT('',(76.4000011175871,13.,-2.24138126514911));
#728=CARTESIAN_POINT('',(76.4000011175871,12.,-19.3586187348509));
#729=CARTESIAN_POINT('',(76.4000011175871,12.,-19.3586187348509));
#730=CARTESIAN_POINT('',(76.4000011175871,13.,-19.3586187348509));
#731=CARTESIAN_POINT('Origin',(75.8000011175871,13.,-22.4));
#732=CARTESIAN_POINT('',(72.758619852438,12.,-23.));
#733=CARTESIAN_POINT('Origin',(75.8000011175871,12.,-22.4));
#734=CARTESIAN_POINT('',(72.758619852438,13.,-23.));
#735=CARTESIAN_POINT('Origin',(53.2413823827362,13.,-23.));
#736=CARTESIAN_POINT('',(53.2413823827362,12.,-23.));
#737=CARTESIAN_POINT('',(53.2413823827362,12.,-23.));
#738=CARTESIAN_POINT('',(53.2413823827362,13.,-23.));
#739=CARTESIAN_POINT('Origin',(50.2000011175871,13.,-22.4));
#740=CARTESIAN_POINT('',(49.6000011175871,12.,-19.3586187348509));
#741=CARTESIAN_POINT('Origin',(50.2000011175871,12.,-22.4));
#742=CARTESIAN_POINT('',(49.6000011175871,13.,-19.3586187348509));
#743=CARTESIAN_POINT('Origin',(49.6000011175871,13.,-2.24138126514911));
#744=CARTESIAN_POINT('',(49.6000011175871,12.,-2.24138126514911));
#745=CARTESIAN_POINT('',(49.6000011175871,12.,-2.24138126514911));
#746=CARTESIAN_POINT('',(49.6000011175871,13.,-2.24138126514911));
#747=CARTESIAN_POINT('Origin',(50.2000011175871,13.,0.8));
#748=CARTESIAN_POINT('',(53.298387794553,12.,0.700000000000001));
#749=CARTESIAN_POINT('Origin',(50.2000011175871,12.,0.8));
#750=CARTESIAN_POINT('',(53.298387794553,13.,0.700000000000001));
#751=CARTESIAN_POINT('Origin',(72.7016144406212,13.,0.700000000000004));
#752=CARTESIAN_POINT('',(72.7016144406212,12.,0.700000000000004));
#753=CARTESIAN_POINT('',(72.7016144406212,12.,0.700000000000004));
#754=CARTESIAN_POINT('',(72.7016144406212,13.,0.700000000000004));
#755=CARTESIAN_POINT('Origin',(75.8000011175871,13.,0.8));
#756=CARTESIAN_POINT('Origin',(75.8000011175871,12.,0.8));
#757=CARTESIAN_POINT('Origin',(63.0000011175871,12.,-11.15));
#758=UNCERTAINTY_MEASURE_WITH_UNIT(LENGTH_MEASURE(0.01),#762,
'DISTANCE_ACCURACY_VALUE',
'Maximum model space distance between geometric entities at asserted c
onnectivities');
#759=UNCERTAINTY_MEASURE_WITH_UNIT(LENGTH_MEASURE(0.01),#762,
'DISTANCE_ACCURACY_VALUE',
'Maximum model space distance between geometric entities at asserted c
onnectivities');
#760=(
GEOMETRIC_REPRESENTATION_CONTEXT(3)
GLOBAL_UNCERTAINTY_ASSIGNED_CONTEXT((#758))
GLOBAL_UNIT_ASSIGNED_CONTEXT((#762,#764,#765))
REPRESENTATION_CONTEXT('','3D')
);
#761=(
GEOMETRIC_REPRESENTATION_CONTEXT(3)
GLOBAL_UNCERTAINTY_ASSIGNED_CONTEXT((#759))
GLOBAL_UNIT_ASSIGNED_CONTEXT((#762,#764,#765))
REPRESENTATION_CONTEXT('','3D')
);
#762=(
LENGTH_UNIT()
NAMED_UNIT(*)
SI_UNIT(.MILLI.,.METRE.)
);
#763=(
LENGTH_UNIT()
NAMED_UNIT(*)
SI_UNIT($,.METRE.)
);
#764=(
NAMED_UNIT(*)
PLANE_ANGLE_UNIT()
SI_UNIT($,.RADIAN.)
);
#765=(
NAMED_UNIT(*)
SI_UNIT($,.STERADIAN.)
SOLID_ANGLE_UNIT()
);
#766=SHAPE_DEFINITION_REPRESENTATION(#767,#768);
#767=PRODUCT_DEFINITION_SHAPE('',$,#770);
#768=SHAPE_REPRESENTATION('',(#454),#760);
#769=PRODUCT_DEFINITION_CONTEXT('part definition',#774,'design');
#770=PRODUCT_DEFINITION('Enclosure Lid Unit 2',
'Enclosure Lid Unit 2 v8',#771,#769);
#771=PRODUCT_DEFINITION_FORMATION('',$,#776);
#772=PRODUCT_RELATED_PRODUCT_CATEGORY('Enclosure Lid Unit 2 v8',
'Enclosure Lid Unit 2 v8',(#776));
#773=APPLICATION_PROTOCOL_DEFINITION('international standard',
'automotive_design',2009,#774);
#774=APPLICATION_CONTEXT(
'Core Data for Automotive Mechanical Design Process');
#775=PRODUCT_CONTEXT('part definition',#774,'mechanical');
#776=PRODUCT('Enclosure Lid Unit 2','Enclosure Lid Unit 2 v8',$,(#775));
#777=PRESENTATION_STYLE_ASSIGNMENT((#779));
#778=PRESENTATION_STYLE_ASSIGNMENT((#780));
#779=SURFACE_STYLE_USAGE(.BOTH.,#781);
#780=SURFACE_STYLE_USAGE(.BOTH.,#782);
#781=SURFACE_SIDE_STYLE('',(#783));
#782=SURFACE_SIDE_STYLE('',(#784));
#783=SURFACE_STYLE_FILL_AREA(#785);
#784=SURFACE_STYLE_FILL_AREA(#786);
#785=FILL_AREA_STYLE('Steel - Satin',(#787));
#786=FILL_AREA_STYLE('ABS (White)',(#788));
#787=FILL_AREA_STYLE_COLOUR('Steel - Satin',#789);
#788=FILL_AREA_STYLE_COLOUR('ABS (White)',#790);
#789=COLOUR_RGB('Steel - Satin',0.627450980392157,0.627450980392157,0.627450980392157);
#790=COLOUR_RGB('ABS (White)',0.298039215686275,0.305882352941176,0.337254901960784);
ENDSEC;
END-ISO-10303-21;
