ISO-10303-21;
HEADER;
/* Generated by software containing ST-Developer
 * from STEP Tools, Inc. (www.steptools.com) 
 */

FILE_DESCRIPTION(
/* description */ (''),
/* implementation_level */ '2;1');

FILE_NAME(
/* name */ 'Enclosure Unit 2.step',
/* time_stamp */ '2026-05-23T13:53:46+02:00',
/* author */ (''),
/* organization */ (''),
/* preprocessor_version */ 'ST-DEVELOPER v20.1',
/* originating_system */ 'Autodesk Translation Framework v15.8.0.0',
/* authorisation */ '');

FILE_SCHEMA (('AUTOMOTIVE_DESIGN { 1 0 10303 214 3 1 1 }'));
ENDSEC;

DATA;
#10=MECHANICAL_DESIGN_GEOMETRIC_PRESENTATION_REPRESENTATION('',(#13),#1876);
#11=SHAPE_REPRESENTATION_RELATIONSHIP('SRR','None',#1883,#12);
#12=ADVANCED_BREP_SHAPE_REPRESENTATION('',(#14),#1875);
#13=STYLED_ITEM('',(#1893),#14);
#14=MANIFOLD_SOLID_BREP('Body1',#1110);
#15=FACE_BOUND('',#199,.T.);
#16=FACE_BOUND('',#200,.T.);
#17=FACE_BOUND('',#201,.T.);
#18=FACE_BOUND('',#202,.T.);
#19=FACE_BOUND('',#203,.T.);
#20=FACE_BOUND('',#206,.T.);
#21=FACE_BOUND('',#209,.T.);
#22=FACE_BOUND('',#212,.T.);
#23=CYLINDRICAL_SURFACE('',#1132,1.65);
#24=CYLINDRICAL_SURFACE('',#1136,1.65);
#25=CYLINDRICAL_SURFACE('',#1140,1.65);
#26=CYLINDRICAL_SURFACE('',#1144,1.65);
#27=CYLINDRICAL_SURFACE('',#1153,0.694822453073877);
#28=CYLINDRICAL_SURFACE('',#1157,0.694822453073875);
#29=CYLINDRICAL_SURFACE('',#1160,0.69482245307398);
#30=CYLINDRICAL_SURFACE('',#1164,0.694822453073881);
#31=CYLINDRICAL_SURFACE('',#1168,0.694822453073871);
#32=CYLINDRICAL_SURFACE('',#1172,0.694822453073881);
#33=CYLINDRICAL_SURFACE('',#1178,1.6);
#34=CYLINDRICAL_SURFACE('',#1182,1.6);
#35=CYLINDRICAL_SURFACE('',#1186,1.6);
#36=CYLINDRICAL_SURFACE('',#1190,1.6);
#37=CYLINDRICAL_SURFACE('',#1195,3.);
#38=CYLINDRICAL_SURFACE('',#1199,3.);
#39=CYLINDRICAL_SURFACE('',#1203,3.);
#40=CYLINDRICAL_SURFACE('',#1207,3.);
#41=CYLINDRICAL_SURFACE('',#1215,3.);
#42=CYLINDRICAL_SURFACE('',#1218,3.);
#43=CYLINDRICAL_SURFACE('',#1221,3.);
#44=CYLINDRICAL_SURFACE('',#1224,3.);
#45=CIRCLE('',#1129,1.65);
#46=CIRCLE('',#1130,1.65);
#47=CIRCLE('',#1133,1.65);
#48=CIRCLE('',#1134,1.65);
#49=CIRCLE('',#1137,1.65);
#50=CIRCLE('',#1138,1.65);
#51=CIRCLE('',#1141,1.65);
#52=CIRCLE('',#1142,1.65);
#53=CIRCLE('',#1145,1.65);
#54=CIRCLE('',#1146,1.65);
#55=CIRCLE('',#1154,0.694822453073877);
#56=CIRCLE('',#1155,0.694822453073877);
#57=CIRCLE('',#1158,0.694822453073875);
#58=CIRCLE('',#1159,0.694822453073875);
#59=CIRCLE('',#1161,0.69482245307398);
#60=CIRCLE('',#1162,0.69482245307398);
#61=CIRCLE('',#1165,0.694822453073881);
#62=CIRCLE('',#1166,0.694822453073881);
#63=CIRCLE('',#1169,0.694822453073871);
#64=CIRCLE('',#1170,0.694822453073871);
#65=CIRCLE('',#1173,0.694822453073881);
#66=CIRCLE('',#1174,0.694822453073881);
#67=CIRCLE('',#1179,1.6);
#68=CIRCLE('',#1180,1.6);
#69=CIRCLE('',#1183,1.6);
#70=CIRCLE('',#1184,1.6);
#71=CIRCLE('',#1187,1.6);
#72=CIRCLE('',#1188,1.6);
#73=CIRCLE('',#1191,1.6);
#74=CIRCLE('',#1192,1.6);
#75=CIRCLE('',#1196,3.);
#76=CIRCLE('',#1197,3.);
#77=CIRCLE('',#1200,3.);
#78=CIRCLE('',#1201,3.);
#79=CIRCLE('',#1204,3.);
#80=CIRCLE('',#1205,3.);
#81=CIRCLE('',#1208,3.);
#82=CIRCLE('',#1209,3.);
#83=CIRCLE('',#1211,3.);
#84=CIRCLE('',#1212,3.);
#85=CIRCLE('',#1213,3.);
#86=CIRCLE('',#1214,3.);
#87=CIRCLE('',#1216,3.);
#88=CIRCLE('',#1219,3.);
#89=CIRCLE('',#1222,3.);
#90=CIRCLE('',#1225,3.);
#91=FACE_OUTER_BOUND('',#150,.T.);
#92=FACE_OUTER_BOUND('',#151,.T.);
#93=FACE_OUTER_BOUND('',#152,.T.);
#94=FACE_OUTER_BOUND('',#153,.T.);
#95=FACE_OUTER_BOUND('',#154,.T.);
#96=FACE_OUTER_BOUND('',#155,.T.);
#97=FACE_OUTER_BOUND('',#156,.T.);
#98=FACE_OUTER_BOUND('',#157,.T.);
#99=FACE_OUTER_BOUND('',#158,.T.);
#100=FACE_OUTER_BOUND('',#159,.T.);
#101=FACE_OUTER_BOUND('',#160,.T.);
#102=FACE_OUTER_BOUND('',#161,.T.);
#103=FACE_OUTER_BOUND('',#162,.T.);
#104=FACE_OUTER_BOUND('',#163,.T.);
#105=FACE_OUTER_BOUND('',#164,.T.);
#106=FACE_OUTER_BOUND('',#165,.T.);
#107=FACE_OUTER_BOUND('',#166,.T.);
#108=FACE_OUTER_BOUND('',#167,.T.);
#109=FACE_OUTER_BOUND('',#168,.T.);
#110=FACE_OUTER_BOUND('',#169,.T.);
#111=FACE_OUTER_BOUND('',#170,.T.);
#112=FACE_OUTER_BOUND('',#171,.T.);
#113=FACE_OUTER_BOUND('',#172,.T.);
#114=FACE_OUTER_BOUND('',#173,.T.);
#115=FACE_OUTER_BOUND('',#174,.T.);
#116=FACE_OUTER_BOUND('',#175,.T.);
#117=FACE_OUTER_BOUND('',#176,.T.);
#118=FACE_OUTER_BOUND('',#177,.T.);
#119=FACE_OUTER_BOUND('',#178,.T.);
#120=FACE_OUTER_BOUND('',#179,.T.);
#121=FACE_OUTER_BOUND('',#180,.T.);
#122=FACE_OUTER_BOUND('',#181,.T.);
#123=FACE_OUTER_BOUND('',#182,.T.);
#124=FACE_OUTER_BOUND('',#183,.T.);
#125=FACE_OUTER_BOUND('',#184,.T.);
#126=FACE_OUTER_BOUND('',#185,.T.);
#127=FACE_OUTER_BOUND('',#186,.T.);
#128=FACE_OUTER_BOUND('',#187,.T.);
#129=FACE_OUTER_BOUND('',#188,.T.);
#130=FACE_OUTER_BOUND('',#189,.T.);
#131=FACE_OUTER_BOUND('',#190,.T.);
#132=FACE_OUTER_BOUND('',#191,.T.);
#133=FACE_OUTER_BOUND('',#192,.T.);
#134=FACE_OUTER_BOUND('',#193,.T.);
#135=FACE_OUTER_BOUND('',#194,.T.);
#136=FACE_OUTER_BOUND('',#195,.T.);
#137=FACE_OUTER_BOUND('',#196,.T.);
#138=FACE_OUTER_BOUND('',#197,.T.);
#139=FACE_OUTER_BOUND('',#198,.T.);
#140=FACE_OUTER_BOUND('',#204,.T.);
#141=FACE_OUTER_BOUND('',#205,.T.);
#142=FACE_OUTER_BOUND('',#207,.T.);
#143=FACE_OUTER_BOUND('',#208,.T.);
#144=FACE_OUTER_BOUND('',#210,.T.);
#145=FACE_OUTER_BOUND('',#211,.T.);
#146=FACE_OUTER_BOUND('',#213,.T.);
#147=FACE_OUTER_BOUND('',#214,.T.);
#148=FACE_OUTER_BOUND('',#215,.T.);
#149=FACE_OUTER_BOUND('',#216,.T.);
#150=EDGE_LOOP('',(#700,#701,#702,#703));
#151=EDGE_LOOP('',(#704,#705,#706,#707));
#152=EDGE_LOOP('',(#708,#709,#710,#711));
#153=EDGE_LOOP('',(#712,#713,#714,#715));
#154=EDGE_LOOP('',(#716,#717,#718,#719));
#155=EDGE_LOOP('',(#720,#721,#722,#723));
#156=EDGE_LOOP('',(#724,#725,#726,#727,#728));
#157=EDGE_LOOP('',(#729,#730,#731,#732));
#158=EDGE_LOOP('',(#733,#734,#735,#736,#737));
#159=EDGE_LOOP('',(#738,#739,#740,#741));
#160=EDGE_LOOP('',(#742,#743,#744,#745));
#161=EDGE_LOOP('',(#746,#747,#748,#749));
#162=EDGE_LOOP('',(#750,#751,#752,#753));
#163=EDGE_LOOP('',(#754,#755,#756,#757));
#164=EDGE_LOOP('',(#758,#759,#760,#761,#762,#763,#764,#765));
#165=EDGE_LOOP('',(#766,#767,#768,#769));
#166=EDGE_LOOP('',(#770,#771,#772,#773));
#167=EDGE_LOOP('',(#774,#775,#776,#777));
#168=EDGE_LOOP('',(#778,#779,#780,#781));
#169=EDGE_LOOP('',(#782,#783,#784,#785));
#170=EDGE_LOOP('',(#786,#787,#788,#789));
#171=EDGE_LOOP('',(#790,#791,#792,#793));
#172=EDGE_LOOP('',(#794,#795,#796,#797));
#173=EDGE_LOOP('',(#798,#799,#800,#801));
#174=EDGE_LOOP('',(#802,#803,#804,#805));
#175=EDGE_LOOP('',(#806,#807,#808,#809));
#176=EDGE_LOOP('',(#810,#811,#812,#813));
#177=EDGE_LOOP('',(#814,#815,#816,#817));
#178=EDGE_LOOP('',(#818,#819,#820,#821));
#179=EDGE_LOOP('',(#822,#823,#824,#825));
#180=EDGE_LOOP('',(#826,#827,#828,#829));
#181=EDGE_LOOP('',(#830,#831,#832,#833,#834,#835,#836,#837,#838,#839,#840,
#841,#842,#843,#844));
#182=EDGE_LOOP('',(#845,#846,#847,#848));
#183=EDGE_LOOP('',(#849));
#184=EDGE_LOOP('',(#850,#851,#852,#853));
#185=EDGE_LOOP('',(#854));
#186=EDGE_LOOP('',(#855,#856,#857,#858));
#187=EDGE_LOOP('',(#859));
#188=EDGE_LOOP('',(#860,#861,#862,#863));
#189=EDGE_LOOP('',(#864));
#190=EDGE_LOOP('',(#865,#866,#867,#868));
#191=EDGE_LOOP('',(#869,#870,#871,#872));
#192=EDGE_LOOP('',(#873,#874,#875,#876,#877,#878,#879,#880));
#193=EDGE_LOOP('',(#881,#882,#883,#884));
#194=EDGE_LOOP('',(#885,#886,#887,#888));
#195=EDGE_LOOP('',(#889,#890,#891,#892));
#196=EDGE_LOOP('',(#893,#894,#895,#896,#897,#898,#899,#900,#901,#902,#903,
#904));
#197=EDGE_LOOP('',(#905,#906,#907,#908));
#198=EDGE_LOOP('',(#909,#910,#911,#912,#913,#914,#915,#916));
#199=EDGE_LOOP('',(#917,#918,#919,#920,#921,#922,#923,#924));
#200=EDGE_LOOP('',(#925));
#201=EDGE_LOOP('',(#926));
#202=EDGE_LOOP('',(#927));
#203=EDGE_LOOP('',(#928));
#204=EDGE_LOOP('',(#929,#930,#931,#932));
#205=EDGE_LOOP('',(#933,#934,#935,#936));
#206=EDGE_LOOP('',(#937,#938,#939,#940));
#207=EDGE_LOOP('',(#941,#942,#943,#944));
#208=EDGE_LOOP('',(#945,#946,#947,#948));
#209=EDGE_LOOP('',(#949,#950,#951,#952,#953,#954,#955,#956));
#210=EDGE_LOOP('',(#957,#958,#959,#960));
#211=EDGE_LOOP('',(#961,#962,#963,#964));
#212=EDGE_LOOP('',(#965,#966,#967,#968));
#213=EDGE_LOOP('',(#969,#970,#971,#972));
#214=EDGE_LOOP('',(#973,#974,#975,#976));
#215=EDGE_LOOP('',(#977,#978,#979,#980,#981,#982,#983,#984,#985,#986,#987,
#988,#989,#990,#991,#992,#993,#994,#995,#996,#997,#998,#999,#1000,#1001,
#1002,#1003,#1004,#1005));
#216=EDGE_LOOP('',(#1006,#1007,#1008,#1009,#1010,#1011,#1012,#1013));
#217=LINE('',#1556,#328);
#218=LINE('',#1558,#329);
#219=LINE('',#1560,#330);
#220=LINE('',#1561,#331);
#221=LINE('',#1564,#332);
#222=LINE('',#1566,#333);
#223=LINE('',#1567,#334);
#224=LINE('',#1570,#335);
#225=LINE('',#1572,#336);
#226=LINE('',#1573,#337);
#227=LINE('',#1575,#338);
#228=LINE('',#1576,#339);
#229=LINE('',#1580,#340);
#230=LINE('',#1584,#341);
#231=LINE('',#1589,#342);
#232=LINE('',#1591,#343);
#233=LINE('',#1593,#344);
#234=LINE('',#1594,#345);
#235=LINE('',#1598,#346);
#236=LINE('',#1602,#347);
#237=LINE('',#1603,#348);
#238=LINE('',#1608,#349);
#239=LINE('',#1612,#350);
#240=LINE('',#1614,#351);
#241=LINE('',#1615,#352);
#242=LINE('',#1620,#353);
#243=LINE('',#1624,#354);
#244=LINE('',#1626,#355);
#245=LINE('',#1627,#356);
#246=LINE('',#1634,#357);
#247=LINE('',#1636,#358);
#248=LINE('',#1638,#359);
#249=LINE('',#1639,#360);
#250=LINE('',#1643,#361);
#251=LINE('',#1644,#362);
#252=LINE('',#1646,#363);
#253=LINE('',#1648,#364);
#254=LINE('',#1650,#365);
#255=LINE('',#1652,#366);
#256=LINE('',#1653,#367);
#257=LINE('',#1656,#368);
#258=LINE('',#1658,#369);
#259=LINE('',#1659,#370);
#260=LINE('',#1661,#371);
#261=LINE('',#1664,#372);
#262=LINE('',#1666,#373);
#263=LINE('',#1667,#374);
#264=LINE('',#1670,#375);
#265=LINE('',#1672,#376);
#266=LINE('',#1673,#377);
#267=LINE('',#1679,#378);
#268=LINE('',#1682,#379);
#269=LINE('',#1684,#380);
#270=LINE('',#1685,#381);
#271=LINE('',#1691,#382);
#272=LINE('',#1697,#383);
#273=LINE('',#1700,#384);
#274=LINE('',#1702,#385);
#275=LINE('',#1703,#386);
#276=LINE('',#1709,#387);
#277=LINE('',#1712,#388);
#278=LINE('',#1714,#389);
#279=LINE('',#1715,#390);
#280=LINE('',#1721,#391);
#281=LINE('',#1724,#392);
#282=LINE('',#1726,#393);
#283=LINE('',#1727,#394);
#284=LINE('',#1733,#395);
#285=LINE('',#1736,#396);
#286=LINE('',#1738,#397);
#287=LINE('',#1739,#398);
#288=LINE('',#1741,#399);
#289=LINE('',#1742,#400);
#290=LINE('',#1748,#401);
#291=LINE('',#1755,#402);
#292=LINE('',#1762,#403);
#293=LINE('',#1769,#404);
#294=LINE('',#1775,#405);
#295=LINE('',#1777,#406);
#296=LINE('',#1779,#407);
#297=LINE('',#1780,#408);
#298=LINE('',#1786,#409);
#299=LINE('',#1788,#410);
#300=LINE('',#1790,#411);
#301=LINE('',#1792,#412);
#302=LINE('',#1793,#413);
#303=LINE('',#1799,#414);
#304=LINE('',#1802,#415);
#305=LINE('',#1804,#416);
#306=LINE('',#1805,#417);
#307=LINE('',#1811,#418);
#308=LINE('',#1813,#419);
#309=LINE('',#1815,#420);
#310=LINE('',#1817,#421);
#311=LINE('',#1818,#422);
#312=LINE('',#1825,#423);
#313=LINE('',#1829,#424);
#314=LINE('',#1833,#425);
#315=LINE('',#1837,#426);
#316=LINE('',#1841,#427);
#317=LINE('',#1844,#428);
#318=LINE('',#1847,#429);
#319=LINE('',#1848,#430);
#320=LINE('',#1852,#431);
#321=LINE('',#1855,#432);
#322=LINE('',#1856,#433);
#323=LINE('',#1860,#434);
#324=LINE('',#1863,#435);
#325=LINE('',#1864,#436);
#326=LINE('',#1868,#437);
#327=LINE('',#1870,#438);
#328=VECTOR('',#1233,10.);
#329=VECTOR('',#1234,10.);
#330=VECTOR('',#1235,10.);
#331=VECTOR('',#1236,10.);
#332=VECTOR('',#1239,10.);
#333=VECTOR('',#1240,10.);
#334=VECTOR('',#1241,10.);
#335=VECTOR('',#1244,10.);
#336=VECTOR('',#1245,10.);
#337=VECTOR('',#1246,10.);
#338=VECTOR('',#1249,10.);
#339=VECTOR('',#1250,10.);
#340=VECTOR('',#1253,10.);
#341=VECTOR('',#1256,10.);
#342=VECTOR('',#1261,10.);
#343=VECTOR('',#1262,10.);
#344=VECTOR('',#1263,10.);
#345=VECTOR('',#1264,10.);
#346=VECTOR('',#1269,10.);
#347=VECTOR('',#1274,10.);
#348=VECTOR('',#1275,10.);
#349=VECTOR('',#1280,10.);
#350=VECTOR('',#1285,10.);
#351=VECTOR('',#1286,10.);
#352=VECTOR('',#1287,10.);
#353=VECTOR('',#1292,10.);
#354=VECTOR('',#1297,10.);
#355=VECTOR('',#1298,10.);
#356=VECTOR('',#1299,10.);
#357=VECTOR('',#1308,10.);
#358=VECTOR('',#1309,10.);
#359=VECTOR('',#1310,10.);
#360=VECTOR('',#1311,10.);
#361=VECTOR('',#1314,10.);
#362=VECTOR('',#1315,10.);
#363=VECTOR('',#1316,10.);
#364=VECTOR('',#1317,10.);
#365=VECTOR('',#1318,10.);
#366=VECTOR('',#1319,10.);
#367=VECTOR('',#1320,10.);
#368=VECTOR('',#1323,10.);
#369=VECTOR('',#1324,10.);
#370=VECTOR('',#1325,10.);
#371=VECTOR('',#1328,10.);
#372=VECTOR('',#1331,10.);
#373=VECTOR('',#1332,10.);
#374=VECTOR('',#1333,10.);
#375=VECTOR('',#1336,10.);
#376=VECTOR('',#1337,10.);
#377=VECTOR('',#1338,10.);
#378=VECTOR('',#1345,10.);
#379=VECTOR('',#1348,10.);
#380=VECTOR('',#1349,10.);
#381=VECTOR('',#1350,10.);
#382=VECTOR('',#1357,10.);
#383=VECTOR('',#1364,10.);
#384=VECTOR('',#1367,10.);
#385=VECTOR('',#1368,10.);
#386=VECTOR('',#1369,10.);
#387=VECTOR('',#1376,10.);
#388=VECTOR('',#1379,10.);
#389=VECTOR('',#1380,10.);
#390=VECTOR('',#1381,10.);
#391=VECTOR('',#1388,10.);
#392=VECTOR('',#1391,10.);
#393=VECTOR('',#1392,10.);
#394=VECTOR('',#1393,10.);
#395=VECTOR('',#1400,10.);
#396=VECTOR('',#1403,10.);
#397=VECTOR('',#1404,10.);
#398=VECTOR('',#1405,10.);
#399=VECTOR('',#1408,10.);
#400=VECTOR('',#1409,10.);
#401=VECTOR('',#1416,1.6);
#402=VECTOR('',#1425,1.6);
#403=VECTOR('',#1434,1.6);
#404=VECTOR('',#1443,1.6);
#405=VECTOR('',#1450,10.);
#406=VECTOR('',#1451,10.);
#407=VECTOR('',#1452,10.);
#408=VECTOR('',#1453,10.);
#409=VECTOR('',#1460,10.);
#410=VECTOR('',#1463,10.);
#411=VECTOR('',#1464,10.);
#412=VECTOR('',#1465,10.);
#413=VECTOR('',#1466,10.);
#414=VECTOR('',#1473,10.);
#415=VECTOR('',#1476,10.);
#416=VECTOR('',#1477,10.);
#417=VECTOR('',#1478,10.);
#418=VECTOR('',#1485,10.);
#419=VECTOR('',#1488,10.);
#420=VECTOR('',#1489,10.);
#421=VECTOR('',#1490,10.);
#422=VECTOR('',#1491,10.);
#423=VECTOR('',#1500,10.);
#424=VECTOR('',#1503,10.);
#425=VECTOR('',#1506,10.);
#426=VECTOR('',#1509,10.);
#427=VECTOR('',#1514,10.);
#428=VECTOR('',#1517,10.);
#429=VECTOR('',#1520,10.);
#430=VECTOR('',#1521,10.);
#431=VECTOR('',#1526,10.);
#432=VECTOR('',#1529,10.);
#433=VECTOR('',#1530,10.);
#434=VECTOR('',#1535,10.);
#435=VECTOR('',#1538,10.);
#436=VECTOR('',#1539,10.);
#437=VECTOR('',#1544,10.);
#438=VECTOR('',#1547,10.);
#439=VERTEX_POINT('',#1554);
#440=VERTEX_POINT('',#1555);
#441=VERTEX_POINT('',#1557);
#442=VERTEX_POINT('',#1559);
#443=VERTEX_POINT('',#1563);
#444=VERTEX_POINT('',#1565);
#445=VERTEX_POINT('',#1569);
#446=VERTEX_POINT('',#1571);
#447=VERTEX_POINT('',#1578);
#448=VERTEX_POINT('',#1579);
#449=VERTEX_POINT('',#1581);
#450=VERTEX_POINT('',#1583);
#451=VERTEX_POINT('',#1587);
#452=VERTEX_POINT('',#1588);
#453=VERTEX_POINT('',#1590);
#454=VERTEX_POINT('',#1592);
#455=VERTEX_POINT('',#1596);
#456=VERTEX_POINT('',#1601);
#457=VERTEX_POINT('',#1605);
#458=VERTEX_POINT('',#1607);
#459=VERTEX_POINT('',#1611);
#460=VERTEX_POINT('',#1613);
#461=VERTEX_POINT('',#1617);
#462=VERTEX_POINT('',#1619);
#463=VERTEX_POINT('',#1623);
#464=VERTEX_POINT('',#1625);
#465=VERTEX_POINT('',#1632);
#466=VERTEX_POINT('',#1633);
#467=VERTEX_POINT('',#1635);
#468=VERTEX_POINT('',#1637);
#469=VERTEX_POINT('',#1641);
#470=VERTEX_POINT('',#1642);
#471=VERTEX_POINT('',#1645);
#472=VERTEX_POINT('',#1647);
#473=VERTEX_POINT('',#1649);
#474=VERTEX_POINT('',#1651);
#475=VERTEX_POINT('',#1655);
#476=VERTEX_POINT('',#1657);
#477=VERTEX_POINT('',#1663);
#478=VERTEX_POINT('',#1665);
#479=VERTEX_POINT('',#1669);
#480=VERTEX_POINT('',#1671);
#481=VERTEX_POINT('',#1675);
#482=VERTEX_POINT('',#1677);
#483=VERTEX_POINT('',#1681);
#484=VERTEX_POINT('',#1683);
#485=VERTEX_POINT('',#1687);
#486=VERTEX_POINT('',#1689);
#487=VERTEX_POINT('',#1693);
#488=VERTEX_POINT('',#1695);
#489=VERTEX_POINT('',#1699);
#490=VERTEX_POINT('',#1701);
#491=VERTEX_POINT('',#1705);
#492=VERTEX_POINT('',#1707);
#493=VERTEX_POINT('',#1711);
#494=VERTEX_POINT('',#1713);
#495=VERTEX_POINT('',#1717);
#496=VERTEX_POINT('',#1719);
#497=VERTEX_POINT('',#1723);
#498=VERTEX_POINT('',#1725);
#499=VERTEX_POINT('',#1729);
#500=VERTEX_POINT('',#1731);
#501=VERTEX_POINT('',#1735);
#502=VERTEX_POINT('',#1737);
#503=VERTEX_POINT('',#1745);
#504=VERTEX_POINT('',#1747);
#505=VERTEX_POINT('',#1752);
#506=VERTEX_POINT('',#1754);
#507=VERTEX_POINT('',#1759);
#508=VERTEX_POINT('',#1761);
#509=VERTEX_POINT('',#1766);
#510=VERTEX_POINT('',#1768);
#511=VERTEX_POINT('',#1773);
#512=VERTEX_POINT('',#1774);
#513=VERTEX_POINT('',#1776);
#514=VERTEX_POINT('',#1778);
#515=VERTEX_POINT('',#1782);
#516=VERTEX_POINT('',#1784);
#517=VERTEX_POINT('',#1789);
#518=VERTEX_POINT('',#1791);
#519=VERTEX_POINT('',#1795);
#520=VERTEX_POINT('',#1797);
#521=VERTEX_POINT('',#1801);
#522=VERTEX_POINT('',#1803);
#523=VERTEX_POINT('',#1807);
#524=VERTEX_POINT('',#1809);
#525=VERTEX_POINT('',#1814);
#526=VERTEX_POINT('',#1816);
#527=VERTEX_POINT('',#1823);
#528=VERTEX_POINT('',#1824);
#529=VERTEX_POINT('',#1826);
#530=VERTEX_POINT('',#1828);
#531=VERTEX_POINT('',#1830);
#532=VERTEX_POINT('',#1832);
#533=VERTEX_POINT('',#1834);
#534=VERTEX_POINT('',#1836);
#535=VERTEX_POINT('',#1840);
#536=VERTEX_POINT('',#1842);
#537=VERTEX_POINT('',#1846);
#538=VERTEX_POINT('',#1850);
#539=VERTEX_POINT('',#1854);
#540=VERTEX_POINT('',#1858);
#541=VERTEX_POINT('',#1862);
#542=VERTEX_POINT('',#1866);
#543=EDGE_CURVE('',#439,#440,#217,.T.);
#544=EDGE_CURVE('',#441,#439,#218,.T.);
#545=EDGE_CURVE('',#442,#441,#219,.T.);
#546=EDGE_CURVE('',#442,#440,#220,.T.);
#547=EDGE_CURVE('',#440,#443,#221,.T.);
#548=EDGE_CURVE('',#444,#442,#222,.T.);
#549=EDGE_CURVE('',#444,#443,#223,.T.);
#550=EDGE_CURVE('',#443,#445,#224,.T.);
#551=EDGE_CURVE('',#446,#444,#225,.T.);
#552=EDGE_CURVE('',#446,#445,#226,.T.);
#553=EDGE_CURVE('',#445,#439,#227,.T.);
#554=EDGE_CURVE('',#441,#446,#228,.T.);
#555=EDGE_CURVE('',#447,#448,#229,.T.);
#556=EDGE_CURVE('',#449,#447,#45,.T.);
#557=EDGE_CURVE('',#450,#449,#230,.T.);
#558=EDGE_CURVE('',#448,#450,#46,.T.);
#559=EDGE_CURVE('',#451,#452,#231,.T.);
#560=EDGE_CURVE('',#451,#453,#232,.T.);
#561=EDGE_CURVE('',#454,#453,#233,.T.);
#562=EDGE_CURVE('',#452,#454,#234,.T.);
#563=EDGE_CURVE('',#455,#451,#47,.T.);
#564=EDGE_CURVE('',#455,#449,#235,.T.);
#565=EDGE_CURVE('',#453,#447,#48,.T.);
#566=EDGE_CURVE('',#456,#455,#236,.T.);
#567=EDGE_CURVE('',#456,#450,#237,.T.);
#568=EDGE_CURVE('',#457,#456,#49,.T.);
#569=EDGE_CURVE('',#457,#458,#238,.T.);
#570=EDGE_CURVE('',#448,#458,#50,.T.);
#571=EDGE_CURVE('',#459,#457,#239,.T.);
#572=EDGE_CURVE('',#459,#460,#240,.T.);
#573=EDGE_CURVE('',#458,#460,#241,.T.);
#574=EDGE_CURVE('',#461,#459,#51,.T.);
#575=EDGE_CURVE('',#461,#462,#242,.T.);
#576=EDGE_CURVE('',#460,#462,#52,.T.);
#577=EDGE_CURVE('',#463,#461,#243,.T.);
#578=EDGE_CURVE('',#463,#464,#244,.T.);
#579=EDGE_CURVE('',#462,#464,#245,.T.);
#580=EDGE_CURVE('',#452,#463,#53,.T.);
#581=EDGE_CURVE('',#464,#454,#54,.T.);
#582=EDGE_CURVE('',#465,#466,#246,.T.);
#583=EDGE_CURVE('',#467,#465,#247,.T.);
#584=EDGE_CURVE('',#468,#467,#248,.T.);
#585=EDGE_CURVE('',#466,#468,#249,.T.);
#586=EDGE_CURVE('',#469,#470,#250,.T.);
#587=EDGE_CURVE('',#466,#469,#251,.T.);
#588=EDGE_CURVE('',#471,#468,#252,.T.);
#589=EDGE_CURVE('',#472,#471,#253,.T.);
#590=EDGE_CURVE('',#473,#472,#254,.T.);
#591=EDGE_CURVE('',#473,#474,#255,.T.);
#592=EDGE_CURVE('',#470,#474,#256,.T.);
#593=EDGE_CURVE('',#472,#475,#257,.T.);
#594=EDGE_CURVE('',#476,#471,#258,.T.);
#595=EDGE_CURVE('',#475,#476,#259,.T.);
#596=EDGE_CURVE('',#476,#467,#260,.T.);
#597=EDGE_CURVE('',#477,#473,#261,.T.);
#598=EDGE_CURVE('',#477,#478,#262,.T.);
#599=EDGE_CURVE('',#474,#478,#263,.T.);
#600=EDGE_CURVE('',#469,#479,#264,.T.);
#601=EDGE_CURVE('',#480,#470,#265,.T.);
#602=EDGE_CURVE('',#479,#480,#266,.T.);
#603=EDGE_CURVE('',#479,#481,#55,.T.);
#604=EDGE_CURVE('',#482,#480,#56,.T.);
#605=EDGE_CURVE('',#481,#482,#267,.T.);
#606=EDGE_CURVE('',#481,#483,#268,.T.);
#607=EDGE_CURVE('',#484,#482,#269,.T.);
#608=EDGE_CURVE('',#483,#484,#270,.T.);
#609=EDGE_CURVE('',#483,#485,#57,.T.);
#610=EDGE_CURVE('',#486,#484,#58,.T.);
#611=EDGE_CURVE('',#485,#486,#271,.T.);
#612=EDGE_CURVE('',#485,#487,#59,.T.);
#613=EDGE_CURVE('',#488,#486,#60,.T.);
#614=EDGE_CURVE('',#487,#488,#272,.T.);
#615=EDGE_CURVE('',#487,#489,#273,.T.);
#616=EDGE_CURVE('',#490,#488,#274,.T.);
#617=EDGE_CURVE('',#489,#490,#275,.T.);
#618=EDGE_CURVE('',#489,#491,#61,.T.);
#619=EDGE_CURVE('',#492,#490,#62,.T.);
#620=EDGE_CURVE('',#491,#492,#276,.T.);
#621=EDGE_CURVE('',#491,#493,#277,.T.);
#622=EDGE_CURVE('',#494,#492,#278,.T.);
#623=EDGE_CURVE('',#493,#494,#279,.T.);
#624=EDGE_CURVE('',#493,#495,#63,.T.);
#625=EDGE_CURVE('',#496,#494,#64,.T.);
#626=EDGE_CURVE('',#495,#496,#280,.T.);
#627=EDGE_CURVE('',#495,#497,#281,.T.);
#628=EDGE_CURVE('',#498,#496,#282,.T.);
#629=EDGE_CURVE('',#497,#498,#283,.T.);
#630=EDGE_CURVE('',#497,#499,#65,.T.);
#631=EDGE_CURVE('',#500,#498,#66,.T.);
#632=EDGE_CURVE('',#499,#500,#284,.T.);
#633=EDGE_CURVE('',#499,#501,#285,.T.);
#634=EDGE_CURVE('',#502,#500,#286,.T.);
#635=EDGE_CURVE('',#501,#502,#287,.T.);
#636=EDGE_CURVE('',#501,#477,#288,.T.);
#637=EDGE_CURVE('',#478,#502,#289,.T.);
#638=EDGE_CURVE('',#503,#503,#67,.T.);
#639=EDGE_CURVE('',#503,#504,#290,.T.);
#640=EDGE_CURVE('',#504,#504,#68,.T.);
#641=EDGE_CURVE('',#505,#505,#69,.T.);
#642=EDGE_CURVE('',#505,#506,#291,.T.);
#643=EDGE_CURVE('',#506,#506,#70,.T.);
#644=EDGE_CURVE('',#507,#507,#71,.T.);
#645=EDGE_CURVE('',#507,#508,#292,.T.);
#646=EDGE_CURVE('',#508,#508,#72,.T.);
#647=EDGE_CURVE('',#509,#509,#73,.T.);
#648=EDGE_CURVE('',#509,#510,#293,.T.);
#649=EDGE_CURVE('',#510,#510,#74,.T.);
#650=EDGE_CURVE('',#511,#512,#294,.T.);
#651=EDGE_CURVE('',#511,#513,#295,.T.);
#652=EDGE_CURVE('',#514,#513,#296,.T.);
#653=EDGE_CURVE('',#512,#514,#297,.T.);
#654=EDGE_CURVE('',#512,#515,#75,.T.);
#655=EDGE_CURVE('',#516,#514,#76,.T.);
#656=EDGE_CURVE('',#515,#516,#298,.T.);
#657=EDGE_CURVE('',#515,#465,#299,.T.);
#658=EDGE_CURVE('',#517,#516,#300,.T.);
#659=EDGE_CURVE('',#518,#517,#301,.T.);
#660=EDGE_CURVE('',#475,#518,#302,.T.);
#661=EDGE_CURVE('',#518,#519,#77,.T.);
#662=EDGE_CURVE('',#520,#517,#78,.T.);
#663=EDGE_CURVE('',#519,#520,#303,.T.);
#664=EDGE_CURVE('',#519,#521,#304,.T.);
#665=EDGE_CURVE('',#522,#520,#305,.T.);
#666=EDGE_CURVE('',#521,#522,#306,.T.);
#667=EDGE_CURVE('',#521,#523,#79,.T.);
#668=EDGE_CURVE('',#524,#522,#80,.T.);
#669=EDGE_CURVE('',#523,#524,#307,.T.);
#670=EDGE_CURVE('',#523,#447,#308,.T.);
#671=EDGE_CURVE('',#525,#524,#309,.T.);
#672=EDGE_CURVE('',#526,#525,#310,.T.);
#673=EDGE_CURVE('',#448,#526,#311,.T.);
#674=EDGE_CURVE('',#526,#511,#81,.T.);
#675=EDGE_CURVE('',#513,#525,#82,.T.);
#676=EDGE_CURVE('',#527,#528,#312,.T.);
#677=EDGE_CURVE('',#528,#529,#83,.T.);
#678=EDGE_CURVE('',#529,#530,#313,.T.);
#679=EDGE_CURVE('',#530,#531,#84,.T.);
#680=EDGE_CURVE('',#531,#532,#314,.T.);
#681=EDGE_CURVE('',#532,#533,#85,.T.);
#682=EDGE_CURVE('',#533,#534,#315,.T.);
#683=EDGE_CURVE('',#534,#527,#86,.T.);
#684=EDGE_CURVE('',#535,#528,#316,.T.);
#685=EDGE_CURVE('',#536,#535,#87,.T.);
#686=EDGE_CURVE('',#536,#529,#317,.T.);
#687=EDGE_CURVE('',#537,#536,#318,.T.);
#688=EDGE_CURVE('',#537,#530,#319,.T.);
#689=EDGE_CURVE('',#538,#537,#88,.T.);
#690=EDGE_CURVE('',#538,#531,#320,.T.);
#691=EDGE_CURVE('',#539,#538,#321,.T.);
#692=EDGE_CURVE('',#539,#532,#322,.T.);
#693=EDGE_CURVE('',#540,#539,#89,.T.);
#694=EDGE_CURVE('',#540,#533,#323,.T.);
#695=EDGE_CURVE('',#541,#540,#324,.T.);
#696=EDGE_CURVE('',#541,#534,#325,.T.);
#697=EDGE_CURVE('',#542,#541,#90,.T.);
#698=EDGE_CURVE('',#542,#527,#326,.T.);
#699=EDGE_CURVE('',#535,#542,#327,.T.);
#700=ORIENTED_EDGE('',*,*,#543,.F.);
#701=ORIENTED_EDGE('',*,*,#544,.F.);
#702=ORIENTED_EDGE('',*,*,#545,.F.);
#703=ORIENTED_EDGE('',*,*,#546,.T.);
#704=ORIENTED_EDGE('',*,*,#547,.F.);
#705=ORIENTED_EDGE('',*,*,#546,.F.);
#706=ORIENTED_EDGE('',*,*,#548,.F.);
#707=ORIENTED_EDGE('',*,*,#549,.T.);
#708=ORIENTED_EDGE('',*,*,#550,.F.);
#709=ORIENTED_EDGE('',*,*,#549,.F.);
#710=ORIENTED_EDGE('',*,*,#551,.F.);
#711=ORIENTED_EDGE('',*,*,#552,.T.);
#712=ORIENTED_EDGE('',*,*,#553,.F.);
#713=ORIENTED_EDGE('',*,*,#552,.F.);
#714=ORIENTED_EDGE('',*,*,#554,.F.);
#715=ORIENTED_EDGE('',*,*,#544,.T.);
#716=ORIENTED_EDGE('',*,*,#555,.F.);
#717=ORIENTED_EDGE('',*,*,#556,.F.);
#718=ORIENTED_EDGE('',*,*,#557,.F.);
#719=ORIENTED_EDGE('',*,*,#558,.F.);
#720=ORIENTED_EDGE('',*,*,#559,.F.);
#721=ORIENTED_EDGE('',*,*,#560,.T.);
#722=ORIENTED_EDGE('',*,*,#561,.F.);
#723=ORIENTED_EDGE('',*,*,#562,.F.);
#724=ORIENTED_EDGE('',*,*,#563,.F.);
#725=ORIENTED_EDGE('',*,*,#564,.T.);
#726=ORIENTED_EDGE('',*,*,#556,.T.);
#727=ORIENTED_EDGE('',*,*,#565,.F.);
#728=ORIENTED_EDGE('',*,*,#560,.F.);
#729=ORIENTED_EDGE('',*,*,#566,.F.);
#730=ORIENTED_EDGE('',*,*,#567,.T.);
#731=ORIENTED_EDGE('',*,*,#557,.T.);
#732=ORIENTED_EDGE('',*,*,#564,.F.);
#733=ORIENTED_EDGE('',*,*,#568,.F.);
#734=ORIENTED_EDGE('',*,*,#569,.T.);
#735=ORIENTED_EDGE('',*,*,#570,.F.);
#736=ORIENTED_EDGE('',*,*,#558,.T.);
#737=ORIENTED_EDGE('',*,*,#567,.F.);
#738=ORIENTED_EDGE('',*,*,#571,.F.);
#739=ORIENTED_EDGE('',*,*,#572,.T.);
#740=ORIENTED_EDGE('',*,*,#573,.F.);
#741=ORIENTED_EDGE('',*,*,#569,.F.);
#742=ORIENTED_EDGE('',*,*,#574,.F.);
#743=ORIENTED_EDGE('',*,*,#575,.T.);
#744=ORIENTED_EDGE('',*,*,#576,.F.);
#745=ORIENTED_EDGE('',*,*,#572,.F.);
#746=ORIENTED_EDGE('',*,*,#577,.F.);
#747=ORIENTED_EDGE('',*,*,#578,.T.);
#748=ORIENTED_EDGE('',*,*,#579,.F.);
#749=ORIENTED_EDGE('',*,*,#575,.F.);
#750=ORIENTED_EDGE('',*,*,#580,.F.);
#751=ORIENTED_EDGE('',*,*,#562,.T.);
#752=ORIENTED_EDGE('',*,*,#581,.F.);
#753=ORIENTED_EDGE('',*,*,#578,.F.);
#754=ORIENTED_EDGE('',*,*,#582,.F.);
#755=ORIENTED_EDGE('',*,*,#583,.F.);
#756=ORIENTED_EDGE('',*,*,#584,.F.);
#757=ORIENTED_EDGE('',*,*,#585,.F.);
#758=ORIENTED_EDGE('',*,*,#586,.F.);
#759=ORIENTED_EDGE('',*,*,#587,.F.);
#760=ORIENTED_EDGE('',*,*,#585,.T.);
#761=ORIENTED_EDGE('',*,*,#588,.F.);
#762=ORIENTED_EDGE('',*,*,#589,.F.);
#763=ORIENTED_EDGE('',*,*,#590,.F.);
#764=ORIENTED_EDGE('',*,*,#591,.T.);
#765=ORIENTED_EDGE('',*,*,#592,.F.);
#766=ORIENTED_EDGE('',*,*,#593,.F.);
#767=ORIENTED_EDGE('',*,*,#589,.T.);
#768=ORIENTED_EDGE('',*,*,#594,.F.);
#769=ORIENTED_EDGE('',*,*,#595,.F.);
#770=ORIENTED_EDGE('',*,*,#596,.F.);
#771=ORIENTED_EDGE('',*,*,#594,.T.);
#772=ORIENTED_EDGE('',*,*,#588,.T.);
#773=ORIENTED_EDGE('',*,*,#584,.T.);
#774=ORIENTED_EDGE('',*,*,#597,.F.);
#775=ORIENTED_EDGE('',*,*,#598,.T.);
#776=ORIENTED_EDGE('',*,*,#599,.F.);
#777=ORIENTED_EDGE('',*,*,#591,.F.);
#778=ORIENTED_EDGE('',*,*,#600,.F.);
#779=ORIENTED_EDGE('',*,*,#586,.T.);
#780=ORIENTED_EDGE('',*,*,#601,.F.);
#781=ORIENTED_EDGE('',*,*,#602,.F.);
#782=ORIENTED_EDGE('',*,*,#603,.F.);
#783=ORIENTED_EDGE('',*,*,#602,.T.);
#784=ORIENTED_EDGE('',*,*,#604,.F.);
#785=ORIENTED_EDGE('',*,*,#605,.F.);
#786=ORIENTED_EDGE('',*,*,#606,.F.);
#787=ORIENTED_EDGE('',*,*,#605,.T.);
#788=ORIENTED_EDGE('',*,*,#607,.F.);
#789=ORIENTED_EDGE('',*,*,#608,.F.);
#790=ORIENTED_EDGE('',*,*,#609,.F.);
#791=ORIENTED_EDGE('',*,*,#608,.T.);
#792=ORIENTED_EDGE('',*,*,#610,.F.);
#793=ORIENTED_EDGE('',*,*,#611,.F.);
#794=ORIENTED_EDGE('',*,*,#612,.F.);
#795=ORIENTED_EDGE('',*,*,#611,.T.);
#796=ORIENTED_EDGE('',*,*,#613,.F.);
#797=ORIENTED_EDGE('',*,*,#614,.F.);
#798=ORIENTED_EDGE('',*,*,#615,.F.);
#799=ORIENTED_EDGE('',*,*,#614,.T.);
#800=ORIENTED_EDGE('',*,*,#616,.F.);
#801=ORIENTED_EDGE('',*,*,#617,.F.);
#802=ORIENTED_EDGE('',*,*,#618,.F.);
#803=ORIENTED_EDGE('',*,*,#617,.T.);
#804=ORIENTED_EDGE('',*,*,#619,.F.);
#805=ORIENTED_EDGE('',*,*,#620,.F.);
#806=ORIENTED_EDGE('',*,*,#621,.F.);
#807=ORIENTED_EDGE('',*,*,#620,.T.);
#808=ORIENTED_EDGE('',*,*,#622,.F.);
#809=ORIENTED_EDGE('',*,*,#623,.F.);
#810=ORIENTED_EDGE('',*,*,#624,.F.);
#811=ORIENTED_EDGE('',*,*,#623,.T.);
#812=ORIENTED_EDGE('',*,*,#625,.F.);
#813=ORIENTED_EDGE('',*,*,#626,.F.);
#814=ORIENTED_EDGE('',*,*,#627,.F.);
#815=ORIENTED_EDGE('',*,*,#626,.T.);
#816=ORIENTED_EDGE('',*,*,#628,.F.);
#817=ORIENTED_EDGE('',*,*,#629,.F.);
#818=ORIENTED_EDGE('',*,*,#630,.F.);
#819=ORIENTED_EDGE('',*,*,#629,.T.);
#820=ORIENTED_EDGE('',*,*,#631,.F.);
#821=ORIENTED_EDGE('',*,*,#632,.F.);
#822=ORIENTED_EDGE('',*,*,#633,.F.);
#823=ORIENTED_EDGE('',*,*,#632,.T.);
#824=ORIENTED_EDGE('',*,*,#634,.F.);
#825=ORIENTED_EDGE('',*,*,#635,.F.);
#826=ORIENTED_EDGE('',*,*,#636,.F.);
#827=ORIENTED_EDGE('',*,*,#635,.T.);
#828=ORIENTED_EDGE('',*,*,#637,.F.);
#829=ORIENTED_EDGE('',*,*,#598,.F.);
#830=ORIENTED_EDGE('',*,*,#637,.T.);
#831=ORIENTED_EDGE('',*,*,#634,.T.);
#832=ORIENTED_EDGE('',*,*,#631,.T.);
#833=ORIENTED_EDGE('',*,*,#628,.T.);
#834=ORIENTED_EDGE('',*,*,#625,.T.);
#835=ORIENTED_EDGE('',*,*,#622,.T.);
#836=ORIENTED_EDGE('',*,*,#619,.T.);
#837=ORIENTED_EDGE('',*,*,#616,.T.);
#838=ORIENTED_EDGE('',*,*,#613,.T.);
#839=ORIENTED_EDGE('',*,*,#610,.T.);
#840=ORIENTED_EDGE('',*,*,#607,.T.);
#841=ORIENTED_EDGE('',*,*,#604,.T.);
#842=ORIENTED_EDGE('',*,*,#601,.T.);
#843=ORIENTED_EDGE('',*,*,#592,.T.);
#844=ORIENTED_EDGE('',*,*,#599,.T.);
#845=ORIENTED_EDGE('',*,*,#638,.F.);
#846=ORIENTED_EDGE('',*,*,#639,.T.);
#847=ORIENTED_EDGE('',*,*,#640,.T.);
#848=ORIENTED_EDGE('',*,*,#639,.F.);
#849=ORIENTED_EDGE('',*,*,#640,.F.);
#850=ORIENTED_EDGE('',*,*,#641,.F.);
#851=ORIENTED_EDGE('',*,*,#642,.T.);
#852=ORIENTED_EDGE('',*,*,#643,.T.);
#853=ORIENTED_EDGE('',*,*,#642,.F.);
#854=ORIENTED_EDGE('',*,*,#643,.F.);
#855=ORIENTED_EDGE('',*,*,#644,.F.);
#856=ORIENTED_EDGE('',*,*,#645,.T.);
#857=ORIENTED_EDGE('',*,*,#646,.T.);
#858=ORIENTED_EDGE('',*,*,#645,.F.);
#859=ORIENTED_EDGE('',*,*,#646,.F.);
#860=ORIENTED_EDGE('',*,*,#647,.F.);
#861=ORIENTED_EDGE('',*,*,#648,.T.);
#862=ORIENTED_EDGE('',*,*,#649,.T.);
#863=ORIENTED_EDGE('',*,*,#648,.F.);
#864=ORIENTED_EDGE('',*,*,#649,.F.);
#865=ORIENTED_EDGE('',*,*,#650,.F.);
#866=ORIENTED_EDGE('',*,*,#651,.T.);
#867=ORIENTED_EDGE('',*,*,#652,.F.);
#868=ORIENTED_EDGE('',*,*,#653,.F.);
#869=ORIENTED_EDGE('',*,*,#654,.F.);
#870=ORIENTED_EDGE('',*,*,#653,.T.);
#871=ORIENTED_EDGE('',*,*,#655,.F.);
#872=ORIENTED_EDGE('',*,*,#656,.F.);
#873=ORIENTED_EDGE('',*,*,#583,.T.);
#874=ORIENTED_EDGE('',*,*,#657,.F.);
#875=ORIENTED_EDGE('',*,*,#656,.T.);
#876=ORIENTED_EDGE('',*,*,#658,.F.);
#877=ORIENTED_EDGE('',*,*,#659,.F.);
#878=ORIENTED_EDGE('',*,*,#660,.F.);
#879=ORIENTED_EDGE('',*,*,#595,.T.);
#880=ORIENTED_EDGE('',*,*,#596,.T.);
#881=ORIENTED_EDGE('',*,*,#661,.F.);
#882=ORIENTED_EDGE('',*,*,#659,.T.);
#883=ORIENTED_EDGE('',*,*,#662,.F.);
#884=ORIENTED_EDGE('',*,*,#663,.F.);
#885=ORIENTED_EDGE('',*,*,#664,.F.);
#886=ORIENTED_EDGE('',*,*,#663,.T.);
#887=ORIENTED_EDGE('',*,*,#665,.F.);
#888=ORIENTED_EDGE('',*,*,#666,.F.);
#889=ORIENTED_EDGE('',*,*,#667,.F.);
#890=ORIENTED_EDGE('',*,*,#666,.T.);
#891=ORIENTED_EDGE('',*,*,#668,.F.);
#892=ORIENTED_EDGE('',*,*,#669,.F.);
#893=ORIENTED_EDGE('',*,*,#565,.T.);
#894=ORIENTED_EDGE('',*,*,#670,.F.);
#895=ORIENTED_EDGE('',*,*,#669,.T.);
#896=ORIENTED_EDGE('',*,*,#671,.F.);
#897=ORIENTED_EDGE('',*,*,#672,.F.);
#898=ORIENTED_EDGE('',*,*,#673,.F.);
#899=ORIENTED_EDGE('',*,*,#570,.T.);
#900=ORIENTED_EDGE('',*,*,#573,.T.);
#901=ORIENTED_EDGE('',*,*,#576,.T.);
#902=ORIENTED_EDGE('',*,*,#579,.T.);
#903=ORIENTED_EDGE('',*,*,#581,.T.);
#904=ORIENTED_EDGE('',*,*,#561,.T.);
#905=ORIENTED_EDGE('',*,*,#674,.F.);
#906=ORIENTED_EDGE('',*,*,#672,.T.);
#907=ORIENTED_EDGE('',*,*,#675,.F.);
#908=ORIENTED_EDGE('',*,*,#651,.F.);
#909=ORIENTED_EDGE('',*,*,#676,.T.);
#910=ORIENTED_EDGE('',*,*,#677,.T.);
#911=ORIENTED_EDGE('',*,*,#678,.T.);
#912=ORIENTED_EDGE('',*,*,#679,.T.);
#913=ORIENTED_EDGE('',*,*,#680,.T.);
#914=ORIENTED_EDGE('',*,*,#681,.T.);
#915=ORIENTED_EDGE('',*,*,#682,.T.);
#916=ORIENTED_EDGE('',*,*,#683,.T.);
#917=ORIENTED_EDGE('',*,*,#675,.T.);
#918=ORIENTED_EDGE('',*,*,#671,.T.);
#919=ORIENTED_EDGE('',*,*,#668,.T.);
#920=ORIENTED_EDGE('',*,*,#665,.T.);
#921=ORIENTED_EDGE('',*,*,#662,.T.);
#922=ORIENTED_EDGE('',*,*,#658,.T.);
#923=ORIENTED_EDGE('',*,*,#655,.T.);
#924=ORIENTED_EDGE('',*,*,#652,.T.);
#925=ORIENTED_EDGE('',*,*,#647,.T.);
#926=ORIENTED_EDGE('',*,*,#644,.T.);
#927=ORIENTED_EDGE('',*,*,#641,.T.);
#928=ORIENTED_EDGE('',*,*,#638,.T.);
#929=ORIENTED_EDGE('',*,*,#684,.F.);
#930=ORIENTED_EDGE('',*,*,#685,.F.);
#931=ORIENTED_EDGE('',*,*,#686,.T.);
#932=ORIENTED_EDGE('',*,*,#677,.F.);
#933=ORIENTED_EDGE('',*,*,#686,.F.);
#934=ORIENTED_EDGE('',*,*,#687,.F.);
#935=ORIENTED_EDGE('',*,*,#688,.T.);
#936=ORIENTED_EDGE('',*,*,#678,.F.);
#937=ORIENTED_EDGE('',*,*,#550,.T.);
#938=ORIENTED_EDGE('',*,*,#553,.T.);
#939=ORIENTED_EDGE('',*,*,#543,.T.);
#940=ORIENTED_EDGE('',*,*,#547,.T.);
#941=ORIENTED_EDGE('',*,*,#688,.F.);
#942=ORIENTED_EDGE('',*,*,#689,.F.);
#943=ORIENTED_EDGE('',*,*,#690,.T.);
#944=ORIENTED_EDGE('',*,*,#679,.F.);
#945=ORIENTED_EDGE('',*,*,#690,.F.);
#946=ORIENTED_EDGE('',*,*,#691,.F.);
#947=ORIENTED_EDGE('',*,*,#692,.T.);
#948=ORIENTED_EDGE('',*,*,#680,.F.);
#949=ORIENTED_EDGE('',*,*,#559,.T.);
#950=ORIENTED_EDGE('',*,*,#580,.T.);
#951=ORIENTED_EDGE('',*,*,#577,.T.);
#952=ORIENTED_EDGE('',*,*,#574,.T.);
#953=ORIENTED_EDGE('',*,*,#571,.T.);
#954=ORIENTED_EDGE('',*,*,#568,.T.);
#955=ORIENTED_EDGE('',*,*,#566,.T.);
#956=ORIENTED_EDGE('',*,*,#563,.T.);
#957=ORIENTED_EDGE('',*,*,#692,.F.);
#958=ORIENTED_EDGE('',*,*,#693,.F.);
#959=ORIENTED_EDGE('',*,*,#694,.T.);
#960=ORIENTED_EDGE('',*,*,#681,.F.);
#961=ORIENTED_EDGE('',*,*,#694,.F.);
#962=ORIENTED_EDGE('',*,*,#695,.F.);
#963=ORIENTED_EDGE('',*,*,#696,.T.);
#964=ORIENTED_EDGE('',*,*,#682,.F.);
#965=ORIENTED_EDGE('',*,*,#551,.T.);
#966=ORIENTED_EDGE('',*,*,#548,.T.);
#967=ORIENTED_EDGE('',*,*,#545,.T.);
#968=ORIENTED_EDGE('',*,*,#554,.T.);
#969=ORIENTED_EDGE('',*,*,#696,.F.);
#970=ORIENTED_EDGE('',*,*,#697,.F.);
#971=ORIENTED_EDGE('',*,*,#698,.T.);
#972=ORIENTED_EDGE('',*,*,#683,.F.);
#973=ORIENTED_EDGE('',*,*,#698,.F.);
#974=ORIENTED_EDGE('',*,*,#699,.F.);
#975=ORIENTED_EDGE('',*,*,#684,.T.);
#976=ORIENTED_EDGE('',*,*,#676,.F.);
#977=ORIENTED_EDGE('',*,*,#587,.T.);
#978=ORIENTED_EDGE('',*,*,#600,.T.);
#979=ORIENTED_EDGE('',*,*,#603,.T.);
#980=ORIENTED_EDGE('',*,*,#606,.T.);
#981=ORIENTED_EDGE('',*,*,#609,.T.);
#982=ORIENTED_EDGE('',*,*,#612,.T.);
#983=ORIENTED_EDGE('',*,*,#615,.T.);
#984=ORIENTED_EDGE('',*,*,#618,.T.);
#985=ORIENTED_EDGE('',*,*,#621,.T.);
#986=ORIENTED_EDGE('',*,*,#624,.T.);
#987=ORIENTED_EDGE('',*,*,#627,.T.);
#988=ORIENTED_EDGE('',*,*,#630,.T.);
#989=ORIENTED_EDGE('',*,*,#633,.T.);
#990=ORIENTED_EDGE('',*,*,#636,.T.);
#991=ORIENTED_EDGE('',*,*,#597,.T.);
#992=ORIENTED_EDGE('',*,*,#590,.T.);
#993=ORIENTED_EDGE('',*,*,#593,.T.);
#994=ORIENTED_EDGE('',*,*,#660,.T.);
#995=ORIENTED_EDGE('',*,*,#661,.T.);
#996=ORIENTED_EDGE('',*,*,#664,.T.);
#997=ORIENTED_EDGE('',*,*,#667,.T.);
#998=ORIENTED_EDGE('',*,*,#670,.T.);
#999=ORIENTED_EDGE('',*,*,#555,.T.);
#1000=ORIENTED_EDGE('',*,*,#673,.T.);
#1001=ORIENTED_EDGE('',*,*,#674,.T.);
#1002=ORIENTED_EDGE('',*,*,#650,.T.);
#1003=ORIENTED_EDGE('',*,*,#654,.T.);
#1004=ORIENTED_EDGE('',*,*,#657,.T.);
#1005=ORIENTED_EDGE('',*,*,#582,.T.);
#1006=ORIENTED_EDGE('',*,*,#699,.T.);
#1007=ORIENTED_EDGE('',*,*,#697,.T.);
#1008=ORIENTED_EDGE('',*,*,#695,.T.);
#1009=ORIENTED_EDGE('',*,*,#693,.T.);
#1010=ORIENTED_EDGE('',*,*,#691,.T.);
#1011=ORIENTED_EDGE('',*,*,#689,.T.);
#1012=ORIENTED_EDGE('',*,*,#687,.T.);
#1013=ORIENTED_EDGE('',*,*,#685,.T.);
#1014=PLANE('',#1124);
#1015=PLANE('',#1125);
#1016=PLANE('',#1126);
#1017=PLANE('',#1127);
#1018=PLANE('',#1128);
#1019=PLANE('',#1131);
#1020=PLANE('',#1135);
#1021=PLANE('',#1139);
#1022=PLANE('',#1143);
#1023=PLANE('',#1147);
#1024=PLANE('',#1148);
#1025=PLANE('',#1149);
#1026=PLANE('',#1150);
#1027=PLANE('',#1151);
#1028=PLANE('',#1152);
#1029=PLANE('',#1156);
#1030=PLANE('',#1163);
#1031=PLANE('',#1167);
#1032=PLANE('',#1171);
#1033=PLANE('',#1175);
#1034=PLANE('',#1176);
#1035=PLANE('',#1177);
#1036=PLANE('',#1181);
#1037=PLANE('',#1185);
#1038=PLANE('',#1189);
#1039=PLANE('',#1193);
#1040=PLANE('',#1194);
#1041=PLANE('',#1198);
#1042=PLANE('',#1202);
#1043=PLANE('',#1206);
#1044=PLANE('',#1210);
#1045=PLANE('',#1217);
#1046=PLANE('',#1220);
#1047=PLANE('',#1223);
#1048=PLANE('',#1226);
#1049=PLANE('',#1227);
#1050=PLANE('',#1228);
#1051=ADVANCED_FACE('',(#91),#1014,.F.);
#1052=ADVANCED_FACE('',(#92),#1015,.F.);
#1053=ADVANCED_FACE('',(#93),#1016,.F.);
#1054=ADVANCED_FACE('',(#94),#1017,.F.);
#1055=ADVANCED_FACE('',(#95),#1018,.T.);
#1056=ADVANCED_FACE('',(#96),#1019,.F.);
#1057=ADVANCED_FACE('',(#97),#23,.F.);
#1058=ADVANCED_FACE('',(#98),#1020,.F.);
#1059=ADVANCED_FACE('',(#99),#24,.F.);
#1060=ADVANCED_FACE('',(#100),#1021,.F.);
#1061=ADVANCED_FACE('',(#101),#25,.F.);
#1062=ADVANCED_FACE('',(#102),#1022,.F.);
#1063=ADVANCED_FACE('',(#103),#26,.F.);
#1064=ADVANCED_FACE('',(#104),#1023,.T.);
#1065=ADVANCED_FACE('',(#105),#1024,.T.);
#1066=ADVANCED_FACE('',(#106),#1025,.T.);
#1067=ADVANCED_FACE('',(#107),#1026,.T.);
#1068=ADVANCED_FACE('',(#108),#1027,.T.);
#1069=ADVANCED_FACE('',(#109),#1028,.T.);
#1070=ADVANCED_FACE('',(#110),#27,.F.);
#1071=ADVANCED_FACE('',(#111),#1029,.T.);
#1072=ADVANCED_FACE('',(#112),#28,.F.);
#1073=ADVANCED_FACE('',(#113),#29,.F.);
#1074=ADVANCED_FACE('',(#114),#1030,.T.);
#1075=ADVANCED_FACE('',(#115),#30,.F.);
#1076=ADVANCED_FACE('',(#116),#1031,.T.);
#1077=ADVANCED_FACE('',(#117),#31,.F.);
#1078=ADVANCED_FACE('',(#118),#1032,.T.);
#1079=ADVANCED_FACE('',(#119),#32,.F.);
#1080=ADVANCED_FACE('',(#120),#1033,.T.);
#1081=ADVANCED_FACE('',(#121),#1034,.T.);
#1082=ADVANCED_FACE('',(#122),#1035,.T.);
#1083=ADVANCED_FACE('',(#123),#33,.F.);
#1084=ADVANCED_FACE('',(#124),#1036,.F.);
#1085=ADVANCED_FACE('',(#125),#34,.F.);
#1086=ADVANCED_FACE('',(#126),#1037,.F.);
#1087=ADVANCED_FACE('',(#127),#35,.F.);
#1088=ADVANCED_FACE('',(#128),#1038,.F.);
#1089=ADVANCED_FACE('',(#129),#36,.F.);
#1090=ADVANCED_FACE('',(#130),#1039,.F.);
#1091=ADVANCED_FACE('',(#131),#1040,.T.);
#1092=ADVANCED_FACE('',(#132),#37,.T.);
#1093=ADVANCED_FACE('',(#133),#1041,.T.);
#1094=ADVANCED_FACE('',(#134),#38,.T.);
#1095=ADVANCED_FACE('',(#135),#1042,.T.);
#1096=ADVANCED_FACE('',(#136),#39,.T.);
#1097=ADVANCED_FACE('',(#137),#1043,.T.);
#1098=ADVANCED_FACE('',(#138),#40,.T.);
#1099=ADVANCED_FACE('',(#139,#15,#16,#17,#18,#19),#1044,.T.);
#1100=ADVANCED_FACE('',(#140),#41,.T.);
#1101=ADVANCED_FACE('',(#141,#20),#1045,.T.);
#1102=ADVANCED_FACE('',(#142),#42,.T.);
#1103=ADVANCED_FACE('',(#143,#21),#1046,.T.);
#1104=ADVANCED_FACE('',(#144),#43,.T.);
#1105=ADVANCED_FACE('',(#145,#22),#1047,.T.);
#1106=ADVANCED_FACE('',(#146),#44,.T.);
#1107=ADVANCED_FACE('',(#147),#1048,.T.);
#1108=ADVANCED_FACE('',(#148),#1049,.T.);
#1109=ADVANCED_FACE('',(#149),#1050,.F.);
#1110=CLOSED_SHELL('',(#1051,#1052,#1053,#1054,#1055,#1056,#1057,#1058,
#1059,#1060,#1061,#1062,#1063,#1064,#1065,#1066,#1067,#1068,#1069,#1070,
#1071,#1072,#1073,#1074,#1075,#1076,#1077,#1078,#1079,#1080,#1081,#1082,
#1083,#1084,#1085,#1086,#1087,#1088,#1089,#1090,#1091,#1092,#1093,#1094,
#1095,#1096,#1097,#1098,#1099,#1100,#1101,#1102,#1103,#1104,#1105,#1106,
#1107,#1108,#1109));
#1111=DERIVED_UNIT_ELEMENT(#1113,1.);
#1112=DERIVED_UNIT_ELEMENT(#1878,-3.);
#1113=(
MASS_UNIT()
NAMED_UNIT(*)
SI_UNIT(.KILO.,.GRAM.)
);
#1114=DERIVED_UNIT((#1111,#1112));
#1115=MEASURE_REPRESENTATION_ITEM('density measure',
POSITIVE_RATIO_MEASURE(7850.),#1114);
#1116=PROPERTY_DEFINITION_REPRESENTATION(#1121,#1118);
#1117=PROPERTY_DEFINITION_REPRESENTATION(#1122,#1119);
#1118=REPRESENTATION('material name',(#1120),#1875);
#1119=REPRESENTATION('density',(#1115),#1875);
#1120=DESCRIPTIVE_REPRESENTATION_ITEM('Steel','Steel');
#1121=PROPERTY_DEFINITION('material property','material name',#1885);
#1122=PROPERTY_DEFINITION('material property','density of part',#1885);
#1123=AXIS2_PLACEMENT_3D('',#1552,#1229,#1230);
#1124=AXIS2_PLACEMENT_3D('',#1553,#1231,#1232);
#1125=AXIS2_PLACEMENT_3D('',#1562,#1237,#1238);
#1126=AXIS2_PLACEMENT_3D('',#1568,#1242,#1243);
#1127=AXIS2_PLACEMENT_3D('',#1574,#1247,#1248);
#1128=AXIS2_PLACEMENT_3D('',#1577,#1251,#1252);
#1129=AXIS2_PLACEMENT_3D('',#1582,#1254,#1255);
#1130=AXIS2_PLACEMENT_3D('',#1585,#1257,#1258);
#1131=AXIS2_PLACEMENT_3D('',#1586,#1259,#1260);
#1132=AXIS2_PLACEMENT_3D('',#1595,#1265,#1266);
#1133=AXIS2_PLACEMENT_3D('',#1597,#1267,#1268);
#1134=AXIS2_PLACEMENT_3D('',#1599,#1270,#1271);
#1135=AXIS2_PLACEMENT_3D('',#1600,#1272,#1273);
#1136=AXIS2_PLACEMENT_3D('',#1604,#1276,#1277);
#1137=AXIS2_PLACEMENT_3D('',#1606,#1278,#1279);
#1138=AXIS2_PLACEMENT_3D('',#1609,#1281,#1282);
#1139=AXIS2_PLACEMENT_3D('',#1610,#1283,#1284);
#1140=AXIS2_PLACEMENT_3D('',#1616,#1288,#1289);
#1141=AXIS2_PLACEMENT_3D('',#1618,#1290,#1291);
#1142=AXIS2_PLACEMENT_3D('',#1621,#1293,#1294);
#1143=AXIS2_PLACEMENT_3D('',#1622,#1295,#1296);
#1144=AXIS2_PLACEMENT_3D('',#1628,#1300,#1301);
#1145=AXIS2_PLACEMENT_3D('',#1629,#1302,#1303);
#1146=AXIS2_PLACEMENT_3D('',#1630,#1304,#1305);
#1147=AXIS2_PLACEMENT_3D('',#1631,#1306,#1307);
#1148=AXIS2_PLACEMENT_3D('',#1640,#1312,#1313);
#1149=AXIS2_PLACEMENT_3D('',#1654,#1321,#1322);
#1150=AXIS2_PLACEMENT_3D('',#1660,#1326,#1327);
#1151=AXIS2_PLACEMENT_3D('',#1662,#1329,#1330);
#1152=AXIS2_PLACEMENT_3D('',#1668,#1334,#1335);
#1153=AXIS2_PLACEMENT_3D('',#1674,#1339,#1340);
#1154=AXIS2_PLACEMENT_3D('',#1676,#1341,#1342);
#1155=AXIS2_PLACEMENT_3D('',#1678,#1343,#1344);
#1156=AXIS2_PLACEMENT_3D('',#1680,#1346,#1347);
#1157=AXIS2_PLACEMENT_3D('',#1686,#1351,#1352);
#1158=AXIS2_PLACEMENT_3D('',#1688,#1353,#1354);
#1159=AXIS2_PLACEMENT_3D('',#1690,#1355,#1356);
#1160=AXIS2_PLACEMENT_3D('',#1692,#1358,#1359);
#1161=AXIS2_PLACEMENT_3D('',#1694,#1360,#1361);
#1162=AXIS2_PLACEMENT_3D('',#1696,#1362,#1363);
#1163=AXIS2_PLACEMENT_3D('',#1698,#1365,#1366);
#1164=AXIS2_PLACEMENT_3D('',#1704,#1370,#1371);
#1165=AXIS2_PLACEMENT_3D('',#1706,#1372,#1373);
#1166=AXIS2_PLACEMENT_3D('',#1708,#1374,#1375);
#1167=AXIS2_PLACEMENT_3D('',#1710,#1377,#1378);
#1168=AXIS2_PLACEMENT_3D('',#1716,#1382,#1383);
#1169=AXIS2_PLACEMENT_3D('',#1718,#1384,#1385);
#1170=AXIS2_PLACEMENT_3D('',#1720,#1386,#1387);
#1171=AXIS2_PLACEMENT_3D('',#1722,#1389,#1390);
#1172=AXIS2_PLACEMENT_3D('',#1728,#1394,#1395);
#1173=AXIS2_PLACEMENT_3D('',#1730,#1396,#1397);
#1174=AXIS2_PLACEMENT_3D('',#1732,#1398,#1399);
#1175=AXIS2_PLACEMENT_3D('',#1734,#1401,#1402);
#1176=AXIS2_PLACEMENT_3D('',#1740,#1406,#1407);
#1177=AXIS2_PLACEMENT_3D('',#1743,#1410,#1411);
#1178=AXIS2_PLACEMENT_3D('',#1744,#1412,#1413);
#1179=AXIS2_PLACEMENT_3D('',#1746,#1414,#1415);
#1180=AXIS2_PLACEMENT_3D('',#1749,#1417,#1418);
#1181=AXIS2_PLACEMENT_3D('',#1750,#1419,#1420);
#1182=AXIS2_PLACEMENT_3D('',#1751,#1421,#1422);
#1183=AXIS2_PLACEMENT_3D('',#1753,#1423,#1424);
#1184=AXIS2_PLACEMENT_3D('',#1756,#1426,#1427);
#1185=AXIS2_PLACEMENT_3D('',#1757,#1428,#1429);
#1186=AXIS2_PLACEMENT_3D('',#1758,#1430,#1431);
#1187=AXIS2_PLACEMENT_3D('',#1760,#1432,#1433);
#1188=AXIS2_PLACEMENT_3D('',#1763,#1435,#1436);
#1189=AXIS2_PLACEMENT_3D('',#1764,#1437,#1438);
#1190=AXIS2_PLACEMENT_3D('',#1765,#1439,#1440);
#1191=AXIS2_PLACEMENT_3D('',#1767,#1441,#1442);
#1192=AXIS2_PLACEMENT_3D('',#1770,#1444,#1445);
#1193=AXIS2_PLACEMENT_3D('',#1771,#1446,#1447);
#1194=AXIS2_PLACEMENT_3D('',#1772,#1448,#1449);
#1195=AXIS2_PLACEMENT_3D('',#1781,#1454,#1455);
#1196=AXIS2_PLACEMENT_3D('',#1783,#1456,#1457);
#1197=AXIS2_PLACEMENT_3D('',#1785,#1458,#1459);
#1198=AXIS2_PLACEMENT_3D('',#1787,#1461,#1462);
#1199=AXIS2_PLACEMENT_3D('',#1794,#1467,#1468);
#1200=AXIS2_PLACEMENT_3D('',#1796,#1469,#1470);
#1201=AXIS2_PLACEMENT_3D('',#1798,#1471,#1472);
#1202=AXIS2_PLACEMENT_3D('',#1800,#1474,#1475);
#1203=AXIS2_PLACEMENT_3D('',#1806,#1479,#1480);
#1204=AXIS2_PLACEMENT_3D('',#1808,#1481,#1482);
#1205=AXIS2_PLACEMENT_3D('',#1810,#1483,#1484);
#1206=AXIS2_PLACEMENT_3D('',#1812,#1486,#1487);
#1207=AXIS2_PLACEMENT_3D('',#1819,#1492,#1493);
#1208=AXIS2_PLACEMENT_3D('',#1820,#1494,#1495);
#1209=AXIS2_PLACEMENT_3D('',#1821,#1496,#1497);
#1210=AXIS2_PLACEMENT_3D('',#1822,#1498,#1499);
#1211=AXIS2_PLACEMENT_3D('',#1827,#1501,#1502);
#1212=AXIS2_PLACEMENT_3D('',#1831,#1504,#1505);
#1213=AXIS2_PLACEMENT_3D('',#1835,#1507,#1508);
#1214=AXIS2_PLACEMENT_3D('',#1838,#1510,#1511);
#1215=AXIS2_PLACEMENT_3D('',#1839,#1512,#1513);
#1216=AXIS2_PLACEMENT_3D('',#1843,#1515,#1516);
#1217=AXIS2_PLACEMENT_3D('',#1845,#1518,#1519);
#1218=AXIS2_PLACEMENT_3D('',#1849,#1522,#1523);
#1219=AXIS2_PLACEMENT_3D('',#1851,#1524,#1525);
#1220=AXIS2_PLACEMENT_3D('',#1853,#1527,#1528);
#1221=AXIS2_PLACEMENT_3D('',#1857,#1531,#1532);
#1222=AXIS2_PLACEMENT_3D('',#1859,#1533,#1534);
#1223=AXIS2_PLACEMENT_3D('',#1861,#1536,#1537);
#1224=AXIS2_PLACEMENT_3D('',#1865,#1540,#1541);
#1225=AXIS2_PLACEMENT_3D('',#1867,#1542,#1543);
#1226=AXIS2_PLACEMENT_3D('',#1869,#1545,#1546);
#1227=AXIS2_PLACEMENT_3D('',#1871,#1548,#1549);
#1228=AXIS2_PLACEMENT_3D('',#1872,#1550,#1551);
#1229=DIRECTION('axis',(0.,0.,1.));
#1230=DIRECTION('refdir',(1.,0.,0.));
#1231=DIRECTION('center_axis',(1.,0.,0.));
#1232=DIRECTION('ref_axis',(0.,1.,0.));
#1233=DIRECTION('',(0.,-1.,0.));
#1234=DIRECTION('',(0.,0.,1.));
#1235=DIRECTION('',(0.,1.,0.));
#1236=DIRECTION('',(0.,0.,1.));
#1237=DIRECTION('center_axis',(0.,-1.,0.));
#1238=DIRECTION('ref_axis',(1.,0.,0.));
#1239=DIRECTION('',(-1.,0.,-3.70074341541719E-17));
#1240=DIRECTION('',(1.,0.,4.44089209850063E-16));
#1241=DIRECTION('',(0.,0.,1.));
#1242=DIRECTION('center_axis',(-1.,0.,0.));
#1243=DIRECTION('ref_axis',(0.,-1.,0.));
#1244=DIRECTION('',(0.,1.,0.));
#1245=DIRECTION('',(0.,-1.,0.));
#1246=DIRECTION('',(0.,0.,1.));
#1247=DIRECTION('center_axis',(0.,1.,0.));
#1248=DIRECTION('ref_axis',(-1.,0.,0.));
#1249=DIRECTION('',(1.,0.,3.70074341541719E-17));
#1250=DIRECTION('',(-1.,0.,-4.44089209850063E-16));
#1251=DIRECTION('center_axis',(1.,0.,0.));
#1252=DIRECTION('ref_axis',(0.,0.,-1.));
#1253=DIRECTION('',(0.,0.,-1.));
#1254=DIRECTION('center_axis',(-1.,0.,0.));
#1255=DIRECTION('ref_axis',(0.,-3.36431219583381E-16,1.));
#1256=DIRECTION('',(0.,2.80141679350292E-16,1.));
#1257=DIRECTION('center_axis',(-1.,0.,0.));
#1258=DIRECTION('ref_axis',(0.,-1.,0.));
#1259=DIRECTION('center_axis',(0.,-1.5636944008805E-15,1.));
#1260=DIRECTION('ref_axis',(0.,1.,1.5636944008805E-15));
#1261=DIRECTION('',(0.,1.,1.5636944008805E-15));
#1262=DIRECTION('',(-1.,0.,0.));
#1263=DIRECTION('',(0.,-1.,-1.5636944008805E-15));
#1264=DIRECTION('',(-1.,0.,0.));
#1265=DIRECTION('center_axis',(-1.,0.,0.));
#1266=DIRECTION('ref_axis',(0.,-3.36431219583381E-16,1.));
#1267=DIRECTION('center_axis',(-1.,0.,0.));
#1268=DIRECTION('ref_axis',(0.,-3.36431219583381E-16,1.));
#1269=DIRECTION('',(-1.,0.,0.));
#1270=DIRECTION('center_axis',(1.,0.,0.));
#1271=DIRECTION('ref_axis',(0.,-3.36431219583381E-16,1.));
#1272=DIRECTION('center_axis',(0.,-1.,2.80141679350292E-16));
#1273=DIRECTION('ref_axis',(0.,2.80141679350292E-16,1.));
#1274=DIRECTION('',(0.,2.80141679350292E-16,1.));
#1275=DIRECTION('',(-1.,0.,0.));
#1276=DIRECTION('center_axis',(-1.,0.,0.));
#1277=DIRECTION('ref_axis',(0.,-1.,0.));
#1278=DIRECTION('center_axis',(-1.,0.,0.));
#1279=DIRECTION('ref_axis',(0.,-1.,0.));
#1280=DIRECTION('',(-1.,0.,0.));
#1281=DIRECTION('center_axis',(1.,0.,0.));
#1282=DIRECTION('ref_axis',(0.,-1.,0.));
#1283=DIRECTION('center_axis',(0.,0.,-1.));
#1284=DIRECTION('ref_axis',(0.,-1.,0.));
#1285=DIRECTION('',(0.,-1.,0.));
#1286=DIRECTION('',(-1.,0.,0.));
#1287=DIRECTION('',(0.,1.,0.));
#1288=DIRECTION('center_axis',(-1.,0.,0.));
#1289=DIRECTION('ref_axis',(0.,-3.36431219583381E-16,-1.));
#1290=DIRECTION('center_axis',(-1.,0.,0.));
#1291=DIRECTION('ref_axis',(0.,-3.36431219583381E-16,-1.));
#1292=DIRECTION('',(-1.,0.,0.));
#1293=DIRECTION('center_axis',(1.,0.,0.));
#1294=DIRECTION('ref_axis',(0.,-3.36431219583381E-16,-1.));
#1295=DIRECTION('center_axis',(0.,1.,-1.7239487960018E-16));
#1296=DIRECTION('ref_axis',(0.,-1.7239487960018E-16,-1.));
#1297=DIRECTION('',(0.,-1.7239487960018E-16,-1.));
#1298=DIRECTION('',(-1.,0.,0.));
#1299=DIRECTION('',(0.,1.7239487960018E-16,1.));
#1300=DIRECTION('center_axis',(-1.,0.,0.));
#1301=DIRECTION('ref_axis',(0.,1.,0.));
#1302=DIRECTION('center_axis',(-1.,0.,0.));
#1303=DIRECTION('ref_axis',(0.,1.,0.));
#1304=DIRECTION('center_axis',(1.,0.,0.));
#1305=DIRECTION('ref_axis',(0.,1.,0.));
#1306=DIRECTION('center_axis',(4.38303810342241E-16,0.,-1.));
#1307=DIRECTION('ref_axis',(-1.,0.,-4.38303810342241E-16));
#1308=DIRECTION('',(1.,0.,4.38303810342241E-16));
#1309=DIRECTION('',(0.,-1.,0.));
#1310=DIRECTION('',(-1.,0.,-4.38303810342241E-16));
#1311=DIRECTION('',(0.,1.,0.));
#1312=DIRECTION('center_axis',(1.,0.,0.));
#1313=DIRECTION('ref_axis',(0.,0.,-1.));
#1314=DIRECTION('',(0.,1.,0.));
#1315=DIRECTION('',(0.,0.,1.));
#1316=DIRECTION('',(0.,0.,-1.));
#1317=DIRECTION('',(0.,1.,0.));
#1318=DIRECTION('',(0.,0.,1.));
#1319=DIRECTION('',(0.,1.,0.));
#1320=DIRECTION('',(0.,0.,1.));
#1321=DIRECTION('center_axis',(0.,0.,1.));
#1322=DIRECTION('ref_axis',(1.,0.,0.));
#1323=DIRECTION('',(-1.,0.,0.));
#1324=DIRECTION('',(1.,0.,0.));
#1325=DIRECTION('',(0.,1.,0.));
#1326=DIRECTION('center_axis',(0.,1.,0.));
#1327=DIRECTION('ref_axis',(0.,0.,1.));
#1328=DIRECTION('',(0.,0.,-1.));
#1329=DIRECTION('center_axis',(0.,0.,1.));
#1330=DIRECTION('ref_axis',(1.,0.,0.));
#1331=DIRECTION('',(-1.,0.,0.));
#1332=DIRECTION('',(0.,1.,0.));
#1333=DIRECTION('',(1.,0.,0.));
#1334=DIRECTION('center_axis',(0.,0.,-1.));
#1335=DIRECTION('ref_axis',(-1.,0.,0.));
#1336=DIRECTION('',(1.,0.,0.));
#1337=DIRECTION('',(-1.,0.,0.));
#1338=DIRECTION('',(0.,1.,0.));
#1339=DIRECTION('center_axis',(0.,1.,0.));
#1340=DIRECTION('ref_axis',(-0.635959714491967,0.,-0.771722256737031));
#1341=DIRECTION('center_axis',(0.,1.,0.));
#1342=DIRECTION('ref_axis',(-0.635959714491967,0.,-0.771722256737031));
#1343=DIRECTION('center_axis',(0.,-1.,0.));
#1344=DIRECTION('ref_axis',(-0.635959714491967,0.,-0.771722256737031));
#1345=DIRECTION('',(0.,1.,0.));
#1346=DIRECTION('center_axis',(0.,0.,-1.));
#1347=DIRECTION('ref_axis',(-1.,0.,0.));
#1348=DIRECTION('',(1.,0.,0.));
#1349=DIRECTION('',(-1.,0.,0.));
#1350=DIRECTION('',(0.,1.,0.));
#1351=DIRECTION('center_axis',(0.,1.,0.));
#1352=DIRECTION('ref_axis',(-0.635959714491969,0.,-0.77172225673703));
#1353=DIRECTION('center_axis',(0.,1.,0.));
#1354=DIRECTION('ref_axis',(-0.635959714491969,0.,-0.77172225673703));
#1355=DIRECTION('center_axis',(0.,-1.,0.));
#1356=DIRECTION('ref_axis',(-0.635959714491969,0.,-0.77172225673703));
#1357=DIRECTION('',(0.,1.,0.));
#1358=DIRECTION('center_axis',(0.,1.,0.));
#1359=DIRECTION('ref_axis',(0.00568704003146302,0.,0.999983828657084));
#1360=DIRECTION('center_axis',(0.,1.,0.));
#1361=DIRECTION('ref_axis',(0.00568704003146302,0.,0.999983828657084));
#1362=DIRECTION('center_axis',(0.,-1.,0.));
#1363=DIRECTION('ref_axis',(0.00568704003146302,0.,0.999983828657084));
#1364=DIRECTION('',(0.,1.,0.));
#1365=DIRECTION('center_axis',(0.,0.,-1.));
#1366=DIRECTION('ref_axis',(-1.,0.,0.));
#1367=DIRECTION('',(1.,0.,0.));
#1368=DIRECTION('',(-1.,0.,0.));
#1369=DIRECTION('',(0.,1.,0.));
#1370=DIRECTION('center_axis',(0.,1.,0.));
#1371=DIRECTION('ref_axis',(-0.635959714491976,0.,-0.771722256737023));
#1372=DIRECTION('center_axis',(0.,1.,0.));
#1373=DIRECTION('ref_axis',(-0.635959714491976,0.,-0.771722256737023));
#1374=DIRECTION('center_axis',(0.,-1.,0.));
#1375=DIRECTION('ref_axis',(-0.635959714491976,0.,-0.771722256737023));
#1376=DIRECTION('',(0.,1.,0.));
#1377=DIRECTION('center_axis',(0.,0.,-1.));
#1378=DIRECTION('ref_axis',(-1.,0.,0.));
#1379=DIRECTION('',(1.,0.,0.));
#1380=DIRECTION('',(-1.,0.,0.));
#1381=DIRECTION('',(0.,1.,0.));
#1382=DIRECTION('center_axis',(0.,1.,0.));
#1383=DIRECTION('ref_axis',(-0.635959714491998,0.,-0.771722256737005));
#1384=DIRECTION('center_axis',(0.,1.,0.));
#1385=DIRECTION('ref_axis',(-0.635959714491998,0.,-0.771722256737005));
#1386=DIRECTION('center_axis',(0.,-1.,0.));
#1387=DIRECTION('ref_axis',(-0.635959714491998,0.,-0.771722256737005));
#1388=DIRECTION('',(0.,1.,0.));
#1389=DIRECTION('center_axis',(0.,0.,-1.));
#1390=DIRECTION('ref_axis',(-1.,0.,0.));
#1391=DIRECTION('',(1.,0.,0.));
#1392=DIRECTION('',(-1.,0.,0.));
#1393=DIRECTION('',(0.,1.,0.));
#1394=DIRECTION('center_axis',(0.,1.,0.));
#1395=DIRECTION('ref_axis',(-0.635959714491976,0.,-0.771722256737023));
#1396=DIRECTION('center_axis',(0.,1.,0.));
#1397=DIRECTION('ref_axis',(-0.635959714491976,0.,-0.771722256737023));
#1398=DIRECTION('center_axis',(0.,-1.,0.));
#1399=DIRECTION('ref_axis',(-0.635959714491976,0.,-0.771722256737023));
#1400=DIRECTION('',(0.,1.,0.));
#1401=DIRECTION('center_axis',(0.,0.,-1.));
#1402=DIRECTION('ref_axis',(-1.,0.,0.));
#1403=DIRECTION('',(1.,0.,0.));
#1404=DIRECTION('',(-1.,0.,0.));
#1405=DIRECTION('',(0.,1.,0.));
#1406=DIRECTION('center_axis',(1.,0.,0.));
#1407=DIRECTION('ref_axis',(0.,0.,-1.));
#1408=DIRECTION('',(0.,0.,1.));
#1409=DIRECTION('',(0.,0.,-1.));
#1410=DIRECTION('center_axis',(0.,1.,0.));
#1411=DIRECTION('ref_axis',(-1.,0.,0.));
#1412=DIRECTION('center_axis',(0.,-1.,0.));
#1413=DIRECTION('ref_axis',(0.,0.,1.));
#1414=DIRECTION('center_axis',(0.,-1.,0.));
#1415=DIRECTION('ref_axis',(0.,0.,1.));
#1416=DIRECTION('',(0.,-1.,0.));
#1417=DIRECTION('center_axis',(0.,-1.,0.));
#1418=DIRECTION('ref_axis',(0.,0.,1.));
#1419=DIRECTION('center_axis',(0.,-1.,0.));
#1420=DIRECTION('ref_axis',(0.,0.,1.));
#1421=DIRECTION('center_axis',(0.,-1.,0.));
#1422=DIRECTION('ref_axis',(0.,0.,1.));
#1423=DIRECTION('center_axis',(0.,-1.,0.));
#1424=DIRECTION('ref_axis',(0.,0.,1.));
#1425=DIRECTION('',(0.,-1.,0.));
#1426=DIRECTION('center_axis',(0.,-1.,0.));
#1427=DIRECTION('ref_axis',(0.,0.,1.));
#1428=DIRECTION('center_axis',(0.,-1.,0.));
#1429=DIRECTION('ref_axis',(0.,0.,1.));
#1430=DIRECTION('center_axis',(0.,-1.,0.));
#1431=DIRECTION('ref_axis',(0.,0.,1.));
#1432=DIRECTION('center_axis',(0.,-1.,0.));
#1433=DIRECTION('ref_axis',(0.,0.,1.));
#1434=DIRECTION('',(0.,-1.,0.));
#1435=DIRECTION('center_axis',(0.,-1.,0.));
#1436=DIRECTION('ref_axis',(0.,0.,1.));
#1437=DIRECTION('center_axis',(0.,-1.,0.));
#1438=DIRECTION('ref_axis',(0.,0.,1.));
#1439=DIRECTION('center_axis',(0.,-1.,0.));
#1440=DIRECTION('ref_axis',(0.,0.,1.));
#1441=DIRECTION('center_axis',(0.,-1.,0.));
#1442=DIRECTION('ref_axis',(0.,0.,1.));
#1443=DIRECTION('',(0.,-1.,0.));
#1444=DIRECTION('center_axis',(0.,-1.,0.));
#1445=DIRECTION('ref_axis',(0.,0.,1.));
#1446=DIRECTION('center_axis',(0.,-1.,0.));
#1447=DIRECTION('ref_axis',(0.,0.,1.));
#1448=DIRECTION('center_axis',(0.,0.,1.));
#1449=DIRECTION('ref_axis',(1.,0.,0.));
#1450=DIRECTION('',(-1.,0.,0.));
#1451=DIRECTION('',(0.,1.,0.));
#1452=DIRECTION('',(1.,0.,0.));
#1453=DIRECTION('',(0.,1.,0.));
#1454=DIRECTION('center_axis',(0.,1.,0.));
#1455=DIRECTION('ref_axis',(1.,0.,0.));
#1456=DIRECTION('center_axis',(0.,-1.,0.));
#1457=DIRECTION('ref_axis',(1.,0.,0.));
#1458=DIRECTION('center_axis',(0.,1.,0.));
#1459=DIRECTION('ref_axis',(1.,0.,0.));
#1460=DIRECTION('',(0.,1.,0.));
#1461=DIRECTION('center_axis',(1.,0.,0.));
#1462=DIRECTION('ref_axis',(0.,0.,-1.));
#1463=DIRECTION('',(0.,0.,1.));
#1464=DIRECTION('',(0.,0.,-1.));
#1465=DIRECTION('',(0.,1.,0.));
#1466=DIRECTION('',(0.,0.,1.));
#1467=DIRECTION('center_axis',(0.,1.,0.));
#1468=DIRECTION('ref_axis',(1.,0.,0.));
#1469=DIRECTION('center_axis',(0.,-1.,0.));
#1470=DIRECTION('ref_axis',(1.,0.,0.));
#1471=DIRECTION('center_axis',(0.,1.,0.));
#1472=DIRECTION('ref_axis',(1.,0.,0.));
#1473=DIRECTION('',(0.,1.,0.));
#1474=DIRECTION('center_axis',(0.,0.,-1.));
#1475=DIRECTION('ref_axis',(-1.,0.,0.));
#1476=DIRECTION('',(1.,0.,0.));
#1477=DIRECTION('',(-1.,0.,0.));
#1478=DIRECTION('',(0.,1.,0.));
#1479=DIRECTION('center_axis',(0.,1.,0.));
#1480=DIRECTION('ref_axis',(1.,0.,0.));
#1481=DIRECTION('center_axis',(0.,-1.,0.));
#1482=DIRECTION('ref_axis',(1.,0.,0.));
#1483=DIRECTION('center_axis',(0.,1.,0.));
#1484=DIRECTION('ref_axis',(1.,0.,0.));
#1485=DIRECTION('',(0.,1.,0.));
#1486=DIRECTION('center_axis',(-1.,0.,0.));
#1487=DIRECTION('ref_axis',(0.,0.,1.));
#1488=DIRECTION('',(0.,0.,-1.));
#1489=DIRECTION('',(0.,0.,1.));
#1490=DIRECTION('',(0.,1.,0.));
#1491=DIRECTION('',(0.,0.,-1.));
#1492=DIRECTION('center_axis',(0.,1.,0.));
#1493=DIRECTION('ref_axis',(-0.707106781186548,0.,0.707106781186547));
#1494=DIRECTION('center_axis',(0.,-1.,0.));
#1495=DIRECTION('ref_axis',(1.,0.,0.));
#1496=DIRECTION('center_axis',(0.,1.,0.));
#1497=DIRECTION('ref_axis',(1.,0.,0.));
#1498=DIRECTION('center_axis',(0.,1.,0.));
#1499=DIRECTION('ref_axis',(1.,0.,0.));
#1500=DIRECTION('',(0.,0.,1.));
#1501=DIRECTION('center_axis',(0.,1.,0.));
#1502=DIRECTION('ref_axis',(1.,0.,0.));
#1503=DIRECTION('',(1.,0.,3.70074341541719E-17));
#1504=DIRECTION('center_axis',(0.,1.,0.));
#1505=DIRECTION('ref_axis',(1.,0.,0.));
#1506=DIRECTION('',(0.,0.,-1.));
#1507=DIRECTION('center_axis',(0.,1.,0.));
#1508=DIRECTION('ref_axis',(1.,0.,0.));
#1509=DIRECTION('',(-1.,0.,-4.44089209850063E-16));
#1510=DIRECTION('center_axis',(0.,1.,0.));
#1511=DIRECTION('ref_axis',(1.,0.,0.));
#1512=DIRECTION('center_axis',(0.,-1.,0.));
#1513=DIRECTION('ref_axis',(1.,0.,0.));
#1514=DIRECTION('',(0.,1.,0.));
#1515=DIRECTION('center_axis',(0.,-1.,0.));
#1516=DIRECTION('ref_axis',(1.,0.,0.));
#1517=DIRECTION('',(0.,1.,0.));
#1518=DIRECTION('center_axis',(-3.70074341541719E-17,0.,1.));
#1519=DIRECTION('ref_axis',(-1.,0.,-3.70074341541719E-17));
#1520=DIRECTION('',(-1.,0.,-3.70074341541719E-17));
#1521=DIRECTION('',(0.,1.,0.));
#1522=DIRECTION('center_axis',(0.,-1.,0.));
#1523=DIRECTION('ref_axis',(1.,0.,0.));
#1524=DIRECTION('center_axis',(0.,-1.,0.));
#1525=DIRECTION('ref_axis',(1.,0.,0.));
#1526=DIRECTION('',(0.,1.,0.));
#1527=DIRECTION('center_axis',(1.,0.,0.));
#1528=DIRECTION('ref_axis',(0.,0.,1.));
#1529=DIRECTION('',(0.,0.,1.));
#1530=DIRECTION('',(0.,1.,0.));
#1531=DIRECTION('center_axis',(0.,-1.,0.));
#1532=DIRECTION('ref_axis',(1.,0.,0.));
#1533=DIRECTION('center_axis',(0.,-1.,0.));
#1534=DIRECTION('ref_axis',(1.,0.,0.));
#1535=DIRECTION('',(0.,1.,0.));
#1536=DIRECTION('center_axis',(4.44089209850063E-16,0.,-1.));
#1537=DIRECTION('ref_axis',(1.,0.,4.44089209850063E-16));
#1538=DIRECTION('',(1.,0.,4.44089209850063E-16));
#1539=DIRECTION('',(0.,1.,0.));
#1540=DIRECTION('center_axis',(0.,-1.,0.));
#1541=DIRECTION('ref_axis',(1.,0.,0.));
#1542=DIRECTION('center_axis',(0.,-1.,0.));
#1543=DIRECTION('ref_axis',(1.,0.,0.));
#1544=DIRECTION('',(0.,1.,0.));
#1545=DIRECTION('center_axis',(-1.,0.,0.));
#1546=DIRECTION('ref_axis',(0.,0.,-1.));
#1547=DIRECTION('',(0.,0.,-1.));
#1548=DIRECTION('center_axis',(0.,1.,0.));
#1549=DIRECTION('ref_axis',(1.,0.,0.));
#1550=DIRECTION('center_axis',(0.,1.,0.));
#1551=DIRECTION('ref_axis',(1.,0.,0.));
#1552=CARTESIAN_POINT('',(0.,0.,0.));
#1553=CARTESIAN_POINT('Origin',(73.0000011175871,-4.,-24.6));
#1554=CARTESIAN_POINT('',(73.0000011175871,-0.999999999999999,3.));
#1555=CARTESIAN_POINT('',(73.0000011175871,-4.,3.));
#1556=CARTESIAN_POINT('',(73.0000011175871,-2.,3.));
#1557=CARTESIAN_POINT('',(73.0000011175871,-0.999999999999999,-24.6));
#1558=CARTESIAN_POINT('',(73.0000011175871,-0.999999999999999,-24.6));
#1559=CARTESIAN_POINT('',(73.0000011175871,-4.,-24.6));
#1560=CARTESIAN_POINT('',(73.0000011175871,-2.,-24.6));
#1561=CARTESIAN_POINT('',(73.0000011175871,-4.,-24.6));
#1562=CARTESIAN_POINT('Origin',(53.0000011175871,-4.,-24.6));
#1563=CARTESIAN_POINT('',(53.0000011175871,-4.,3.));
#1564=CARTESIAN_POINT('',(65.4198050203056,-4.,3.));
#1565=CARTESIAN_POINT('',(53.0000011175871,-4.,-24.6));
#1566=CARTESIAN_POINT('',(50.5801972148685,-4.,-24.6));
#1567=CARTESIAN_POINT('',(53.0000011175871,-4.,-24.6));
#1568=CARTESIAN_POINT('Origin',(53.0000011175871,-0.999999999999999,-24.6));
#1569=CARTESIAN_POINT('',(53.0000011175871,-0.999999999999999,3.));
#1570=CARTESIAN_POINT('',(53.0000011175871,-0.499999999999999,3.));
#1571=CARTESIAN_POINT('',(53.0000011175871,-0.999999999999999,-24.6));
#1572=CARTESIAN_POINT('',(53.0000011175871,-0.499999999999999,-24.6));
#1573=CARTESIAN_POINT('',(53.0000011175871,-0.999999999999999,-24.6));
#1574=CARTESIAN_POINT('Origin',(73.0000011175871,-0.999999999999999,-24.6));
#1575=CARTESIAN_POINT('',(75.4198050203056,-0.999999999999999,3.));
#1576=CARTESIAN_POINT('',(60.5801972148685,-0.999999999999999,-24.6));
#1577=CARTESIAN_POINT('Origin',(76.5000011175871,1.69438114541707,-10.754336636254));
#1578=CARTESIAN_POINT('',(76.5000011175871,0.,-6.57071941593197));
#1579=CARTESIAN_POINT('',(76.5000011175871,0.,-14.9379538565761));
#1580=CARTESIAN_POINT('',(76.5000011175871,0.,-15.1414047854185));
#1581=CARTESIAN_POINT('',(76.5000011175871,-0.310618854582926,-7.53433663625405));
#1582=CARTESIAN_POINT('Origin',(76.5000011175871,1.33938114541707,-7.53433663625405));
#1583=CARTESIAN_POINT('',(76.5000011175871,-0.310618854582927,-13.974336636254));
#1584=CARTESIAN_POINT('',(76.5000011175871,-0.310618854582928,-13.974336636254));
#1585=CARTESIAN_POINT('Origin',(76.5000011175871,1.33938114541707,-13.974336636254));
#1586=CARTESIAN_POINT('Origin',(78.0000011175871,1.33938114541707,-5.88433663625405));
#1587=CARTESIAN_POINT('',(78.0000011175871,1.33938114541707,-5.88433663625405));
#1588=CARTESIAN_POINT('',(78.0000011175871,2.04938114541707,-5.88433663625405));
#1589=CARTESIAN_POINT('',(78.0000011175871,0.669690572708522,-5.88433663625405));
#1590=CARTESIAN_POINT('',(76.5000011175871,1.33938114541707,-5.88433663625405));
#1591=CARTESIAN_POINT('',(78.0000011175871,1.33938114541707,-5.88433663625405));
#1592=CARTESIAN_POINT('',(76.5000011175871,2.04938114541707,-5.88433663625405));
#1593=CARTESIAN_POINT('',(76.5000011175871,0.669690572708526,-5.88433663625405));
#1594=CARTESIAN_POINT('',(78.0000011175871,2.04938114541707,-5.88433663625405));
#1595=CARTESIAN_POINT('Origin',(78.0000011175871,1.33938114541707,-7.53433663625405));
#1596=CARTESIAN_POINT('',(78.0000011175871,-0.310618854582926,-7.53433663625405));
#1597=CARTESIAN_POINT('Origin',(78.0000011175871,1.33938114541707,-7.53433663625405));
#1598=CARTESIAN_POINT('',(78.0000011175871,-0.310618854582926,-7.53433663625405));
#1599=CARTESIAN_POINT('Origin',(76.5000011175871,1.33938114541707,-7.53433663625405));
#1600=CARTESIAN_POINT('Origin',(78.0000011175871,-0.310618854582928,-13.974336636254));
#1601=CARTESIAN_POINT('',(78.0000011175871,-0.310618854582928,-13.974336636254));
#1602=CARTESIAN_POINT('',(78.0000011175871,-0.310618854582929,-19.2069722208456));
#1603=CARTESIAN_POINT('',(78.0000011175871,-0.310618854582928,-13.974336636254));
#1604=CARTESIAN_POINT('Origin',(78.0000011175871,1.33938114541707,-13.974336636254));
#1605=CARTESIAN_POINT('',(78.0000011175871,1.33938114541707,-15.624336636254));
#1606=CARTESIAN_POINT('Origin',(78.0000011175871,1.33938114541707,-13.974336636254));
#1607=CARTESIAN_POINT('',(76.5000011175871,1.33938114541707,-15.624336636254));
#1608=CARTESIAN_POINT('',(78.0000011175871,1.33938114541707,-15.624336636254));
#1609=CARTESIAN_POINT('Origin',(76.5000011175871,1.33938114541707,-13.974336636254));
#1610=CARTESIAN_POINT('Origin',(78.0000011175871,2.04938114541707,-15.624336636254));
#1611=CARTESIAN_POINT('',(78.0000011175871,2.04938114541707,-15.624336636254));
#1612=CARTESIAN_POINT('',(78.0000011175871,1.02469057270854,-15.624336636254));
#1613=CARTESIAN_POINT('',(76.5000011175871,2.04938114541707,-15.624336636254));
#1614=CARTESIAN_POINT('',(78.0000011175871,2.04938114541707,-15.624336636254));
#1615=CARTESIAN_POINT('',(76.5000011175871,1.02469057270854,-15.624336636254));
#1616=CARTESIAN_POINT('Origin',(78.0000011175871,2.04938114541707,-13.974336636254));
#1617=CARTESIAN_POINT('',(78.0000011175871,3.69938114541707,-13.974336636254));
#1618=CARTESIAN_POINT('Origin',(78.0000011175871,2.04938114541707,-13.974336636254));
#1619=CARTESIAN_POINT('',(76.5000011175871,3.69938114541707,-13.974336636254));
#1620=CARTESIAN_POINT('',(78.0000011175871,3.69938114541707,-13.974336636254));
#1621=CARTESIAN_POINT('Origin',(76.5000011175871,2.04938114541707,-13.974336636254));
#1622=CARTESIAN_POINT('Origin',(78.0000011175871,3.69938114541707,-7.53433663625405));
#1623=CARTESIAN_POINT('',(78.0000011175871,3.69938114541707,-7.53433663625405));
#1624=CARTESIAN_POINT('',(78.0000011175871,3.69938114541707,-15.9869722208456));
#1625=CARTESIAN_POINT('',(76.5000011175871,3.69938114541707,-7.53433663625405));
#1626=CARTESIAN_POINT('',(78.0000011175871,3.69938114541707,-7.53433663625405));
#1627=CARTESIAN_POINT('',(76.5000011175871,3.69938114541707,-13.5085731035455));
#1628=CARTESIAN_POINT('Origin',(78.0000011175871,2.04938114541707,-7.53433663625405));
#1629=CARTESIAN_POINT('Origin',(78.0000011175871,2.04938114541707,-7.53433663625405));
#1630=CARTESIAN_POINT('Origin',(76.5000011175871,2.04938114541707,-7.53433663625405));
#1631=CARTESIAN_POINT('Origin',(54.5659987129913,0.,-19.024659874265));
#1632=CARTESIAN_POINT('',(49.5000011175871,0.,-19.024659874265));
#1633=CARTESIAN_POINT('',(54.5659987129913,0.,-19.024659874265));
#1634=CARTESIAN_POINT('',(58.7829999152892,0.,-19.024659874265));
#1635=CARTESIAN_POINT('',(49.5000011175871,4.4996904971,-19.024659874265));
#1636=CARTESIAN_POINT('',(49.5000011175871,0.,-19.024659874265));
#1637=CARTESIAN_POINT('',(54.5659987129913,4.4996904971,-19.024659874265));
#1638=CARTESIAN_POINT('',(54.5659987129913,4.4996904971,-19.024659874265));
#1639=CARTESIAN_POINT('',(54.5659987129913,0.,-19.024659874265));
#1640=CARTESIAN_POINT('Origin',(54.5659987129913,0.,-2.8117076648551));
#1641=CARTESIAN_POINT('',(54.5659987129913,0.,-17.675215164267));
#1642=CARTESIAN_POINT('',(54.5659987129913,1.299,-17.675215164267));
#1643=CARTESIAN_POINT('',(54.5659987129913,0.,-17.675215164267));
#1644=CARTESIAN_POINT('',(54.5659987129913,0.,-6.80585383242756));
#1645=CARTESIAN_POINT('',(54.5659987129913,4.4996904971,-2.81170766485511));
#1646=CARTESIAN_POINT('',(54.5659987129913,4.4996904971,-2.8117076648551));
#1647=CARTESIAN_POINT('',(54.5659987129913,0.,-2.8117076648551));
#1648=CARTESIAN_POINT('',(54.5659987129913,0.,-2.8117076648551));
#1649=CARTESIAN_POINT('',(54.5659987129913,0.,-3.76607117199868));
#1650=CARTESIAN_POINT('',(54.5659987129913,0.,-6.80585383242756));
#1651=CARTESIAN_POINT('',(54.5659987129913,1.299,-3.76607117199868));
#1652=CARTESIAN_POINT('',(54.5659987129913,0.,-3.76607117199868));
#1653=CARTESIAN_POINT('',(54.5659987129913,1.299,-2.8117076648551));
#1654=CARTESIAN_POINT('Origin',(49.5000011175871,0.,-2.8117076648551));
#1655=CARTESIAN_POINT('',(49.5000011175871,0.,-2.81170766485511));
#1656=CARTESIAN_POINT('',(56.2500011175871,0.,-2.8117076648551));
#1657=CARTESIAN_POINT('',(49.5000011175871,4.4996904971,-2.81170766485511));
#1658=CARTESIAN_POINT('',(49.5000011175871,4.4996904971,-2.8117076648551));
#1659=CARTESIAN_POINT('',(49.5000011175871,0.,-2.8117076648551));
#1660=CARTESIAN_POINT('Origin',(52.0329999152892,4.4996904971,-10.9181837695601));
#1661=CARTESIAN_POINT('',(49.5000011175871,4.4996904971,-6.51768709936152));
#1662=CARTESIAN_POINT('Origin',(54.5659987129913,0.,-3.76607117199868));
#1663=CARTESIAN_POINT('',(69.7604052596105,0.,-3.76607117199868));
#1664=CARTESIAN_POINT('',(58.7829999152892,0.,-3.76607117199868));
#1665=CARTESIAN_POINT('',(69.7604052596105,1.299,-3.76607117199868));
#1666=CARTESIAN_POINT('',(69.7604052596105,0.,-3.76607117199868));
#1667=CARTESIAN_POINT('',(54.5659987129913,1.299,-3.76607117199868));
#1668=CARTESIAN_POINT('Origin',(57.4081159666082,0.,-17.675215164267));
#1669=CARTESIAN_POINT('',(57.4081159666082,0.,-17.675215164267));
#1670=CARTESIAN_POINT('',(60.2040585420977,0.,-17.675215164267));
#1671=CARTESIAN_POINT('',(57.4081159666082,1.299,-17.675215164267));
#1672=CARTESIAN_POINT('',(69.7604052596105,1.299,-17.675215164267));
#1673=CARTESIAN_POINT('',(57.4081159666082,0.,-17.675215164267));
#1674=CARTESIAN_POINT('Origin',(57.4245987129913,0.,-18.3698420859791));
#1675=CARTESIAN_POINT('',(57.4410814593744,0.,-17.675215164267));
#1676=CARTESIAN_POINT('Origin',(57.4245987129913,0.,-18.3698420859791));
#1677=CARTESIAN_POINT('',(57.4410814593744,1.299,-17.675215164267));
#1678=CARTESIAN_POINT('Origin',(57.4245987129913,1.299,-18.3698420859791));
#1679=CARTESIAN_POINT('',(57.4410814593744,0.,-17.675215164267));
#1680=CARTESIAN_POINT('Origin',(59.9606354901809,0.,-17.675215164267));
#1681=CARTESIAN_POINT('',(59.9606354901809,0.,-17.675215164267));
#1682=CARTESIAN_POINT('',(61.480318303884,0.,-17.675215164267));
#1683=CARTESIAN_POINT('',(59.9606354901809,1.299,-17.675215164267));
#1684=CARTESIAN_POINT('',(69.7604052596105,1.299,-17.675215164267));
#1685=CARTESIAN_POINT('',(59.9606354901809,0.,-17.675215164267));
#1686=CARTESIAN_POINT('Origin',(59.9771182365638,0.,-18.3698420859791));
#1687=CARTESIAN_POINT('',(59.9731667534766,0.,-17.6750308691173));
#1688=CARTESIAN_POINT('Origin',(59.9771182365638,0.,-18.3698420859791));
#1689=CARTESIAN_POINT('',(59.9731667534766,1.299,-17.6750308691173));
#1690=CARTESIAN_POINT('Origin',(59.9771182365638,1.299,-18.3698420859791));
#1691=CARTESIAN_POINT('',(59.9731667534766,0.,-17.6750308691173));
#1692=CARTESIAN_POINT('Origin',(59.9692152703712,0.,-18.3698420859791));
#1693=CARTESIAN_POINT('',(59.9856980167585,0.,-17.675215164267));
#1694=CARTESIAN_POINT('Origin',(59.9692152703712,0.,-18.3698420859791));
#1695=CARTESIAN_POINT('',(59.9856980167585,1.299,-17.675215164267));
#1696=CARTESIAN_POINT('Origin',(59.9692152703712,1.299,-18.3698420859791));
#1697=CARTESIAN_POINT('',(59.9856980167585,0.,-17.675215164267));
#1698=CARTESIAN_POINT('Origin',(62.497349081368,0.,-17.675215164267));
#1699=CARTESIAN_POINT('',(62.497349081368,0.,-17.675215164267));
#1700=CARTESIAN_POINT('',(62.7486750994775,0.,-17.675215164267));
#1701=CARTESIAN_POINT('',(62.497349081368,1.299,-17.675215164267));
#1702=CARTESIAN_POINT('',(69.7604052596105,1.299,-17.675215164267));
#1703=CARTESIAN_POINT('',(62.497349081368,0.,-17.675215164267));
#1704=CARTESIAN_POINT('Origin',(62.5138318277511,0.,-18.3698420859791));
#1705=CARTESIAN_POINT('',(62.5303145741342,0.,-17.675215164267));
#1706=CARTESIAN_POINT('Origin',(62.5138318277511,0.,-18.3698420859791));
#1707=CARTESIAN_POINT('',(62.5303145741342,1.299,-17.675215164267));
#1708=CARTESIAN_POINT('Origin',(62.5138318277511,1.299,-18.3698420859791));
#1709=CARTESIAN_POINT('',(62.5303145741342,0.,-17.675215164267));
#1710=CARTESIAN_POINT('Origin',(65.0419656387482,0.,-17.675215164267));
#1711=CARTESIAN_POINT('',(65.0419656387482,0.,-17.675215164267));
#1712=CARTESIAN_POINT('',(64.0209833781677,0.,-17.675215164267));
#1713=CARTESIAN_POINT('',(65.0419656387482,1.299,-17.675215164267));
#1714=CARTESIAN_POINT('',(69.7604052596105,1.299,-17.675215164267));
#1715=CARTESIAN_POINT('',(65.0419656387482,0.,-17.675215164267));
#1716=CARTESIAN_POINT('Origin',(65.0584483851309,0.,-18.3698420859791));
#1717=CARTESIAN_POINT('',(65.0749311315137,0.,-17.675215164267));
#1718=CARTESIAN_POINT('Origin',(65.0584483851309,0.,-18.3698420859791));
#1719=CARTESIAN_POINT('',(65.0749311315137,1.299,-17.675215164267));
#1720=CARTESIAN_POINT('Origin',(65.0584483851309,1.299,-18.3698420859791));
#1721=CARTESIAN_POINT('',(65.0749311315137,0.,-17.675215164267));
#1722=CARTESIAN_POINT('Origin',(67.5865821961277,0.,-17.675215164267));
#1723=CARTESIAN_POINT('',(67.5865821961277,0.,-17.675215164267));
#1724=CARTESIAN_POINT('',(65.2932916568574,0.,-17.675215164267));
#1725=CARTESIAN_POINT('',(67.5865821961277,1.299,-17.675215164267));
#1726=CARTESIAN_POINT('',(69.7604052596105,1.299,-17.675215164267));
#1727=CARTESIAN_POINT('',(67.5865821961277,0.,-17.675215164267));
#1728=CARTESIAN_POINT('Origin',(67.6030649425108,0.,-18.3698420859791));
#1729=CARTESIAN_POINT('',(67.6195476888939,0.,-17.675215164267));
#1730=CARTESIAN_POINT('Origin',(67.6030649425108,0.,-18.3698420859791));
#1731=CARTESIAN_POINT('',(67.6195476888939,1.299,-17.675215164267));
#1732=CARTESIAN_POINT('Origin',(67.6030649425108,1.299,-18.3698420859791));
#1733=CARTESIAN_POINT('',(67.6195476888939,0.,-17.675215164267));
#1734=CARTESIAN_POINT('Origin',(69.7604052596105,0.,-17.675215164267));
#1735=CARTESIAN_POINT('',(69.7604052596105,0.,-17.675215164267));
#1736=CARTESIAN_POINT('',(66.3802031885988,0.,-17.675215164267));
#1737=CARTESIAN_POINT('',(69.7604052596105,1.299,-17.675215164267));
#1738=CARTESIAN_POINT('',(69.7604052596105,1.299,-17.675215164267));
#1739=CARTESIAN_POINT('',(69.7604052596105,0.,-17.675215164267));
#1740=CARTESIAN_POINT('Origin',(69.7604052596105,0.,-3.76607117199868));
#1741=CARTESIAN_POINT('',(69.7604052596105,0.,-7.28303558599934));
#1742=CARTESIAN_POINT('',(69.7604052596105,1.299,-3.76607117199868));
#1743=CARTESIAN_POINT('Origin',(62.1632019863009,1.299,-10.7206431681328));
#1744=CARTESIAN_POINT('Origin',(50.2000011175871,11.,-22.4));
#1745=CARTESIAN_POINT('',(50.2000011175871,13.,-24.));
#1746=CARTESIAN_POINT('Origin',(50.2000011175871,13.,-22.4));
#1747=CARTESIAN_POINT('',(50.2000011175871,9.,-24.));
#1748=CARTESIAN_POINT('',(50.2000011175871,11.,-24.));
#1749=CARTESIAN_POINT('Origin',(50.2000011175871,9.,-22.4));
#1750=CARTESIAN_POINT('Origin',(50.2000011175871,9.,-22.4));
#1751=CARTESIAN_POINT('Origin',(75.8000011175871,11.,0.8));
#1752=CARTESIAN_POINT('',(75.8000011175871,13.,-0.8));
#1753=CARTESIAN_POINT('Origin',(75.8000011175871,13.,0.8));
#1754=CARTESIAN_POINT('',(75.8000011175871,9.,-0.8));
#1755=CARTESIAN_POINT('',(75.8000011175871,11.,-0.8));
#1756=CARTESIAN_POINT('Origin',(75.8000011175871,9.,0.8));
#1757=CARTESIAN_POINT('Origin',(75.8000011175871,9.,0.8));
#1758=CARTESIAN_POINT('Origin',(50.2000011175871,11.,0.8));
#1759=CARTESIAN_POINT('',(50.2000011175871,13.,-0.8));
#1760=CARTESIAN_POINT('Origin',(50.2000011175871,13.,0.8));
#1761=CARTESIAN_POINT('',(50.2000011175871,9.,-0.8));
#1762=CARTESIAN_POINT('',(50.2000011175871,11.,-0.8));
#1763=CARTESIAN_POINT('Origin',(50.2000011175871,9.,0.8));
#1764=CARTESIAN_POINT('Origin',(50.2000011175871,9.,0.8));
#1765=CARTESIAN_POINT('Origin',(75.8000011175871,11.,-22.4));
#1766=CARTESIAN_POINT('',(75.8000011175871,13.,-24.));
#1767=CARTESIAN_POINT('Origin',(75.8000011175871,13.,-22.4));
#1768=CARTESIAN_POINT('',(75.8000011175871,9.,-24.));
#1769=CARTESIAN_POINT('',(75.8000011175871,11.,-24.));
#1770=CARTESIAN_POINT('Origin',(75.8000011175871,9.,-22.4));
#1771=CARTESIAN_POINT('Origin',(75.8000011175871,9.,-22.4));
#1772=CARTESIAN_POINT('Origin',(53.11719154675,0.,-23.1));
#1773=CARTESIAN_POINT('',(72.8828106884241,0.,-23.1));
#1774=CARTESIAN_POINT('',(53.11719154675,0.,-23.1));
#1775=CARTESIAN_POINT('',(58.0585963321686,0.,-23.1));
#1776=CARTESIAN_POINT('',(72.8828106884241,13.,-23.1));
#1777=CARTESIAN_POINT('',(72.8828106884241,0.,-23.1));
#1778=CARTESIAN_POINT('',(53.11719154675,13.,-23.1));
#1779=CARTESIAN_POINT('',(76.5000011175871,13.,-23.1));
#1780=CARTESIAN_POINT('',(53.11719154675,0.,-23.1));
#1781=CARTESIAN_POINT('Origin',(50.2000011175871,0.,-22.4));
#1782=CARTESIAN_POINT('',(49.5000011175871,0.,-19.482809570837));
#1783=CARTESIAN_POINT('Origin',(50.2000011175871,0.,-22.4));
#1784=CARTESIAN_POINT('',(49.5000011175871,13.,-19.482809570837));
#1785=CARTESIAN_POINT('Origin',(50.2000011175871,13.,-22.4));
#1786=CARTESIAN_POINT('',(49.5000011175871,0.,-19.482809570837));
#1787=CARTESIAN_POINT('Origin',(49.5000011175871,0.,-2.11719042916296));
#1788=CARTESIAN_POINT('',(49.5000011175871,0.,-6.45859521458148));
#1789=CARTESIAN_POINT('',(49.5000011175871,13.,-2.11719042916296));
#1790=CARTESIAN_POINT('',(49.5000011175871,13.,-23.1));
#1791=CARTESIAN_POINT('',(49.5000011175871,0.,-2.11719042916296));
#1792=CARTESIAN_POINT('',(49.5000011175871,0.,-2.11719042916296));
#1793=CARTESIAN_POINT('',(49.5000011175871,0.,-6.45859521458148));
#1794=CARTESIAN_POINT('Origin',(50.2000011175871,0.,0.8));
#1795=CARTESIAN_POINT('',(53.2000011175871,0.,0.8));
#1796=CARTESIAN_POINT('Origin',(50.2000011175871,0.,0.8));
#1797=CARTESIAN_POINT('',(53.2000011175871,13.,0.800000000000001));
#1798=CARTESIAN_POINT('Origin',(50.2000011175871,13.,0.8));
#1799=CARTESIAN_POINT('',(53.2000011175871,0.,0.8));
#1800=CARTESIAN_POINT('Origin',(72.8000011175871,0.,0.8));
#1801=CARTESIAN_POINT('',(72.8000011175871,0.,0.8));
#1802=CARTESIAN_POINT('',(67.9000011175871,0.,0.800000000000001));
#1803=CARTESIAN_POINT('',(72.8000011175871,13.,0.800000000000001));
#1804=CARTESIAN_POINT('',(50.2000011175871,13.,0.8));
#1805=CARTESIAN_POINT('',(72.8000011175871,0.,0.8));
#1806=CARTESIAN_POINT('Origin',(75.8000011175871,0.,0.8));
#1807=CARTESIAN_POINT('',(76.5000011175871,0.,-2.11719042916296));
#1808=CARTESIAN_POINT('Origin',(75.8000011175871,0.,0.8));
#1809=CARTESIAN_POINT('',(76.5000011175871,13.,-2.11719042916296));
#1810=CARTESIAN_POINT('Origin',(75.8000011175871,13.,0.8));
#1811=CARTESIAN_POINT('',(76.5000011175871,0.,-2.11719042916296));
#1812=CARTESIAN_POINT('Origin',(76.5000011175871,0.,-19.482809570837));
#1813=CARTESIAN_POINT('',(76.5000011175871,0.,-15.1414047854185));
#1814=CARTESIAN_POINT('',(76.5000011175871,13.,-19.482809570837));
#1815=CARTESIAN_POINT('',(76.5000011175871,13.,1.5));
#1816=CARTESIAN_POINT('',(76.5000011175871,0.,-19.482809570837));
#1817=CARTESIAN_POINT('',(76.5000011175871,0.,-19.482809570837));
#1818=CARTESIAN_POINT('',(76.5000011175871,0.,-15.1414047854185));
#1819=CARTESIAN_POINT('Origin',(75.8000011175871,0.,-22.4));
#1820=CARTESIAN_POINT('Origin',(75.8000011175871,0.,-22.4));
#1821=CARTESIAN_POINT('Origin',(75.8000011175871,13.,-22.4));
#1822=CARTESIAN_POINT('Origin',(75.8000011175871,13.,-22.4));
#1823=CARTESIAN_POINT('',(48.0000011175871,13.,-24.4396078054371));
#1824=CARTESIAN_POINT('',(48.0000011175871,13.,2.83960780543711));
#1825=CARTESIAN_POINT('',(48.0000011175871,13.,-24.6));
#1826=CARTESIAN_POINT('',(48.16039331215,13.,3.));
#1827=CARTESIAN_POINT('Origin',(50.2000011175871,13.,0.8));
#1828=CARTESIAN_POINT('',(77.8396089230242,13.,3.));
#1829=CARTESIAN_POINT('',(48.0000011175871,13.,3.));
#1830=CARTESIAN_POINT('',(78.0000011175871,13.,2.83960780543711));
#1831=CARTESIAN_POINT('Origin',(75.8000011175871,13.,0.8));
#1832=CARTESIAN_POINT('',(78.0000011175871,13.,-24.4396078054371));
#1833=CARTESIAN_POINT('',(78.0000011175871,13.,3.));
#1834=CARTESIAN_POINT('',(77.8396089230242,13.,-24.6));
#1835=CARTESIAN_POINT('Origin',(75.8000011175871,13.,-22.4));
#1836=CARTESIAN_POINT('',(48.16039331215,13.,-24.6));
#1837=CARTESIAN_POINT('',(78.0000011175871,13.,-24.6));
#1838=CARTESIAN_POINT('Origin',(50.2000011175871,13.,-22.4));
#1839=CARTESIAN_POINT('Origin',(50.2000011175871,0.,0.8));
#1840=CARTESIAN_POINT('',(48.0000011175871,-5.5,2.83960780543711));
#1841=CARTESIAN_POINT('',(48.0000011175871,0.,2.83960780543711));
#1842=CARTESIAN_POINT('',(48.16039331215,-5.5,3.));
#1843=CARTESIAN_POINT('Origin',(50.2000011175871,-5.5,0.8));
#1844=CARTESIAN_POINT('',(48.16039331215,0.,3.));
#1845=CARTESIAN_POINT('Origin',(77.8396089230242,0.,3.));
#1846=CARTESIAN_POINT('',(77.8396089230242,-5.5,3.));
#1847=CARTESIAN_POINT('',(48.0000011175871,-5.5,3.));
#1848=CARTESIAN_POINT('',(77.8396089230242,0.,3.));
#1849=CARTESIAN_POINT('Origin',(75.8000011175871,0.,0.8));
#1850=CARTESIAN_POINT('',(78.0000011175871,-5.5,2.83960780543711));
#1851=CARTESIAN_POINT('Origin',(75.8000011175871,-5.5,0.8));
#1852=CARTESIAN_POINT('',(78.0000011175871,0.,2.83960780543711));
#1853=CARTESIAN_POINT('Origin',(78.0000011175871,0.,-24.4396078054371));
#1854=CARTESIAN_POINT('',(78.0000011175871,-5.5,-24.4396078054371));
#1855=CARTESIAN_POINT('',(78.0000011175871,-5.5,3.));
#1856=CARTESIAN_POINT('',(78.0000011175871,0.,-24.4396078054371));
#1857=CARTESIAN_POINT('Origin',(75.8000011175871,0.,-22.4));
#1858=CARTESIAN_POINT('',(77.8396089230242,-5.5,-24.6));
#1859=CARTESIAN_POINT('Origin',(75.8000011175871,-5.5,-22.4));
#1860=CARTESIAN_POINT('',(77.8396089230242,0.,-24.6));
#1861=CARTESIAN_POINT('Origin',(48.16039331215,0.,-24.6));
#1862=CARTESIAN_POINT('',(48.16039331215,-5.5,-24.6));
#1863=CARTESIAN_POINT('',(78.0000011175871,-5.5,-24.6));
#1864=CARTESIAN_POINT('',(48.16039331215,0.,-24.6));
#1865=CARTESIAN_POINT('Origin',(50.2000011175871,0.,-22.4));
#1866=CARTESIAN_POINT('',(48.0000011175871,-5.5,-24.4396078054371));
#1867=CARTESIAN_POINT('Origin',(50.2000011175871,-5.5,-22.4));
#1868=CARTESIAN_POINT('',(48.0000011175871,0.,-24.4396078054371));
#1869=CARTESIAN_POINT('Origin',(48.0000011175871,0.,2.83960780543711));
#1870=CARTESIAN_POINT('',(48.0000011175871,-5.5,-24.6));
#1871=CARTESIAN_POINT('Origin',(63.0000011175871,0.,-10.8));
#1872=CARTESIAN_POINT('Origin',(63.0000011175871,-5.5,-10.8));
#1873=UNCERTAINTY_MEASURE_WITH_UNIT(LENGTH_MEASURE(0.01),#1877,
'DISTANCE_ACCURACY_VALUE',
'Maximum model space distance between geometric entities at asserted c
onnectivities');
#1874=UNCERTAINTY_MEASURE_WITH_UNIT(LENGTH_MEASURE(0.01),#1877,
'DISTANCE_ACCURACY_VALUE',
'Maximum model space distance between geometric entities at asserted c
onnectivities');
#1875=(
GEOMETRIC_REPRESENTATION_CONTEXT(3)
GLOBAL_UNCERTAINTY_ASSIGNED_CONTEXT((#1873))
GLOBAL_UNIT_ASSIGNED_CONTEXT((#1877,#1879,#1880))
REPRESENTATION_CONTEXT('','3D')
);
#1876=(
GEOMETRIC_REPRESENTATION_CONTEXT(3)
GLOBAL_UNCERTAINTY_ASSIGNED_CONTEXT((#1874))
GLOBAL_UNIT_ASSIGNED_CONTEXT((#1877,#1879,#1880))
REPRESENTATION_CONTEXT('','3D')
);
#1877=(
LENGTH_UNIT()
NAMED_UNIT(*)
SI_UNIT(.MILLI.,.METRE.)
);
#1878=(
LENGTH_UNIT()
NAMED_UNIT(*)
SI_UNIT($,.METRE.)
);
#1879=(
NAMED_UNIT(*)
PLANE_ANGLE_UNIT()
SI_UNIT($,.RADIAN.)
);
#1880=(
NAMED_UNIT(*)
SI_UNIT($,.STERADIAN.)
SOLID_ANGLE_UNIT()
);
#1881=SHAPE_DEFINITION_REPRESENTATION(#1882,#1883);
#1882=PRODUCT_DEFINITION_SHAPE('',$,#1885);
#1883=SHAPE_REPRESENTATION('',(#1123),#1875);
#1884=PRODUCT_DEFINITION_CONTEXT('part definition',#1889,'design');
#1885=PRODUCT_DEFINITION('Enclosure Unit 2','Enclosure Unit 2 v12',#1886,
#1884);
#1886=PRODUCT_DEFINITION_FORMATION('',$,#1891);
#1887=PRODUCT_RELATED_PRODUCT_CATEGORY('Enclosure Unit 2 v12',
'Enclosure Unit 2 v12',(#1891));
#1888=APPLICATION_PROTOCOL_DEFINITION('international standard',
'automotive_design',2009,#1889);
#1889=APPLICATION_CONTEXT(
'Core Data for Automotive Mechanical Design Process');
#1890=PRODUCT_CONTEXT('part definition',#1889,'mechanical');
#1891=PRODUCT('Enclosure Unit 2','Enclosure Unit 2 v12',$,(#1890));
#1892=PRESENTATION_STYLE_ASSIGNMENT((#1894));
#1893=PRESENTATION_STYLE_ASSIGNMENT((#1895));
#1894=SURFACE_STYLE_USAGE(.BOTH.,#1896);
#1895=SURFACE_STYLE_USAGE(.BOTH.,#1897);
#1896=SURFACE_SIDE_STYLE('',(#1898));
#1897=SURFACE_SIDE_STYLE('',(#1899));
#1898=SURFACE_STYLE_FILL_AREA(#1900);
#1899=SURFACE_STYLE_FILL_AREA(#1901);
#1900=FILL_AREA_STYLE('Steel - Satin',(#1902));
#1901=FILL_AREA_STYLE('ABS (White)',(#1903));
#1902=FILL_AREA_STYLE_COLOUR('Steel - Satin',#1904);
#1903=FILL_AREA_STYLE_COLOUR('ABS (White)',#1905);
#1904=COLOUR_RGB('Steel - Satin',0.627450980392157,0.627450980392157,0.627450980392157);
#1905=COLOUR_RGB('ABS (White)',0.298039215686275,0.305882352941176,0.337254901960784);
ENDSEC;
END-ISO-10303-21;
